<svg width="16" height="16" fill="none" xmlns="http://www.w3.org/2000/svg"><g clip-path="url(#clip0)"><path d="M5.507 13.7C3.28 12.507.677 9.716.364 7.458c-.157-.878.126-1.756.784-2.352.502-.502 1.16-.815 1.85-.815 1.505 0 2.603 1.505 2.634 1.568 0 0 1.13-1.568 2.634-1.568.69.031 1.38.313 1.85.815.66.596.941 1.474.784 2.352-.313 2.258-2.916 5.049-5.142 6.24l-.157.094-.094-.094z" fill="#F8305F"/><path d="M10.18 11.63a6.657 6.657 0 0 1-.785-.502l-.282-.188.22-.251c.909-1.129 1.473-2.258 1.599-3.199.157-.878-.126-1.756-.784-2.351-.502-.502-1.16-.816-1.85-.816-1.098 0-1.976.784-2.415 1.286l-.22.25-.25-.25-.314-.314-.094-.125v-.125a2.442 2.442 0 0 1 .816-2.007c.501-.502 1.16-.816 1.881-.816h.22c1.41.126 2.414 1.537 2.414 1.568 0 .032 1.035-1.41 2.415-1.536h.22c.72.031 1.379.313 1.88.815.66.596.941 1.474.785 2.352-.314 2.258-2.917 5.048-5.143 6.24l-.157.094-.157-.125z" fill="#5DB1EE"/><path d="M12.72 1.909c-1.098.125-1.976.91-2.384 1.38-.407-.44-1.286-1.255-2.383-1.38-.878-.063-1.725.25-2.32.91-.502.438-.816 1.065-.91 1.755-.502-.345-1.097-.564-1.725-.564-.784.031-1.536.345-2.07.91-.72.658-1.065 1.661-.877 2.602.345 2.414 3.136 5.393 5.456 6.554a.435.435 0 0 0 .282 0c1.286-.69 2.415-1.6 3.387-2.697.345.22.69.439 1.035.627a.436.436 0 0 0 .282 0c2.32-1.16 5.111-4.14 5.456-6.554a2.795 2.795 0 0 0-.878-2.603 2.849 2.849 0 0 0-2.352-.94zM5.631 13.417C3.5 12.288.96 9.591.647 7.427c-.157-.752.125-1.536.69-2.069a2.555 2.555 0 0 1 1.661-.752c1.349 0 2.384 1.41 2.384 1.442a.285.285 0 0 0 .25.125c.095 0 .189-.062.251-.125 0 0 1.035-1.442 2.415-1.442a2.413 2.413 0 0 1 1.662.752c.564.533.815 1.317.69 2.07-.345 2.163-2.854 4.86-5.018 5.99zm9.659-8.09c-.314 2.163-2.822 4.86-4.986 6.02-.251-.156-.533-.313-.784-.47.878-1.097 1.536-2.289 1.662-3.355a2.795 2.795 0 0 0-.878-2.603 2.99 2.99 0 0 0-2.038-.91c-1.255 0-2.196.91-2.635 1.38-.094-.094-.188-.219-.313-.313-.063-.659.22-1.317.721-1.787a2.284 2.284 0 0 1 1.85-.722c1.255.126 2.195 1.411 2.195 1.411a.285.285 0 0 0 .251.126c.094 0 .188-.063.251-.126 0 0 .94-1.285 2.195-1.41.69-.032 1.38.219 1.85.72.565.502.816 1.286.659 2.039z" fill="#28150B"/></g><defs><clipPath id="clip0"><path fill="#fff" d="M0 0h16v16H0z"/></clipPath></defs></svg>