<svg width="16" height="16" fill="none" xmlns="http://www.w3.org/2000/svg"><g clip-path="url(#clip0)"><path d="M15.076 2.797a2.943 2.943 0 0 0-2.337-.898c-1.115.113-1.982.917-2.39 1.373-.408-.456-1.275-1.256-2.393-1.373a2.942 2.942 0 0 0-2.336.898 2.748 2.748 0 0 0-.899 1.747 3.115 3.115 0 0 0-1.72-.572 3.034 3.034 0 0 0-2.076.917 2.874 2.874 0 0 0-.88 2.62c.343 2.414 3.14 5.398 5.468 6.566a.314.314 0 0 0 .283 0 12.115 12.115 0 0 0 3.379-2.713c.33.232.675.441 1.033.628a.314.314 0 0 0 .283 0c2.31-1.165 5.125-4.158 5.464-6.573a2.874 2.874 0 0 0-.88-2.62zM5.654 13.444C3.51 12.297.974 9.597.667 7.42a2.242 2.242 0 0 1 .685-2.07A2.43 2.43 0 0 1 3 4.607c1.347 0 2.386 1.42 2.396 1.436a.314.314 0 0 0 .254.131c.101 0 .196-.05.254-.131 0 0 1.046-1.436 2.41-1.436a2.43 2.43 0 0 1 1.648.745c.572.524.832 1.307.688 2.07-.317 2.176-2.852 4.876-4.997 6.023zm9.679-8.115c-.314 2.173-2.826 4.877-4.987 6.02a8.765 8.765 0 0 1-.776-.471c.877-1.096 1.527-2.29 1.68-3.37a2.873 2.873 0 0 0-.879-2.619 3.034 3.034 0 0 0-2.057-.91c-1.24 0-2.198.894-2.65 1.384a3.285 3.285 0 0 0-.314-.314 2.198 2.198 0 0 1 .71-1.78 2.355 2.355 0 0 1 1.843-.735c1.256.125 2.198 1.413 2.198 1.425a.314.314 0 0 0 .254.132c.101 0 .196-.05.255-.132 0 0 .942-1.297 2.198-1.422.694-.04 1.37.229 1.847.735.564.523.82 1.3.678 2.057z" fill="#000"/></g><defs><clipPath id="clip0"><path fill="#fff" d="M0 0h16v16H0z"/></clipPath></defs></svg>