<svg version="1.1" xmlns="http://www.w3.org/2000/svg" width="32" height="32" viewBox="0 0 32 32">
<title>blog_bw</title>
<path d="M4.375 2.375v27.244c0 0.828 0.672 1.5 1.5 1.5h1.035v-22.177c0-0.276 0.224-0.5 0.5-0.5s0.5 0.224 0.5 0.5v22.177h11.925l6.777-6.761-0.002-0.255 0.004 0.575c-0.017-1.784-0.029-3.569-0.039-5.661h-3.002c-0.552 0-1-0.448-1-1v-4.040c0-0.552 0.448-1 1-1h2.992c0.005-1.913 0.018-3.781 0.046-5.343l-6.776-6.759h-13.96c-0.828 0-1.5 0.672-1.5 1.5zM26.613 6.225v-3.85c0-0.828-0.672-1.5-1.5-1.5h-3.863l5.365 5.35zM27.615 7.44c-0.030 1.595-0.045 3.539-0.050 5.537h0.060c0.552 0 1 0.448 1 1v0 4.040c0 0.552-0.448 1-1 1v0h-0.050c0.010 2.078 0.022 3.86 0.039 5.642l-0.004-0.565 0.003 0.345 0.001 0.090v5.090c0 1.381-1.119 2.5-2.5 2.5v0h-19.239c-1.381 0-2.5-1.119-2.5-2.5v0-27.244c0-1.381 1.119-2.5 2.5-2.5v0h19.239c1.381 0 2.5 1.119 2.5 2.5v0 5.065zM23.93 28.445l-2.68 2.674h3.863c0.828 0 1.5-0.672 1.5-1.5v-3.85l-2.683 2.676zM23.572 13.978v1.52l0.928 0.002c0.276 0.001 0.499 0.224 0.499 0.5s-0.224 0.5-0.5 0.5c-0 0-0.001 0-0.001 0l-0.926-0.002v1.519h4.051v-4.040h-4.051zM7.332 5.91c-0.355-0.002-0.643-0.289-0.646-0.644v-0c0-0.001 0-0.002 0-0.003 0-0.356 0.288-0.644 0.644-0.644 0.224 0 0.421 0.114 0.537 0.288l0.001 0.002c0.067 0.101 0.108 0.224 0.11 0.357v0c-0.003 0.311-0.223 0.569-0.516 0.63l-0.004 0.001c-0.038 0.008-0.081 0.013-0.126 0.013h-0zM14.507 12.337c-0 0-0.001 0-0.001 0-0.171 0-0.327-0.067-0.442-0.175l0 0-0.573-0.54c-0.367-0.321-0.72-0.598-1.060-0.866-1.177-0.927-2.195-1.727-2.195-3.277 0-1.655 1.102-2.857 2.62-2.857 0.61 0 1.19 0.212 1.651 0.589 0.447-0.367 1.025-0.589 1.655-0.589 0.001 0 0.001 0 0.002 0h-0c1.518 0 2.62 1.202 2.62 2.857 0 1.514-0.991 2.325-2.139 3.263-0.256 0.21-0.52 0.426-0.796 0.665l-0.008 0.008-0.918 0.77c-0.111 0.095-0.257 0.152-0.416 0.152-0 0-0 0-0 0v0zM12.857 5.91c-0.808 0-1.33 0.616-1.33 1.57 0 0.885 0.553 1.36 1.704 2.265 0.438 0.339 0.808 0.645 1.17 0.96l-0.032-0.027 0.162 0.153 0.474-0.397c0.282-0.246 0.548-0.464 0.805-0.674l0.016-0.013c1.126-0.92 1.667-1.402 1.667-2.268 0-0.953-0.521-1.569-1.329-1.569-0.45 0-0.867 0.227-1.118 0.606-0.117 0.176-0.315 0.29-0.539 0.29s-0.422-0.114-0.538-0.288l-0.001-0.002c-0.238-0.367-0.645-0.606-1.108-0.606-0.001 0-0.003 0-0.004 0h0zM17.156 21.765c-0 0-0 0-0.001 0-0.171 0-0.327-0.067-0.443-0.176l0 0-0.41-0.386c-0.26-0.227-0.51-0.424-0.753-0.615-0.848-0.668-1.649-1.297-1.649-2.5 0-1.297 0.869-2.237 2.067-2.237 0.432 0 0.845 0.135 1.188 0.377 0.331-0.236 0.744-0.377 1.19-0.377 0.001 0 0.002 0 0.003 0h-0c1.197 0 2.066 0.94 2.066 2.237 0 1.175-0.78 1.812-1.606 2.488l-0.027 0.022c-0.174 0.143-0.355 0.29-0.541 0.453-0.003 0.003-0.006 0.005-0.009 0.008l-0 0-0.66 0.554c-0.111 0.095-0.257 0.152-0.416 0.152-0 0-0 0-0 0v0zM15.968 17.138c-0.572 0-0.776 0.49-0.776 0.95 0 0.555 0.355 0.857 1.157 1.488l0.001 0.001c0.247 0.194 0.525 0.413 0.814 0.667 0.006 0.005 0.011 0.010 0.016 0.014l-0-0 0.216-0.181c0.209-0.181 0.404-0.341 0.593-0.495l0.002-0.002c0.786-0.643 1.133-0.95 1.133-1.492 0-0.46-0.203-0.95-0.775-0.95-0.273 0.001-0.513 0.141-0.652 0.353l-0.002 0.003c-0.117 0.176-0.315 0.29-0.539 0.29s-0.422-0.114-0.538-0.288l-0.001-0.002c-0.139-0.215-0.377-0.355-0.648-0.355-0.001 0-0.002 0-0.003 0h0zM11.965 29.209c0.115 0.109 0.272 0.177 0.444 0.177 0.159 0 0.304-0.057 0.416-0.152l-0.001 0.001 0.67-0.563c0.194-0.17 0.382-0.323 0.564-0.472l0.004-0.003c0.826-0.675 1.606-1.313 1.606-2.488 0-1.296-0.87-2.237-2.067-2.237-0.434 0-0.848 0.135-1.192 0.377-0.33-0.236-0.742-0.377-1.187-0.377-0.001 0-0.001 0-0.002 0h0c-1.197 0-2.067 0.94-2.067 2.237 0 1.203 0.801 1.833 1.65 2.5l0.006 0.005c0.24 0.19 0.489 0.385 0.746 0.61l0.41 0.386zM10.445 25.708c0-0.438 0.203-0.95 0.775-0.95 0.264 0 0.5 0.13 0.65 0.356 0.117 0.175 0.315 0.289 0.538 0.289s0.421-0.114 0.537-0.287l0.001-0.002c0.142-0.215 0.381-0.354 0.654-0.355h0c0.572 0 0.776 0.49 0.776 0.949 0 0.542-0.348 0.85-1.134 1.492-0.189 0.155-0.385 0.315-0.594 0.497l-0.216 0.181c-0.24-0.21-0.509-0.432-0.784-0.646l-0.042-0.032-0.005-0.003c-0.803-0.632-1.157-0.934-1.157-1.49z"></path>
</svg>
