<svg width="16" height="16" fill="none" xmlns="http://www.w3.org/2000/svg"><path d="M7.261 6.183a.318.318 0 0 1-.219-.087L6.76 5.83c-.182-.16-.356-.297-.525-.43-.583-.46-1.086-.857-1.086-1.626 0-.82.545-1.417 1.296-1.417.302 0 .589.105.817.292.23-.187.517-.292.82-.292.752 0 1.297.596 1.297 1.417 0 .751-.49 1.154-1.059 1.62-.126.103-.257.21-.393.33-.002 0-.003.002-.005.003l-.454.382a.32.32 0 0 1-.206.075zm.454-.702zm-1.27-2.486c-.4 0-.658.305-.658.778 0 .44.273.675.843 1.124a13.015 13.015 0 0 1 .563.463l.08.076.235-.197c.142-.125.277-.234.406-.34.557-.457.825-.696.825-1.126 0-.473-.258-.778-.658-.778a.662.662 0 0 0-.553.3.32.32 0 0 1-.533 0 .65.65 0 0 0-.55-.3zM8.572 10.86a.318.318 0 0 1-.22-.087l-.202-.191a8.928 8.928 0 0 0-.373-.306c-.42-.33-.816-.643-.816-1.24 0-.643.43-1.11 1.023-1.11.214 0 .418.067.588.188.17-.12.376-.188.59-.188.593 0 1.023.467 1.023 1.11 0 .583-.386.9-.795 1.235-.09.074-.184.15-.281.235a.048.048 0 0 1-.004.004l-.327.275a.32.32 0 0 1-.206.075zm.327-.595zm-.915-1.7c-.283 0-.384.243-.384.471 0 .276.176.426.573.739.122.096.26.205.403.33a.42.42 0 0 1 .008.008l.107-.09c.104-.09.2-.17.294-.247.39-.318.561-.47.561-.74 0-.228-.1-.47-.384-.47-.13 0-.25.065-.323.175a.32.32 0 0 1-.534 0 .38.38 0 0 0-.321-.176zM6.223 14.64a.32.32 0 0 1-.22-.087l-.203-.19c-.128-.114-.252-.212-.372-.306-.42-.331-.816-.644-.816-1.24 0-.643.43-1.11 1.023-1.11.213 0 .418.067.588.187.17-.12.375-.187.59-.187.592 0 1.023.466 1.023 1.11 0 .582-.387.899-.795 1.234-.09.074-.185.15-.281.236-.002 0-.003.002-.005.003l-.327.276a.32.32 0 0 1-.205.074zm.326-.594zm-.914-1.7c-.284 0-.384.253-.384.47 0 .276.175.426.572.74.122.095.26.204.403.33l.009.007.107-.09c.103-.09.2-.17.294-.246.389-.32.56-.471.56-.74 0-.228-.1-.471-.383-.471a.387.387 0 0 0-.324.176.32.32 0 0 1-.533 0 .38.38 0 0 0-.321-.176zM3.71 2.995a.32.32 0 0 1-.177-.585.335.335 0 0 1 .115-.048.316.316 0 0 1 .328.136.33.33 0 0 1 .054.177.323.323 0 0 1-.257.314.314.314 0 0 1-.063.006z" fill="#2B2B2B"/><path d="M13.929 6.419h-.174V1.235C13.755.555 13.201 0 12.52 0H2.947C2.287 0 1.75.537 1.75 1.197v13.607c0 .66.537 1.196 1.197 1.196h9.573c.681 0 1.235-.554 1.235-1.235V9.58h.174a.32.32 0 0 0 .319-.32V6.739a.32.32 0 0 0-.32-.32zm-2.045 1.9h.38a.32.32 0 0 0 0-.638h-.38v-.623h1.725v1.884h-1.725V8.32zm1.232-7.084v1.623L10.898.638h1.623c.329 0 .597.268.597.597zm0 13.53a.597.597 0 0 1-.596.596h-1.623l2.22-2.219v1.623zm0-2.527l-3.122 3.123H4.03V4.636a.32.32 0 0 0-.64 0v10.725h-.443a.558.558 0 0 1-.558-.558V1.197c0-.308.25-.558.558-.558h7.047l3.123 3.123v2.657h-1.552a.32.32 0 0 0-.32.32v2.523c0 .176.143.319.32.319h1.552v2.658z" fill="#000"/><path fill-rule="evenodd" clip-rule="evenodd" d="M13.929 6.419h-.174V1.235C13.755.555 13.201 0 12.52 0H2.947C2.287 0 1.75.537 1.75 1.197v13.607c0 .66.537 1.196 1.197 1.196h9.573c.681 0 1.235-.554 1.235-1.235V9.58h.174a.32.32 0 0 0 .319-.32V6.739a.32.32 0 0 0-.32-.32zm-1.666 1.9h-.379v.623h1.725V7.058h-1.725v.623h.38a.32.32 0 0 1 0 .638zm.854-5.461V1.235A.597.597 0 0 0 12.52.64h-1.623l2.22 2.219zM12.52 15.36a.597.597 0 0 0 .597-.596v-1.623l-2.22 2.22h1.623zm-2.526 0l3.123-3.123V9.582h-1.552a.32.32 0 0 1-.32-.32V6.739a.32.32 0 0 1 .32-.32h1.552V3.763L9.994.639H2.947a.558.558 0 0 0-.558.558v13.607c0 .307.25.557.558.557h.444V4.636a.32.32 0 0 1 .639 0v10.725h5.964z" fill="#000"/></svg>