<svg width="16" height="16" fill="none" xmlns="http://www.w3.org/2000/svg"><path d="M15.2 12.267h-3.467v-.8a.533.533 0 0 0-.533-.534H9.333V9.867H12a.8.8 0 0 0 .8-.8V6.933a.8.8 0 0 0-.8-.8H7.467v-.8a.533.533 0 0 0-.534-.533H5.067V3.733H8.8a.8.8 0 0 0 .8-.8V.8a.8.8 0 0 0-.8-.8h-8a.8.8 0 0 0-.8.8v2.133a.8.8 0 0 0 .8.8h3.733V4.8c0 .295.24.533.534.533h1.866v.8H4a.8.8 0 0 0-.8.8v2.134a.8.8 0 0 0 .8.8h4.8v1.066c0 .295.239.534.533.534H11.2v.8h-4a.8.8 0 0 0-.8.8V15.2a.8.8 0 0 0 .8.8h8a.8.8 0 0 0 .8-.8v-2.133a.8.8 0 0 0-.8-.8zM2.133 3.2H.8a.267.267 0 0 1-.267-.267V.8C.533.653.653.533.8.533h1.333V3.2zm.534 0V.533H8.8c.147 0 .267.12.267.267v2.133c0 .148-.12.267-.267.267H2.667zm2.666 6.133H4a.267.267 0 0 1-.267-.266V6.933c0-.147.12-.266.267-.266h1.333v2.666zm.534 0V6.667H12c.147 0 .267.12.267.266v2.134c0 .147-.12.266-.267.266H5.867zm2.666 6.134H7.2a.267.267 0 0 1-.267-.267v-2.133c0-.148.12-.267.267-.267h1.333v2.667zm6.934-.267c0 .147-.12.267-.267.267H9.067V12.8H15.2c.147 0 .267.12.267.267V15.2z" fill="#000"/><path d="M8 1.067H3.733a.267.267 0 1 0 0 .533H8a.267.267 0 1 0 0-.533zM5.867 2.133H3.733a.267.267 0 1 0 0 .534h2.134a.267.267 0 1 0 0-.534zM11.2 7.2H6.933a.267.267 0 1 0 0 .533H11.2a.267.267 0 1 0 0-.533zM9.067 8.267H6.933a.267.267 0 0 0 0 .533h2.134a.267.267 0 0 0 0-.533zM14.4 13.333h-4.267a.267.267 0 1 0 0 .534H14.4a.267.267 0 1 0 0-.534zM12.267 14.4h-2.134a.267.267 0 1 0 0 .533h2.134a.267.267 0 1 0 0-.533z" fill="#000"/></svg>