<svg width="16" height="16" fill="none" xmlns="http://www.w3.org/2000/svg"><path d="M9.334.8v2.133c-.001.295-.24.533-.534.534H1.867v-3.2H8.8c.294 0 .533.239.534.533z" fill="#007163"/><path d="M8.533.8v2.133c0 .295-.239.533-.533.534H1.067v-3.2H8c.294 0 .532.239.533.533z" fill="#00AB9B"/><path d="M12.534 6.933v2.134c-.001.294-.24.532-.534.533H4.8V6.4H12c.294.001.533.24.534.533z" fill="#D99903"/><path d="M11.733 6.933v2.134c0 .294-.239.532-.533.533H4V6.4h7.2c.294.001.533.24.533.533z" fill="#DFB124"/><path d="M5.6 6.4v3.2H4a.535.535 0 0 1-.533-.533V6.933c0-.294.239-.532.533-.533h1.6z" fill="#D99903"/><path d="M15.733 13.067V15.2c0 .294-.239.533-.533.533H8.267v-3.2H15.2c.294.001.533.24.533.534z" fill="#BF1A62"/><path d="M14.934 13.067V15.2c-.001.294-.24.533-.534.533H7.467v-3.2H14.4c.294.001.533.24.534.534z" fill="#F05288"/><path d="M8.8 12.534v3.2H7.2a.535.535 0 0 1-.533-.534v-2.133c0-.294.239-.533.533-.534h1.6z" fill="#BF1A62"/><path d="M2.4.267v3.2H.8a.535.535 0 0 1-.533-.534V.8C.267.506.506.268.8.267h1.6z" fill="#007163"/><path d="M.8 3.733h3.733V4.8c0 .295.24.533.534.533h1.866v.8H4a.8.8 0 0 0-.8.8v2.134a.8.8 0 0 0 .8.8h4.8v1.066c0 .295.239.534.533.534H11.2v.8h-4a.8.8 0 0 0-.8.8V15.2a.8.8 0 0 0 .8.8h8a.8.8 0 0 0 .8-.8v-2.133a.8.8 0 0 0-.8-.8h-3.467v-.8a.533.533 0 0 0-.533-.534H9.333V9.867H12a.8.8 0 0 0 .8-.8V6.933a.8.8 0 0 0-.8-.8H7.467v-.8a.533.533 0 0 0-.534-.533H5.067V3.733H8.8a.8.8 0 0 0 .8-.8V.8a.8.8 0 0 0-.8-.8h-8a.8.8 0 0 0-.8.8v2.133a.8.8 0 0 0 .8.8zM6.933 15.2v-2.133c0-.148.12-.267.267-.267h1.333v2.667H7.2a.267.267 0 0 1-.267-.267zm8.534-2.133V15.2c0 .147-.12.267-.267.267H9.067V12.8H15.2c.147 0 .267.12.267.267zm-11.734-4V6.933c0-.147.12-.266.267-.266h1.333v2.666H4a.267.267 0 0 1-.267-.266zm8.534-2.134v2.134c0 .147-.12.266-.267.266H5.867V6.667H12c.147 0 .267.12.267.266zM9.067.8v2.133c0 .148-.12.267-.267.267H2.667V.533H8.8c.147 0 .267.12.267.267zM.533.8C.533.653.653.533.8.533h1.333V3.2H.8a.267.267 0 0 1-.267-.267V.8z" fill="#000"/><path d="M3.733 1.6H8a.267.267 0 0 0 0-.533H3.733a.267.267 0 0 0 0 .533zM5.867 2.133H3.733a.267.267 0 0 0 0 .534h2.134a.267.267 0 1 0 0-.534zM6.667 7.467c0 .147.119.266.266.266H11.2a.267.267 0 0 0 0-.533H6.933a.267.267 0 0 0-.266.267zM9.067 8.267H6.933a.267.267 0 1 0 0 .533h2.134a.267.267 0 1 0 0-.533zM9.867 13.6c0 .147.12.267.266.267H14.4a.267.267 0 1 0 0-.534h-4.267a.267.267 0 0 0-.266.267zM12.267 14.4h-2.134a.267.267 0 1 0 0 .533h2.134a.267.267 0 1 0 0-.533z" fill="#000"/></svg>