<svg width="16" height="16" fill="none" xmlns="http://www.w3.org/2000/svg"><g clip-path="url(#clip0)"><path d="M6.669 8.535h1.333v.533a.533.533 0 0 1-.533.533h-.267a.533.533 0 0 1-.533-.533v-.533zM8.002 8.535h1.333v.533a.533.533 0 0 1-.533.533h-.267a.533.533 0 0 1-.533-.533v-.533zM9.335 1.603a1.333 1.333 0 1 1-2.666 0 1.333 1.333 0 0 1 2.666 0z" fill="#FAA108"/><path d="M6.669 5.336h2.666v3.2H6.669v-3.2z" fill="#FAEED8"/><path d="M10.934 1.337c.295 0 .534.238.534.533v1.6a.533.533 0 0 1-.534.533h-.533V1.87c0-.295.239-.533.533-.533z" fill="#FAA108"/><path d="M9.335 2.936H5.602v1.067H6.67v1.333h2.666V4.003H10.4V2.936H9.335z" fill="#70DDA8"/><path d="M5.602 4.003H5.07a.533.533 0 0 1-.533-.533v-1.6a.533.533 0 0 1 1.066 0v2.133z" fill="#FAA108"/><path d="M4.802 8.269H6.67V4.003h-.533L4.802 8.269zM11.201 8.269H9.335V4.003h.533l1.333 4.266z" fill="#FD412D"/><path d="M12.534 9.068h2.133v3.2h-2.133v-3.2z" fill="#FAEED8"/><path d="M14.667 7.735h1.066v1.6a.533.533 0 1 1-1.066 0v-1.6z" fill="#FAA108"/><path d="M14.667 6.669H12a.533.533 0 0 0-.533.533v.533h1.066v1.333h2.133V7.735h1.066v-.533a.533.533 0 0 0-.533-.533h-.533z" fill="#70DDA8"/><path d="M11.468 7.735h1.066v1.6a.533.533 0 0 1-1.066 0v-1.6zM14.667 5.602a1.066 1.066 0 1 1-2.133 0 1.066 1.066 0 0 1 2.133 0zM13.6 12.268h1.067v.533a.533.533 0 0 1-1.066 0v-.533z" fill="#FAA108"/><path d="M12.534 12.268h1.067v.533a.533.533 0 0 1-1.067 0v-.533z" fill="#FAA108"/><path d="M1.337 11.468h2.132v3.2H1.337v-3.2z" fill="#FAEED8"/><path d="M3.47 10.135h1.066v1.6a.533.533 0 0 1-1.067 0v-1.6z" fill="#FAA108"/><path d="M3.47 9.068H.803a.533.533 0 0 0-.533.533v.534h1.067v1.333H3.47v-1.333h1.066V9.6a.533.533 0 0 0-.533-.533H3.47z" fill="#70DDA8"/><path d="M.27 10.135h1.067v1.6a.533.533 0 0 1-1.067 0v-1.6zM3.47 8.002a1.066 1.066 0 1 1-2.134 0 1.066 1.066 0 0 1 2.133 0zM2.403 14.667H3.47v.533a.533.533 0 0 1-1.067 0v-.533zM1.337 14.667h1.066v.533a.533.533 0 0 1-1.066 0v-.533z" fill="#FAA108"/><path d="M11.2 3.47a.267.267 0 0 0 .534 0v-1.6a.8.8 0 1 0-1.6 0v.8h-.943a1.6 1.6 0 1 0-2.378 0h-.944v-.8a.8.8 0 1 0-1.6 0v1.6a.8.8 0 0 0 .8.8h.704L4.548 8.187a.266.266 0 0 0 .254.347h.8a.267.267 0 0 0 0-.533h-.437L6.33 4.269h.071v4.8a.8.8 0 0 0 .8.8h.266a.795.795 0 0 0 .534-.209.795.795 0 0 0 .533.208H8.8a.8.8 0 0 0 .8-.8v-.533h.8a.267.267 0 0 0 0-.533h-.8V4.269h.071l.475 1.52a.267.267 0 0 0 .509-.16l-.426-1.36h.171c.147 0 .267-.12.267-.266V1.87a.267.267 0 0 1 .533 0v1.6zM6.936 1.603a1.066 1.066 0 1 1 2.133 0 1.066 1.066 0 0 1-2.133 0zM4.802 3.47v-1.6a.267.267 0 0 1 .534 0v1.866h-.267a.267.267 0 0 1-.267-.267zm4.266 4.798h-.8v-1.6a.267.267 0 0 0-.533 0v1.6h-.8V5.602h2.133v2.666zm-1.6 1.067h-.266a.267.267 0 0 1-.267-.267v-.266h.8v.266c0 .147-.12.267-.267.267zm1.6-.267c0 .147-.12.267-.267.267h-.266a.267.267 0 0 1-.267-.267v-.266h.8v.266zm.267-5.332a.267.267 0 0 0-.267.267v1.066H6.935V4.003a.267.267 0 0 0-.266-.267h-.8v-.533h4.265v.533h-.8zM14.933 8.002h.8c.147 0 .267-.12.267-.267v-.533a.801.801 0 0 0-.8-.8.267.267 0 0 0 0 .533c.147 0 .267.12.267.267v.267h-.8a.267.267 0 0 0-.267.266v1.067h-1.6V7.735a.267.267 0 0 0-.266-.266h-.8v-.267c0-.147.12-.267.267-.267a.267.267 0 1 0 0-.533.801.801 0 0 0-.8.8v2.666a.267.267 0 0 0 .533 0V8.002h.533V12.8a.796.796 0 0 0 1.333.592.796.796 0 0 0 1.333-.592v-2.715a.793.793 0 0 0 .267.049.8.8 0 0 0 .8-.8v-.533a.267.267 0 0 0-.533 0v.533a.267.267 0 1 1-.534 0V8.002zM14.4 9.335V12h-.533v-1.6a.267.267 0 0 0-.533 0v1.6H12.8V9.335h1.6zm-1.333 3.732a.267.267 0 0 1-.266-.266v-.267h.533v.267c0 .147-.12.266-.267.266zm1.333-.266a.267.267 0 0 1-.533 0v-.267h.533v.267z" fill="#301993"/><path d="M13.6 6.935a1.333 1.333 0 1 0 0-2.666 1.333 1.333 0 0 0 0 2.666zm0-2.132a.8.8 0 1 1 0 1.6.8.8 0 0 1 0-1.6zM4.536 9.868H3.469a.267.267 0 0 0-.266.267V14.4H2.67v-1.6a.267.267 0 0 0-.534 0v1.6h-.533v-4.265a.267.267 0 0 0-.266-.267H.27a.267.267 0 0 0-.266.267v1.6a.8.8 0 0 0 .8.8.793.793 0 0 0 .266-.05v3.248a.267.267 0 0 0 .533 0v-.8h.533v.8a.267.267 0 0 0 .534 0v-.8h.533v.8a.267.267 0 0 0 .533 0v-3.248a.793.793 0 0 0 .267.05.8.8 0 0 0 .8-.8v-1.6a.267.267 0 0 0-.267-.267zM.803 12.001a.267.267 0 0 1-.266-.267v-1.333h.533v1.333c0 .148-.12.267-.267.267zm3.466-.267a.267.267 0 0 1-.533 0v-1.333h.533v1.333zM2.403 9.335a1.333 1.333 0 1 0 0-2.666 1.333 1.333 0 0 0 0 2.666zm0-2.133a.8.8 0 1 1 0 1.6.8.8 0 0 1 0-1.6zM8.002 11.734a.267.267 0 0 0-.267.267v3.466a.267.267 0 1 0 .533 0V12a.267.267 0 0 0-.266-.267zM9.868 10.135a.267.267 0 0 0-.267.266v1.6a.267.267 0 1 0 .533 0v-1.6a.267.267 0 0 0-.266-.266zM6.136 10.401a.267.267 0 1 0-.534 0v1.6a.267.267 0 1 0 .534 0v-1.6zM11.467 12a.267.267 0 0 0-.266.268v1.066a.267.267 0 0 0 .533 0v-1.066a.267.267 0 0 0-.267-.267zM13.6 13.867a.267.267 0 0 0-.266.267v1.6a.267.267 0 1 0 .533 0v-1.6a.267.267 0 0 0-.267-.267zM15.733 12.534a.267.267 0 0 0-.266.267v1.333a.267.267 0 1 0 .533 0V12.8a.267.267 0 0 0-.267-.267z" fill="#301993"/><path d="M4.536 13.067a.267.267 0 0 0-.267.267v1.333a.267.267 0 0 0 .533 0v-1.333a.267.267 0 0 0-.266-.267zM9.868 13.6a.267.267 0 0 0-.267.267V15.2a.267.267 0 1 0 .533 0v-1.333a.267.267 0 0 0-.266-.266zM6.402 13.6a.267.267 0 0 0-.266.267v1.067a.267.267 0 0 0 .533 0v-1.067a.267.267 0 0 0-.267-.266z" fill="#301993"/></g><defs><clipPath id="clip0"><path fill="#fff" d="M0 0h16v16H0z"/></clipPath></defs></svg>