<svg width="16" height="16" fill="none" xmlns="http://www.w3.org/2000/svg"><g clip-path="url(#clip0)" fill="#000"><path d="M10.935 4.27a.8.8 0 0 0 .8-.8v-1.6a.8.8 0 1 0-1.6 0v.8H9.19a1.6 1.6 0 1 0-2.378 0h-.944v-.8a.8.8 0 1 0-1.6 0v1.6a.8.8 0 0 0 .8.8h.704L4.548 8.187a.266.266 0 0 0 .255.347h.8a.267.267 0 0 0 0-.533h-.438l1.167-3.733h.07v4.8a.8.8 0 0 0 .8.8h.267a.795.795 0 0 0 .533-.209.795.795 0 0 0 .533.208h.267a.8.8 0 0 0 .8-.8v-.533h.8a.267.267 0 0 0 0-.533h-.8V4.269h.07l.475 1.52a.267.267 0 0 0 .51-.16l-.426-1.36h.704zm-.267-2.4a.267.267 0 0 1 .533 0v1.6c0 .147-.12.266-.266.266h-.267V1.87zm-3.733-.267a1.066 1.066 0 1 1 2.133 0 1.066 1.066 0 0 1-2.133 0zM4.803 3.47v-1.6a.267.267 0 0 1 .533 0v1.866h-.267a.267.267 0 0 1-.266-.267zm4.265 4.798h-.8v-1.6a.267.267 0 0 0-.533 0v1.6h-.8V5.602h2.133v2.666zm-1.6 1.067h-.266a.267.267 0 0 1-.267-.267v-.266h.8v.266c0 .147-.12.267-.266.267zm1.6-.267c0 .147-.119.267-.266.267h-.267a.267.267 0 0 1-.266-.267v-.266h.8v.266zm.267-5.332a.267.267 0 0 0-.267.267v1.066H6.935V4.003a.267.267 0 0 0-.266-.267h-.8v-.533h4.266v.533h-.8zM14.934 8.002h.8c.147 0 .266-.12.266-.267v-.533a.801.801 0 0 0-.8-.8.267.267 0 1 0 0 .533c.148 0 .267.12.267.267v.267h-.8a.267.267 0 0 0-.267.266v1.067h-1.6V7.735a.267.267 0 0 0-.266-.266h-.8v-.267c0-.147.12-.267.267-.267a.267.267 0 0 0 0-.533.801.801 0 0 0-.8.8v2.666a.267.267 0 1 0 .533 0V8.002h.534V12.8a.796.796 0 0 0 1.333.592.796.796 0 0 0 1.333-.592v-2.715a.793.793 0 0 0 .266.049.8.8 0 0 0 .8-.8v-.533a.267.267 0 0 0-.533 0v.533a.267.267 0 0 1-.533 0V8.002zM14.4 9.335V12h-.533v-1.6a.267.267 0 1 0-.533 0v1.6h-.533V9.335h1.6zm-1.333 3.732a.267.267 0 0 1-.266-.266v-.267h.533v.267c0 .147-.12.266-.267.266zm1.333-.266a.267.267 0 1 1-.533 0v-.267h.533v.267z"/><path d="M13.6 6.935a1.333 1.333 0 1 0 0-2.666 1.333 1.333 0 0 0 0 2.666zm0-2.132a.8.8 0 1 1 0 1.599.8.8 0 0 1 0-1.6zM4.003 8.802a.267.267 0 0 0 0 .533c.147 0 .266.12.266.266v.267h-.8a.267.267 0 0 0-.266.267V11.2h-1.6v-1.066a.267.267 0 0 0-.266-.267h-.8v-.267c0-.147.12-.266.266-.266a.267.267 0 0 0 0-.533.801.801 0 0 0-.8.8v2.132a.8.8 0 0 0 .8.8.793.793 0 0 0 .267-.049v3.248a.267.267 0 1 0 .533 0v-.8h.533v.8a.267.267 0 1 0 .534 0v-.8h.533v.8a.267.267 0 1 0 .533 0v-3.248a.793.793 0 0 0 .267.05.8.8 0 0 0 .8-.8V9.6a.801.801 0 0 0-.8-.8zM.803 12a.267.267 0 0 1-.266-.267v-1.333h.533v1.333c0 .148-.12.267-.267.267zm1.867 2.4v-1.6a.267.267 0 0 0-.534 0v1.6h-.533v-2.667h1.6V14.4H2.67zm1.6-2.667a.267.267 0 0 1-.534 0v-1.333h.533v1.333z"/><path d="M2.403 9.335a1.333 1.333 0 1 0 0-2.666 1.333 1.333 0 0 0 0 2.666zm0-2.133a.8.8 0 1 1 0 1.6.8.8 0 0 1 0-1.6zM8.002 11.734a.267.267 0 0 0-.267.267v3.466a.267.267 0 1 0 .533 0V12a.267.267 0 0 0-.266-.267zM9.868 10.135a.267.267 0 0 0-.267.266v1.6a.267.267 0 1 0 .533 0v-1.6a.267.267 0 0 0-.266-.266zM6.136 10.401a.267.267 0 1 0-.534 0v1.6a.267.267 0 1 0 .534 0v-1.6zM11.468 12.001a.267.267 0 0 0-.267.267v1.066a.267.267 0 1 0 .533 0v-1.066a.267.267 0 0 0-.266-.267zM13.6 13.867a.267.267 0 0 0-.266.267v1.6a.267.267 0 1 0 .533 0v-1.6a.267.267 0 0 0-.266-.267zM15.733 12.534a.267.267 0 0 0-.266.267v1.333a.267.267 0 0 0 .533 0V12.8a.267.267 0 0 0-.267-.267zM4.536 13.067a.267.267 0 0 0-.267.267v1.333a.267.267 0 0 0 .534 0v-1.333a.267.267 0 0 0-.267-.267zM9.868 13.6a.267.267 0 0 0-.267.267V15.2a.267.267 0 1 0 .533 0v-1.333a.267.267 0 0 0-.266-.266zM6.402 13.6a.267.267 0 0 0-.266.267v1.067a.267.267 0 0 0 .533 0v-1.067a.267.267 0 0 0-.267-.266z"/></g><defs><clipPath id="clip0"><path fill="#fff" d="M0 0h16v16H0z"/></clipPath></defs></svg>