<svg width="16" height="16" fill="none" xmlns="http://www.w3.org/2000/svg"><g clip-path="url(#clip0)" fill="#000"><path d="M15.869 11.277V8.915c0-.724-.588-1.311-1.312-1.312h-1.05V4.979a.262.262 0 0 0-.262-.263H11.67a.262.262 0 0 0-.262.263v2.624H9.046v-3.15a.262.262 0 0 0-.262-.261H7.209a.262.262 0 0 0-.262.262v3.149H4.585V4.979a.262.262 0 0 0-.262-.263H2.748a.262.262 0 0 0-.262.263v2.624h-1.05c-.724 0-1.31.588-1.312 1.312v2.362a1.522 1.522 0 0 0 .788 1.357v2.841H.387a.262.262 0 0 0 0 .525h15.22a.262.262 0 0 0 0-.525h-.525v-2.837c.485-.282.785-.8.787-1.361zM11.933 5.24h1.05v2.362h-1.05V5.24zm-4.461-.525h1.05v2.887h-1.05V4.716zm-4.461.525h1.05v2.362H3.01V5.24zM.649 8.915c0-.435.353-.787.787-.787h13.12c.436 0 .788.352.788.787v2.362c0 .416-.247.794-.628.963a1.073 1.073 0 0 1-1.164-.219 1.054 1.054 0 0 1-.307-.744v-1.05a1.047 1.047 0 0 0-.581-.934l-.016-.009a1.003 1.003 0 0 0-.13-.05c-.026-.01-.05-.018-.076-.024a1.015 1.015 0 0 0-.102-.018c-.023-.003-.045-.01-.068-.012-.013 0-.025.002-.037.001-.012 0-.026-.004-.04-.004-.029 0-.057.006-.086.009-.029.002-.06.003-.089.008a1.05 1.05 0 0 0-.134.035c-.024.007-.048.012-.07.021a1 1 0 0 0-.142.071c-.017.01-.034.016-.05.026a1.043 1.043 0 0 0-.478.88v.525a1.05 1.05 0 1 1-2.1 0v-.525a1.047 1.047 0 0 0-.58-.934l-.017-.009a1.003 1.003 0 0 0-.13-.05c-.026-.01-.05-.018-.075-.024a1.012 1.012 0 0 0-.102-.018c-.023-.003-.045-.01-.069-.012-.012 0-.024.002-.037.001-.012 0-.026-.004-.04-.004-.028 0-.057.006-.085.009-.03.002-.06.003-.09.008a1.05 1.05 0 0 0-.133.035c-.024.007-.048.012-.071.021a1.02 1.02 0 0 0-.141.07c-.017.01-.035.017-.051.027a1.046 1.046 0 0 0-.478.88V11.8a1.05 1.05 0 1 1-2.1 0v-1.574a1.047 1.047 0 0 0-.58-.934l-.016-.009a1.003 1.003 0 0 0-.13-.05c-.026-.01-.05-.018-.076-.024a1.012 1.012 0 0 0-.102-.018c-.023-.003-.045-.01-.068-.012a1.05 1.05 0 0 0-1.126 1.047v1.05c0 .278-.11.545-.306.742a1.083 1.083 0 0 1-1.164.221 1.054 1.054 0 0 1-.63-.963V8.915zm.787 6.56V12.83c.027.005.053.006.08.009l.02.002a1.58 1.58 0 0 0 .874-.162l.04-.021c.05-.028.1-.058.148-.091l.045-.031a1.53 1.53 0 0 0 .63-1.258v-1.05a.521.521 0 0 1 .24-.44l.017-.009a.52.52 0 0 1 .081-.04l.025-.008a.502.502 0 0 1 .078-.02l.039-.004a.574.574 0 0 1 .116.003c.02.002.039.006.058.01l.02.007c.228.083.379.302.376.545v1.53a1.575 1.575 0 0 0 3.149 0v-1.574c0-.178.09-.344.24-.44l.015-.008a.524.524 0 0 1 .083-.042l.023-.006a.556.556 0 0 1 .078-.02c.013-.003.027-.003.038-.005a.525.525 0 0 1 .175.014l.019.006c.229.082.381.301.378.545v.48a1.575 1.575 0 0 0 3.15 0v-.524a.521.521 0 0 1 .24-.44l.017-.01a.538.538 0 0 1 .08-.04l.026-.007a.488.488 0 0 1 .078-.02l.038-.004a.575.575 0 0 1 .116.003c.02.002.04.006.059.01l.018.007c.229.083.38.302.377.545v1.006c0 .418.165.82.461 1.115a1.6 1.6 0 0 0 .166.141c.017.013.035.024.053.035a1.615 1.615 0 0 0 .353.183l.033.012c.144.05.294.078.446.084h.002c.073.003.146 0 .219-.006l.026-.003c.027-.003.053-.004.079-.009v2.646H1.436zM7.997 3.667c.724-.001 1.311-.588 1.312-1.312 0-.63-.913-1.984-1.096-2.249a.273.273 0 0 0-.432 0c-.183.265-1.096 1.619-1.096 2.249 0 .724.588 1.31 1.312 1.312zm0-2.937c.377.59.787 1.338.787 1.625a.787.787 0 1 1-1.574 0c0-.287.41-1.035.787-1.625zM12.457 4.192c.725-.001 1.312-.588 1.313-1.312 0-.63-.913-1.984-1.096-2.249a.273.273 0 0 0-.432 0c-.184.265-1.097 1.619-1.097 2.249.001.724.588 1.31 1.313 1.312zm0-2.937c.378.59.788 1.338.788 1.625a.787.787 0 0 1-1.575 0c0-.287.41-1.035.787-1.625zM3.536 4.192c.724-.001 1.311-.588 1.312-1.312 0-.63-.913-1.984-1.096-2.249a.273.273 0 0 0-.432 0C3.137.896 2.224 2.25 2.224 2.88c0 .724.587 1.31 1.312 1.312zm0-2.937c.377.59.787 1.338.787 1.625a.787.787 0 1 1-1.575 0c0-.287.41-1.035.788-1.625z"/></g><defs><clipPath id="clip0"><path fill="#fff" d="M0 0h16v16H0z"/></clipPath></defs></svg>