<svg width="16" height="16" fill="none" xmlns="http://www.w3.org/2000/svg"><g clip-path="url(#clip0)"><path d="M3.292 9.467c.015-.01.031-.017.047-.027l-.047.027zM7.702 9.393c.02-.008.04-.013.061-.02-.02.007-.041.011-.061.02zM7.86 9.348c.023-.005.047-.006.07-.008-.023.002-.047.003-.07.008zM12.46 9.36l.046.014a.38.38 0 0 0-.046-.014zM11.825 9.467c.015-.01.032-.017.047-.027-.015.01-.032.018-.047.027zM3.435 9.393c.02-.008.041-.013.062-.02-.02.007-.042.011-.062.02zM12.325 9.335H12.3c.026 0 .05.005.075.008-.017-.001-.032-.006-.049-.008zM12.127 9.348c.023-.005.047-.006.07-.008-.023.002-.047.003-.07.008zM11.969 9.393c.02-.008.04-.013.061-.02-.02.007-.042.011-.061.02zM8.194 9.36l.046.014a.384.384 0 0 0-.046-.014zM3.594 9.348c.023-.005.046-.006.07-.008-.024.002-.047.003-.07.008zM7.559 9.467c.014-.01.03-.017.046-.027-.015.01-.032.018-.046.027zM3.792 9.335h-.027c.027 0 .051.005.076.008-.017-.001-.032-.006-.049-.008zM3.927 9.36l.046.014a.384.384 0 0 0-.046-.014zM8.059 9.335h-.027c.027 0 .05.005.076.008-.017-.001-.033-.006-.05-.008z" fill="#FFCD00"/><path d="M13.456 12.144c-.25-.25-.39-.59-.39-.944v-1.022a.847.847 0 0 0-.56-.804l-.046-.014a.848.848 0 0 0-.262-.02c-.024.002-.048.004-.07.008a.835.835 0 0 0-.098.026c-.02.007-.041.012-.061.02a.776.776 0 0 0-.097.049c-.015.009-.032.016-.046.027a.799.799 0 0 0-.36.663v.534a1.333 1.333 0 0 1-2.666 0v-.489a.847.847 0 0 0-.56-.804l-.046-.014a.848.848 0 0 0-.263-.02c-.024.002-.048.004-.07.008a.832.832 0 0 0-.097.026c-.02.007-.042.012-.062.02a.774.774 0 0 0-.096.049c-.016.009-.032.016-.047.027a.796.796 0 0 0-.359.663v1.6a1.333 1.333 0 0 1-2.667 0v-1.555a.847.847 0 0 0-.56-.804l-.046-.014a.848.848 0 0 0-.262-.02c-.024.002-.048.004-.071.008a.832.832 0 0 0-.097.026c-.02.007-.042.012-.062.02a.775.775 0 0 0-.096.049c-.016.009-.032.016-.047.027a.796.796 0 0 0-.359.663V11.2A1.33 1.33 0 0 1 1.6 12.533c-.183 0-.365-.037-.533-.109v3.31h13.866v-3.31a1.339 1.339 0 0 1-1.477-.28z" fill="#FFCD00"/><path d="M14.667 7.733H1.333C.744 7.733.267 8.211.267 8.8v2.4c0 .354.14.693.389.944.25.25.59.391.944.39A1.33 1.33 0 0 0 2.933 11.2v-1.067a.798.798 0 0 1 .36-.666c.014-.01.03-.016.046-.027a.792.792 0 0 1 .096-.049c.02-.008.041-.013.062-.02a.832.832 0 0 1 .097-.026c.023-.004.047-.005.07-.007.024-.002.046-.005.07-.005.01 0 .02.003.03.004.012 0 .019-.002.027 0 .017 0 .032.006.049.008a.845.845 0 0 1 .086.015l.047.015c.332.103.56.41.56.758v1.6a1.333 1.333 0 0 0 2.667 0v-1.6a.798.798 0 0 1 .359-.666c.014-.01.03-.016.046-.027a.792.792 0 0 1 .097-.049c.02-.008.041-.013.061-.02a.833.833 0 0 1 .097-.026c.024-.004.047-.005.071-.007.024-.002.045-.005.07-.005.01 0 .02.003.03.004.011 0 .018-.002.027 0 .017 0 .032.006.049.008a.846.846 0 0 1 .086.015l.046.015c.333.103.56.41.561.758v.534a1.333 1.333 0 0 0 2.667 0v-.534a.798.798 0 0 1 .358-.666c.015-.01.032-.016.047-.027a.791.791 0 0 1 .097-.049c.02-.008.04-.013.061-.02a.835.835 0 0 1 .097-.026c.023-.004.047-.005.07-.007.024-.002.046-.005.07-.005.01 0 .02.003.031.004.01 0 .018-.002.027 0 .017 0 .032.006.048.008a.845.845 0 0 1 .087.015l.046.015c.333.103.56.41.56.758V11.2a1.33 1.33 0 0 0 1.334 1.333c.183 0 .365-.037.533-.11.486-.213.8-.693.8-1.223V8.8c0-.59-.477-1.067-1.066-1.067z" fill="#FF3051"/><path d="M2.544 12.144c.25-.25.39-.59.39-.944v.533A1.33 1.33 0 0 1 1.6 13.067a1.323 1.323 0 0 1-.944-.39 1.34 1.34 0 0 1-.39-.944V11.2c0 .354.14.693.39.944a1.34 1.34 0 0 0 1.888 0zM6.81 12.677c.25-.25.39-.59.39-.944v.534a1.333 1.333 0 0 1-2.667 0v-.534a1.335 1.335 0 0 0 2.278.944zM11.077 11.61c.25-.25.39-.59.39-.943v.533a1.333 1.333 0 0 1-2.667 0v-.533a1.335 1.335 0 0 0 2.277.944zM15.733 11.2v.533a1.341 1.341 0 0 1-.8 1.224 1.36 1.36 0 0 1-.533.11 1.33 1.33 0 0 1-1.333-1.334V11.2a1.33 1.33 0 0 0 1.333 1.333c.184 0 .365-.037.534-.11.485-.213.798-.693.8-1.223z" fill="#E52B49"/><path d="M15.733 16H.267a.267.267 0 0 1 0-.533h15.466a.267.267 0 1 1 0 .533z" fill="#BCBEC0"/><path d="M11.701 9.568zM4.533 10.178v-.045a.796.796 0 0 0-.56-.76.847.847 0 0 1 .56.806zM8.107 9.344zM8.8 10.178v-.045a.796.796 0 0 0-.56-.76.847.847 0 0 1 .56.806zM13.067 10.178v-.045a.796.796 0 0 0-.56-.76.847.847 0 0 1 .56.806zM7.763 9.373zM3.733 9.333c-.023 0-.046.005-.069.007a.784.784 0 0 1 .1-.003c-.01-.001-.02-.004-.03-.004zM3.84 9.344zM12.267 9.333c-.024 0-.046.005-.07.007a.786.786 0 0 1 .101-.003c-.01-.001-.02-.004-.031-.004zM3.339 9.442zM11.872 9.442zM12.03 9.373zM3.168 9.568zM3.497 9.373zM8 9.333c-.024 0-.046.005-.069.007a.784.784 0 0 1 .1-.003c-.01-.001-.02-.004-.031-.004zM7.435 9.568zM12.373 9.344zM7.605 9.442z" fill="#FFCD00"/><path d="M7.2 4.267h1.6v3.466H7.2V4.267z" fill="#FF9811"/><path d="M6.933 2.133a1.067 1.067 0 0 0 2.134 0C9.067 1.544 8 0 8 0S6.933 1.544 6.933 2.133z" fill="#FF6243"/><path d="M11.733 4.8h1.6v2.933h-1.6V4.8z" fill="#FF9811"/><path d="M11.467 2.667a1.067 1.067 0 0 0 2.133 0c0-.59-1.067-2.134-1.067-2.134s-1.066 1.545-1.066 2.134z" fill="#FF6243"/><path d="M2.667 4.8h1.6v2.933h-1.6V4.8z" fill="#FF9811"/><path d="M4.533 2.667c0 .536-.398.99-.93 1.058H3.6a1.067 1.067 0 0 1-1.2-1.059C2.4 2.078 3.467.534 3.467.534l.133.2c.288.438.933 1.475.933 1.934z" fill="#FF6243"/><path d="M3.6 3.725a1.067 1.067 0 0 1-1.2-1.059C2.4 2.078 3.467.534 3.467.534l.133.2c-.288.438-.933 1.475-.933 1.934 0 .537.4.99.933 1.058zM8.133 3.192a1.067 1.067 0 0 1-1.2-1.059C6.933 1.544 8 0 8 0s.053.077.133.2C7.845.637 7.2 1.675 7.2 2.133c0 .538.4.991.933 1.06zM12.667 3.725a1.067 1.067 0 0 1-1.2-1.059c0-.589 1.066-2.133 1.066-2.133s.054.078.134.2c-.288.438-.934 1.475-.934 1.934.001.537.4.99.934 1.058z" fill="#E5583C"/><path d="M2.667 4.8h1.6v.533h-1.6V4.8zM7.2 4.267h1.6V4.8H7.2v-.533zM11.733 4.8h1.6v.533h-1.6V4.8z" fill="#E5890F"/></g><defs><clipPath id="clip0"><path fill="#fff" d="M0 0h16v16H0z"/></clipPath></defs></svg>