<svg width="16" height="16" fill="none" xmlns="http://www.w3.org/2000/svg"><path d="M15.176 6.519h-.829a6.477 6.477 0 0 0-.811-1.96l.586-.586a.528.528 0 0 0 0-.746l-1.35-1.349a.528.528 0 0 0-.745 0l-.586.586a6.478 6.478 0 0 0-1.96-.811v-.83a.528.528 0 0 0-.527-.527H7.046a.527.527 0 0 0-.527.528v.829a6.48 6.48 0 0 0-1.96.811l-.586-.586a.528.528 0 0 0-.746 0l-1.349 1.35a.528.528 0 0 0 0 .745l.586.586a6.479 6.479 0 0 0-.811 1.96H.824a.527.527 0 0 0-.528.527v1.908a.528.528 0 0 0 .528.527h.829a6.48 6.48 0 0 0 .811 1.96l-.586.586a.528.528 0 0 0 0 .746l1.35 1.349c.205.206.54.206.745 0l.586-.586a6.48 6.48 0 0 0 1.96.811v.83a.528.528 0 0 0 .527.527h1.908a.528.528 0 0 0 .528-.528v-.829a6.482 6.482 0 0 0 1.959-.811l.586.586c.206.206.54.206.746 0l1.349-1.35a.528.528 0 0 0 0-.745l-.586-.586c.376-.604.65-1.266.811-1.96h.83a.528.528 0 0 0 .527-.527V7.046a.528.528 0 0 0-.528-.527z" fill="#A4C2F7"/><path d="M14.287 6.518h-.828a6.477 6.477 0 0 0-.812-1.959l.586-.586a.528.528 0 0 0 0-.746l-1.349-1.349c-.206-.206-.419.286-.625.492l-.592-.296c-.596-.371-.482-.258-1.185-.421v-.83a.528.528 0 0 0-.528-.527H7.046a.528.528 0 0 0-.527.528v.829a6.479 6.479 0 0 0-1.96.811l-.586-.586a.528.528 0 0 0-.746 0l-1.349 1.35a.528.528 0 0 0 0 .745l.586.586a6.479 6.479 0 0 0-.811 1.96H.824a.528.528 0 0 0-.528.527v1.908c0 .291.237.527.528.527h.829c.16.694.435 1.356.811 1.96l-.586.586a.528.528 0 0 0 0 .746l1.35 1.349c.205.206.54.206.745 0l.586-.586a6.48 6.48 0 0 0 1.96.811v.83c0 .29.236.527.527.527h1.908a.527.527 0 0 0 .528-.528v-.829c.703-.163.589-.05 1.185-.421.592-.191 1.273.14 1.803-.39l.763-.763a.527.527 0 0 0 0-.746l-.586-.586a6.48 6.48 0 0 0 .812-1.96h.828a.527.527 0 0 0 .528-.527V7.046a.528.528 0 0 0-.528-.528z" fill="url(#paint0_linear)"/><path d="M8 11.852a3.852 3.852 0 1 0 0-7.704 3.852 3.852 0 0 0 0 7.704z" fill="#E0B6EF"/><path d="M.824 9.481h.829a6.48 6.48 0 0 0 .811 1.96l-.586.586a.528.528 0 0 0 0 .746l1.35 1.349c.205.206.54.206.745 0l.072-.072-1.278-1.277a.528.528 0 0 1 0-.746l.586-.586a6.48 6.48 0 0 1-.811-1.96h-.83a.528.528 0 0 1-.527-.527V7.046c0-.291.236-.528.528-.528h.829a6.478 6.478 0 0 1 .811-1.959l-.586-.586a.528.528 0 0 1 0-.746l.763-.763c.192-.19.448-.3.717-.312l-.274-.274a.528.528 0 0 0-.746 0L1.878 3.227a.528.528 0 0 0 0 .746l.586.586a6.478 6.478 0 0 0-.811 1.96H.824a.528.528 0 0 0-.528.527v1.908a.528.528 0 0 0 .528.527z" fill="#fff"/><path d="M8 10.667a2.667 2.667 0 1 0 0-5.334 2.667 2.667 0 0 0 0 5.334z" fill="#CCB4D6"/><path d="M8 12.148a4.148 4.148 0 1 1 0-8.296 4.148 4.148 0 0 1 0 8.296zm0-7.704a3.556 3.556 0 1 0 0 7.112 3.556 3.556 0 0 0 0-7.112z" fill="#8B36DA"/><path d="M8.954 16H7.046a.825.825 0 0 1-.824-.824v-.598a6.77 6.77 0 0 1-1.617-.67l-.422.423a.843.843 0 0 1-1.165 0l-1.35-1.349a.824.824 0 0 1 0-1.165l.423-.422a6.77 6.77 0 0 1-.67-1.617H.825A.825.825 0 0 1 0 8.954V7.046c0-.455.369-.823.824-.824h.598c.152-.566.377-1.109.67-1.617l-.423-.422a.824.824 0 0 1 0-1.165l1.349-1.35a.844.844 0 0 1 1.165 0l.422.423a6.771 6.771 0 0 1 1.617-.67V.825c0-.455.37-.824.824-.824h1.908c.455 0 .823.369.824.824v.598c.565.152 1.109.377 1.617.67l.422-.423a.844.844 0 0 1 1.165 0l1.35 1.349a.824.824 0 0 1 0 1.165l-.423.422c.292.508.517 1.052.67 1.617h.597c.455 0 .823.37.824.824v1.908a.825.825 0 0 1-.824.824h-.598a6.773 6.773 0 0 1-.67 1.617l.423.422a.824.824 0 0 1 0 1.165l-1.349 1.35a.844.844 0 0 1-1.165 0l-.422-.423a6.77 6.77 0 0 1-1.617.67v.597a.825.825 0 0 1-.824.824zm-4.395-2.76c.056 0 .11.015.157.044.576.36 1.208.621 1.87.775.134.03.229.15.229.288v.83c0 .127.103.23.231.23h1.908a.231.231 0 0 0 .231-.23v-.83c0-.137.095-.257.23-.288a6.185 6.185 0 0 0 1.87-.774.296.296 0 0 1 .365.041l.586.586c.09.09.237.09.327 0l1.35-1.349a.231.231 0 0 0 0-.327l-.587-.586a.296.296 0 0 1-.042-.366 6.18 6.18 0 0 0 .775-1.87.296.296 0 0 1 .288-.229h.83a.231.231 0 0 0 .23-.231V7.046a.231.231 0 0 0-.23-.231h-.83a.296.296 0 0 1-.288-.23 6.174 6.174 0 0 0-.775-1.87.296.296 0 0 1 .042-.365l.586-.586a.232.232 0 0 0 0-.327l-1.349-1.35a.231.231 0 0 0-.327 0l-.586.587a.295.295 0 0 1-.366.042 6.181 6.181 0 0 0-1.87-.775.296.296 0 0 1-.229-.288v-.83a.231.231 0 0 0-.231-.23H7.046a.231.231 0 0 0-.231.23v.83a.296.296 0 0 1-.23.288 6.181 6.181 0 0 0-1.87.775.295.295 0 0 1-.365-.042l-.586-.586a.232.232 0 0 0-.327 0l-1.35 1.349a.232.232 0 0 0 0 .327l.587.586c.097.097.115.249.042.366a6.176 6.176 0 0 0-.775 1.87.296.296 0 0 1-.288.229h-.83a.231.231 0 0 0-.23.231v1.908c0 .128.103.231.23.231h.83c.138 0 .257.095.288.23a6.18 6.18 0 0 0 .775 1.87.296.296 0 0 1-.042.365l-.586.586a.231.231 0 0 0 0 .327l1.349 1.35c.09.09.236.09.327 0l.586-.587a.296.296 0 0 1 .21-.086z" fill="#8B36DA"/><path d="M8 10.963a2.963 2.963 0 1 1 0-5.926 2.963 2.963 0 0 1 0 5.926zM8 5.63a2.37 2.37 0 1 0 0 4.74 2.37 2.37 0 0 0 0-4.74z" fill="#8B36DA"/><defs><linearGradient id="paint0_linear" x1="2.331" y1="2.775" x2="13.363" y2="12.57" gradientUnits="userSpaceOnUse"><stop stop-color="#D4E1F4"/><stop offset=".172" stop-color="#D4E1F4"/><stop offset=".2" stop-color="#D4E1F4"/><stop offset=".2" stop-color="#DAE4F4"/><stop offset=".201" stop-color="#EBEBF4"/><stop offset=".201" stop-color="#F6F1F4"/><stop offset=".202" stop-color="#FDF4F4"/><stop offset=".205" stop-color="#F9EAFF"/><stop offset=".252" stop-color="#FFF5F4"/><stop offset=".26" stop-color="#D4E1F4"/><stop offset=".397" stop-color="#D4E1F4"/><stop offset=".42" stop-color="#D4E1F4"/><stop offset=".42" stop-color="#DAE4F4"/><stop offset=".421" stop-color="#EBEBF4"/><stop offset=".421" stop-color="#F6F1F4"/><stop offset=".422" stop-color="#FDF4F4"/><stop offset=".425" stop-color="#FCF0F8"/><stop offset=".489" stop-color="#FFF5F4"/><stop offset=".5" stop-color="#F9F2F4"/><stop offset=".5" stop-color="#E8EBF4"/><stop offset=".5" stop-color="#DDE5F4"/><stop offset=".5" stop-color="#D6E2F4"/><stop offset=".501" stop-color="#D4E1F4"/><stop offset=".706" stop-color="#D4E1F4"/><stop offset=".74" stop-color="#D4E1F4"/><stop offset=".741" stop-color="#FCEFF9"/><stop offset=".835" stop-color="#FFF5F4"/><stop offset=".85" stop-color="#FFF5F4"/><stop offset=".851" stop-color="#D4E1F4"/></linearGradient></defs></svg>