<!-- Generated by IcoMoon.io -->
<svg version="1.1" xmlns="http://www.w3.org/2000/svg" width="32" height="32" viewBox="0 0 32 32">
<title>edit-link</title>
<path d="M13.757 19.868c-0.001 0-0.001 0-0.002 0-0.448 0-0.854-0.182-1.147-0.476l-0-0c-2.973-2.973-2.973-7.81 0-10.783l6-6c1.44-1.44 3.355-2.233 5.392-2.233s3.951 0.793 5.392 2.233c2.973 2.973 2.973 7.81 0 10.783l-2.743 2.743c-0.294 0.294-0.7 0.476-1.149 0.476-0.897 0-1.625-0.727-1.625-1.625 0-0.449 0.182-0.855 0.476-1.149l2.743-2.743c0.79-0.792 1.279-1.886 1.279-3.094s-0.489-2.301-1.279-3.094l0 0c-0.826-0.826-1.925-1.281-3.094-1.281s-2.267 0.455-3.094 1.281l-6 6c-0.79 0.792-1.279 1.886-1.279 3.094s0.489 2.301 1.279 3.094l-0-0c0.295 0.294 0.477 0.701 0.477 1.15 0 0.897-0.727 1.624-1.624 1.624-0.001 0-0.002 0-0.002 0h0z"></path>
<path d="M8 31.625c-0.006 0-0.014 0-0.021 0-2.099 0-3.998-0.854-5.37-2.233l-0-0c-2.973-2.973-2.973-7.81 0-10.783l2.743-2.743c0.294-0.294 0.7-0.476 1.149-0.476 0.897 0 1.625 0.728 1.625 1.625 0 0.449-0.182 0.855-0.476 1.149l-2.743 2.743c-0.79 0.792-1.279 1.886-1.279 3.093s0.489 2.301 1.279 3.094l-0-0c0.826 0.826 1.925 1.281 3.094 1.281s2.267-0.455 3.094-1.281l6-6c0.79-0.792 1.279-1.886 1.279-3.093s-0.489-2.301-1.279-3.094l0 0c-0.294-0.294-0.476-0.7-0.476-1.149 0-0.897 0.727-1.625 1.625-1.625 0.449 0 0.855 0.182 1.149 0.476v0c2.973 2.973 2.973 7.81 0 10.783l-6 6c-1.372 1.379-3.272 2.233-5.371 2.233-0.008 0-0.015 0-0.022-0h0.001z"></path>
</svg>
