<svg width="16" height="16" fill="none" xmlns="http://www.w3.org/2000/svg"><g clip-path="url(#clip0)" fill="#000"><path d="M8 3.852A4.153 4.153 0 0 0 3.852 8 4.153 4.153 0 0 0 8 12.148 4.153 4.153 0 0 0 12.148 8 4.153 4.153 0 0 0 8 3.852zm0 7.704A3.56 3.56 0 0 1 4.444 8 3.56 3.56 0 0 1 8 4.444 3.56 3.56 0 0 1 11.556 8 3.56 3.56 0 0 1 8 11.556z"/><path d="M15.176 6.222h-.598a6.751 6.751 0 0 0-.67-1.617l.423-.422a.819.819 0 0 0 .241-.583.82.82 0 0 0-.24-.583l-1.35-1.349a.844.844 0 0 0-1.165 0l-.423.423a6.773 6.773 0 0 0-1.616-.67V.825A.825.825 0 0 0 8.954 0H7.046a.825.825 0 0 0-.824.824v.598a6.768 6.768 0 0 0-1.617.67l-.422-.423a.844.844 0 0 0-1.166 0L1.668 3.018a.819.819 0 0 0-.24.583c0 .22.085.426.24.582l.423.423a6.745 6.745 0 0 0-.67 1.616H.825A.825.825 0 0 0 0 7.046v1.908c0 .454.37.824.824.824h.598a6.77 6.77 0 0 0 .67 1.617l-.423.422a.819.819 0 0 0-.241.583c0 .22.085.427.24.582l1.35 1.35a.843.843 0 0 0 1.165 0l.423-.423c.508.292 1.05.517 1.617.67v.598c0 .454.369.823.823.823h1.908c.454 0 .824-.37.824-.823v-.598a6.767 6.767 0 0 0 1.617-.67l.422.423a.844.844 0 0 0 1.165 0l1.35-1.35a.819.819 0 0 0 .24-.582.82.82 0 0 0-.24-.583l-.423-.422a6.78 6.78 0 0 0 .67-1.617h.598c.454 0 .823-.37.823-.824V7.046a.825.825 0 0 0-.824-.824zm.231 2.732a.231.231 0 0 1-.23.231h-1.065l-.053.23a6.189 6.189 0 0 1-.775 1.87l-.124.199.752.752c.09.09.09.237 0 .327l-1.349 1.35a.231.231 0 0 1-.327 0l-.752-.753-.2.124c-.578.36-1.207.62-1.87.775l-.229.053v1.064a.231.231 0 0 1-.23.231h-1.91a.231.231 0 0 1-.23-.23v-1.065l-.23-.053a6.19 6.19 0 0 1-1.87-.775l-.199-.124-.752.752a.231.231 0 0 1-.327 0l-1.35-1.349a.231.231 0 0 1 0-.327l.753-.752-.124-.2a6.174 6.174 0 0 1-.775-1.87l-.053-.229H.824a.231.231 0 0 1-.231-.23v-1.91c0-.126.103-.23.23-.23h1.065l.053-.23a6.182 6.182 0 0 1 .775-1.87l.124-.199-.752-.752a.231.231 0 0 1 0-.327l1.349-1.35c.09-.09.236-.09.327 0l.752.753.2-.124a6.175 6.175 0 0 1 1.87-.775l.229-.053V.824c0-.128.104-.231.23-.231h1.909c.127 0 .231.103.231.23v1.065l.23.053a6.187 6.187 0 0 1 1.87.775l.199.124.752-.752c.09-.091.237-.09.327 0l1.35 1.349c.09.09.09.237 0 .327l-.753.752.124.2c.36.577.62 1.206.775 1.87l.053.229h1.064c.128 0 .231.104.231.23v1.91z"/><path d="M8 5.037A2.966 2.966 0 0 0 5.037 8 2.966 2.966 0 0 0 8 10.963 2.966 2.966 0 0 0 10.963 8 2.966 2.966 0 0 0 8 5.037zm0 5.333A2.373 2.373 0 0 1 5.63 8 2.373 2.373 0 0 1 8 5.63 2.373 2.373 0 0 1 10.37 8 2.373 2.373 0 0 1 8 10.37z"/></g><defs><clipPath id="clip0"><path fill="#fff" d="M0 0h16v16H0z"/></clipPath></defs></svg>