<!-- Generated by IcoMoon.io -->
<svg version="1.1" xmlns="http://www.w3.org/2000/svg" width="32" height="32" viewBox="0 0 32 32">
<title>edit-smile</title>
<path d="M16 32c8.837 0 16-7.163 16-16s-7.163-16-16-16-16 7.163-16 16 7.163 16 16 16zM16 3c7.18 0 13 5.82 13 13s-5.82 13-13 13-13-5.82-13-13 5.82-13 13-13zM8 10c-0-0.013-0-0.029-0-0.045 0-1.105 0.895-2 2-2s2 0.895 2 2c0 0.016-0 0.031-0.001 0.047l0-0.002c-0.025 1.085-0.911 1.956-1.999 1.956s-1.974-0.87-1.999-1.952l-0-0.002zM20 10c-0-0.013-0-0.029-0-0.045 0-1.105 0.895-2 2-2s2 0.895 2 2c0 0.016-0 0.031-0.001 0.047l0-0.002c-0.025 1.085-0.91 1.956-2 1.956s-1.974-0.87-1.999-1.952l-0-0.002zM22.003 19.602l2.573 1.544c-1.749 2.908-4.935 4.855-8.576 4.855s-6.827-1.946-8.576-4.855l2.573-1.544c1.224 2.036 3.454 3.398 6.003 3.398s4.779-1.362 6.003-3.398z"></path>
</svg>
