<svg width="16" height="16" fill="none" xmlns="http://www.w3.org/2000/svg"><g clip-path="url(#clip0)"><path d="M6.69 2.328L.291.292v13.38l6.4 2.036V2.328z" fill="#A4C2F7"/><path d="M4.363 1.746L.291.292v13.38l4.072 1.454V1.746z" fill="#ECECEC"/><path d="M5.818 2.328L1.164.292v13.38l4.654 2.036V2.328z" fill="url(#paint0_linear)"/><path d="M.291.292l6.4 2.036v11.344h3.49V.292H.29z" fill="#A4C2F7"/><path d="M.291.292l6.4 2.036v11.344h2.617V.292H.291z" fill="#E3E7F2"/><path d="M12.217 10.763a.29.29 0 0 1-.206-.496l3.49-3.49a.29.29 0 1 1 .412.41l-3.49 3.491a.29.29 0 0 1-.206.085z" fill="#428DFF"/><path d="M15.707 7.273a.29.29 0 0 1-.205-.085l-3.49-3.49a.29.29 0 0 1 .41-.412l3.49 3.49a.29.29 0 0 1-.205.497z" fill="#428DFF"/><path d="M15.707 7.273h-5.526a.29.29 0 0 1 0-.582h5.526a.29.29 0 0 1 0 .582zM6.69 16a.292.292 0 0 1-.088-.014L.203 13.948A.291.291 0 0 1 0 13.672V.292A.29.29 0 0 1 .38.015L6.778 2.05c.12.038.202.15.202.277v13.38a.29.29 0 0 1-.29.291zM.582 13.46L6.4 15.31V2.54L.582.69v12.77z" fill="#428DFF"/><path d="M5.818 9.6a.288.288 0 0 1-.108-.02l-1.455-.583a.29.29 0 1 1 .216-.54l1.455.582a.29.29 0 0 1-.108.56z" fill="#428DFF"/><path d="M10.18 13.964H6.69a.291.291 0 0 1-.29-.291V2.542L.202.57A.29.29 0 0 1 .29.002h9.89a.29.29 0 0 1 .29.29v13.381a.29.29 0 0 1-.29.29zm-3.199-.582H9.89V.584H2.165l4.613 1.468c.121.038.203.15.203.277v11.053z" fill="#428DFF"/></g><defs><linearGradient id="paint0_linear" x1="-1.527" y1="2.983" x2="9.333" y2="3.972" gradientUnits="userSpaceOnUse"><stop stop-color="#D4E1F4"/><stop offset=".172" stop-color="#D4E1F4"/><stop offset=".2" stop-color="#D4E1F4"/><stop offset=".2" stop-color="#DAE4F4"/><stop offset=".201" stop-color="#EBEBF4"/><stop offset=".201" stop-color="#F6F1F4"/><stop offset=".202" stop-color="#FDF4F4"/><stop offset=".205" stop-color="#FFF5F4"/><stop offset=".252" stop-color="#FFF5F4"/><stop offset=".26" stop-color="#D4E1F4"/><stop offset=".397" stop-color="#D4E1F4"/><stop offset=".42" stop-color="#D4E1F4"/><stop offset=".42" stop-color="#DAE4F4"/><stop offset=".421" stop-color="#EBEBF4"/><stop offset=".421" stop-color="#F6F1F4"/><stop offset=".422" stop-color="#FDF4F4"/><stop offset=".425" stop-color="#FFF5F4"/><stop offset=".489" stop-color="#FFF5F4"/><stop offset=".5" stop-color="#F9F2F4"/><stop offset=".5" stop-color="#E8EBF4"/><stop offset=".5" stop-color="#DDE5F4"/><stop offset=".5" stop-color="#D6E2F4"/><stop offset=".501" stop-color="#D4E1F4"/><stop offset=".706" stop-color="#D4E1F4"/><stop offset=".74" stop-color="#D4E1F4"/><stop offset=".741" stop-color="#FFF5F4"/><stop offset=".835" stop-color="#FFF5F4"/><stop offset=".85" stop-color="#FFF5F4"/><stop offset=".851" stop-color="#D4E1F4"/></linearGradient><clipPath id="clip0"><path fill="#fff" d="M0 0h16v16H0z"/></clipPath></defs></svg>