<svg width="16" height="16" fill="none" xmlns="http://www.w3.org/2000/svg"><g clip-path="url(#clip0)" fill="#000"><path d="M15.979 7.093a.291.291 0 0 0-.063-.317l-3.491-3.49a.29.29 0 1 0-.412.41l2.995 2.995h-4.534V.29A.29.29 0 0 0 10.183 0H.292C.282 0 .274.004.265.005.25.007.235.01.22.015a.283.283 0 0 0-.075.031C.137.051.127.051.12.056L.096.078.081.092a.303.303 0 0 0-.053.08L.02.188a.29.29 0 0 0-.02.102v13.382c0 .036.008.07.02.103l.016.03a.283.283 0 0 0 .121.121c.01.006.02.012.032.016l.014.007 6.4 2.037a.291.291 0 0 0 .379-.277v-1.746h3.2c.16 0 .29-.13.29-.291v-6.4h4.535l-2.994 2.994a.29.29 0 1 0 .41.411l3.492-3.49a.295.295 0 0 0 .063-.095zM6.4 15.31l-5.818-1.85V.688L6.4 2.539v12.772zm3.49-1.93H6.984V2.328a.29.29 0 0 0-.203-.277L2.166.582h7.726v12.8z"/><path d="M5.926 9.039l-1.454-.582a.29.29 0 1 0-.216.54l1.455.582a.291.291 0 0 0 .216-.54z"/></g><defs><clipPath id="clip0"><path fill="#fff" d="M0 0h16v16H0z"/></clipPath></defs></svg>