<svg width="16" height="16" fill="none" xmlns="http://www.w3.org/2000/svg"><g clip-path="url(#clip0)"><path d="M15.733 9.6v5.333a.799.799 0 0 1-.8.8h-9.6a.8.8 0 0 1-.8-.8V9.6a.799.799 0 0 1 .8-.8h6.934L13.6 7.165l.344-.421a.268.268 0 0 1 .456.19V8.8h.534a.8.8 0 0 1 .8.8z" fill="#1566C0"/><path d="M14.933 9.6v5.333a.799.799 0 0 1-.8.8h-8.8a.799.799 0 0 1-.8-.8V9.6a.799.799 0 0 1 .8-.8h6.934L13.6 7.165V8.8h.534a.708.708 0 0 1 .25.043.794.794 0 0 1 .55.757z" fill="#6CBAF9"/><path d="M10.666 13.6v.506a.55.55 0 0 1-.355.531.536.536 0 0 1-.711-.504V13.6h1.066z" fill="#fff"/><path d="M11.467 1.067V6.4a.799.799 0 0 1-.8.8H3.733L2.056 9.256a.268.268 0 0 1-.456-.19V7.2h-.533a.707.707 0 0 1-.251-.043.794.794 0 0 1-.55-.757V1.067a.799.799 0 0 1 .8-.8h9.6a.799.799 0 0 1 .8.8z" fill="#C52828"/><path d="M10.667 1.067V6.4a.799.799 0 0 1-.8.8H2.933L1.6 8.835V7.2h-.533a.707.707 0 0 1-.251-.043.794.794 0 0 1-.55-.757V1.067a.799.799 0 0 1 .8-.8h8.8a.799.799 0 0 1 .8.8z" fill="#F46B60"/><path d="M11.713 11.209a1.597 1.597 0 0 1-.574 1.5.54.54 0 0 0-.206.42v.204c0 .148-.12.267-.266.267H9.6a.267.267 0 0 1-.267-.267v-.205a.53.53 0 0 0-.2-.414 1.6 1.6 0 1 1 2.58-1.505z" fill="#FFEB3A"/><path d="M10.137 10.667a.267.267 0 0 0 0 .534c.147 0 .267.119.267.266a.267.267 0 1 0 .533 0 .8.8 0 0 0-.8-.8zM6.933 11.734h.534a.267.267 0 0 0 0-.534h-.534a.267.267 0 1 0 0 .534zM7.038 10.626l.502.182a.267.267 0 1 0 .182-.501l-.502-.182a.267.267 0 0 0-.182.501zM7.54 12.13l-.5.184a.267.267 0 0 0 .183.5l.5-.182a.267.267 0 1 0-.182-.501zM13.333 11.2H12.8a.267.267 0 0 0 0 .533h.534a.267.267 0 0 0 0-.534zM12.642 10.82a.269.269 0 0 0 .092-.017l.5-.182a.267.267 0 0 0-.182-.501l-.501.182a.267.267 0 0 0 .091.518zM13.236 12.308l-.5-.182a.267.267 0 0 0-.183.502l.501.182a.267.267 0 0 0 .182-.502zM4 3.2c.147 0 .267-.12.267-.267-.001-.402.18-.782.492-1.035a1.348 1.348 0 0 1 1.13-.268c.508.11.904.506 1.014 1.013a1.336 1.336 0 0 1-1.112 1.61.535.535 0 0 0-.458.526v.288a.267.267 0 0 0 .534 0V4.78a1.867 1.867 0 1 0-2.134-1.848c0 .148.12.267.267.267zM5.79 5.944a.308.308 0 0 0-.089-.056.274.274 0 0 0-.29.056.307.307 0 0 0-.056.088.267.267 0 0 0-.016.155.17.17 0 0 0 .016.048.202.202 0 0 0 .024.048l.032.04a.28.28 0 0 0 .19.077c.034 0 .069-.006.1-.021a.31.31 0 0 0 .088-.056l.032-.04a.203.203 0 0 0 .024-.048.175.175 0 0 0 .016-.048.267.267 0 0 0-.016-.155.313.313 0 0 0-.056-.088z" fill="#000"/><path d="M1.067 7.467h.266v1.6a.533.533 0 0 0 .929.356L3.86 7.467h6.807c.588-.001 1.066-.478 1.066-1.067V1.067c0-.59-.478-1.066-1.066-1.067h-9.6C.477 0 0 .478 0 1.067V6.4c0 .589.478 1.066 1.067 1.067zm-.534-6.4c0-.295.24-.533.534-.534h9.6c.294 0 .533.24.533.534V6.4a.534.534 0 0 1-.533.533H3.733l-.012.003a.558.558 0 0 0-.101.025.263.263 0 0 0-.04.026.26.26 0 0 0-.043.036l-.01.008-1.66 2.033V7.2a.267.267 0 0 0-.267-.267h-.533A.534.534 0 0 1 .533 6.4V1.067z" fill="#000"/><path d="M14.933 8.533h-.266v-1.6a.533.533 0 0 0-.929-.356L12.14 8.533H5.333c-.588.001-1.066.478-1.066 1.067v5.333c0 .59.478 1.066 1.066 1.067h9.6c.59 0 1.066-.478 1.067-1.067V9.6c0-.589-.478-1.066-1.067-1.067zm.534 6.4a.534.534 0 0 1-.534.534h-9.6a.534.534 0 0 1-.533-.534V9.6c0-.295.239-.533.533-.533h6.934a.264.264 0 0 0 .108-.024.277.277 0 0 0 .023-.016.265.265 0 0 0 .066-.051c.002-.003.006-.004.01-.007l1.66-2.033V8.8c0 .147.119.267.266.267h.533c.295 0 .533.238.534.533v5.333z" fill="#000"/><path d="M10.358 9.613a1.866 1.866 0 0 0-1.391 3.31c.063.049.1.125.1.205v.205c0 .19.102.365.266.46v.34a.803.803 0 0 0 1.062.757.811.811 0 0 0 .539-.784v-.314a.532.532 0 0 0 .266-.459v-.204a.274.274 0 0 1 .107-.212c.523-.42.779-1.089.67-1.75a1.886 1.886 0 0 0-1.62-1.554zm-.13 4.77a.27.27 0 0 1-.361-.25v-.266h.533v.24a.288.288 0 0 1-.172.277zm.744-1.881a.805.805 0 0 0-.305.627v.203l-1.067.001v-.205a.793.793 0 0 0-.3-.622 1.333 1.333 0 0 1 .996-2.363 1.344 1.344 0 0 1 1.154 1.107c.078.473-.104.951-.478 1.252z" fill="#000"/></g><defs><clipPath id="clip0"><path fill="#fff" d="M0 0h16v16H0z"/></clipPath></defs></svg>