<svg width="16" height="16" fill="none" xmlns="http://www.w3.org/2000/svg"><path d="M4.89 11.123h-.952v.022a.74.74 0 0 1-1.482 0v-.022h-.952a1.27 1.27 0 0 0-1.27 1.27v3.591H6.16v-3.59a1.27 1.27 0 0 0-1.27-1.27z" fill="#48C8EF"/><path d="M14.496 11.123h-.952v.022a.74.74 0 1 1-1.482 0v-.022h-.952a1.27 1.27 0 0 0-1.27 1.27v3.591h5.926v-3.59a1.27 1.27 0 0 0-1.27-1.27z" fill="#FFCB5A"/><path d="M3.938 9.98v1.165a.74.74 0 1 1-1.482 0V9.98h1.482z" fill="#ECCE93"/><path d="M3.197 6.7c-.818 0-1.482.663-1.482 1.482v.889l.381-.705a.635.635 0 0 1 .559-.333h1.084c.233 0 .448.128.558.333l.381.705v-.89c0-.818-.663-1.48-1.481-1.48z" fill="#57565C"/><path d="M3.938 9.98v1.061a2.092 2.092 0 0 1-1.482 0v-1.06h1.482z" fill="#E5BD76"/><path d="M3.739 8.033H2.655a.635.635 0 0 0-.559.333l-.38.705a1.481 1.481 0 0 0 2.962 0l-.38-.705a.635.635 0 0 0-.559-.333zM13.544 9.98v1.165a.74.74 0 1 1-1.482 0V9.98h1.482zM8.975 10.807v1.532a.975.975 0 1 1-1.95 0v-1.532h1.95z" fill="#ECCE93"/><path d="M8.975 10.807v1.184a2.56 2.56 0 0 1-1.95 0v-1.184h1.95z" fill="#E5BD76"/><path d="M8.713 8.245H7.287a.835.835 0 0 0-.735.438l-.501.927a1.95 1.95 0 1 0 3.898 0l-.5-.927a.836.836 0 0 0-.736-.438z" fill="#ECCE93"/><path d="M8 6.49a1.95 1.95 0 0 0-1.95 1.95v1.17l.502-.927a.836.836 0 0 1 .735-.438h1.426c.307 0 .59.168.735.438l.501.927V8.44A1.95 1.95 0 0 0 8 6.49z" fill="#57565C"/><path d="M5.945 11.687c.136.202.215.445.215.706v3.591H3.478v-2.002a2.297 2.297 0 0 1 2.294-2.295h.173z" fill="#24B2D3"/><path d="M12.523 13.982v2.003H9.84v-3.592c0-.261.08-.504.215-.706h.173a2.297 2.297 0 0 1 2.295 2.295z" fill="#FBA61F"/><path d="M10.228 12.31H8.975v.029a.975.975 0 1 1-1.95 0v-.028H5.772a1.67 1.67 0 0 0-1.67 1.67v2.003h7.797v-2.002c0-.923-.748-1.671-1.671-1.671z" fill="#A477BD"/><path d="M13.544 9.98v1.061a2.091 2.091 0 0 1-1.482 0v-1.06h1.482z" fill="#E5BD76"/><path d="M13.345 8.033h-1.084a.635.635 0 0 0-.558.333l-.381.705a1.481 1.481 0 1 0 2.963 0l-.381-.705a.635.635 0 0 0-.559-.333z" fill="#ECCE93"/><path d="M12.803 6.7c-.818 0-1.481.663-1.481 1.482v.889l.38-.705a.635.635 0 0 1 .559-.333h1.084c.233 0 .448.128.559.333l.38.705v-.89c0-.818-.663-1.48-1.48-1.48z" fill="#57565C"/><path d="M4.008.265H.265V3.54h1.248l.623 1.123.624-1.123h1.248V.265z" fill="#48C8EF"/><path d="M15.766.265h-3.743V3.54h1.248l.624 1.123.624-1.123h1.247V.265z" fill="#FFCB5A"/><path d="M11.119.265H4.912V3.54h2.48l.624 1.123.623-1.123h2.48V.265z" fill="#A477BD"/><path d="M5.12 14.706h.468v1.279h-.467v-1.28zM10.412 14.706h.467v1.279h-.467v-1.28z" fill="#000"/><path d="M14.496 10.89h-.718v-.409c.447-.31.74-.826.74-1.41v-.89c0-.945-.769-1.715-1.715-1.715-.946 0-1.715.77-1.715 1.716v.889c0 .584.293 1.1.74 1.41v.408h-.718c-.716 0-1.324.507-1.47 1.188h-.431v-.65c.587-.392.974-1.06.974-1.817V8.44c0-1.204-.98-2.183-2.183-2.183-1.204 0-2.183.98-2.183 2.183v1.17c0 .757.387 1.425.974 1.817v.65h-.43a1.507 1.507 0 0 0-1.47-1.188h-.72v-.408c.448-.31.741-.826.741-1.41v-.89c0-.945-.77-1.715-1.715-1.715-.946 0-1.716.77-1.716 1.716v.889c0 .584.294 1.1.741 1.41v.409h-.718c-.83 0-1.504.674-1.504 1.503v3.591h.468v-3.59c0-.572.464-1.037 1.036-1.037h.742a.976.976 0 0 0 .95.762.976.976 0 0 0 .952-.762h.742c.458 0 .852.301.986.72h-.104c-1.05 0-1.905.854-1.905 1.905v2.003h.468v-2.003c0-.793.645-1.437 1.437-1.437H6.81A1.21 1.21 0 0 0 8 13.547a1.21 1.21 0 0 0 1.19-1.002h1.038c.792 0 1.437.644 1.437 1.437v2.003h.468v-2.003c0-1.05-.855-1.905-1.905-1.905h-.104c.134-.419.528-.72.986-.72h.742a.976.976 0 0 0 .951.762.976.976 0 0 0 .951-.762h.742c.572 0 1.036.465 1.036 1.036v3.591H16v-3.59c0-.83-.675-1.505-1.504-1.505zm-11.3-3.956c.682 0 1.237.548 1.248 1.227a.868.868 0 0 0-.705-.361H2.655a.868.868 0 0 0-.705.36 1.249 1.249 0 0 1 1.247-1.226zm.508 4.21a.507.507 0 0 1-1.014 0v-.434a1.715 1.715 0 0 0 1.014 0v.434zm-.507-.826c-.669 0-1.217-.53-1.246-1.19l.351-.65a.4.4 0 0 1 .353-.21h1.084a.4.4 0 0 1 .353.21l.351.65a1.249 1.249 0 0 1-1.246 1.19zM6.285 8.44c0-.946.77-1.715 1.715-1.715.946 0 1.715.77 1.715 1.715v.245l-.061-.113a1.068 1.068 0 0 0-.94-.56H7.286c-.394 0-.754.214-.941.56l-.061.113V8.44zM8.74 12.34a.742.742 0 0 1-1.482 0v-.676a2.171 2.171 0 0 0 1.482 0v.676zM8 11.325c-.927 0-1.684-.74-1.714-1.659l.472-.872a.6.6 0 0 1 .529-.315h1.426a.6.6 0 0 1 .53.315l.471.872A1.717 1.717 0 0 1 8 11.326zm4.803-4.39c.681 0 1.236.547 1.247 1.226a.868.868 0 0 0-.705-.361h-1.084a.868.868 0 0 0-.705.36 1.249 1.249 0 0 1 1.247-1.226zm.507 4.21a.507.507 0 0 1-1.014 0v-.435a1.714 1.714 0 0 0 1.014 0v.434zm-.507-.827c-.669 0-1.216-.53-1.246-1.19l.351-.65a.4.4 0 0 1 .353-.21h1.084a.4.4 0 0 1 .353.21l.351.65a1.249 1.249 0 0 1-1.246 1.19z" fill="#000"/><path d="M14.58 12.944h.468v3.04h-.468v-3.04zM.952 12.944h.468v3.04H.952v-3.04zM2.136 5.145l.762-1.371h1.344V.03H.032v3.743h1.343l.761 1.37zM.5.499h3.275v2.807H2.623l-.487.875-.486-.875H.5V.5zM11.79.031v3.743h1.343l.762 1.37.761-1.37H16V.03h-4.21zm3.742 3.275h-1.151l-.486.875-.486-.875h-1.152V.5h3.275v2.807zM8.016 5.145l.761-1.371h2.576V.03H4.678v3.743h2.576l.762 1.37zM5.146.499h5.739v2.807H8.502l-.486.875-.487-.875H5.146V.5z" fill="#000"/><path d="M3.228 1.747H1.98v-.468h1.248v.468zm-1.715 0h-.468v-.468h.468v.468zM3.228 2.682H2.76v-.468h.468v.468zm-.936 0H1.045v-.468h1.247v.468zM14.986 1.747H13.74v-.468h1.247v.468zm-1.715 0h-.468v-.468h.468v.468zM14.986 2.682h-.467v-.468h.467v.468zm-.935 0h-1.248v-.468h1.248v.468zM10.199 1.59h-.78v-.467h.78v.468zm-1.248 0h-.468v-.467h.468v.468zm-.935 0H5.832v-.467h2.184v.468zM10.199 2.558H9.73V2.09h.468v.468zm-.936 0H7.548V2.09h1.715v.468zm-2.183 0H5.832V2.09H7.08v.468z" fill="#fff"/></svg>