<svg width="16" height="16" fill="none" xmlns="http://www.w3.org/2000/svg"><path d="M5.12 14.706h.468v1.279h-.467v-1.28zM10.412 14.706h.467v1.279h-.467v-1.28z" fill="#000"/><path d="M14.496 10.89h-.718v-.409c.447-.31.74-.826.74-1.41v-.89c0-.945-.769-1.715-1.715-1.715-.946 0-1.715.77-1.715 1.716v.889c0 .584.293 1.1.74 1.41v.408h-.718c-.716 0-1.324.507-1.47 1.188h-.431v-.65c.587-.392.974-1.06.974-1.817V8.44c0-1.204-.98-2.183-2.183-2.183-1.204 0-2.183.98-2.183 2.183v1.17c0 .757.387 1.425.974 1.817v.65h-.43a1.507 1.507 0 0 0-1.47-1.188h-.72v-.408c.448-.31.741-.826.741-1.41v-.89c0-.945-.77-1.715-1.715-1.715-.946 0-1.716.77-1.716 1.716v.889c0 .584.294 1.1.741 1.41v.409h-.718c-.83 0-1.504.674-1.504 1.503v3.591h.468v-3.59c0-.572.464-1.037 1.036-1.037h.742a.976.976 0 0 0 .95.762.976.976 0 0 0 .952-.762h.742c.458 0 .852.301.986.72h-.104c-1.05 0-1.905.854-1.905 1.905v2.003h.468v-2.003c0-.793.645-1.437 1.437-1.437H6.81A1.21 1.21 0 0 0 8 13.547a1.21 1.21 0 0 0 1.19-1.002h1.038c.792 0 1.437.644 1.437 1.437v2.003h.468v-2.003c0-1.05-.855-1.905-1.905-1.905h-.104c.134-.419.528-.72.986-.72h.742a.976.976 0 0 0 .951.762.976.976 0 0 0 .951-.762h.742c.572 0 1.036.465 1.036 1.036v3.591H16v-3.59c0-.83-.675-1.505-1.504-1.505zm-11.3-3.956c.682 0 1.237.548 1.248 1.227a.868.868 0 0 0-.705-.361H2.655a.868.868 0 0 0-.705.36 1.249 1.249 0 0 1 1.247-1.226zm.508 4.21a.507.507 0 0 1-1.014 0v-.434a1.715 1.715 0 0 0 1.014 0v.434zm-.507-.826c-.669 0-1.217-.53-1.246-1.19l.351-.65a.4.4 0 0 1 .353-.21h1.084a.4.4 0 0 1 .353.21l.351.65a1.249 1.249 0 0 1-1.246 1.19zM6.285 8.44c0-.946.77-1.715 1.715-1.715.946 0 1.715.77 1.715 1.715v.245l-.061-.113a1.068 1.068 0 0 0-.94-.56H7.286c-.394 0-.754.214-.941.56l-.061.113V8.44zM8.74 12.34a.742.742 0 0 1-1.482 0v-.676a2.171 2.171 0 0 0 1.482 0v.676zM8 11.325c-.927 0-1.684-.74-1.714-1.659l.472-.872a.6.6 0 0 1 .529-.315h1.426a.6.6 0 0 1 .53.315l.471.872A1.717 1.717 0 0 1 8 11.326zm4.803-4.39c.681 0 1.236.547 1.247 1.226a.868.868 0 0 0-.705-.361h-1.084a.868.868 0 0 0-.705.36 1.249 1.249 0 0 1 1.247-1.226zm.507 4.21a.507.507 0 0 1-1.014 0v-.435a1.714 1.714 0 0 0 1.014 0v.434zm-.507-.827c-.669 0-1.216-.53-1.246-1.19l.351-.65a.4.4 0 0 1 .353-.21h1.084a.4.4 0 0 1 .353.21l.351.65a1.249 1.249 0 0 1-1.246 1.19z" fill="#000"/><path d="M14.58 12.944h.468v3.04h-.468v-3.04zM.952 12.944h.468v3.04H.952v-3.04zM2.136 5.145l.762-1.371h1.344V.03H.032v3.743h1.343l.761 1.37zM.5.499h3.275v2.807H2.623l-.487.875-.486-.875H.5V.5zM11.79.031v3.743h1.343l.762 1.37.761-1.37H16V.03h-4.21zm3.742 3.275h-1.151l-.486.875-.486-.875h-1.152V.5h3.275v2.807zM8.016 5.145l.761-1.371h2.576V.03H4.678v3.743h2.576l.762 1.37zM5.146.499h5.739v2.807H8.502l-.486.875-.487-.875H5.146V.5z" fill="#000"/><path d="M1.98 1.279h1.248v.468H1.98v-.468zM1.045 1.279h.468v.468h-.468v-.468zM1.045 2.214h1.247v.468H1.045v-.468zM2.76 2.214h.468v.468H2.76v-.468zM13.739 1.279h1.247v.468H13.74v-.468zM12.803 1.279h.468v.468h-.468v-.468zM12.803 2.214h1.248v.468h-1.248v-.468zM14.519 2.214h.467v.468h-.467v-.468zM8.483 1.123h.468v.468h-.468v-.468zM9.42 1.123h.779v.468h-.78v-.468zM5.832 1.123h2.184v.468H5.832v-.468zM9.731 2.09h.468v.468H9.73V2.09zM5.832 2.09H7.08v.468H5.832V2.09zM7.548 2.09h1.715v.468H7.548V2.09z" fill="#000"/></svg>