<svg width="16" height="16" fill="none" xmlns="http://www.w3.org/2000/svg"><g clip-path="url(#clip0)"><path d="M14.313 5.429H3.17L.884.286h11.143l2.286 5.143z" fill="#0E65E5"/><path d="M14.313 5.714H3.17a.286.286 0 0 1-.261-.17L.623.403A.285.285 0 0 1 .883 0h11.144c.113 0 .215.066.26.17l2.286 5.143a.285.285 0 0 1-.26.401zM3.354 5.143h10.518L11.84.57H1.323l2.032 4.572zM14.313 15.714H3.17L.884 10.571h11.143l2.286 5.143z" fill="#0E65E5"/><path d="M14.313 16H3.17a.285.285 0 0 1-.261-.17L.623 10.688a.285.285 0 0 1 .261-.402h11.143c.113 0 .215.066.26.17l2.287 5.142a.285.285 0 0 1-.261.402zM3.354 15.43h10.518l-2.032-4.572H1.323l2.032 4.572z" fill="#0E65E5"/><path d="M.884 10.571h11.143l2.286-5.142H3.17L.884 10.57z" fill="#0E65E5"/><path d="M12.027 10.857H.884a.286.286 0 0 1-.261-.402l2.286-5.142a.286.286 0 0 1 .26-.17h11.143a.286.286 0 0 1 .262.402l-2.286 5.143a.286.286 0 0 1-.261.17zm-10.704-.571h10.518l2.032-4.572H3.355l-2.032 4.572z" fill="#0E65E5"/><path d="M15.17 5.429H4.027L1.74.286h11.143l2.286 5.143z" fill="#94C1FF"/><path d="M15.17 5.714H4.027a.286.286 0 0 1-.261-.17L1.48.403A.286.286 0 0 1 1.741 0h11.143c.113 0 .216.066.261.17l2.286 5.143a.285.285 0 0 1-.261.401zM4.213 5.143H14.73L12.698.57H2.181l2.032 4.572z" fill="#0E65E5"/><path d="M15.17 15.714H4.027L1.74 10.571h11.143l2.286 5.143z" fill="#94C1FF"/><path d="M15.17 16H4.027a.285.285 0 0 1-.261-.17L1.48 10.688a.285.285 0 0 1 .261-.402h11.143c.113 0 .216.066.261.17l2.286 5.142a.286.286 0 0 1-.261.402zM4.213 15.43H14.73l-2.032-4.572H2.181l2.032 4.572z" fill="#0E65E5"/><path d="M1.741 10.571h11.143L15.17 5.43H4.027L1.74 10.57z" fill="#fff"/><path d="M12.884 10.857H1.741a.286.286 0 0 1-.26-.402l2.285-5.142a.286.286 0 0 1 .26-.17H15.17a.286.286 0 0 1 .26.402l-2.285 5.143a.286.286 0 0 1-.26.17zm-10.703-.571h10.517l2.032-4.572H4.213L2.18 10.286zM8.313 2.286H4.027a.286.286 0 0 1 0-.572h4.286a.285.285 0 1 1 0 .572zM9.17 3.429H4.884a.286.286 0 0 1 0-.572H9.17a.286.286 0 1 1 0 .572zM8.884 12.857H4.598a.286.286 0 1 1 0-.571h4.286a.286.286 0 0 1 0 .571z" fill="#0E65E5"/><path d="M6.312 9.429H4.027a.286.286 0 1 1 0-.572h2.285a.286.286 0 1 1 0 .572zM8.598 8.286h-4a.286.286 0 1 1 0-.572h4a.286.286 0 1 1 0 .572zM11.741 4.286a.285.285 0 0 1-.128-.03l-1.143-.572a.286.286 0 1 1 .256-.511l.788.394.23-1.607a.285.285 0 1 1 .566.08l-.286 2a.286.286 0 0 1-.283.246zM11.17 9.143a.286.286 0 0 1-.202-.084l-.857-.857a.285.285 0 1 1 .404-.404l.558.559.691-1.612a.286.286 0 1 1 .525.225l-.857 2a.286.286 0 0 1-.262.173zM11.741 14.572a.288.288 0 0 1-.128-.03l-1.143-.572a.285.285 0 1 1 .256-.511l.788.394.23-1.608a.286.286 0 0 1 .566.08l-.286 2.001a.286.286 0 0 1-.283.245z" fill="#0E65E5"/><path d="M3.455 4.571a.286.286 0 0 1-.285-.285V3.143a.286.286 0 1 1 .571 0v1.143a.286.286 0 0 1-.286.285z" fill="#fff"/><path d="M4.027 4H2.884a.286.286 0 1 1 0-.571h1.143a.286.286 0 1 1 0 .571zM12.313 11.714h-2.286a.286.286 0 1 1 0-.571h2.286a.286.286 0 0 1 0 .571z" fill="#fff"/></g><defs><clipPath id="clip0"><path fill="#fff" d="M0 0h16v16H0z"/></clipPath></defs></svg>