<svg width="16" height="16" fill="none" xmlns="http://www.w3.org/2000/svg"><path d="M14.975 5.313L12.69.17a.286.286 0 0 0-.261-.17H1.286a.286.286 0 0 0-.261.402L3.31 5.545c.046.103.148.17.261.17h11.143a.285.285 0 0 0 .261-.402zm-11.218-.17L1.725.57h10.518l2.032 4.572H3.757zM14.975 15.598l-2.285-5.143a.286.286 0 0 0-.261-.17H1.286a.286.286 0 0 0-.261.402L3.31 15.83c.046.103.148.17.261.17h11.143a.286.286 0 0 0 .261-.402zm-11.218-.17l-2.032-4.57h10.518l2.032 4.57H3.757z" fill="#000"/><path d="M14.954 5.273a.286.286 0 0 0-.24-.13H3.571a.286.286 0 0 0-.26.17l-2.286 5.142a.286.286 0 0 0 .26.402H12.43a.286.286 0 0 0 .26-.17l2.286-5.142a.285.285 0 0 0-.021-.272zm-2.711 5.013H1.725l2.032-4.572h10.518l-2.032 4.572zM7.857 1.714H3.571a.286.286 0 0 0 0 .572h4.286a.286.286 0 0 0 0-.572zM8.714 2.857H4.43a.286.286 0 0 0 0 .572h4.285a.286.286 0 0 0 0-.572zM8.429 12.286H4.143a.286.286 0 0 0 0 .571h4.286a.286.286 0 0 0 0-.571z" fill="#000"/><path d="M5.857 8.857H3.571a.286.286 0 0 0 0 .572h2.286a.286.286 0 0 0 0-.572zM8.143 7.714h-4a.286.286 0 0 0 0 .572h4a.286.286 0 0 0 0-.572zM11.612 1.717a.285.285 0 0 0-.323.243l-.23 1.607-.788-.394a.286.286 0 1 0-.256.511l1.143.572a.286.286 0 0 0 .41-.216l.286-2a.285.285 0 0 0-.242-.323zM11.684 6.594a.285.285 0 0 0-.375.15l-.691 1.613-.559-.559a.286.286 0 0 0-.404.404l.857.857a.286.286 0 0 0 .465-.09l.857-2a.286.286 0 0 0-.15-.375zM11.612 12.003a.285.285 0 0 0-.323.242l-.23 1.608-.788-.394a.286.286 0 1 0-.256.51l1.143.572a.287.287 0 0 0 .41-.215l.286-2a.286.286 0 0 0-.242-.323z" fill="#000"/></svg>