<svg width="16" height="16" fill="none" xmlns="http://www.w3.org/2000/svg"><g clip-path="url(#clip0)" fill="#000"><path d="M3.85 5.805a.685.685 0 0 0-.961.118.234.234 0 0 0 .369.288.216.216 0 0 1 .303-.037.234.234 0 0 0 .288-.37zM6.255 5.51a.685.685 0 0 0-.96.117.234.234 0 0 0 .369.29.216.216 0 0 1 .303-.038.234.234 0 0 0 .288-.37zM5.984 7.311l-.026-.218a.353.353 0 0 0-.396-.31l-1.346.166a.353.353 0 0 0-.31.396l.027.218a1.035 1.035 0 0 0 2.051-.252zm-.957.687a.565.565 0 0 1-.629-.492L4.385 7.4l1.121-.138.013.105a.565.565 0 0 1-.492.63z"/><path d="M7.678 1.08A2.07 2.07 0 0 0 6.546.017a.234.234 0 0 0-.295.11c-.252.491-.861.84-1.63.935l-1.355.166a.234.234 0 1 0 .057.465l1.356-.166c.824-.101 1.506-.466 1.872-.992.764.408.95 1.263.867 1.906-.086.668-.438 1.17-.855 1.221l-4.56.56a.692.692 0 0 0-.602.771l.056.456-.355.044-.356-2.9a.575.575 0 0 1 .504-.645l1.138-.14a.234.234 0 0 0-.057-.465l-1.138.14c-.574.07-.983.594-.912 1.167l.368 2.998a.811.811 0 0 0 .568 1.463l.438-.054.042.35c.09.731.46 1.384 1.04 1.838a2.739 2.739 0 0 0 2.036.565 2.745 2.745 0 0 0 1.778-.965.234.234 0 1 0-.36-.301 2.28 2.28 0 0 1-1.475.8 2.276 2.276 0 0 1-1.69-.468 2.277 2.277 0 0 1-.863-1.527l-.072-.581a.234.234 0 0 0-.261-.204l-.669.082a.341.341 0 0 1-.172-.655.338.338 0 0 1 .088-.023l.67-.082a.234.234 0 0 0 .204-.261l-.085-.69a.223.223 0 0 1 .194-.248l4.328-.53.323 2.634c.043.344.008.684-.102 1.01a.234.234 0 1 0 .445.15c.132-.393.174-.803.123-1.217L6.85 4.073c.529-.188.932-.788 1.033-1.573.064-.495-.01-1-.205-1.42zM13.112 12.092a.685.685 0 0 0-.961-.118.234.234 0 0 0 .289.37.216.216 0 0 1 .302.036.234.234 0 1 0 .37-.288zM10.705 11.796a.685.685 0 0 0-.96-.117.234.234 0 0 0 .288.369.216.216 0 0 1 .303.037.234.234 0 1 0 .37-.289zM11.784 13.118l-1.346-.165a.354.354 0 0 0-.262.072c-.168.132-.129.309-.16.455-.113.918.944 1.5 1.662.94.431-.337.388-.801.416-.906a.356.356 0 0 0-.31-.396zm-.395.933a.564.564 0 0 1-.908-.514l.013-.105 1.12.137c-.013.05.008.3-.225.482z"/><path d="M15.505 8.047c-.172-.221-.42-.361-.698-.395l-3.22-.396a.44.44 0 0 1-.302-.18 2.04 2.04 0 0 0-.877-.693.234.234 0 0 0-.179.433c.27.111.504.296.676.535a.91.91 0 0 0 .624.37l3.221.396a.58.58 0 0 1 .504.645l-.356 2.9-.355-.044.056-.456a.692.692 0 0 0-.602-.77l-4.56-.56a1.56 1.56 0 0 1-1.067-.618 1.561 1.561 0 0 1-.294-1.198 1.58 1.58 0 0 1 1.367-1.308.234.234 0 1 0-.056-.465c-.9.108-1.629.806-1.774 1.698-.09.555.046 1.107.382 1.555.29.385.693.648 1.154.758l-.326 2.649c-.043.353-.019.704.072 1.045a.234.234 0 0 0 .453-.12 2.28 2.28 0 0 1-.06-.868l.324-2.635 4.328.532c.122.014.209.126.194.248l-.085.689a.235.235 0 0 0 .204.261l.67.082a.339.339 0 0 1 .297.38.341.341 0 0 1-.38.298l-.67-.082a.234.234 0 0 0-.261.204l-.072.582a2.277 2.277 0 0 1-.863 1.526 2.276 2.276 0 0 1-1.69.469 2.274 2.274 0 0 1-1.568-.918.235.235 0 0 0-.378.277A2.752 2.752 0 0 0 11.568 16a2.74 2.74 0 0 0 1.694-.586c.581-.454.95-1.107 1.04-1.838l.043-.35c.419.05.451.06.537.06a.81.81 0 0 0 .47-1.47l.367-2.997a1.04 1.04 0 0 0-.214-.772zM12.187 1.966a.234.234 0 0 0-.234.234v.574a.234.234 0 0 0 .468 0V2.2a.234.234 0 0 0-.234-.234zM12.187 3.73a.234.234 0 0 0-.234.234v.574a.234.234 0 0 0 .468 0v-.574a.234.234 0 0 0-.234-.234zM13.356 3.135h-.574a.234.234 0 1 0 0 .469h.574a.234.234 0 0 0 0-.47zM11.592 3.135h-.574a.234.234 0 0 0 0 .469h.574a.234.234 0 1 0 0-.47zM3.813 11.228a.234.234 0 0 0-.234.234v.574a.234.234 0 0 0 .468 0v-.574a.234.234 0 0 0-.234-.234zM3.813 12.992a.234.234 0 0 0-.234.234v.573a.234.234 0 1 0 .468 0v-.573a.234.234 0 0 0-.234-.235zM4.982 12.396h-.574a.234.234 0 0 0 0 .469h.574a.234.234 0 1 0 0-.469zM3.218 12.396h-.574a.234.234 0 0 0 0 .469h.574a.234.234 0 1 0 0-.469z"/></g><defs><clipPath id="clip0"><path fill="#fff" d="M0 0h16v16H0z"/></clipPath></defs></svg>