<svg width="16" height="16" fill="none" xmlns="http://www.w3.org/2000/svg"><g clip-path="url(#clip0)"><path d="M1.544 4.232l.174 1.421-.67.083a.576.576 0 0 0 .14 1.143l.67-.083.072.582a2.526 2.526 0 0 0 5.014-.616l-.386-3.146-5.014.616z" fill="#FCA"/><path d="M5.767 3.713l.386 3.147a2.526 2.526 0 0 1-1.808 2.735 2.526 2.526 0 0 0 2.599-2.832l-.386-3.147-.791.097z" fill="#F2A077"/><path d="M5.056 8.23a.799.799 0 0 1-.89-.696l-.027-.217a.121.121 0 0 1 .105-.135l1.346-.166a.121.121 0 0 1 .135.106l.027.218a.799.799 0 0 1-.696.89z" fill="#CE3A4C"/><path d="M6.592 3.895l-4.56.56a.457.457 0 0 0-.398.51l.084.688-.67.083a.569.569 0 0 0-.148.038L.513 2.622a.814.814 0 0 1 .709-.907l3.428-.42c.782-.097 1.5-.46 1.81-1.06 1.826.726 1.35 3.51.132 3.66z" fill="#475D6D"/><path d="M6.46.234c-.074.144-.171.273-.287.389 1.217.99.722 3.235-.368 3.369l.787-.097C7.81 3.745 8.286.96 6.46.235z" fill="#2C3F4F"/><path d="M14.457 10.4l-.175 1.422.67.083a.576.576 0 0 1-.14 1.143l-.67-.083-.072.582a2.526 2.526 0 1 1-5.014-.616l.386-3.146 5.015.616z" fill="#FCA"/><path d="M14.952 11.905l-.67-.083.175-1.421-5.015-.616 4.271.525-.174 1.421-.14 1.143-.072.582c-.162 1.317-1.16 2.29-2.271 2.257a2.526 2.526 0 0 0 3.014-2.166l.072-.582.67.083a.576.576 0 0 0 .14-1.143z" fill="#F2A077"/><path d="M10.944 14.4a.799.799 0 0 0 .89-.697l.027-.217a.12.12 0 0 0-.105-.135l-1.346-.165a.121.121 0 0 0-.135.105l-.027.218a.799.799 0 0 0 .696.89z" fill="#CE3A4C"/><path d="M14.779 7.884l-3.221-.395a.672.672 0 0 1-.463-.275 1.803 1.803 0 0 0-1.338-.747 1.807 1.807 0 0 0-.349 3.597l4.56.56c.251.03.43.259.399.51l-.085.688.67.083c.052.006.101.02.148.038l.387-3.152a.814.814 0 0 0-.708-.907z" fill="#BE6351"/><path d="M14.779 7.884l-.583-.071c.446.054.763.46.708.906l-.384 3.133.432.053c.052.006.101.02.148.038l.387-3.152a.814.814 0 0 0-.708-.907z" fill="#AA473A"/><path d="M3.85 5.805a.685.685 0 0 0-.961.118.234.234 0 0 0 .369.288.216.216 0 0 1 .303-.037.234.234 0 0 0 .288-.37zM6.296 5.839a.234.234 0 0 0-.04-.33.685.685 0 0 0-.961.118.234.234 0 0 0 .369.29.216.216 0 0 1 .303-.038c.102.08.249.062.329-.04zM3.933 7.563a1.035 1.035 0 0 0 2.051-.252l-.026-.218a.353.353 0 0 0-.396-.31l-1.346.166a.353.353 0 0 0-.31.396l.027.218zm1.573-.3l.013.105a.565.565 0 0 1-1.12.138L4.384 7.4l1.121-.137z" fill="#000"/><path d="M7.883 2.5c.064-.495-.01-1-.205-1.42A2.07 2.07 0 0 0 6.546.017a.234.234 0 0 0-.295.11c-.252.491-.861.84-1.63.935l-1.355.166a.234.234 0 1 0 .057.465l1.356-.166c.824-.101 1.506-.466 1.872-.992.764.408.95 1.263.867 1.906-.086.668-.438 1.17-.855 1.221l-4.56.56a.692.692 0 0 0-.602.771l.056.456-.355.044-.356-2.9a.575.575 0 0 1 .504-.645l1.138-.14a.234.234 0 0 0-.057-.465l-1.138.14c-.574.07-.983.594-.912 1.167l.368 2.998a.811.811 0 0 0 .568 1.463l.438-.054.042.35c.09.731.46 1.384 1.04 1.838a2.739 2.739 0 0 0 2.036.565 2.745 2.745 0 0 0 1.778-.965.234.234 0 1 0-.36-.301 2.28 2.28 0 0 1-1.475.8 2.276 2.276 0 0 1-1.69-.468 2.277 2.277 0 0 1-.863-1.527l-.072-.581a.234.234 0 0 0-.261-.204l-.669.082a.341.341 0 0 1-.172-.655.338.338 0 0 1 .088-.023l.67-.082a.234.234 0 0 0 .204-.261l-.085-.69a.223.223 0 0 1 .194-.248l4.328-.53.323 2.634c.043.344.008.684-.102 1.01a.234.234 0 1 0 .445.15c.132-.393.174-.803.123-1.217L6.85 4.073c.529-.188.932-.788 1.033-1.573zM12.44 12.343a.216.216 0 0 1 .302.037.234.234 0 1 0 .37-.288.685.685 0 0 0-.961-.118.234.234 0 0 0 .289.37zM9.745 11.678a.234.234 0 1 0 .289.37.216.216 0 0 1 .302.037.234.234 0 0 0 .33.04.234.234 0 0 0 .04-.329.685.685 0 0 0-.961-.118zM11.784 13.118l-1.346-.165a.353.353 0 0 0-.262.073c-.168.131-.129.308-.16.454-.113.918.944 1.501 1.662.94.43-.336.387-.801.416-.906a.356.356 0 0 0-.31-.396zm-.395.933a.564.564 0 0 1-.908-.514l.013-.105 1.12.138c-.013.05.008.3-.225.481z" fill="#000"/><path d="M15.505 8.047c-.172-.221-.42-.361-.698-.395l-3.22-.396a.44.44 0 0 1-.302-.18 2.04 2.04 0 0 0-.877-.693.234.234 0 0 0-.179.433c.27.111.504.296.676.535a.91.91 0 0 0 .624.37l3.221.396a.58.58 0 0 1 .504.645l-.356 2.9-.355-.044.056-.456a.692.692 0 0 0-.602-.77l-4.56-.56a1.56 1.56 0 0 1-1.067-.618 1.561 1.561 0 0 1-.294-1.198 1.58 1.58 0 0 1 1.367-1.308.234.234 0 1 0-.056-.465c-.9.108-1.629.806-1.774 1.698-.09.555.046 1.107.382 1.555.29.385.693.648 1.154.758l-.326 2.649c-.043.353-.019.704.072 1.045a.234.234 0 0 0 .453-.12 2.28 2.28 0 0 1-.06-.868l.324-2.635 4.328.532c.122.014.209.126.194.248l-.085.689a.235.235 0 0 0 .204.261l.67.082a.339.339 0 0 1 .297.38.341.341 0 0 1-.38.298l-.67-.082a.234.234 0 0 0-.261.204l-.072.582a2.277 2.277 0 0 1-.863 1.526 2.276 2.276 0 0 1-1.69.469 2.274 2.274 0 0 1-1.568-.918.235.235 0 0 0-.378.277A2.752 2.752 0 0 0 11.568 16a2.74 2.74 0 0 0 1.694-.586c.581-.454.95-1.107 1.04-1.838l.043-.35c.419.05.451.06.537.06a.81.81 0 0 0 .47-1.47l.367-2.997a1.04 1.04 0 0 0-.214-.772zM12.187 3.009c.13 0 .234-.105.234-.235V2.2a.234.234 0 0 0-.468 0v.574c0 .13.105.235.234.235zM12.187 4.772c.13 0 .234-.105.234-.234v-.574a.234.234 0 0 0-.468 0v.574c0 .13.105.234.234.234zM12.782 3.604h.574a.234.234 0 0 0 0-.47h-.574a.234.234 0 1 0 0 .47zM11.018 3.604h.574a.234.234 0 1 0 0-.47h-.574a.234.234 0 0 0 0 .47zM3.813 11.228a.234.234 0 0 0-.234.234v.574a.234.234 0 0 0 .468 0v-.574a.234.234 0 0 0-.234-.234zM3.813 12.992a.234.234 0 0 0-.234.234v.573a.234.234 0 1 0 .468 0v-.573a.234.234 0 0 0-.234-.235zM4.982 12.396h-.574a.234.234 0 0 0 0 .469h.574a.234.234 0 1 0 0-.469zM3.218 12.396h-.574a.234.234 0 0 0 0 .469h.574a.234.234 0 1 0 0-.469z" fill="#000"/></g><defs><clipPath id="clip0"><path fill="#fff" d="M0 0h16v16H0z"/></clipPath></defs></svg>