<!-- Generated by IcoMoon.io -->
<svg version="1.1" xmlns="http://www.w3.org/2000/svg" width="32" height="32" viewBox="0 0 32 32">
<title>ignore</title>
<path fill="#b4d2d7" d="M31.467 16c0 8.542-6.925 15.467-15.467 15.467s-15.467-6.925-15.467-15.467c0-8.542 6.925-15.467 15.467-15.467s15.467 6.925 15.467 15.467z"></path>
<path fill="#f54848" d="M25.745 3.992l-21.753 21.753c0.674 0.83 1.433 1.588 2.263 2.263l21.753-21.753c-0.684-0.838-1.425-1.579-2.235-2.241l-0.028-0.022z"></path>
<path fill="#94afb4" d="M16 0.533c-0.268 0-0.535 0.007-0.8 0.020 8.17 0.417 14.667 7.174 14.667 15.447s-6.497 15.030-14.667 15.446c0.265 0.014 0.532 0.020 0.8 0.020 8.542 0 15.467-6.924 15.467-15.466s-6.925-15.467-15.467-15.467z"></path>
<path fill="#ad0000" d="M28.008 6.255c-0.683-0.838-1.425-1.579-2.234-2.241l-0.028-0.022-0.8 0.8c0.827 0.672 1.582 1.848 2.254 2.675l0.808-1.212z"></path>
<path fill="#fdc26b" d="M10.337 15.209c0.28 1.218 0.796 2.254 1.225 2.966l10.304-10.305v-0.404s0.634-4.8-5.866-4.8-5.867 4.8-5.867 4.8v3.084c-0.326 0.291-0.531 0.713-0.533 1.182v2.133c0.002 0.562 0.292 1.055 0.731 1.339l0.006 0.004zM25.504 25.45l-4.758-2.595c-0.608-0.336-1.013-0.974-1.013-1.706 0 0 0-0 0-0v0-1.949s1.396-1.67 1.93-3.99c0.445-0.288 0.735-0.781 0.737-1.343v-2.005l-16.143 16.144c2.628 2.155 6.024 3.461 9.726 3.461 0.006 0 0.012 0 0.018 0h-0.001c4.313 0 8.212-1.767 11.017-4.615-0.386-0.584-0.895-1.056-1.491-1.39l-0.022-0.011z"></path>
<path fill="#fff" d="M16 0.533c0.268 0 0.535 0.007 0.8 0.020-8.17 0.417-14.667 7.174-14.667 15.447s6.497 15.030 14.667 15.446c-0.265 0.014-0.532 0.020-0.8 0.020-8.542 0.001-15.467-6.923-15.467-15.466 0-8.542 6.925-15.467 15.467-15.467z"></path>
<path fill="#000" d="M16 1.067c-8.234 0-14.933 6.699-14.933 14.933s6.699 14.933 14.933 14.933 14.933-6.699 14.933-14.933-6.699-14.933-14.933-14.933zM16 32c-8.822 0-16-7.178-16-16s7.178-16 16-16 16 7.178 16 16-7.178 16-16 16z"></path>
<path fill="#000" d="M16 3.2c-2.090 0-3.598 0.51-4.482 1.52-1.039 1.184-0.858 2.662-0.856 2.677 0.003 0.021 0.005 0.045 0.005 0.070v3.084c0 0.15-0.064 0.295-0.176 0.396-0.219 0.193-0.357 0.473-0.358 0.786v2.134c0 0.36 0.185 0.694 0.494 0.894 0.115 0.075 0.198 0.19 0.229 0.325l0.001 0.004c0.196 0.852 0.52 1.613 0.827 2.21l9.65-9.65v-0.183c0-0.024 0.001-0.047 0.004-0.070 0.002-0.013 0.173-1.514-0.865-2.688-0.885-1.001-2.39-1.509-4.473-1.509zM11.563 18.708c-0.193-0-0.362-0.102-0.456-0.256l-0.001-0.002c-0.401-0.665-0.93-1.7-1.241-2.925-0.488-0.392-0.798-0.989-0.798-1.658v-2.134c0-0.513 0.191-1.011 0.533-1.4v-2.836c-0.030-0.294-0.147-2.040 1.116-3.481 1.094-1.25 2.873-1.883 5.284-1.883s4.189 0.634 5.284 1.883c1.263 1.44 1.146 3.187 1.116 3.48v0.375c0 0 0 0 0 0 0 0.147-0.060 0.28-0.156 0.377l-10.304 10.304c-0.101 0.1-0.237 0.156-0.377 0.156zM7.061 27.956c2.461 1.856 5.57 2.973 8.939 2.977h0.001c3.876 0 7.52-1.465 10.312-4.135-0.295-0.354-0.647-0.647-1.045-0.869l-0.019-0.010-4.758-2.596c-0.774-0.428-1.29-1.24-1.29-2.172 0-0.001 0-0.002 0-0.002v0-1.949c0-0.124 0.044-0.246 0.123-0.342 0.013-0.015 1.323-1.608 1.819-3.768 0.032-0.139 0.115-0.254 0.228-0.328l0.002-0.001c0.31-0.2 0.494-0.534 0.494-0.894v-0.717l-14.806 14.806zM16.001 32c-3.834-0.004-7.353-1.354-10.109-3.603l0.029 0.023c-0.12-0.099-0.196-0.248-0.196-0.414 0-0.147 0.059-0.281 0.156-0.378l16.142-16.143c0.096-0.096 0.229-0.155 0.376-0.155 0.294 0 0.533 0.238 0.534 0.532v2.005c0 0.648-0.294 1.253-0.798 1.658-0.488 1.934-1.511 3.392-1.868 3.86v1.764c0 0.517 0.281 0.99 0.734 1.238l4.759 2.595c0.695 0.388 1.267 0.92 1.691 1.558l0.011 0.018c0.14 0.21 0.112 0.489-0.065 0.668-2.886 2.947-6.905 4.774-11.351 4.774-0.016 0-0.032-0-0.048-0h0.002z"></path>
<path fill="#000" d="M4.715 25.777c0.466 0.537 0.97 1.042 1.508 1.508l21.062-21.062c-0.473-0.543-0.966-1.035-1.491-1.492l-0.018-0.016-21.060 21.062zM6.255 28.541c-0 0-0 0-0 0-0.128 0-0.246-0.045-0.338-0.121l0.001 0.001c-0.866-0.707-1.633-1.474-2.317-2.311l-0.023-0.029c-0.074-0.091-0.119-0.208-0.119-0.336 0-0.147 0.060-0.28 0.156-0.377v0l21.753-21.753c0.096-0.097 0.23-0.157 0.377-0.157 0.128 0 0.246 0.045 0.338 0.121l-0.001-0.001c0.866 0.707 1.633 1.474 2.317 2.311l0.023 0.029c0.074 0.091 0.119 0.208 0.119 0.336 0 0.147-0.060 0.281-0.156 0.378l-21.753 21.753c-0.096 0.096-0.23 0.156-0.377 0.156-0 0-0 0-0 0v0z"></path>
</svg>
