<!-- Generated by IcoMoon.io -->
<svg version="1.1" xmlns="http://www.w3.org/2000/svg" width="32" height="32" viewBox="0 0 32 32">
<title>inbox</title>
<path fill="#fdc26b" d="M4.325 9.822h23.353v15.094h-23.353v-15.094z"></path>
<path fill="#fcb54c" d="M4.325 9.822v4.555l11.37 6.424c0.19 0.108 0.423 0.108 0.614 0l9.131-5.16c0.089-0.051 0.196-0.082 0.31-0.082 0.347 0 0.629 0.282 0.629 0.629 0 0 0 0 0 0.001v-0 8.727h1.299v-15.094h-23.353z"></path>
<path fill="#fba72d" d="M4.325 24.916l11.677-8.496 11.676 8.496h-23.353z"></path>
<path fill="#fa9a0f" d="M27.678 24.916l-11.677-8.496-11.676 8.496h1.805l9.873-7.184 9.872 7.184h1.804z"></path>
<path fill="#fa9a0f" d="M19.525 18.984l-3.523-2.564-3.524 2.564 3.216 1.817c0.19 0.108 0.424 0.108 0.615 0l3.216-1.817z"></path>
<path fill="#fecf8a" d="M27.678 9.822v3.465l-11.677 6.598-11.676-6.598v-3.465h23.353z"></path>
<path fill="#b4d2d7" d="M1.16 22.421h29.684v8.93h-29.684v-8.93z"></path>
<path fill="#9bb9c3" d="M29.398 22.421v6.227c0 0.694-0.564 1.257-1.258 1.257h-26.98v1.447h29.684v-8.93h-1.447z"></path>
<path fill="#7af4ab" d="M16.002 14.874l5.849-6.918h-3.334v-7.546h-5.031v7.547h-3.333l5.847 6.917z"></path>
<path fill="#6ad394" d="M18.517 7.956v-7.546h-1.132v6.792c0 0.417 0.338 0.755 0.755 0.755h0.377zM20.718 7.956l-5.283 6.249 0.566 0.67 5.85-6.919h-1.133z"></path>
<path fill="#87a0af" d="M16.002 27.893h4.842l1.258-3.019h-12.264l1.258 3.019h4.905z"></path>
<path fill="#738c96" d="M11.43 26.166c-0.012-0.029-0.019-0.062-0.019-0.097 0-0.139 0.113-0.252 0.251-0.252h10.047l0.393-0.943h-12.264l1.258 3.019h1.053l-0.72-1.727z"></path>
<path fill="#000" d="M30.844 24.846c0.26 0 0.472-0.21 0.472-0.471v-1.84c-0.001-0.26-0.212-0.471-0.472-0.471 0 0 0 0 0 0h-2.694v-12.242c-0.001-0.26-0.212-0.471-0.472-0.471 0 0 0 0 0 0h-6.389l0.922-1.090c0.070-0.082 0.112-0.188 0.112-0.305 0-0.26-0.211-0.471-0.471-0.471-0 0-0.001 0-0.001 0h-2.862v-7.076c-0.001-0.26-0.212-0.471-0.472-0.471 0 0 0 0 0 0h-5.031c0 0 0 0 0 0-0.26 0-0.471 0.211-0.472 0.471v2.048c0 0.261 0.211 0.472 0.472 0.472s0.472-0.211 0.472-0.472v0-1.576h4.087v7.075c0 0.26 0.212 0.472 0.472 0.472h2.317l-4.832 5.716-4.833-5.716h2.317c0.26 0 0.471-0.211 0.471-0.472v-3.3c0-0.006 0.001-0.014 0.001-0.022 0-0.261-0.211-0.472-0.472-0.472s-0.472 0.211-0.472 0.472c0 0.008 0 0.015 0.001 0.023l-0-0.001v2.828h-2.861c-0.261 0-0.472 0.211-0.472 0.472 0 0.117 0.042 0.223 0.112 0.306l-0.001-0.001 0.92 1.090h-6.387c-0.26 0.001-0.47 0.211-0.471 0.471v6.467c-0 0.006-0.001 0.014-0.001 0.022 0 0.261 0.211 0.472 0.472 0.472s0.472-0.211 0.472-0.472c0-0.008-0-0.015-0.001-0.023l0 0.001v-2.194l7.654 4.325-5.004 3.643h-2.65v-3.567c-0.012-0.251-0.218-0.45-0.471-0.45s-0.46 0.199-0.471 0.449l-0 0.001v3.568h-2.696c0 0 0 0 0 0-0.26 0-0.471 0.211-0.472 0.471v8.93c0 0.261 0.212 0.473 0.472 0.473h29.685c0.26 0 0.472-0.212 0.472-0.472v-4.796c0-0.261-0.211-0.472-0.472-0.472s-0.472 0.211-0.472 0.472v4.324h-28.741v-7.987h28.741v1.368c0 0.26 0.212 0.471 0.472 0.471zM24.562 22.064l-5.010-3.644 7.654-4.325v7.969h-2.644zM4.797 10.294h6.714l4.13 4.885c0.087 0.103 0.216 0.167 0.36 0.167s0.273-0.065 0.359-0.167l0.001-0.001 4.13-4.885h6.715v2.718l-11.204 6.331-11.205-6.331v-2.718zM13.353 18.93l2.417 1.366c0.067 0.038 0.147 0.061 0.232 0.061s0.165-0.023 0.234-0.062l-0.002 0.001 2.416-1.366 4.306 3.134h-13.909l4.306-3.134z"></path>
<path fill="#000" d="M22.102 24.402h-12.264c-0.26 0.001-0.471 0.212-0.471 0.472 0 0.065 0.013 0.128 0.037 0.184l-0.001-0.003 1.258 3.020c0.073 0.175 0.245 0.29 0.435 0.29h9.748c0.19 0 0.362-0.115 0.436-0.29l1.257-3.020c0.023-0.053 0.036-0.116 0.036-0.181 0-0.26-0.211-0.471-0.471-0.472h-0zM20.53 27.422h-9.12l-0.864-2.076h10.849l-0.865 2.075z"></path>
</svg>
