<svg width="16" height="16" fill="none" xmlns="http://www.w3.org/2000/svg"><path d="M15.75 1.5H.25a.25.25 0 0 0-.25.25v12.5c0 .138.112.25.25.25h15.5a.25.25 0 0 0 .25-.25V1.75a.25.25 0 0 0-.25-.25zM15.5 14H.5V4h15v10zm0-10.5H.5V2h15v1.5z" fill="#000"/><path d="M2 2.5h-.5V3H2v-.5zM3 2.5h-.5V3H3v-.5zM4 2.5h-.5V3H4v-.5zM14.5 2.5H13V3h1.5v-.5zM12.458 11.111l-1.5-2.25c-.093-.139-.323-.139-.416 0l-1.5 2.25A.251.251 0 0 0 9 11.25v.25c0 .138.112.25.25.25h.5v1c0 .138.112.25.25.25h1.5a.25.25 0 0 0 .25-.25v-1h.5a.25.25 0 0 0 .25-.25v-.25a.25.25 0 0 0-.042-.139zm-.958.139a.25.25 0 0 0-.25.25v1h-1v-1a.25.25 0 0 0-.25-.25h-.45l1.2-1.8 1.2 1.8h-.45z" fill="#000"/><path d="M14 5H2a.5.5 0 0 0-.5.5V10a.5.5 0 0 0 .5.5h7V10H2V5.5h12V10h-1.5v.5H14a.5.5 0 0 0 .5-.5V5.5A.5.5 0 0 0 14 5zM2 11h-.5v.5H2V11zM2 12h-.5v.5H2V12zM6.5 11h-4v.5h4V11zM3 12h-.5v.5H3V12zM8.5 12h-5v.5h5V12zM7.5 11H7v.5h.5V11zM8.5 11H8v.5h.5V11z" fill="#000"/><path d="M12 6h-1.5v.5H12V6zM13.5 6h-1v.5h1V6z" fill="#000"/></svg>