<svg width="16" height="16" fill="none" xmlns="http://www.w3.org/2000/svg"><path d="M15.75 1.75H.25v12.5h15.5V1.75z" fill="#FEEED6"/><path d="M15.75 1.75H.25v2h15.5v-2z" fill="#3BB650"/><path d="M15.75 1.5H.25a.25.25 0 0 0-.25.25v12.5c0 .138.112.25.25.25h15.5a.25.25 0 0 0 .25-.25V1.75a.25.25 0 0 0-.25-.25zM.5 2h15v1.5H.5V2zm0 12V4h15v10H.5z" fill="#000"/><path d="M2 2.5h-.5V3H2v-.5zM3 2.5h-.5V3H3v-.5zM4 2.5h-.5V3H4v-.5zM14.5 2.5H13V3h1.5v-.5z" fill="#000"/><path d="M2 10.25a.25.25 0 0 1-.25-.25V5.5A.25.25 0 0 1 2 5.25h12a.25.25 0 0 1 .25.25V10a.25.25 0 0 1-.25.25H2z" fill="#2DABCF"/><path d="M14 10.5h-1.5V10H14V5.5H2V10h7v.5H2a.5.5 0 0 1-.5-.5V5.5A.5.5 0 0 1 2 5h12a.5.5 0 0 1 .5.5V10a.5.5 0 0 1-.5.5zM2 11h-.5v.5H2V11zM2 12h-.5v.5H2V12zM6.5 11h-4v.5h4V11zM3 12h-.5v.5H3V12zM8.5 12h-5v.5h5V12zM7.5 11H7v.5h.5V11zM8.5 11H8v.5h.5V11z" fill="#000"/><path d="M12 6h-1.5v.5H12V6zM13.5 6h-1v.5h1V6z" fill="#000"/><path d="M10.75 9l-1.5 2.25v.25H10v1.25h1.5V11.5h.75v-.25L10.75 9z" fill="#F95055"/><path d="M11.5 13H10a.25.25 0 0 1-.25-.25v-1h-.5A.25.25 0 0 1 9 11.5v-.25c0-.05.015-.098.042-.139l1.5-2.25c.093-.139.323-.139.416 0l1.5 2.25a.25.25 0 0 1 .042.139v.25a.25.25 0 0 1-.25.25h-.5v1a.25.25 0 0 1-.25.25zm-1.25-.5h1v-1a.25.25 0 0 1 .25-.25h.45l-1.2-1.8-1.2 1.8H10a.25.25 0 0 1 .25.25v1z" fill="#000"/></svg>