<svg width="16" height="16" fill="none" xmlns="http://www.w3.org/2000/svg"><g clip-path="url(#clip0)" fill="#ffffff"><path d="M6.362 10.537a.348.348 0 0 0 .492.492l2.783-2.783a.347.347 0 0 0 .075-.113c.01-.024.011-.05.015-.075.004-.02.012-.038.012-.058 0-.026-.01-.05-.015-.074-.004-.02-.004-.04-.012-.057a.365.365 0 0 0-.077-.117l-2.78-2.78a.348.348 0 0 0-.493.492l2.19 2.188H.348a.348.348 0 0 0 0 .696h8.204l-2.19 2.189z"/><path d="M14.26 0H6.61c-.959 0-1.74.78-1.74 1.74v3.477a.348.348 0 0 0 .696 0V1.74c0-.575.468-1.043 1.044-1.043h7.652c.575 0 1.044.468 1.044 1.043v12.522c0 .575-.469 1.043-1.044 1.043H6.609a1.045 1.045 0 0 1-1.044-1.043v-3.478a.348.348 0 0 0-.695 0v3.478c0 .959.78 1.739 1.739 1.739h7.652C15.22 16 16 15.22 16 14.26V1.74C16 .78 15.22 0 14.26 0z"/></g><defs><clipPath id="clip0"><path fill="#ffffff" d="M0 0h16v16H0z"/></clipPath></defs></svg>
