<!-- Generated by IcoMoon.io -->
<svg version="1.1" xmlns="http://www.w3.org/2000/svg" width="32" height="32" viewBox="0 0 32 32">
<title>loupe</title>
<path fill="#9b601b" d="M23.68 23.403c-0.241 0.247-0.49 0.487-0.747 0.718-0.23 0.256-0.47 0.505-0.717 0.746l5.958 5.959c0.338 0.34 0.807 0.55 1.324 0.55 0.213 0 0.417-0.035 0.607-0.101l-0.013 0.004c0.061-0.176 0.096-0.38 0.096-0.591 0-0.518-0.21-0.987-0.55-1.326l-5.959-5.959z"></path>
<path fill="#9b601b" d="M22.139 24.79c0.29-0.228 0.57-0.467 0.843-0.714 0.247-0.273 0.486-0.554 0.714-0.844l-2.575-2.575c-0.252 0.267-0.517 0.522-0.793 0.765-0.242 0.276-0.497 0.54-0.764 0.793l2.575 2.575z"></path>
<path fill="#4dbbeb" d="M19.856 3.482c-5.2-2.651-11.707-1.125-15.134 3.798-3.427 4.92-2.6 11.555 1.691 15.51 1.56 0.812 3.406 1.288 5.363 1.288 0.086 0 0.172-0.001 0.257-0.003l-0.013 0c1.329-0.027 2.594-0.266 3.774-0.686l-0.084 0.026c2.416-0.853 4.412-2.394 5.809-4.385l0.025-0.038c3.427-4.921 2.602-11.554-1.69-15.51z"></path>
<path fill="#fff" d="M12.5 3.125c5.17 0 9.375 4.206 9.375 9.375 0 5.17-4.206 9.375-9.375 9.375s-9.375-4.206-9.375-9.375c0-5.17 4.206-9.375 9.375-9.375z"></path>
<path fill="#bee7f4" d="M18.974 6.32c-3.147-1.876-7.681-0.955-10.681 2.363s-3.46 7.92-1.28 10.863c3.148 1.876 7.682 0.955 10.682-2.363s3.46-7.92 1.279-10.863z"></path>
<path fill="#e5f5fb" d="M18.234 10.884c-1.2-0.496-1.57 2.134-3.39 4.147-1.82 2.014-4.483 2.737-3.87 3.881 1.2 0.496 4.018-0.211 5.838-2.224 1.821-2.014 2.035-4.66 1.422-5.804z"></path>
<path fill="#000" d="M31.268 27.732l-8.343-8.342c1.3-1.929 2.075-4.306 2.075-6.863 0-0.009 0-0.019-0-0.028v0.001c0-6.893-5.607-12.5-12.5-12.5s-12.5 5.607-12.5 12.5 5.607 12.5 12.5 12.5c2.472 0 4.843-0.716 6.89-2.075l8.342 8.343c0.473 0.472 1.1 0.732 1.768 0.732s1.295-0.26 1.767-0.732c0.473-0.472 0.733-1.1 0.733-1.768s-0.26-1.296-0.732-1.768zM20.408 22.175c0.646-0.53 1.237-1.121 1.767-1.768l1.773 1.773c-0.547 0.643-1.125 1.221-1.747 1.75l-0.021 0.018-1.773-1.773zM1.25 12.5c0-6.203 5.047-11.25 11.25-11.25s11.25 5.047 11.25 11.25c0 2.386-0.74 4.667-2.142 6.596-0.701 0.966-1.546 1.811-2.512 2.512-1.818 1.338-4.101 2.142-6.573 2.142-0.008 0-0.016 0-0.025-0h0.001c-6.203 0-11.25-5.047-11.25-11.25zM30.384 30.384c-0.236 0.236-0.55 0.366-0.884 0.366s-0.648-0.13-0.884-0.366l-5.55-5.55c0.639-0.55 1.217-1.128 1.75-1.746l0.018-0.021 5.55 5.55c0.236 0.235 0.366 0.549 0.366 0.883s-0.13 0.648-0.366 0.884z"></path>
<path fill="#000" d="M22.5 12.5c0-5.514-4.486-10-10-10s-10 4.486-10 10 4.486 10 10 10 10-4.486 10-10zM12.5 21.25c-4.825 0-8.75-3.925-8.75-8.75s3.925-8.75 8.75-8.75 8.75 3.925 8.75 8.75-3.925 8.75-8.75 8.75z"></path>
<path fill="#000" d="M12.186 5.95c-0.060-0.288-0.311-0.501-0.612-0.501-0.044 0-0.087 0.005-0.129 0.013l0.004-0.001c-1.526 0.317-2.844 1.060-3.863 2.099l-0.001 0.001c-1.046 1.060-1.776 2.434-2.038 3.968l-0.006 0.044c-0.005 0.031-0.009 0.067-0.009 0.104 0 0.345 0.28 0.625 0.625 0.625 0.309 0 0.565-0.224 0.616-0.518l0.001-0.004c0.452-2.556 2.395-4.556 4.883-5.087l0.041-0.007c0.288-0.060 0.5-0.312 0.5-0.613 0-0.044-0.005-0.087-0.013-0.128l0.001 0.004zM13.457 5.93c-0.006 0.033-0.010 0.071-0.010 0.109 0 0.345 0.28 0.625 0.625 0.625 0.311 0 0.57-0.228 0.617-0.526l0-0.004c0.005-0.031 0.009-0.067 0.009-0.103 0-0.345-0.28-0.625-0.625-0.625-0.309 0-0.565 0.224-0.616 0.518l-0.001 0.004z"></path>
</svg>
