<!-- Generated by IcoMoon.io -->
<svg version="1.1" xmlns="http://www.w3.org/2000/svg" width="32" height="32" viewBox="0 0 32 32">
<title>mail_answer</title>
<path fill="#fff" d="M0.807 23.125c0 1.035 0.84 1.875 1.875 1.875h24.194c1.035 0 1.875-0.84 1.875-1.875v-14.023c0-1.036-0.84-1.875-1.875-1.875h-24.194c-1.036 0-1.875 0.839-1.875 1.875v14.023z"></path>
<path fill="#030303" d="M27.042 6.313h-24.584c-1.356 0-2.458 0.971-2.458 2.166v15.167c0 1.195 1.103 2.166 2.458 2.166h24.584c1.355 0 2.458-0.971 2.458-2.166v-15.167c0-1.195-1.102-2.166-2.458-2.166zM27.042 24.729h-24.584c-0.902 0-1.16-0.44-1.16-1.083v-15.167c0-0.72 0.488-1.038 1.16-1.038h24.584c0.73 0 1.152 0.344 1.164 1.038 0.050 2.898 0.025 5.253 0 7.609-0.024 2.341-0.048 4.683 0 7.558 0 0.567-0.348 1.083-1.164 1.083z"></path>
<path fill="#d30026" d="M22.183 10.020v2.59h4.033v-2.59h-4.033z"></path>
<path fill="#030303" d="M26.158 17.383h-3.86v1.219h3.86v-1.22zM20.224 17.383h-3.227v1.219h3.227v-1.22zM15.153 17.383h-3.86v1.219h3.86v-1.22zM17.055 20.176h-5.762v1.219h5.762v-1.22zM5.646 10.172h-1.44v2.387h1.44v-2.387zM10.602 10.172h-1.44v2.387h1.44v-2.387zM13.137 10.172h-1.44v2.387h1.44v-2.387zM8.124 10.172h-1.44v2.387h1.44v-2.387zM26.158 20.176h-7.317v1.219h7.317v-1.22z"></path>
<path fill="#000" d="M24.665 13.397h-16.977v5.987h16.977v5.178l7.335-8.265-7.335-8.672v5.772z"></path>
<path fill="#39b54a" d="M25.49 14.348h-16.732v3.82h16.73v3.895l5.136-5.875-5.136-6.313v4.473z"></path>
</svg>
