<svg width="16" height="16" fill="none" xmlns="http://www.w3.org/2000/svg"><path d="M13.1 4.129V.774H4.807a1.031 1.031 0 0 0-2.028.258c0 .48.33.88.774.996v1.2L.032 5.935l3.52 2.708v1.163H1.746v2.581h1.806v1.585A1.03 1.03 0 0 0 3.81 16a1.031 1.031 0 1 0 .258-2.028v-1.585h1.807v-2.58H4.068V8.642l3.185-2.45h2.493v1.549h6.193V4.129h-2.838zM4.327 14.968a.517.517 0 1 1-1.033-.001.517.517 0 0 1 1.033 0zM5.36 11.87H2.262v-1.548h3.097v1.548zM3.294 1.032a.517.517 0 1 1 1.033.001.517.517 0 0 1-1.033 0zM3.81 8.19L.88 5.935 3.81 3.681l2.932 2.254L3.81 8.19zm3.443-2.513l-3.185-2.45v-1.2a1.03 1.03 0 0 0 .738-.737h7.779V4.13h-2.84v1.548H7.254zm8.17 1.549h-5.161v-2.58h5.161v2.58z" fill="#000"/><path d="M10.778 5.161h4.13v.516h-4.13v-.516zM10.778 6.194h3.613v.516h-3.613v-.516zM6.907 14.194h8.258V9.547H6.907v4.646zm.516-4.13h7.226v3.613H7.423v-3.612z" fill="#000"/><path d="M7.94 10.58h.515v.517H7.94v-.516zM8.972 10.58h5.161v.517H8.972v-.516zM8.972 11.613h5.161v.516H8.972v-.516zM7.94 11.613h.515v.516H7.94v-.516zM7.94 12.645h.515v.516H7.94v-.516zM8.972 12.645h5.161v.516H8.972v-.516z" fill="#000"/></svg>