<svg width="16" height="16" fill="none" xmlns="http://www.w3.org/2000/svg"><path d="M14 10.5H8V13h6v-2.5zM14.75 5.5h-4v1.25h4V5.5z" fill="#F0BC5E"/><path d="M4.25 13.786V12h-.5v1.786A.999.999 0 1 0 5 14.75a.999.999 0 0 0-.75-.964zM4 15.25a.5.5 0 1 1 .001-1.001A.5.5 0 0 1 4 15.25zM4.25 8.5h-.5V10h.5V8.5zM13 4.25V1H4.965A.999.999 0 0 0 3 1.25c0 .465.32.853.75.965V3.5h.5V2.215a.999.999 0 0 0 .715-.715H12.5v2.75H9.75v1.5h-2.5v.5h2.5v1.5h6v-3.5H13zm-9-2.5A.5.5 0 1 1 4.001.749.5.5 0 0 1 4 1.75zm11.25 5.5h-5v-2.5h5v2.5z" fill="#000"/><path d="M14.75 5.25h-4v.5h4v-.5zM14.25 6.25h-3.5v.5h3.5v-.5zM7 14h8V9.5H7V14zm.5-4h7v3.5h-7V10z" fill="#000"/><path d="M8.5 10.5H8v.5h.5v-.5zM14 10.5H9v.5h5v-.5zM14 11.5H9v.5h5v-.5zM8.5 11.5H8v.5h.5v-.5zM8.5 12.5H8v.5h.5v-.5zM14 12.5H9v.5h5v-.5z" fill="#000"/><path d="M4 8.815L.34 6 4 3.184 7.66 6 4 8.815zM6 12.25H2v-2.5h4v2.5z" fill="#F0BC5E"/></svg>