<svg width="16" height="16" fill="none" xmlns="http://www.w3.org/2000/svg"><path d="M1.574 15.17v-.001c-.74 0-1.34-.6-1.34-1.34V3.439c0-.317.257-.573.574-.573h5.11v12.304H1.574z" fill="#DED3C8"/><path d="M1.574 2.865h.205V13.83c0 .537-.316 1-.772 1.213.172.08.364.126.567.126h4.344V2.865H1.574z" fill="#D0D1D2"/><path d="M3.486.83a.573.573 0 0 0-.573.574V13.83c0 .74-.6 1.339-1.34 1.339h12.853c.74 0 1.34-.6 1.34-1.34V1.405a.573.573 0 0 0-.573-.573H3.486z" fill="#E2D7CC"/><path d="M8.35 9.714H5.134a.32.32 0 0 1-.32-.32V6.18a.32.32 0 0 1 .32-.32h3.214a.32.32 0 0 1 .32.32v3.214a.32.32 0 0 1-.32.32z" fill="#54C51F"/><path d="M5.752 9.394V6.18a.32.32 0 0 1 .32-.32h-.937a.32.32 0 0 0-.32.32v3.214c0 .177.143.32.32.32h.938a.32.32 0 0 1-.32-.32z" fill="#089416"/><path d="M15.192.597H3.486a.809.809 0 0 0-.807.807V2.63H.808A.809.809 0 0 0 0 3.438V13.83c0 .863.7 1.567 1.562 1.573h8.302a.234.234 0 1 0 0-.468h-7.17c.28-.285.453-.675.453-1.105V8.349a.234.234 0 1 0-.468 0v5.48c0 .608-.493 1.102-1.1 1.105h-.005c-.61 0-1.105-.495-1.105-1.104V3.438a.34.34 0 0 1 .339-.339h1.87v4.375a.234.234 0 1 0 .47 0v-6.07a.34.34 0 0 1 .338-.339h11.706a.34.34 0 0 1 .34.34V13.83c0 .609-.496 1.105-1.106 1.105H10.74a.234.234 0 0 0 0 .468h3.686c.868 0 1.574-.706 1.574-1.573V1.404a.809.809 0 0 0-.808-.807z" fill="#000"/><path d="M5.135 9.949h3.214a.555.555 0 0 0 .555-.555V6.18a.555.555 0 0 0-.555-.555H5.135a.555.555 0 0 0-.555.555v3.214c0 .306.25.555.555.555zm-.086-3.77c0-.047.039-.085.086-.085h3.214c.048 0 .086.038.086.086v3.214a.086.086 0 0 1-.086.086H5.135a.086.086 0 0 1-.086-.086V6.18zM9.756 6.094h4.35a.234.234 0 0 0 0-.469h-4.35a.234.234 0 1 0 0 .469zM9.756 8.021h4.35a.234.234 0 0 0 0-.469h-4.35a.234.234 0 1 0 0 .47zM9.756 9.949h4.35a.234.234 0 0 0 0-.47h-4.35a.234.234 0 1 0 0 .47zM4.815 11.876h9.291a.234.234 0 0 0 0-.469H4.815a.234.234 0 1 0 0 .469zM4.815 13.803h9.291a.234.234 0 0 0 0-.468H4.815a.234.234 0 1 0 0 .468z" fill="#000"/><path d="M4.586 4.426V1.949c0-.05.025-.09.073-.116a.358.358 0 0 1 .175-.04c.092 0 .162.016.21.05a.62.62 0 0 1 .16.213l.737 1.423V1.945c0-.05.024-.089.073-.114a.373.373 0 0 1 .175-.038c.069 0 .127.012.176.038.048.025.072.063.072.114v2.48c0 .049-.025.087-.074.115a.347.347 0 0 1-.174.042c-.135 0-.23-.052-.286-.156l-.82-1.534v1.534c0 .048-.025.086-.075.114a.347.347 0 0 1-.174.042.344.344 0 0 1-.175-.042c-.048-.028-.073-.066-.073-.114zM6.895 4.426V1.949a.13.13 0 0 1 .065-.114.275.275 0 0 1 .153-.042H8.47c.051 0 .09.021.117.064.026.044.04.093.04.15a.282.282 0 0 1-.042.156.13.13 0 0 1-.115.065h-1.08v.763h.58c.049 0 .087.02.115.059.028.04.042.086.042.14a.23.23 0 0 1-.04.13.132.132 0 0 1-.117.06h-.58v.767h1.08a.13.13 0 0 1 .115.065.282.282 0 0 1 .042.156.277.277 0 0 1-.04.15.129.129 0 0 1-.117.064H7.113a.274.274 0 0 1-.153-.042.13.13 0 0 1-.065-.114zM8.876 1.991c0-.053.034-.1.103-.14.068-.039.14-.058.213-.058.092 0 .147.033.165.099l.602 2.068.325-1.328c.023-.091.104-.137.244-.137.137 0 .217.046.24.137l.325 1.328.603-2.068c.018-.066.072-.1.164-.1.074 0 .145.02.213.06.07.04.104.086.104.139 0 .015-.003.03-.008.046l-.756 2.4c-.038.112-.146.168-.324.168a.471.471 0 0 1-.206-.044c-.061-.029-.098-.07-.11-.124l-.245-1.03-.248 1.03c-.013.054-.05.095-.11.124a.471.471 0 0 1-.207.044.48.48 0 0 1-.21-.044.198.198 0 0 1-.114-.124l-.756-2.4a.143.143 0 0 1-.007-.046zM12.302 4.143c0-.058.023-.117.067-.177.045-.06.095-.09.15-.09.034 0 .071.016.113.048.042.031.083.067.123.105.039.038.095.073.17.105a.61.61 0 0 0 .243.047.527.527 0 0 0 .306-.084.281.281 0 0 0 .122-.248.333.333 0 0 0-.067-.204.532.532 0 0 0-.175-.149 2.805 2.805 0 0 0-.239-.114 3.725 3.725 0 0 1-.261-.124 1.524 1.524 0 0 1-.24-.155.618.618 0 0 1-.176-.229.763.763 0 0 1-.067-.326.77.77 0 0 1 .082-.362.624.624 0 0 1 .22-.244c.091-.058.189-.1.293-.128.104-.027.215-.04.332-.04a1.713 1.713 0 0 1 .445.058c.082.021.15.054.202.098a.2.2 0 0 1 .078.157.347.347 0 0 1-.053.176c-.036.06-.084.09-.145.09a.718.718 0 0 1-.187-.072.782.782 0 0 0-.34-.073.554.554 0 0 0-.318.079.248.248 0 0 0-.113.215c0 .074.03.138.092.193.06.055.136.1.227.134.09.034.188.077.293.13.106.051.204.108.294.17.09.06.166.149.227.264a.86.86 0 0 1 .092.407c0 .26-.083.462-.25.604-.167.142-.386.212-.658.212a1.23 1.23 0 0 1-.622-.148c-.173-.1-.26-.208-.26-.325z" fill="#4A5359"/></svg>