<svg width="16" height="16" fill="none" xmlns="http://www.w3.org/2000/svg"><g clip-path="url(#clip0)" fill="#000"><path d="M15.192.594H3.486a.808.808 0 0 0-.807.807v1.226H.808A.809.809 0 0 0 0 3.435v10.392c0 .863.7 1.567 1.562 1.573h8.302a.234.234 0 0 0 0-.468h-7.17c.28-.285.453-.675.453-1.105V8.346a.234.234 0 0 0-.468 0v5.48c0 .608-.493 1.102-1.1 1.105h-.005c-.61 0-1.105-.495-1.105-1.104V3.435a.34.34 0 0 1 .339-.339h1.87v4.375a.234.234 0 1 0 .47 0v-6.07a.34.34 0 0 1 .338-.339h11.706a.34.34 0 0 1 .34.34v12.425c0 .609-.496 1.105-1.106 1.105H10.74a.234.234 0 0 0 0 .468h3.686c.868 0 1.574-.706 1.574-1.573V1.4a.809.809 0 0 0-.808-.807z"/><path d="M5.135 9.946h3.214a.555.555 0 0 0 .555-.555V6.177a.555.555 0 0 0-.555-.555H5.135a.555.555 0 0 0-.555.555V9.39c0 .306.25.555.555.555zm-.086-3.77c0-.047.039-.085.086-.085h3.214c.048 0 .086.038.086.086V9.39a.086.086 0 0 1-.086.086H5.135a.086.086 0 0 1-.086-.086V6.177zM9.756 6.09h4.35a.234.234 0 1 0 0-.468h-4.35a.234.234 0 1 0 0 .469zM9.756 8.018h4.35a.234.234 0 0 0 0-.468h-4.35a.234.234 0 1 0 0 .468zM9.756 9.946h4.35a.234.234 0 0 0 0-.47h-4.35a.234.234 0 1 0 0 .47zM4.815 11.873h9.291a.234.234 0 1 0 0-.469H4.815a.234.234 0 0 0 0 .469zM4.815 13.8h9.291a.234.234 0 1 0 0-.468H4.815a.234.234 0 1 0 0 .468zM4.586 4.423V1.946c0-.05.025-.09.073-.116a.358.358 0 0 1 .175-.04c.092 0 .162.016.21.05a.62.62 0 0 1 .16.213l.737 1.423V1.942c0-.05.024-.089.073-.114a.373.373 0 0 1 .175-.038c.069 0 .127.012.176.038.048.025.072.063.072.114v2.48c0 .05-.025.087-.074.115a.346.346 0 0 1-.174.042c-.135 0-.23-.052-.286-.156l-.82-1.534v1.534c0 .048-.025.086-.075.114a.347.347 0 0 1-.174.042.343.343 0 0 1-.175-.042c-.048-.028-.073-.066-.073-.114zM6.895 4.423V1.946a.13.13 0 0 1 .065-.114.275.275 0 0 1 .153-.042H8.47c.051 0 .09.021.117.065.026.043.04.093.04.148a.282.282 0 0 1-.042.157.13.13 0 0 1-.115.065h-1.08v.763h.58c.049 0 .087.02.115.06.028.039.042.085.042.138a.23.23 0 0 1-.04.132.132.132 0 0 1-.117.06h-.58v.766h1.08a.13.13 0 0 1 .115.065.282.282 0 0 1 .042.157.277.277 0 0 1-.04.148.128.128 0 0 1-.117.065H7.113a.274.274 0 0 1-.153-.042.13.13 0 0 1-.065-.114zM8.876 1.988c0-.053.034-.1.103-.14.068-.039.14-.058.213-.058.092 0 .147.033.164.099l.603 2.068.325-1.328c.023-.091.104-.137.244-.137.137 0 .217.046.24.137l.325 1.328.603-2.068c.018-.066.072-.1.164-.1.074 0 .145.02.213.06.07.04.104.086.104.14 0 .014-.003.03-.008.045l-.756 2.4c-.038.112-.146.168-.324.168a.47.47 0 0 1-.206-.044c-.061-.029-.098-.07-.11-.124l-.245-1.03-.248 1.03c-.013.054-.05.095-.11.124a.47.47 0 0 1-.207.044.48.48 0 0 1-.21-.044.198.198 0 0 1-.114-.124l-.756-2.4a.143.143 0 0 1-.007-.046zM12.303 4.14c0-.058.022-.117.066-.177.045-.06.095-.09.151-.09.033 0 .07.016.113.048.042.032.082.067.122.105a.61.61 0 0 0 .414.153.526.526 0 0 0 .305-.085.281.281 0 0 0 .122-.247.333.333 0 0 0-.067-.205.53.53 0 0 0-.175-.148 2.782 2.782 0 0 0-.239-.115 3.706 3.706 0 0 1-.261-.124 1.521 1.521 0 0 1-.24-.155.617.617 0 0 1-.176-.229.761.761 0 0 1-.067-.326c0-.137.028-.257.082-.362a.625.625 0 0 1 .22-.244c.091-.058.19-.1.293-.128.105-.027.215-.04.333-.04a1.711 1.711 0 0 1 .444.058c.083.021.15.054.202.098a.2.2 0 0 1 .078.157.348.348 0 0 1-.053.176c-.036.06-.084.09-.145.09a.716.716 0 0 1-.187-.072.782.782 0 0 0-.34-.072.553.553 0 0 0-.318.078.249.249 0 0 0-.113.215c0 .074.03.138.092.193.06.055.137.1.227.134s.188.077.294.13c.105.052.203.108.294.17.09.06.166.149.227.264a.86.86 0 0 1 .091.407c0 .26-.083.462-.25.604-.167.142-.386.213-.658.213a1.23 1.23 0 0 1-.622-.15c-.173-.098-.26-.207-.26-.324z"/></g><defs><clipPath id="clip0"><path fill="#fff" d="M0 0h16v16H0z"/></clipPath></defs></svg>