<svg width="16" height="16" fill="none" xmlns="http://www.w3.org/2000/svg"><g clip-path="url(#clip0)" fill="#000"><path d="M8.982 1.528c-.545-.272-1.565-.275-1.608-.275a.234.234 0 0 0 0 .468c.263 0 1.028.04 1.398.226a.233.233 0 0 0 .314-.105.234.234 0 0 0-.104-.314z"/><path d="M10.15 4.863l-.846-.241a.268.268 0 0 1-.193-.257V4.17a1.724 1.724 0 0 0 .752-1.43v-.446l.093-.187c.103-.206.157-.436.157-.665V.234A.234.234 0 0 0 9.88 0H7.624c-.82 0-1.487.667-1.487 1.487V1.5c0 .19.045.382.13.553l.12.24v.382c0 .607.3 1.151.752 1.478v.339c0 .043-.029.082-.07.094l-.968.276a.99.99 0 0 0-.715.948V7.25a.234.234 0 0 0 .469 0V5.81a.52.52 0 0 1 .375-.497l.967-.276a.557.557 0 0 0 .1-.04l.594.594v1.656a.234.234 0 1 0 .469 0V5.592l.613-.613c.061.04.13.073.203.094l.845.241a.52.52 0 0 1 .375.497v1.437a.234.234 0 1 0 .469 0V5.811a.99.99 0 0 0-.715-.948zm-2.025.3l-.534-.534a.561.561 0 0 0 .017-.136v-.099a1.642 1.642 0 0 0 .518.083c.178 0 .352-.027.518-.079a.729.729 0 0 0 .04.208l-.559.558zm-.039-1.156c-.678-.02-1.23-.617-1.23-1.33v-.439a.234.234 0 0 0-.024-.104l-.145-.29a.772.772 0 0 1-.081-.343v-.014A1.02 1.02 0 0 1 7.624.469h2.02v.973c0 .157-.037.314-.107.455l-.118.237a.234.234 0 0 0-.025.104v.501c0 .346-.137.67-.385.91a1.26 1.26 0 0 1-.923.358z"/><path d="M6.622 6.012a.234.234 0 0 0-.234.235v1.002a.234.234 0 0 0 .469 0V6.247a.234.234 0 0 0-.235-.235zM9.628 6.012a.234.234 0 0 0-.234.235v1.002a.234.234 0 0 0 .469 0V6.247a.234.234 0 0 0-.235-.235zM3.72 10.045c-.543-.272-1.564-.275-1.607-.275a.234.234 0 0 0 0 .468c.264 0 1.029.041 1.398.226a.234.234 0 0 0 .315-.105.234.234 0 0 0-.105-.314z"/><path d="M4.889 13.38l-.968-.276a.098.098 0 0 1-.07-.094v-.323a1.723 1.723 0 0 0 .752-1.43v-.446l.093-.187c.102-.206.157-.436.157-.665V8.75a.234.234 0 0 0-.235-.234H2.364c-.82 0-1.487.667-1.487 1.487v.014c0 .19.045.382.13.553l.12.24v.383c0 .606.3 1.15.752 1.478v.338c0 .043-.03.082-.071.094l-.968.277a.99.99 0 0 0-.715.947v1.438a.234.234 0 0 0 .469 0v-1.438a.52.52 0 0 1 .375-.497l.968-.276a.558.558 0 0 0 .1-.04l.593.594v1.657a.234.234 0 0 0 .469 0v-1.657l.594-.594c.032.016.065.03.1.04l.967.276a.52.52 0 0 1 .375.497v1.438a.234.234 0 0 0 .47 0v-1.438a.99.99 0 0 0-.716-.947zm-2.024.3l-.534-.534a.561.561 0 0 0 .017-.136v-.099a1.65 1.65 0 0 0 .517.083c.178 0 .352-.027.517-.078v.094c0 .047.006.092.017.137l-.534.534zm.883-1.513a1.26 1.26 0 0 1-.923.357c-.677-.02-1.229-.617-1.229-1.33v-.439a.234.234 0 0 0-.025-.104l-.144-.29a.771.771 0 0 1-.081-.343v-.014a1.02 1.02 0 0 1 1.018-1.018h2.02v.973c0 .157-.037.314-.108.455l-.118.237a.234.234 0 0 0-.025.104v.502c0 .346-.136.669-.385.91z"/><path d="M1.362 14.53a.234.234 0 0 0-.235.234v1.002a.234.234 0 1 0 .469 0v-1.002a.234.234 0 0 0-.234-.235zM4.368 14.53a.234.234 0 0 0-.235.234v1.002a.234.234 0 1 0 .47 0v-1.002a.234.234 0 0 0-.235-.235zM15.33 13.654l-.95-.475a.016.016 0 0 1-.008-.014v-.477a1.73 1.73 0 0 0 .734-1.19 1.982 1.982 0 0 0-.527-2.581c.029-.095.043-.192.043-.29 0-.613-.554-1.112-1.236-1.112-.682 0-1.236.499-1.236 1.111 0 .1.014.197.042.29a1.986 1.986 0 0 0-.526 2.582c.069.498.344.922.734 1.19v.477a.016.016 0 0 1-.009.015l-.95.474a.98.98 0 0 0-.544.882v1.23a.234.234 0 0 0 .469 0v-1.23c0-.197.11-.375.286-.463l.782-.391.273.259a.983.983 0 0 0 1.358 0l.272-.26.783.392a.514.514 0 0 1 .286.463v1.23a.234.234 0 0 0 .469 0v-1.23a.98.98 0 0 0-.545-.882zm-1.944-5.67c.423 0 .767.288.767.642 0 .015 0 .03-.002.045a1.977 1.977 0 0 0-1.53 0l-.003-.045c0-.354.345-.642.768-.642zm.356 5.617c-.2.19-.513.19-.712 0l-.218-.207a.485.485 0 0 0 .057-.23v-.248a1.742 1.742 0 0 0 1.034 0v.249c0 .082.02.16.057.229l-.218.207zm-.356-1.076c-.65 0-1.191-.486-1.26-1.13a.235.235 0 0 0-.034-.098 1.514 1.514 0 0 1-.225-.792c0-.838.681-1.52 1.519-1.52a1.52 1.52 0 0 1 1.442 1.994c-.666-.676-1.836-.94-1.893-.953a.232.232 0 0 0-.201.044.224.224 0 0 0-.084.182.573.573 0 0 1-.181.338.234.234 0 1 0 .331.331c.132-.131.21-.265.255-.378.394.117 1.213.413 1.58.932a1.265 1.265 0 0 1-1.25 1.05z"/><path d="M12.133 14.839a.234.234 0 0 0-.234.234v.693a.234.234 0 0 0 .469 0v-.693a.234.234 0 0 0-.235-.234zM14.638 14.839a.234.234 0 0 0-.234.234v.693a.234.234 0 1 0 .469 0v-.693a.234.234 0 0 0-.235-.234zM11.007 12.562L8.36 10.877V8.25a.234.234 0 0 0-.47 0v2.627l-2.646 1.685a.234.234 0 0 0 .251.395l2.63-1.673 2.63 1.673a.234.234 0 0 0 .323-.072.234.234 0 0 0-.071-.323z"/></g><defs><clipPath id="clip0"><path fill="#fff" d="M0 0h16v16H0z"/></clipPath></defs></svg>