<svg width="16" height="16" fill="none" xmlns="http://www.w3.org/2000/svg"><g clip-path="url(#clip0)"><path d="M1.111 9.754v.175c0 .216.035.43.103.634l.398 1.195h.752V9.002h-.501a.751.751 0 0 0-.752.752z" fill="#5A4146"/><path d="M4.56 10.206l-.443 1.552-2.004-1.754a.501.501 0 0 1-.5-.501c0-.415.336-.752.75-.752h2.255v1.042c0 .14-.02.28-.058.413z" fill="#694B4B"/><path d="M3.616 12.509H2.113v1.503h1.503V12.51z" fill="#E6AF78"/><path d="M4.825 13.462l-1.209-.345-.751.895-.752-.895-1.208.345a.751.751 0 0 0-.545.723v1.58h5.01v-1.58a.751.751 0 0 0-.545-.723z" fill="#D5DCED"/><path d="M2.865 12.76c-.83 0-1.503-.673-1.503-1.503 0-.321.127-.629.354-.856l.247-.246a.495.495 0 0 1 .363-.148c.801.026 1.51.197 1.897.575a.495.495 0 0 1 .145.355v.32c0 .83-.673 1.503-1.503 1.503z" fill="#F0C087"/><path d="M2.113 11.257a.5.5 0 0 1 .531-.5c.506.032 1.256.116 1.717.338-.015-.106-.06-.437-.138-.512-.387-.379-1.096-.55-1.897-.576a.495.495 0 0 0-.363.148l-.247.246a1.21 1.21 0 0 0-.354.856c0 .685.459 1.262 1.086 1.443a1.49 1.49 0 0 1-.335-.942v-.501z" fill="#E6AF78"/><path d="M1.362 14.931c0-.2-.08-.39-.22-.531l-.645-.645a.748.748 0 0 0-.137.43v1.58h1.002v-.834zM4.368 14.931c0-.2.079-.39.22-.531l.645-.645a.748.748 0 0 1 .137.43v1.58H4.368v-.834z" fill="#C7CFE2"/><path d="M6.372 1.236v.176c0 .216.034.43.102.634l.399 1.194h.751V.485h-.5a.752.752 0 0 0-.752.751z" fill="#544A4A"/><path d="M9.821 1.69l-.443 1.55-2.004-1.753a.501.501 0 0 1-.501-.501c0-.415.336-.752.751-.752H9.88v1.042c0 .14-.02.28-.058.413z" fill="#897575"/><path d="M8.877 3.992H7.374v1.503h1.503V3.992z" fill="#E6AF78"/><path d="M10.085 4.945L8.877 4.6l-.752.895-.751-.895-1.209.345a.752.752 0 0 0-.545.722v1.581h5.01v-1.58a.752.752 0 0 0-.545-.723z" fill="#9DC599"/><path d="M6.622 6.414c0-.2-.079-.39-.22-.531l-.645-.645a.748.748 0 0 0-.137.43v1.58h1.002v-.834zM9.628 6.414c0-.2.08-.39.22-.531l.645-.645a.748.748 0 0 1 .137.43v1.58H9.628v-.834z" fill="#83A77D"/><path d="M8.125 4.24c-.83 0-1.503-.674-1.503-1.504 0-.32.128-.628.355-.855l.246-.247a.495.495 0 0 1 .364-.147c.8.025 1.51.197 1.897.575a.495.495 0 0 1 .144.355v.32c0 .83-.673 1.502-1.503 1.502z" fill="#F0C087"/><path d="M7.374 2.736a.5.5 0 0 1 .53-.5c.507.032 1.257.117 1.717.338-.015-.105-.06-.436-.137-.512-.387-.378-1.096-.55-1.897-.575a.495.495 0 0 0-.364.147l-.246.247a1.21 1.21 0 0 0-.355.855c0 .686.46 1.263 1.087 1.444a1.49 1.49 0 0 1-.335-.943v-.5z" fill="#E6AF78"/><path d="M13.386 9.503c.553 0 1.002-.392 1.002-.877 0-.484-.449-.877-1.002-.877-.553 0-1.002.393-1.002.877 0 .485.449.877 1.002.877z" fill="#CEB268"/><path d="M13.135 8.626c0-.367.26-.681.627-.811a1.122 1.122 0 0 0-.376-.065c-.554 0-1.002.392-1.002.876s.448.877 1.002.877c.133 0 .26-.024.376-.065-.367-.13-.627-.444-.627-.812z" fill="#7E6C3B"/><path d="M15.225 13.864l-.81-.406a.501.501 0 0 1-.278-.448v-.751h-1.503v.751c0 .19-.107.363-.277.448l-.81.406a.752.752 0 0 0-.416.672v1.23h4.51v-1.23a.752.752 0 0 0-.416-.672z" fill="#E6AF78"/><path d="M15.64 14.536a.752.752 0 0 0-.415-.672l-.81-.406a.496.496 0 0 1-.124-.09l-.288.32a.804.804 0 0 1-1.235 0l-.287-.32a.496.496 0 0 1-.124.09l-.81.405a.752.752 0 0 0-.416.673v1.23h4.51v-1.23z" fill="#E280C1"/><path d="M13.386 12.258a1.753 1.753 0 1 0 0-3.506 1.753 1.753 0 0 0 0 3.506z" fill="#917F4F"/><path d="M15.123 10.262a1.758 1.758 0 0 0-1.726-1.51c-.84-.006-1.12 1.154-.366 1.522.041.02.067.029.067.029l.872 1.58s.233.016.467.023a1.75 1.75 0 0 0 .686-1.644z" fill="#CEB268"/><path d="M13.386 12.76a1.503 1.503 0 0 1-1.326-.795.733.733 0 0 1 .238-.935 1.95 1.95 0 0 0 .175-.139c.179-.16.284-.328.343-.452a.247.247 0 0 1 .28-.136 4.314 4.314 0 0 1 1.704.872c.057.05.09.123.084.199a1.503 1.503 0 0 1-1.498 1.386z" fill="#F0C087"/><path d="M14.799 11.175a4.316 4.316 0 0 0-1.701-.872.248.248 0 0 0-.283.137 1.432 1.432 0 0 1-.229.334v.001a1.705 1.705 0 0 1-.281.25c-.354.243-.407.693-.19 1.033.228.359.604.613 1.043.68-.3-.204-.524-.48-.524-.98v-.194a1.992 1.992 0 0 0 .53-.558 3.782 3.782 0 0 1 1.558.94c.088-.14.15-.41.162-.573a.24.24 0 0 0-.085-.198z" fill="#E6AF78"/><path d="M11.284 14.084a.75.75 0 0 0-.153.452v1.23h1.002v-.762a.5.5 0 0 0-.188-.39l-.66-.53zM15.488 14.084a.75.75 0 0 1 .152.452v1.23h-1.002v-.762a.5.5 0 0 1 .188-.39l.662-.53z" fill="#D05BCC"/><path d="M8.772 1.947a.233.233 0 0 0 .314-.105.234.234 0 0 0-.104-.314c-.545-.272-1.565-.275-1.608-.275a.234.234 0 0 0 0 .468c.263 0 1.028.04 1.398.226z" fill="#000"/><path d="M5.62 7.483c.13 0 .235-.105.235-.234V5.81a.52.52 0 0 1 .375-.497l.967-.276a.557.557 0 0 0 .1-.04l.594.594v1.656a.234.234 0 1 0 .469 0V5.592l.613-.613c.061.04.13.073.203.094l.845.241a.52.52 0 0 1 .375.497v1.437a.234.234 0 1 0 .469 0V5.811a.99.99 0 0 0-.715-.948l-.846-.241a.268.268 0 0 1-.193-.257V4.17a1.724 1.724 0 0 0 .752-1.43v-.446l.093-.187c.103-.206.157-.436.157-.665V.234A.234.234 0 0 0 9.88 0H7.624c-.82 0-1.487.667-1.487 1.487V1.5c0 .19.045.382.13.553l.12.24v.382c0 .607.3 1.151.752 1.478v.339c0 .043-.029.082-.07.094l-.968.276a.99.99 0 0 0-.715.948V7.25c0 .129.105.234.234.234zm1.237-4.807v-.438a.234.234 0 0 0-.025-.104l-.145-.29a.772.772 0 0 1-.081-.343v-.014A1.02 1.02 0 0 1 7.624.469h2.02v.973c0 .157-.037.314-.107.455l-.118.237a.234.234 0 0 0-.025.104v.501c0 .346-.137.67-.385.91a1.26 1.26 0 0 1-.923.358c-.678-.02-1.23-.617-1.23-1.33zm1.215 1.8h.054c.178 0 .352-.026.518-.078a.729.729 0 0 0 .04.208l-.559.558-.534-.535a.561.561 0 0 0 .017-.136v-.099c.148.048.303.077.464.082z" fill="#000"/><path d="M6.388 6.247v1.002a.234.234 0 0 0 .469 0V6.247a.234.234 0 0 0-.47 0zM9.394 6.247v1.002a.234.234 0 0 0 .469 0V6.247a.234.234 0 1 0-.469 0zM3.511 10.464a.234.234 0 0 0 .315-.105.234.234 0 0 0-.105-.314c-.544-.272-1.565-.275-1.608-.275a.234.234 0 0 0 0 .468c.264 0 1.029.041 1.398.226z" fill="#000"/><path d="M4.889 13.38l-.968-.276a.098.098 0 0 1-.07-.094v-.323a1.723 1.723 0 0 0 .752-1.43v-.446l.093-.187c.102-.206.157-.436.157-.665V8.75a.234.234 0 0 0-.235-.234H2.364c-.82 0-1.487.667-1.487 1.487v.014c0 .19.045.382.13.553l.12.24v.383c0 .606.3 1.15.752 1.478v.338c0 .043-.03.082-.071.094l-.968.277a.99.99 0 0 0-.715.947v1.438a.234.234 0 0 0 .469 0v-1.438a.52.52 0 0 1 .375-.497l.968-.276a.558.558 0 0 0 .1-.04l.593.594v1.657a.234.234 0 0 0 .469 0v-1.657l.594-.594c.032.016.065.03.1.04l.967.276a.52.52 0 0 1 .375.497v1.438a.234.234 0 0 0 .47 0v-1.438a.99.99 0 0 0-.716-.947zm-3.293-2.187v-.438a.234.234 0 0 0-.025-.104l-.144-.29a.771.771 0 0 1-.081-.343v-.014a1.02 1.02 0 0 1 1.018-1.018h2.02v.973c0 .157-.037.314-.108.455l-.118.237a.234.234 0 0 0-.025.104v.502c0 .346-.136.669-.385.91a1.26 1.26 0 0 1-.923.357c-.677-.02-1.229-.617-1.229-1.33zm1.215 1.8h.054c.178 0 .352-.026.517-.077v.094c0 .047.006.092.017.137l-.534.534-.534-.534a.561.561 0 0 0 .017-.137v-.099c.147.049.302.077.463.082z" fill="#000"/><path d="M1.362 14.53a.234.234 0 0 0-.235.234v1.002a.234.234 0 1 0 .469 0v-1.002a.234.234 0 0 0-.234-.235zM4.368 14.53a.234.234 0 0 0-.235.234v1.002a.234.234 0 1 0 .47 0v-1.002a.234.234 0 0 0-.235-.235zM15.33 13.654l-.95-.475a.016.016 0 0 1-.008-.014v-.477a1.73 1.73 0 0 0 .734-1.19 1.982 1.982 0 0 0-.527-2.581c.029-.095.043-.192.043-.29 0-.613-.554-1.112-1.236-1.112-.682 0-1.236.499-1.236 1.111 0 .1.014.197.042.29a1.986 1.986 0 0 0-.526 2.582c.069.498.344.922.734 1.19v.477a.016.016 0 0 1-.009.015l-.95.474a.98.98 0 0 0-.544.882v1.23a.234.234 0 0 0 .469 0v-1.23c0-.197.11-.375.286-.463l.782-.391.273.259a.983.983 0 0 0 1.358 0l.272-.26.783.392a.514.514 0 0 1 .286.463v1.23a.234.234 0 0 0 .469 0v-1.23a.98.98 0 0 0-.545-.882zm-2.712-5.028c0-.354.345-.642.768-.642.423 0 .767.288.767.642 0 .015 0 .03-.002.045a1.977 1.977 0 0 0-1.53 0l-.003-.045zm-.493 2.769a.235.235 0 0 0-.033-.098 1.514 1.514 0 0 1-.225-.792c0-.838.681-1.52 1.519-1.52a1.52 1.52 0 0 1 1.442 1.994c-.666-.676-1.836-.94-1.893-.953a.232.232 0 0 0-.201.044.224.224 0 0 0-.084.182.573.573 0 0 1-.181.338.234.234 0 1 0 .331.331c.132-.131.21-.265.255-.378.394.117 1.213.413 1.58.932a1.265 1.265 0 0 1-1.25 1.05c-.648 0-1.19-.486-1.26-1.13zm.905 2.206l-.218-.207a.485.485 0 0 0 .057-.23v-.248a1.742 1.742 0 0 0 1.034 0v.249c0 .082.02.16.057.229l-.218.207c-.2.19-.513.19-.712 0z" fill="#000"/><path d="M12.133 14.839a.234.234 0 0 0-.234.234v.693a.234.234 0 0 0 .469 0v-.693a.234.234 0 0 0-.235-.234zM14.638 14.839a.234.234 0 0 0-.234.234v.693a.234.234 0 1 0 .469 0v-.693a.234.234 0 0 0-.235-.234zM11.079 12.885a.234.234 0 0 0-.072-.323L8.36 10.877V8.25a.234.234 0 0 0-.47 0v2.627l-2.646 1.685a.234.234 0 0 0 .251.395l2.63-1.673 2.63 1.673a.234.234 0 0 0 .323-.072z" fill="#000"/></g><defs><clipPath id="clip0"><path fill="#fff" d="M0 0h16v16H0z"/></clipPath></defs></svg>