<svg width="16" height="16" fill="none" xmlns="http://www.w3.org/2000/svg"><g clip-path="url(#clip0)" fill="#000"><path d="M15.918 6.249a.34.34 0 0 0-.257-.118h-.705V2.33a.473.473 0 0 0-.473-.473h-8.19L5.63.752a.474.474 0 0 0-.405-.23H1.54a.473.473 0 0 0-.472.472V6.13H.34a.34.34 0 0 0-.335.39l1.313 8.67a.338.338 0 0 0 .336.288h12.694c.169 0 .31-.121.336-.29l1.313-8.666a.339.339 0 0 0-.078-.273zM1.602 1.056H5.19l.664 1.106c.084.142.24.23.405.23h8.162V6.13h-.267V5.062h-.267v-.8h-.267V3.46H2.404v.801h-.267v.801h-.268v1.069h-.267V1.056zm.802 4.54H13.62v.535H2.404v-.534zm.267-.8h10.682v.266H2.671v-.267zm10.415-.535H2.938v-.267h10.148v.267zm1.094 10.683H1.82L.566 6.664h14.868l-1.254 8.28z"/><path d="M7.199 13.608h5.608V9.87H7.2v3.739zm.534-3.204h4.54v2.67h-4.54v-2.67z"/><path d="M8.534 11.472h1.069a.267.267 0 1 0 0-.534H8.534a.267.267 0 1 0 0 .534zM10.67 11.472h.268a.267.267 0 1 0 0-.534h-.267a.267.267 0 1 0 0 .534zM11.472 12.006H8.534a.267.267 0 1 0 0 .534h2.938a.267.267 0 1 0 0-.534z"/></g><defs><clipPath id="clip0"><path fill="#fff" d="M0 0h16v16H0z"/></clipPath></defs></svg>