<svg width="16" height="16" fill="none" xmlns="http://www.w3.org/2000/svg"><g clip-path="url(#clip0)"><path d="M6.198 2.172h8.471v3.92H1.355V.79h3.753l.694 1.157c.084.14.235.225.396.225z" fill="#B5885B" stroke="#000" stroke-width=".5"/><path d="M14.09 5.237H1.934v1.105H14.09V5.237z" fill="#fff"/><path d="M13.814 4.408H2.21v.83h11.604v-.83z" fill="#E7ECED"/><path d="M13.538 3.58H2.487v.828h11.05V3.58z" fill="#C7CAC7"/><path d="M15.722 6.592l-1.306 8.618H1.584L.28 6.592H15.72zm.03-.201z" fill="#F7B563" stroke="#000" stroke-width=".5"/><path d="M12.697 10.21h-5.25v3.316h5.25V10.21z" fill="#EDEADA"/><path d="M8.553 11.592h1.105a.276.276 0 1 0 0-.553H8.553a.276.276 0 1 0 0 .553zM10.763 11.592h.276a.276.276 0 1 0 0-.553h-.276a.276.276 0 1 0 0 .553zM11.592 12.144h-3.04a.276.276 0 1 0 0 .553h3.04a.276.276 0 1 0 0-.553z" fill="#CEC9AE"/></g><defs><clipPath id="clip0"><path fill="#fff" d="M0 0h16v16H0z"/></clipPath></defs></svg>