<!-- Generated by IcoMoon.io -->
<svg version="1.1" xmlns="http://www.w3.org/2000/svg" width="32" height="32" viewBox="0 0 32 32">
<title>outbox</title>
<path fill="#fdc26b" d="M4.276 9.92h23.436v15.148h-23.436v-15.148z"></path>
<path fill="#fcb54c" d="M4.276 9.92v4.572l11.41 6.447c0.191 0.108 0.425 0.108 0.615 0l9.355-5.285c0.089-0.051 0.196-0.081 0.31-0.081 0.349 0 0.631 0.283 0.631 0.631 0 0 0 0 0 0v-0 8.864h1.115v-15.148h-23.436z"></path>
<path fill="#fba72d" d="M4.276 25.068l11.718-8.527 11.718 8.527h-23.436z"></path>
<path fill="#fa9a0f" d="M27.712 25.068l-11.718-8.528-11.718 8.528h1.81l9.908-7.21 9.908 7.21h1.81z"></path>
<path fill="#fa9a0f" d="M19.53 19.114l-3.536-2.573-3.537 2.573 3.23 1.825c0.19 0.108 0.424 0.108 0.614 0l3.23-1.825z"></path>
<path fill="#fecf8a" d="M27.712 9.92v3.477l-11.718 6.623-11.718-6.623v-3.477h23.436z"></path>
<path fill="#b4d2d7" d="M1.098 22.564h29.792v8.963h-29.79v-8.963z"></path>
<path fill="#9bb9c3" d="M29.438 22.564v6.249c0 0.697-0.566 1.262-1.263 1.262h-27.077v1.452h29.792v-8.963h-1.451z"></path>
<path fill="#f294ba" d="M15.994 0.473l5.87 6.943h-3.345v7.574h-5.050v-7.574h-3.345l5.87-6.943z"></path>
<path fill="#ef75a7" d="M18.519 7.416v7.574h-1.137v-6.816c0-0.419 0.34-0.758 0.758-0.758h0.379zM20.727 7.416l-5.301-6.27 0.568-0.673 5.87 6.943h-1.137z"></path>
<path fill="#87a0af" d="M15.994 28.055h4.86l1.262-3.030h-12.308l1.263 3.030h4.923z"></path>
<path fill="#738c96" d="M11.406 26.322c-0.013-0.029-0.020-0.063-0.020-0.098 0-0.139 0.113-0.252 0.252-0.252 0 0 0.001 0 0.001 0h10.083l0.394-0.946h-12.308l1.263 3.030h1.057l-0.722-1.734z"></path>
<path fill="#000" d="M30.89 22.090h-2.705v-3.447c0-0.262-0.212-0.474-0.474-0.474s-0.474 0.212-0.474 0.474v3.448h-2.813l-4.868-3.542 7.681-4.34v2.208c0 0.262 0.212 0.474 0.474 0.474s0.474-0.212 0.474-0.474v0-6.497c0-0.261-0.212-0.473-0.473-0.473v0h-8.72v-1.557h2.871c0.001 0 0.001 0 0.002 0 0.261 0 0.473-0.212 0.473-0.473 0-0.117-0.043-0.225-0.114-0.308l0.001 0.001-5.87-6.941c-0.087-0.103-0.217-0.168-0.361-0.168s-0.274 0.065-0.361 0.167l-0.001 0.001-2.18 2.579c-0.071 0.082-0.114 0.19-0.114 0.309 0 0.261 0.212 0.473 0.473 0.473 0.146 0 0.277-0.066 0.364-0.171l0.001-0.001 1.819-2.15 4.85 5.736h-2.325c-0 0-0.001 0-0.001 0-0.261 0-0.473 0.212-0.473 0.473 0 0 0 0 0 0v0 7.1h-4.102v-7.1c0 0 0 0 0 0 0-0.261-0.212-0.473-0.473-0.473-0 0-0.001 0-0.001 0h-2.325l1.575-1.863c0.070-0.082 0.112-0.189 0.112-0.306 0-0.261-0.212-0.473-0.473-0.473-0.145 0-0.274 0.065-0.361 0.167l-0.001 0.001-2.234 2.64c-0.070 0.082-0.112 0.189-0.112 0.306 0 0.261 0.212 0.473 0.473 0.473 0 0 0.001 0 0.001 0h2.872v1.557h-8.72c-0 0-0.001 0-0.001 0-0.261 0-0.473 0.212-0.473 0.473 0 0 0 0 0 0v0 12.17h-2.704c0 0 0 0 0 0-0.261 0-0.473 0.212-0.473 0.473 0 0 0 0.001 0 0.001v-0 8.963c0 0.261 0.212 0.473 0.473 0.473h2.304c0.261 0 0.474-0.212 0.474-0.474s-0.212-0.474-0.474-0.474h-1.83v-8.015h28.844v8.015h-24.789c-0.261 0-0.473 0.212-0.473 0.474s0.212 0.474 0.473 0.474h25.262c0 0 0.001 0 0.001 0 0.261 0 0.473-0.212 0.473-0.473 0 0 0 0 0 0v0-8.963c0 0 0 0 0 0 0-0.261-0.212-0.473-0.473-0.473-0 0-0.001 0-0.001 0h0zM22.816 22.090h-13.644l4.164-3.030 2.425 1.37c0.067 0.039 0.147 0.061 0.233 0.061s0.166-0.023 0.235-0.063l-0.002 0.001 2.425-1.37 4.164 3.030zM12.996 10.393v4.597c0 0.261 0.212 0.473 0.473 0.473h5.050c0.261 0 0.473-0.212 0.473-0.473v0-4.597h8.247v2.728l-11.245 6.354-11.245-6.355v-2.728h8.247zM4.749 14.21l7.681 4.34-4.867 3.542h-2.814v-7.883z"></path>
<path fill="#000" d="M11.070 28.529h9.784c0 0 0 0 0 0 0.196 0 0.364-0.119 0.436-0.289l0.001-0.003 1.262-3.030c0.023-0.054 0.036-0.116 0.036-0.182 0-0.261-0.212-0.473-0.473-0.473-0 0-0 0-0 0h-12.308c-0.261 0-0.473 0.212-0.473 0.473 0 0.066 0.014 0.129 0.038 0.186l-0.001-0.003 1.262 3.030c0.074 0.172 0.242 0.29 0.437 0.29 0 0 0 0 0 0v0zM21.406 25.499l-0.868 2.083h-9.152l-0.867-2.083h10.887z"></path>
</svg>
