<svg width="32" height="32" fill="none" xmlns="http://www.w3.org/2000/svg"><path d="M15.164 5.125L.875 13.375 11 30.912l14.29-8.25L15.163 5.125z" fill="#727170"/><path d="M14.824 6.404L2.195 13.695l3.116 5.397 12.629-7.29-3.116-5.398z" fill="#EAEAEA"/><path d="M20.872 16.696L8.152 24.04l3.163 5.478 12.72-7.344-3.163-5.478z" fill="#BABDB4"/><path d="M17.778 11.4L5.125 18.705l3.13 5.42 12.652-7.305-3.129-5.42z" fill="#D0D2CD"/><path d="M15.313 10.313l-10.126 5.75-.812-1.313 10.188-5.688.75 1.25zM11.813 19.563L8.25 21.438 6.062 17.75l3.625-2 2.126 3.813zM17.938 19.938L9.94 24.204l-.781-1.167 7.992-4.455.786 1.355zM21.795 21.269l-4.094 2.243-.74-1.219 4.025-2.365.81 1.341zM14.5 25.332l-3 1.605-.75-1.27 2.941-1.542.809 1.207zM18.563 15.813l-5.188 2.989-.625-1 5.188-3.052.625 1.063zM16.938 12.938l-5.188 2.989-.625-1 5.188-3.052.625 1.063z" fill="#727170"/></svg>