<svg width="32" height="32" fill="none" xmlns="http://www.w3.org/2000/svg"><path d="M15.164 5.125L.875 13.375 11 30.912l14.29-8.25L15.163 5.125z" fill="#727170"/><path d="M14.824 6.404L2.195 13.695l3.116 5.398L19.5 14.5l-4.676-8.096z" fill="#EAEAEA"/><path d="M22.312 19.375L6.437 21.062l4.877 8.456 12.72-7.344-1.722-2.8z" fill="#8C6239"/><path d="M13.313 26.438l-3.563.375 1.565 2.705 6.31-3.393-4.313.313z" fill="#754C24"/><path d="M19.375 14.25L3.813 16.5l2.562 4.563L22.438 19.5l-3.063-5.25z" fill="#C69C6D"/><path d="M15.313 10.313l-10.126 5.75-.812-1.313 10.188-5.688.75 1.25zM11.813 19.563L8.25 21.438 6.062 17.75l3.625-2 2.126 3.813zM17.938 19.937L9.94 24.205l-.781-1.167 7.992-4.456.786 1.355zM21.795 21.269l-4.094 2.243-.74-1.219 4.025-2.365.81 1.341zM14.5 25.332l-3 1.605-.75-1.27 2.941-1.542.809 1.207zM18.563 15.813l-5.188 2.989-.625-1 5.188-3.052.625 1.063zM16.938 12.938l-5.188 2.989-.625-1 5.188-3.052.625 1.063z" fill="#727170"/></svg>