<svg width="32" height="32" fill="none" xmlns="http://www.w3.org/2000/svg"><path d="M15.164 5.125L.875 13.375 11 30.912l14.29-8.25L15.163 5.125z" fill="#727170"/><path d="M14.824 6.404L2.195 13.695l3.116 5.397 12.629-7.29-3.116-5.398z" fill="#EAEAEA"/><path d="M20.872 16.696L8.152 24.04l3.163 5.478 12.72-7.344-3.163-5.478z" fill="#BABDB4"/><path d="M17.778 11.4L5.125 18.705l3.13 5.42 12.652-7.305-3.129-5.42z" fill="#D0D2CD"/><path d="M15.313 10.313l-10.126 5.75-.812-1.313 10.188-5.688.75 1.25zM11.813 19.563L8.25 21.438 6.062 17.75l3.625-2 2.126 3.813zM17.938 19.938L9.94 24.204l-.781-1.167 7.992-4.455.786 1.355zM21.795 21.269l-4.094 2.243-.74-1.219 4.025-2.365.81 1.341zM14.5 25.332l-3 1.605-.75-1.27 2.941-1.542.809 1.207zM18.563 15.813l-5.188 2.989-.625-1 5.188-3.052.625 1.063zM16.938 12.938l-5.188 2.989-.625-1 5.188-3.052.625 1.063z" fill="#727170"/><path fill-rule="evenodd" clip-rule="evenodd" d="M16.75 9.75l-9.625 5.125s3.167.75 5.25.625c3.531-.21 8-4.25 8-4.25l2.75 1.688v.312a4.125 4.125 0 0 0 4.125 4.125h1.063a3.062 3.062 0 1 0 0-6.125H25.25l-2.125-1.063L25.25 8.5h2.875a3.25 3.25 0 0 0 0-6.5h-.875a4.125 4.125 0 0 0-4.125 4.125V7l-2.75 1.5s-4.306-4.776-8-5.125c-2.07-.196-5.25.313-5.25.313L16.75 9.75zm11.383-2.796l.414-.24a1.75 1.75 0 0 0-1.734-3.037l-.417.235c-1.507.852-.996 3.141.73 3.271.35.026.702-.054 1.006-.23zm.128 5.661l.274.165a1.776 1.776 0 0 1-1.734 3.098l-.283-.148c-1.524-.793-1.16-3.07.536-3.346.417-.068.845.014 1.207.231z" fill="#000"/></svg>