<svg width="16" height="16" fill="none" xmlns="http://www.w3.org/2000/svg"><g clip-path="url(#clip0)" fill="#2B2B2B"><path d="M12.762 4.029a.313.313 0 1 0-.442-.442.313.313 0 0 0 .442.442zM4.078 4.676a.313.313 0 1 0-.443-.442.313.313 0 0 0 .443.442zM2.239 6.475l.935-.935a.313.313 0 1 0-.442-.442l-.935.936a.313.313 0 0 0 .442.441zM13.793 5.57a.313.313 0 0 0 .442-.443l-.624-.623a.313.313 0 0 0-.442.442l.624.623z"/><path d="M15.908 5.221l-3.535-3.536a.312.312 0 0 0-.435-.006L10.355 3.17l-.004.003c-.306.306-.606.442-.976.442-.754 0-1.332.213-1.812.668-.394-.373-.84-.566-1.463-.63L4.538 2.092a.313.313 0 0 0-.442 0L.092 6.096a.312.312 0 0 0-.007.434l.007.008L2.7 9.143l-.11.11a1.093 1.093 0 0 0 .784 1.866 1.088 1.088 0 0 0 1.105 1.105 1.09 1.09 0 0 0 1.105 1.104 1.095 1.095 0 0 0 1.867.786l.11-.11.111.11a1.095 1.095 0 0 0 1.867-.784 1.09 1.09 0 0 0 1.104-1.105c.303.003.58-.115.785-.32.208-.208.324-.486.32-.786a1.093 1.093 0 0 0 .785-1.866l-.11-.11c2.179-2.176-.577.582 3.484-3.48a.312.312 0 0 0 0-.442zM.755 6.317l3.562-3.562 1.2 1.2-3.561 3.562-1.201-1.2zm2.277 4.041a.469.469 0 0 1 0-.663L4.137 8.59a.47.47 0 0 1 .663.663l-1.104 1.105a.47.47 0 0 1-.664 0zm1.105 1.105a.468.468 0 0 1 0-.663l1.105-1.105a.468.468 0 1 1 .663.663L4.8 11.463a.47.47 0 0 1-.663 0zm1.105 1.105a.469.469 0 0 1 0-.663L6.347 10.8a.47.47 0 0 1 .663.663l-1.105 1.105a.47.47 0 0 1-.663 0zm1.105 1.105a.468.468 0 0 1 0-.663l1.105-1.105a.468.468 0 1 1 .663.663L7.01 13.673a.47.47 0 0 1-.663 0zm2.43 0a.47.47 0 0 1-.662 0l-.11-.11.552-.553c.037-.038.07-.078.102-.119l.119.119a.469.469 0 0 1 0 .663zm3.316-3.315a.47.47 0 0 1-.664 0L9.993 8.922a.313.313 0 0 0-.442.442l1.437 1.436a.468.468 0 1 1-.663.663l-1.437-1.436a.313.313 0 0 0-.442.442l1.437 1.436a.47.47 0 0 1-.332.8c-.297 0-.393-.234-.674-.48a1.085 1.085 0 0 0-.32-.762 1.085 1.085 0 0 0-.785-.32 1.09 1.09 0 0 0-1.105-1.104 1.092 1.092 0 0 0-1.104-1.106 1.095 1.095 0 0 0-1.867-.785l-.553.553-.745-.742L6.076 4.28c.456.052.762.183 1.043.445l-.883.882a1.252 1.252 0 0 0 0 1.768c.488.487 1.281.487 1.768 0l.884-.884 3.204 3.204a.47.47 0 0 1 0 .663zm-.11-1.657L9.33 6.05l.221-.22a.313.313 0 1 0-.442-.443L7.562 6.933a.626.626 0 0 1-.884-.884l1.273-1.272c.37-.37.81-.536 1.424-.536.443 0 .824-.133 1.182-.414l3.111 3.192-1.686 1.682zm2.127-2.124l-3.092-3.172 1.128-1.063 3.1 3.1-1.136 1.135z"/></g><defs><clipPath id="clip0"><path fill="#fff" d="M0 0h16v16H0z"/></clipPath></defs></svg>