<svg width="16" height="16" viewBox="0 0 16 16" fill="none" xmlns="http://www.w3.org/2000/svg"><path fill="#353535" d="M2.6 4.286h1.543v1.543H2.6zM4.143 5.829h1.543v1.543H4.143zM5.686 7.372h1.543v1.543H5.686zM4.143 8.914h1.543v1.543H4.143zM2.6 10.457h1.543V12H2.6zM5.686 4.286h1.543v1.543H5.686zM7.229 5.829h1.543v1.543H7.229zM8.771 7.372h1.543v1.543H8.771z"/><path fill="#353535" d="M7.229 8.914h1.543v1.543H7.229zM5.686 10.457h1.543V12H5.686zM8.771 4.286h1.543v1.543H8.771zM10.314 5.829h1.543v1.543h-1.543zM11.857 7.372H13.4v1.543h-1.543zM10.314 8.914h1.543v1.543h-1.543zM8.771 10.457h1.543V12H8.771z"/></svg>