<svg width="16" height="16" fill="none" xmlns="http://www.w3.org/2000/svg"><g clip-path="url(#clip0)"><path d="M11.66.255h-1.022L12 14.543l1.021-.16V1.617c0-.752-.61-1.362-1.362-1.362z" fill="#E4D1F3"/><path d="M4 1.617C4 .865 2.369.255 1.617.255l-.34 1.192.34 1.191H4V1.617z" fill="#F89890"/><path d="M.255 1.617v1.021h1.362V.255C.865.255.255.865.255 1.617z" fill="#FFC5BF"/><path d="M10.638.255H1.617c.752 0 1.362.61 1.362 1.362v12.766c0 .752.61 1.362 1.361 1.362L12 14.543V1.617c0-.752-.61-1.362-1.362-1.362z" fill="#F1E8F9"/><path d="M14.723 13.362l-1.361 2.383h1.021c.752 0 1.362-.61 1.362-1.362v-1.021h-1.021z" fill="#FFC5BF"/><path d="M14.723 14.383v-1.021H5.702v1.021c0 .752-.61 1.362-1.362 1.362h9.022c.752 0 1.361-.61 1.361-1.362z" fill="#FFD8D4"/><path d="M8 1.532A2.982 2.982 0 0 0 5.021 4.51a2.982 2.982 0 0 0 4.653 2.463.255.255 0 0 0-.287-.422 2.454 2.454 0 0 1-.625.307c.256-.52.4-1.296.425-2.093h1.268a2.45 2.45 0 0 1-.413 1.131.255.255 0 0 0 .422.288A2.982 2.982 0 0 0 8 1.532zm2.455 2.723H9.187c-.025-.796-.169-1.573-.425-2.092a2.474 2.474 0 0 1 1.693 2.092zM8 2.043c.083 0 .263.166.42.625.148.428.237.985.257 1.587H7.323c.02-.602.11-1.159.257-1.587.157-.459.337-.625.42-.625zm-.762.12c-.256.52-.4 1.296-.425 2.092H5.545a2.474 2.474 0 0 1 1.693-2.092zM5.545 4.766h1.268c.025.797.169 1.573.425 2.092a2.474 2.474 0 0 1-1.693-2.092zm2.876 1.587c-.158.46-.338.626-.42.626-.084 0-.264-.167-.421-.626-.148-.428-.237-.984-.257-1.587h1.354c-.02.603-.11 1.159-.256 1.587z" fill="#9E52B6"/><path d="M11.49 11.575H8.51a.255.255 0 1 0 0 .51h2.98a.255.255 0 1 0 0-.51zM7.49 11.575H4.51a.255.255 0 1 0 0 .51h2.98a.255.255 0 0 0 0-.51zM11.49 10.043H8.51a.255.255 0 1 0 0 .51h2.98a.255.255 0 1 0 0-.51zM7.49 10.043H4.51a.255.255 0 1 0 0 .51h2.98a.255.255 0 0 0 0-.51zM11.49 8.51H8.51a.255.255 0 0 0 0 .511h2.98a.255.255 0 0 0 0-.51zM7.49 8.51H4.51a.255.255 0 0 0 0 .511h2.98a.255.255 0 0 0 0-.51z" fill="#000"/><path d="M15.745 13.106H5.702a.255.255 0 0 0-.255.256v1.021a1.108 1.108 0 0 1-2.213 0V1.617a1.61 1.61 0 0 0-.44-1.106h8.866c.61 0 1.106.496 1.106 1.106V12.34a.255.255 0 1 0 .51 0V1.617C13.277.725 12.552 0 11.66 0H1.617C.725 0 0 .725 0 1.617v1.021c0 .141.114.256.255.256h1.702a.255.255 0 0 0 0-.511H.511v-.766c0-.61.496-1.106 1.106-1.106.61 0 1.106.496 1.106 1.106v12.766c0 .892.726 1.617 1.617 1.617h10.043c.892 0 1.617-.725 1.617-1.617v-1.021a.255.255 0 0 0-.255-.256zm-.256 1.277c0 .61-.496 1.106-1.106 1.106H5.519c.272-.29.438-.679.438-1.106v-.766h9.532v.766z" fill="#000"/></g><defs><clipPath id="clip0"><path fill="#fff" d="M0 0h16v16H0z"/></clipPath></defs></svg>