<svg width="16" height="16" fill="none" xmlns="http://www.w3.org/2000/svg"><path d="M2.244 4.922a.684.684 0 0 0-.683.683v8.012c0 .376.307.683.683.683h6.124a.684.684 0 0 0 .683-.683V5.605a.684.684 0 0 0-.683-.683H2.244zM4.58 13.83H3.295v-.693a.234.234 0 1 0-.469 0v.693h-.582a.214.214 0 0 1-.214-.214v-.77c0-.665.56-.919.597-.935l1.08-.419.473.947a.354.354 0 0 0 .521.13l.004-.002.07.105-.196 1.158zm-.04-1.72l-.393-.788.325-.126.495.61c-.01.009-.402.287-.427.304zM4.17 9.18v-.97a3.497 3.497 0 0 0 1.906-.519c.176.189.285.303.334.359v1.13c0 .6-.488 1.1-1.1 1.1-.67 0-1.14-.513-1.14-1.1zm-.084-1.443a.358.358 0 0 0-.358.221.807.807 0 0 0-.021.004v-.297c0-.873.71-1.583 1.583-1.583s1.583.71 1.583 1.583v.263a.402.402 0 0 0-.101-.175c-.066-.078-.158-.172-.415-.449a.357.357 0 0 0-.458-.055 2.999 2.999 0 0 1-1.813.488zm1.22 3.744l-.525-.649v-.165c.325.106.706.115 1.05-.007v.174l-.524.647zm.219.816l-.06.089h-.317l-.06-.09.219-.154.218.155zm-.47 1.534l.165-.976h.173l.165.976h-.503zm.59-2.024l.495-.61.326.126-.393.788-.428-.304zm2.938 1.81a.214.214 0 0 1-.214.214h-.582v-.693a.234.234 0 0 0-.469 0v.693H6.033l-.196-1.158.069-.105.004.003a.354.354 0 0 0 .522-.13l.472-.948 1.082.419c.031.014.596.269.596.935v.77zm0-8.012v6.154a1.528 1.528 0 0 0-.424-.283l-1.86-.72v-.36a1.57 1.57 0 0 0 .557-.952.752.752 0 0 0 .486-1.215v-.564c0-1.131-.92-2.052-2.052-2.052-1.131 0-2.052.92-2.052 2.052v.579a.712.712 0 0 0-.164.454c0 .369.267.69.65.747.066.397.28.74.588.974v.337l-1.857.72-.004.002a1.533 1.533 0 0 0-.42.281V5.605c0-.118.096-.214.214-.214h6.124c.118 0 .214.096.214.214zM6.878 8.953v-.509a.282.282 0 0 1 0 .509zM3.7 8.459v.494a.283.283 0 0 1-.158-.255c0-.102.066-.189.158-.24zM14.144 7.664h-3.763a.234.234 0 0 0 0 .47h3.763a.234.234 0 1 0 0-.47zM14.144 8.898h-3.763a.234.234 0 0 0 0 .47h3.763a.234.234 0 1 0 0-.47zM14.144 10.133h-3.763a.234.234 0 0 0 0 .468h3.763a.234.234 0 1 0 0-.468zM14.144 11.367h-3.763a.234.234 0 0 0 0 .468h3.763a.234.234 0 1 0 0-.468zM14.144 12.6h-3.763a.234.234 0 0 0 0 .47h3.763a.234.234 0 1 0 0-.47zM14.379 6.011c0-.32-.26-.58-.581-.58h-3.07c-.32 0-.581.26-.581.58v.22c0 .32.26.581.58.581h3.07c.321 0 .582-.26.582-.58v-.22zm-.47.22c0 .062-.05.112-.111.112h-3.07a.112.112 0 0 1-.112-.112v-.22c0-.062.05-.112.112-.112h3.07c.062 0 .112.05.112.112v.22z" fill="#000"/><path d="M15.375 2.862h-3.033v-.288a.626.626 0 0 0-.625-.625h-2.25V.825A.587.587 0 0 0 8.88.24h-.333a.234.234 0 1 0 0 .469h.333c.065 0 .117.052.117.117V3.66H7.003V.825c0-.065.052-.117.117-.117h.333a.234.234 0 1 0 0-.47H7.12a.587.587 0 0 0-.586.587V1.95h-2.25a.626.626 0 0 0-.626.625v.288H.625A.626.626 0 0 0 0 3.487v11.649c0 .345.28.625.625.625h14.75c.344 0 .625-.28.625-.625v-4.883a.234.234 0 0 0-.469 0v4.883c0 .086-.07.157-.156.157H.625a.157.157 0 0 1-.156-.157V3.487c0-.086.07-.156.156-.156h5.909v.328h-.03a.234.234 0 1 0 0 .469h2.991a.234.234 0 1 0 0-.469h-.029v-.328h5.909c.086 0 .156.07.156.156V9.16a.234.234 0 1 0 .469 0V3.487a.626.626 0 0 0-.625-.625zm-8.841 0H4.127v-.288c0-.086.07-.156.156-.156h2.25v.444zm5.34 0H9.466v-.444h2.25c.087 0 .158.07.158.156v.288z" fill="#000"/></svg>