<svg width="16" height="16" fill="none" xmlns="http://www.w3.org/2000/svg"><path d="M11.696 2.179H4.263a.391.391 0 0 0-.391.39v.617h8.215V2.57a.39.39 0 0 0-.39-.391z" fill="#576574"/><path d="M4.888 2.179h-.625a.391.391 0 0 0-.391.39v.617h.625V2.57c0-.216.175-.391.39-.391z" fill="#3E4B5A"/><path d="M15.354 3.092H.604a.391.391 0 0 0-.39.39v11.65c0 .215.175.39.39.39h14.75a.391.391 0 0 0 .391-.39V3.481a.391.391 0 0 0-.39-.39z" fill="#E4EAF8"/><path d="M.839 15.131V3.483c0-.216.175-.391.39-.391H.606a.391.391 0 0 0-.391.39v11.65c0 .215.175.39.39.39h.626a.391.391 0 0 1-.391-.39z" fill="#D8DCE5"/><path d="M8.86.469H7.1a.352.352 0 0 0-.352.352v3.068H9.21V.82A.352.352 0 0 0 8.86.469z" fill="#FECA57"/><path d="M7.725.469H7.1a.352.352 0 0 0-.352.352v3.068h.625V.82c0-.195.157-.352.352-.352z" fill="#F4B537"/><path d="M8.347 5.152H2.224a.45.45 0 0 0-.449.448v7.95a.45.45 0 0 0 .449.448h6.123a.45.45 0 0 0 .45-.449V5.6a.45.45 0 0 0-.45-.448z" fill="#54A0FF"/><path d="M2.275 13.55V5.6a.45.45 0 0 1 .449-.448h-.5a.45.45 0 0 0-.449.448v7.95a.45.45 0 0 0 .449.448h.5a.45.45 0 0 1-.449-.449z" fill="#338DEF"/><path d="M5.268 5.843A1.817 1.817 0 0 0 3.451 7.66v.72a.58.58 0 0 1 .463-.152v-.09c0-.072.061-.13.133-.124.702.05 1.417-.173 1.958-.526a.124.124 0 0 1 .158.02c.463.496.46.477.46.542v.178a.55.55 0 0 1 .463.135V7.66a1.817 1.817 0 0 0-1.818-1.817z" fill="#576574"/><path d="M3.939 7.66c0-.92.685-1.681 1.573-1.8a1.817 1.817 0 0 0-2.061 1.8v.72a.58.58 0 0 1 .463-.152v-.09c0-.028.01-.054.025-.074V7.66z" fill="#3E4B5A"/><path d="M6.599 8.156v.995l-.001.032a.528.528 0 0 0 .628-.513c0-.314-.276-.567-.627-.514zM3.938 9.151v-.995c-.307-.04-.627.195-.627.514 0 .312.275.567.628.513v-.032z" fill="#F2BB88"/><path d="M7.04 8.272a.553.553 0 0 0-.441-.116v.995l-.001.033a.552.552 0 0 0 .441-.116v-.796zM3.938 9.068a.497.497 0 0 1 0-.78v-.132c-.307-.04-.627.195-.627.514 0 .312.275.567.628.513v-.115z" fill="#E3A76F"/><path d="M4.526 10.247v.713l.759.937.76-.937v-.733a1.39 1.39 0 0 1-1.52.02z" fill="#F2BB88"/><path d="M5.012 10.437a1.359 1.359 0 0 1-.486-.19v.713l.486.6v-1.123z" fill="#E3A76F"/><path d="M8.053 11.69l-2.009-.778-.76.937-.759-.937-2.007.778s-.743.306-.743 1.152v.77a.45.45 0 0 0 .449.448h6.123a.45.45 0 0 0 .449-.448v-.77c0-.847-.743-1.152-.743-1.152z" fill="#E4EAF8"/><path d="M2.262 14.06v-1.436c0-.582.35-.908.569-1.055l-.313.121s-.743.306-.743 1.153v.769c0 .218.161.449.487.449z" fill="#D8DCE5"/><path d="M6.164 7.46a.124.124 0 0 0-.159-.02c-.54.353-1.255.577-1.958.526a.124.124 0 0 0-.133.124v1.085c0 .698.547 1.335 1.374 1.335.736 0 1.335-.598 1.335-1.335V8.002c0-.065.003-.046-.46-.542z" fill="#F2D1A5"/><path d="M4.4 9.175V7.97a2.834 2.834 0 0 1-.353-.003.124.124 0 0 0-.133.123v1.086c0 .837.754 1.46 1.598 1.316A1.337 1.337 0 0 1 4.4 9.175z" fill="#F2BB88"/><path d="M6.201 12.33l.568-1.137-.725-.281-.76.937.74.526a.12.12 0 0 0 .177-.044z" fill="#D8DCE5"/><path d="M4.369 12.33L3.8 11.194l.725-.281.76.937-.74.526a.12.12 0 0 1-.177-.044z" fill="#D8DCE5"/><path d="M5.285 11.85l-.539.382.255.383h.568l.255-.383-.539-.382z" fill="#EE5253"/><path d="M5.555 12.041l-.27-.191-.539.382.255.383h.539l-.21-.314a.085.085 0 0 1 .022-.116l.203-.144z" fill="#D83941"/><path d="M5 12.616l-.195 1.445h.96l-.195-1.445H5z" fill="#FF6B6B"/><path d="M5 12.616l-.195 1.445h.54l.195-1.445H5z" fill="#EE5253"/><path d="M13.777 5.66h-3.07a.347.347 0 0 0-.347.346v.22c0 .192.156.347.347.347h3.07a.347.347 0 0 0 .347-.347v-.22a.347.347 0 0 0-.347-.346z" fill="#54A0FF"/><path d="M13.777 6.067h-3.07a.346.346 0 0 1-.315-.204.344.344 0 0 0-.031.143v.22c0 .192.155.347.346.347h3.07a.347.347 0 0 0 .347-.347v-.22c0-.05-.012-.1-.032-.143a.346.346 0 0 1-.315.204z" fill="#338DEF"/><path d="M2.244 4.922a.684.684 0 0 0-.683.683v8.012c0 .376.307.683.683.683h6.124a.684.684 0 0 0 .683-.683V5.605a.684.684 0 0 0-.683-.683H2.244zM4.58 13.83H3.295v-.693a.234.234 0 1 0-.469 0v.693h-.582a.214.214 0 0 1-.214-.214v-.77c0-.665.56-.919.597-.935l1.08-.419.473.947a.354.354 0 0 0 .521.13l.004-.002.07.105-.196 1.158zm-.04-1.72l-.393-.788.325-.126.495.61c-.01.009-.402.287-.427.304zM4.17 9.18v-.97a3.497 3.497 0 0 0 1.906-.519c.176.189.285.303.334.359v1.13c0 .6-.488 1.1-1.1 1.1-.67 0-1.14-.513-1.14-1.1zm-.084-1.443a.358.358 0 0 0-.358.221.807.807 0 0 0-.021.004v-.297c0-.873.71-1.583 1.583-1.583s1.583.71 1.583 1.583v.263a.402.402 0 0 0-.101-.175c-.066-.078-.158-.172-.415-.449a.357.357 0 0 0-.458-.055 2.999 2.999 0 0 1-1.813.488zm1.22 3.744l-.525-.649v-.165c.325.106.706.115 1.05-.007v.174l-.524.647zm.219.816l-.06.089h-.317l-.06-.09.219-.154.218.155zm-.47 1.534l.165-.976h.173l.165.976h-.503zm.59-2.024l.495-.61.326.126-.393.788-.428-.304zm2.938 1.81a.214.214 0 0 1-.214.214h-.582v-.693a.234.234 0 0 0-.469 0v.693H6.033l-.196-1.158.069-.105.004.003a.354.354 0 0 0 .522-.13l.472-.948 1.082.419c.031.014.596.269.596.935v.77zm0-8.012v6.154a1.528 1.528 0 0 0-.424-.283l-1.86-.72v-.36a1.57 1.57 0 0 0 .557-.952.752.752 0 0 0 .486-1.215v-.564c0-1.131-.92-2.052-2.052-2.052-1.131 0-2.052.92-2.052 2.052v.579a.712.712 0 0 0-.164.454c0 .369.267.69.65.747.066.397.28.74.588.974v.337l-1.857.72-.004.002a1.533 1.533 0 0 0-.42.281V5.605c0-.118.096-.214.214-.214h6.124c.118 0 .214.096.214.214zM6.878 8.953v-.509a.282.282 0 0 1 0 .509zM3.7 8.459v.494a.283.283 0 0 1-.158-.255c0-.102.066-.189.158-.24zM14.144 7.664h-3.763a.234.234 0 0 0 0 .47h3.763a.234.234 0 1 0 0-.47zM14.144 8.898h-3.763a.234.234 0 0 0 0 .47h3.763a.234.234 0 1 0 0-.47zM14.144 10.133h-3.763a.234.234 0 0 0 0 .468h3.763a.234.234 0 1 0 0-.468zM14.144 11.367h-3.763a.234.234 0 0 0 0 .468h3.763a.234.234 0 1 0 0-.468zM14.144 12.6h-3.763a.234.234 0 0 0 0 .47h3.763a.234.234 0 1 0 0-.47zM14.379 6.011c0-.32-.26-.58-.581-.58h-3.07c-.32 0-.581.26-.581.58v.22c0 .32.26.581.58.581h3.07c.321 0 .582-.26.582-.58v-.22zm-.47.22c0 .062-.05.112-.111.112h-3.07a.112.112 0 0 1-.112-.112v-.22c0-.062.05-.112.112-.112h3.07c.062 0 .112.05.112.112v.22z" fill="#000"/><path d="M15.375 2.862h-3.033v-.288a.626.626 0 0 0-.625-.625h-2.25V.825A.587.587 0 0 0 8.88.24h-.333a.234.234 0 1 0 0 .469h.333c.065 0 .117.052.117.117V3.66H7.003V.825c0-.065.052-.117.117-.117h.333a.234.234 0 1 0 0-.47H7.12a.587.587 0 0 0-.586.587V1.95h-2.25a.626.626 0 0 0-.626.625v.288H.625A.626.626 0 0 0 0 3.487v11.649c0 .345.28.625.625.625h14.75c.344 0 .625-.28.625-.625v-4.883a.234.234 0 0 0-.469 0v4.883c0 .086-.07.157-.156.157H.625a.157.157 0 0 1-.156-.157V3.487c0-.086.07-.156.156-.156h5.909v.328h-.03a.234.234 0 1 0 0 .469h2.991a.234.234 0 1 0 0-.469h-.029v-.328h5.909c.086 0 .156.07.156.156V9.16a.234.234 0 1 0 .469 0V3.487a.626.626 0 0 0-.625-.625zm-8.841 0H4.127v-.288c0-.086.07-.156.156-.156h2.25v.444zm5.34 0H9.466v-.444h2.25c.087 0 .158.07.158.156v.288z" fill="#000"/></svg>