<svg width="16" height="16" fill="none" xmlns="http://www.w3.org/2000/svg"><g clip-path="url(#clip0)" fill="#000"><path d="M15.97 3.794a.8.8 0 0 0-1.466-.192l-.133.232a.267.267 0 0 0-.363.096l-.677 1.155-.232-.134a.267.267 0 1 0-.266.462l.232.133-2.267 3.927-.56 1.496-.266.498a.8.8 0 0 0 .043.864l-.6.736-.168-.421a.533.533 0 0 0-.952-.075l-.096.163-.09-1.067a.534.534 0 0 0-1.038-.125l-.656 1.968c-.046.139.03.289.168.336.026.012.054.02.083.021a.267.267 0 0 0 .253-.181l.653-1.968.093 1.083a.533.533 0 0 0 .99.229l.098-.163.166.419a.533.533 0 0 0 .912.136l.62-.787c.07.018.14.027.211.027a.8.8 0 0 0 .696-.395l.267-.445 1.016-1.234 2.29-3.976.232.134a.266.266 0 0 1 .099.365l-1.067 1.848a.266.266 0 0 0 .085.375.266.266 0 0 0 .366-.098l1.066-1.848a.8.8 0 0 0-.293-1.093l-.232-.133.666-1.155a.267.267 0 0 0-.095-.362l.133-.232a.8.8 0 0 0 .08-.619zm-1.004.075a.266.266 0 0 1 .365-.099.267.267 0 0 1 .099.365l-.134.232-.464-.266.134-.232zm-3.634 7.444l-.134-.077-.394-.23.378-1.013.84.485-.69.835zm-.8.77a.267.267 0 0 1-.08-.349l.133-.232.464.267-.133.23a.267.267 0 0 1-.384.084zm1.794-2.042l-.923-.533 2.133-3.696.923.534-2.133 3.695zm2.4-4.157l-.923-.533.533-.922.923.533-.533.922zM4.207 11.95l-.943.941-.566-.565a.267.267 0 0 0-.376.378l.566.566c.1.099.235.155.376.154a.533.533 0 0 0 .378-.154l.941-.944a.267.267 0 0 0-.376-.376z"/><path d="M1.066 12.667a2.266 2.266 0 1 0 4.533 0 .267.267 0 0 0-.533 0 1.733 1.733 0 1 1-.694-1.386.267.267 0 1 0 .32-.427 2.267 2.267 0 0 0-3.626 1.813zM9.598 2.136a.267.267 0 1 0 0-.534H2.666a.267.267 0 0 0-.266.267v1.067c0 .147.119.266.266.266h6.932a.267.267 0 1 0 0-.533H2.933v-.533h6.665zM3.466 3.735a.267.267 0 0 0 0 .534H8.8a.267.267 0 1 0 0-.534H3.466zM10.398 5.602H4.532a.267.267 0 0 0 0 .533h5.866a.267.267 0 1 0 0-.533zM7.732 7.468a.267.267 0 0 0-.267-.267H2.133a.267.267 0 0 0 0 .534h5.332c.148 0 .267-.12.267-.267zM10.398 7.201H8.532a.267.267 0 0 0 0 .534h1.866a.267.267 0 1 0 0-.534zM4.8 9.068a.267.267 0 1 0 0-.534H2.132a.267.267 0 0 0 0 .534h2.666zM5.866 9.068h1.866a.267.267 0 1 0 0-.534H5.866a.267.267 0 0 0 0 .534z"/><path d="M11.998 12.267a.267.267 0 0 0-.267.267V15.2c0 .148-.119.267-.266.267H.8a.267.267 0 0 1-.267-.267V.803C.533.655.653.536.8.536h10.665c.147 0 .266.12.266.267V5.81a.267.267 0 0 0 .534 0V.803a.8.8 0 0 0-.8-.8H.8a.8.8 0 0 0-.8.8V15.2a.8.8 0 0 0 .8.8h10.665a.8.8 0 0 0 .8-.8v-2.666a.267.267 0 0 0-.267-.267z"/></g><defs><clipPath id="clip0"><path fill="#fff" d="M0 0h16v16H0z"/></clipPath></defs></svg>