<svg width="16" height="16" fill="none" xmlns="http://www.w3.org/2000/svg"><g clip-path="url(#clip0)"><path d="M.8.27h10.665c.294 0 .533.238.533.533V15.2a.533.533 0 0 1-.533.533H.8a.533.533 0 0 1-.533-.533V.803C.267.508.505.269.8.269z" fill="#B3E0F8"/><path d="M6.932 13.6a4.8 4.8 0 0 1-4.799-4.799V.27H.8a.533.533 0 0 0-.533.534V15.2c0 .295.238.533.533.533h10.665a.533.533 0 0 0 .533-.533v-1.6H6.932z" fill="#81B2DF"/><path d="M2.666 1.869h6.932v1.067H2.666V1.869z" fill="#F9E109"/><path d="M8.799 4.269H3.466a.267.267 0 1 1 0-.534H8.8a.267.267 0 0 1 0 .534zM10.398 6.135H4.532a.267.267 0 1 1 0-.533h5.866a.267.267 0 0 1 0 .533zM7.465 7.735H2.133a.267.267 0 1 1 0-.534h5.332a.267.267 0 0 1 0 .534zM10.398 7.735H8.532a.267.267 0 1 1 0-.534h1.866a.267.267 0 1 1 0 .534zM4.8 9.068H2.132a.267.267 0 1 1 0-.534h2.666a.267.267 0 0 1 0 .534zM7.732 9.068H5.866a.267.267 0 1 1 0-.534h1.866a.267.267 0 0 1 0 .534z" fill="#39519D"/><path d="M9.598 2.936H2.666V1.869l6.932 1.067z" fill="#FCBC04"/><path d="M5.332 12.667a2 2 0 1 1-3.999 0 2 2 0 0 1 4 0z" fill="#F9E109"/><path d="M3.333 14.667a2 2 0 0 0 1.9-1.381 4.8 4.8 0 0 1-2.652-2.472 2 2 0 0 0 .752 3.853z" fill="#FCBC04"/><path d="M6.666 13.867a.267.267 0 0 1-.253-.35l.655-1.967a.533.533 0 0 1 1.037.125l.091 1.067.096-.163a.533.533 0 0 1 .501-.266.533.533 0 0 1 .45.333l.172.421.776-.986a.266.266 0 0 1 .418.33l-.778.99a.533.533 0 0 1-.912-.137l-.166-.418-.098.162a.533.533 0 0 1-.99-.208l-.09-1.082-.643 1.957a.266.266 0 0 1-.266.192zM3.264 13.424a.533.533 0 0 1-.376-.154l-.566-.566a.266.266 0 1 1 .376-.378l.566.565.943-.941a.267.267 0 0 1 .376.376l-.94.944c-.102.1-.238.155-.38.154z" fill="#39519D"/><path d="M13.44 5.449l1.385.8-2.4 4.156-1.385-.8 2.4-4.156z" fill="#FCBC04"/><path d="M12.291 7.436l-1.253 2.165 1.387.8.405-.707a7.194 7.194 0 0 1-.539-2.258z" fill="#E59730"/><path d="M12.425 10.406l-1.387-.8-.568 1.518.923.533 1.032-1.25z" fill="#A1D51C"/><path d="M10.47 11.125l.923.533-.267.462a.533.533 0 0 1-.923-.533l.266-.462z" fill="#E59730"/><path d="M14.237 4.064l1.385.8-.8 1.386-1.385-.8.8-1.386z" fill="#FCBC04"/><path d="M15.463 3.54a.533.533 0 0 1 .195.73l-.267.461-.923-.533.267-.462a.533.533 0 0 1 .728-.195z" fill="#C4F236"/><path d="M13.075 6.082l.267-.461 1.385.8-.266.461-1.386-.8z" fill="#E59730"/><path d="M14.414 9.358a.269.269 0 0 1-.134-.034.267.267 0 0 1-.096-.365l1.067-1.848a.266.266 0 0 0-.099-.365l-2.309-1.334a.267.267 0 1 1 .267-.46l2.309 1.332a.8.8 0 0 1 .293 1.093l-1.066 1.848a.267.267 0 0 1-.232.133z" fill="#39519D"/><path d="M15.197 3.735c.002-.09.014-.18.038-.266a.534.534 0 0 0-.499.266l-.266.462.922.533.133-.23a1.05 1.05 0 0 1-.328-.765z" fill="#A1D51C"/><path d="M15.97 3.794a.8.8 0 0 0-1.466-.192l-.133.232a.267.267 0 0 0-.363.096l-.677 1.155-.232-.134a.267.267 0 1 0-.266.462l.232.133-2.267 3.927-.56 1.496-.266.498a.8.8 0 0 0 .043.864l-.6.736-.168-.421a.533.533 0 0 0-.952-.075l-.096.163-.09-1.067a.534.534 0 0 0-1.038-.125l-.656 1.968c-.046.139.03.289.168.336.026.012.054.02.083.021a.267.267 0 0 0 .253-.181l.653-1.968.093 1.083a.533.533 0 0 0 .99.229l.098-.163.166.419a.533.533 0 0 0 .912.136l.62-.787c.07.018.14.027.211.027a.8.8 0 0 0 .696-.395l.267-.445 1.016-1.234 2.29-3.976.232.134a.266.266 0 0 1 .099.365l-1.067 1.848a.266.266 0 0 0 .085.375.266.266 0 0 0 .366-.098l1.066-1.848a.8.8 0 0 0-.293-1.093l-.232-.133.666-1.155a.267.267 0 0 0-.095-.362l.133-.232a.8.8 0 0 0 .08-.619zm-1.004.075a.266.266 0 0 1 .365-.099.267.267 0 0 1 .099.365l-.134.232-.464-.266.134-.232zm-3.634 7.444l-.134-.077-.394-.23.378-1.013.84.485-.69.835zm-.8.77a.267.267 0 0 1-.08-.349l.133-.232.464.267-.133.23a.267.267 0 0 1-.384.084zm1.794-2.042l-.923-.533 2.133-3.696.923.534-2.133 3.695zm2.4-4.157l-.923-.533.533-.922.923.533-.533.922zM4.207 11.95l-.943.941-.566-.565a.267.267 0 0 0-.376.378l.566.566c.1.099.235.155.376.154a.533.533 0 0 0 .378-.154l.941-.944a.267.267 0 0 0-.376-.376z" fill="#39519D"/><path d="M1.066 12.667a2.266 2.266 0 1 0 4.533 0 .267.267 0 0 0-.533 0 1.733 1.733 0 1 1-.694-1.386.267.267 0 1 0 .32-.427 2.267 2.267 0 0 0-3.626 1.813zM9.598 2.136a.267.267 0 1 0 0-.534H2.666a.267.267 0 0 0-.266.267v1.067c0 .147.119.266.266.266h6.932a.267.267 0 1 0 0-.533H2.933v-.533h6.665zM3.466 3.735a.267.267 0 0 0 0 .534H8.8a.267.267 0 1 0 0-.534H3.466zM10.398 5.602H4.532a.267.267 0 0 0 0 .533h5.866a.267.267 0 1 0 0-.533zM7.732 7.468a.267.267 0 0 0-.267-.267H2.133a.267.267 0 0 0 0 .534h5.332c.148 0 .267-.12.267-.267zM10.398 7.201H8.532a.267.267 0 0 0 0 .534h1.866a.267.267 0 1 0 0-.534zM4.8 9.068a.267.267 0 1 0 0-.533H2.132a.267.267 0 0 0 0 .533h2.666zM5.866 9.068h1.866a.267.267 0 1 0 0-.533H5.866a.267.267 0 0 0 0 .533z" fill="#39519D"/><path d="M11.998 12.267a.267.267 0 0 0-.267.267V15.2c0 .148-.119.267-.266.267H.8a.267.267 0 0 1-.267-.267V.803C.533.655.653.536.8.536h10.665c.147 0 .266.12.266.267V5.81a.267.267 0 0 0 .534 0V.803a.8.8 0 0 0-.8-.8H.8a.8.8 0 0 0-.8.8V15.2a.8.8 0 0 0 .8.8h10.665a.8.8 0 0 0 .8-.8v-2.666a.267.267 0 0 0-.267-.267z" fill="#39519D"/></g><defs><clipPath id="clip0"><path fill="#fff" d="M0 0h16v16H0z"/></clipPath></defs></svg>