<svg width="16" height="16" fill="none" xmlns="http://www.w3.org/2000/svg"><g clip-path="url(#clip0)"><path d="M5.384 4.78H2.929A2.616 2.616 0 0 0 .313 7.397c0 .34.276.617.617.617h6.452A.618.618 0 0 0 8 7.397 2.616 2.616 0 0 0 5.384 4.78z" fill="#A0E557"/><path d="M4.156 6.388L5.74 4.805a2.643 2.643 0 0 0-.355-.025H2.929c-.12 0-.24.01-.356.025l1.583 1.583z" fill="#fff"/><path d="M5.543 1.901v1.492a1.387 1.387 0 1 1-2.774 0V2.09L5.543 1.9z" fill="#FFEFD5"/><path d="M5.877.327H4.014c-.687 0-1.245.557-1.245 1.245v.518H5a.877.877 0 0 0 .877-.878V.327z" fill="#FFC66C"/><path d="M13.071 4.766h-2.455A2.616 2.616 0 0 0 8 7.382c0 .341.276.618.618.618h6.452a.618.618 0 0 0 .617-.618 2.616 2.616 0 0 0-2.616-2.616z" fill="#fff"/><path d="M10.395 4.925l1.449 1.449 1.448-1.45" fill="#fff"/><path d="M13.071 4.766h-2.455A2.616 2.616 0 0 0 8 7.382c0 .341.276.618.618.618h6.452a.618.618 0 0 0 .617-.618 2.616 2.616 0 0 0-2.616-2.616z" fill="#FFB954"/><path d="M11.844 6.388l1.583-1.583a2.641 2.641 0 0 0-.356-.025h-2.455c-.12 0-.239.01-.355.025l1.583 1.583z" fill="#fff"/><path d="M13.23 1.901v1.492a1.387 1.387 0 0 1-2.773 0V2.09L13.23 1.9z" fill="#FFEFD5"/><path d="M13.565.327h-1.863c-.688 0-1.245.557-1.245 1.245v.518h2.23a.877.877 0 0 0 .878-.878V.327z" fill="#FFC66C"/><path d="M10.097 12.872l2.597 2.597a.747.747 0 1 0 1.056-1.057l-2.596-2.597-1.057 1.057z" fill="#FF5D5D"/><path d="M11.72 9.688a3.75 3.75 0 1 1-7.5 0 3.75 3.75 0 0 1 7.5 0z" fill="#fff"/><path d="M10.407 9.688a2.438 2.438 0 1 1-4.875 0 2.438 2.438 0 0 1 4.875 0z" fill="#72D8FF"/><path d="M13.158 4.455c.24-.293.385-.668.385-1.076V2.024c.207-.214.335-.505.335-.826V.313A.312.312 0 0 0 13.565 0h-1.863a1.56 1.56 0 0 0-1.558 1.558v1.821c0 .408.145.783.385 1.076a2.94 2.94 0 0 0-2.262 1.179 4.186 4.186 0 0 0-.544 0A2.926 2.926 0 0 0 5.471 4.47c.24-.293.385-.668.385-1.076V2.038c.206-.214.334-.505.334-.826V.327a.313.313 0 0 0-.312-.313H4.014a1.56 1.56 0 0 0-1.557 1.558v1.821c0 .408.144.783.385 1.076A2.932 2.932 0 0 0 0 7.397c0 .512.417.93.93.93h3.243A4.067 4.067 0 0 0 8 13.75c.736 0 1.427-.197 2.023-.54l2.48 2.48a1.057 1.057 0 0 0 1.499 0 1.06 1.06 0 0 0 0-1.499l-2.48-2.48c.343-.596.54-1.287.54-2.024a4.07 4.07 0 0 0-3.07-3.94 2.317 2.317 0 0 1 1.163-.621.293.293 0 0 0 .018.02l1.449 1.448a.313.313 0 0 0 .442 0l1.448-1.448a.312.312 0 0 0 .02-.021 2.308 2.308 0 0 1 1.842 2.257.305.305 0 0 1-.305.305h-.884a.312.312 0 1 0 0 .625h.884c.513 0 .93-.417.93-.93a2.932 2.932 0 0 0-2.842-2.927zM3.082 3.393v-.99H5c.079 0 .156-.009.23-.023v1.013c0 .593-.481 1.075-1.074 1.075a1.076 1.076 0 0 1-1.074-1.075zm1.927 1.7l-.853.853-.853-.853H5.01zM3.082 1.572c0-.514.418-.933.932-.933h1.55v.573A.565.565 0 0 1 5 1.777H3.082v-.205zM.93 7.702a.305.305 0 0 1-.305-.306c0-1.112.793-2.043 1.843-2.257a.272.272 0 0 0 .019.021l1.448 1.449a.312.312 0 0 0 .442 0L5.826 5.16a.37.37 0 0 0 .018-.02 2.3 2.3 0 0 1 1.152.61 4.08 4.08 0 0 0-2.538 1.952H.93zm12.63 6.931a.435.435 0 0 1-.614.615l-2.398-2.398a4.1 4.1 0 0 0 .615-.615l2.398 2.398zm-2.122-4.945a3.441 3.441 0 0 1-3.437 3.437 3.441 3.441 0 0 1-3.438-3.438A3.441 3.441 0 0 1 8.001 6.25a3.441 3.441 0 0 1 3.437 3.438zm-.669-6.309v-.991h1.919c.079 0 .155-.008.23-.023V3.38a1.076 1.076 0 0 1-2.149 0zm0-1.821c0-.515.419-.933.933-.933h1.55v.573a.565.565 0 0 1-.564.565h-1.919v-.205zm1.075 4.374l-.853-.853h1.706l-.853.853z" fill="#000"/><path d="M5.25 9.688A2.753 2.753 0 0 0 8 12.438a2.753 2.753 0 0 0 2.75-2.75A2.753 2.753 0 0 0 8 6.938a2.753 2.753 0 0 0-2.75 2.75zm4.876 0A2.127 2.127 0 0 1 8 11.812a2.127 2.127 0 0 1-2.125-2.124c0-1.172.953-2.126 2.125-2.126 1.171 0 2.125.954 2.125 2.125z" fill="#000"/><path d="M7.688 8.594c0 .172.14.312.313.312.43 0 .78.35.78.781a.312.312 0 1 0 .626 0c0-.775-.631-1.406-1.406-1.406a.312.312 0 0 0-.313.313zM12.81 7.779a.316.316 0 0 0-.093.221.315.315 0 0 0 .534.221.316.316 0 0 0 .091-.221.314.314 0 0 0-.533-.221z" fill="#000"/></g><defs><clipPath id="clip0"><path fill="#fff" d="M0 0h16v16H0z"/></clipPath></defs></svg>