<svg width="22" height="22" fill="none" xmlns="http://www.w3.org/2000/svg"><path d="M1 18V4a3 3 0 0 1 3-3h13.877a3 3 0 0 1 3 2.978l.101 14a3 3 0 0 1-3 3.022H4a3 3 0 0 1-3-3z" fill="#E5E5E5"/><path d="M3 1h16a2 2 0 0 1 2 2H1a2 2 0 0 1 2-2z" fill="#fff"/><path d="M1 19V3a2 2 0 0 1 2-2v20a2 2 0 0 1-2-2z" fill="#fff"/><path d="M20.5 3.5a.5.5 0 0 0 0-1v1zm-18 17a.5.5 0 0 0 1 0h-1zm18-18H4v1h16.5v-1zM2.5 4v16.5h1V4h-1zM4 2.5A1.5 1.5 0 0 0 2.5 4h1a.5.5 0 0 1 .5-.5v-1z" fill="#F3F3F3"/><path d="M18 1H4a3 3 0 0 0-3 3v14a3 3 0 0 0 3 3h14a3 3 0 0 0 3-3V4a3 3 0 0 0-3-3z" stroke="#9C9898"/><path d="M14.75 9.75h-7.5L11 14.125l3.75-4.375z" fill="#000" stroke="#000"/></svg>