<svg width="16" height="16" fill="none" xmlns="http://www.w3.org/2000/svg"><g clip-path="url(#clip0)" fill="#000"><path d="M7.199 10.45a.313.313 0 1 0-.443-.443.313.313 0 0 0 .443.442zM7.313 3.094v.625a1.875 1.875 0 1 0 3.75 0v-.625a.312.312 0 1 0 0-.625h-.625a.312.312 0 1 0 0 .625v.625a1.25 1.25 0 1 1-2.5 0v-.625a.312.312 0 1 0 0-.625h-.625a.312.312 0 1 0 0 .625z"/><path d="M3.632 15.342a.311.311 0 0 0 .442 0l.96-.96c.312-.312.462-.74.419-1.172l.344-.333a1.45 1.45 0 0 1 1.01-.408h4.115a2.797 2.797 0 0 0 1.984-.82l2.8-3.363a1.252 1.252 0 0 0-.15-1.762 1.253 1.253 0 0 0-1.753.14l-.303.313V.875a.313.313 0 0 0-.312-.313H5.156a.313.313 0 0 0-.312.313v7.002c-1.21.254-2.17 1.005-2.687 2.103a1.443 1.443 0 0 0-1.1.424l-.965.96a.313.313 0 0 0 0 .442l3.54 3.536zm9.244-14.155v6.436l-.905.935a1.256 1.256 0 0 0-.97-.464H7.376a.173.173 0 0 1-.064-.013 4.038 4.038 0 0 0-1.844-.289V1.188h7.407zM5.2 8.447a3.55 3.55 0 0 1 1.878.213c.097.04.198.06.298.06H11a.626.626 0 0 1 0 1.25H8.281a.313.313 0 0 0 0 .624h2.72a1.251 1.251 0 0 0 1.238-1.414 6040.84 6040.84 0 0 0 2.034-2.103.626.626 0 0 1 .954.808l-2.79 3.35c-.41.393-.947.61-1.515.61H6.808c-.542 0-1.055.206-1.445.582l-.138.133a1.457 1.457 0 0 0-.192-.236l-1.92-1.92a1.456 1.456 0 0 0-.344-.254c.478-.942 1.33-1.542 2.432-1.702zm-3.703 2.4a.829.829 0 0 1 1.174 0l1.92 1.92a.83.83 0 0 1 0 1.173l-.74.739-3.097-3.093.743-.74z"/></g><defs><clipPath id="clip0"><path fill="#fff" d="M0 0h16v16H0z"/></clipPath></defs></svg>