<svg width="16" height="16" fill="none" xmlns="http://www.w3.org/2000/svg"><g clip-path="url(#clip0)"><path d="M5.156.875v8.563l8.032-.013V.875H5.156z" fill="#FFE781"/><path d="M15.347 6.786a.934.934 0 0 0-1.316.111l-2.124 2.197h.002a.956.956 0 0 0-.917-.687H7.377a.485.485 0 0 1-.181-.037 3.864 3.864 0 0 0-2.04-.232c-1.26.184-2.307.93-2.807 2.184l2.77 2.776.461-.446c.33-.317.77-.495 1.228-.495h4.125c.648 0 1.271-.253 1.736-.706l2.789-3.349a.934.934 0 0 0-.111-1.316z" fill="#FED2A4"/><path d="M4.812 14.161l-.96.96-3.54-3.536.965-.96a1.142 1.142 0 0 1 1.616 0l1.92 1.92a1.142 1.142 0 0 1 0 1.616z" fill="#E87288"/><path d="M7.207 10.45a.313.313 0 1 0-.443-.443.313.313 0 0 0 .443.442zM7.313 3.094v.597c0 1.006.78 1.853 1.784 1.9a1.877 1.877 0 0 0 1.966-1.872v-.625a.313.313 0 0 0 .309-.359.319.319 0 0 0-.319-.266h-.605a.319.319 0 0 0-.32.266.313.313 0 0 0 .31.359v.602c0 .647-.527 1.232-1.173 1.27A1.25 1.25 0 0 1 7.938 3.72v-.625a.313.313 0 0 0 .309-.359.319.319 0 0 0-.319-.266h-.606a.319.319 0 0 0-.318.266.313.313 0 0 0 .309.359z" fill="#000"/><path d="M3.632 15.342a.312.312 0 0 0 .442 0l.96-.96c.312-.312.462-.74.419-1.172l.344-.333a1.45 1.45 0 0 1 1.01-.408h4.115a2.796 2.796 0 0 0 1.984-.82l2.8-3.363a1.252 1.252 0 0 0-.149-1.762 1.253 1.253 0 0 0-1.754.14l-.303.313V.875a.312.312 0 0 0-.312-.313H5.156a.312.312 0 0 0-.312.313v7.002c-1.21.254-2.17 1.005-2.687 2.103a1.443 1.443 0 0 0-1.1.424l-.965.96a.314.314 0 0 0 0 .443l3.54 3.535zm9.243-14.155v6.436l-.904.935a1.256 1.256 0 0 0-.97-.464H7.376a.172.172 0 0 1-.063-.013 4.041 4.041 0 0 0-1.845-.289V1.188h7.406zM5.21 8.447a3.55 3.55 0 0 1 1.878.213c.097.04.197.06.298.06h3.623c.339 0 .625.275.625.624 0 .345-.28.625-.625.625H8.29a.312.312 0 1 0 0 .625h2.72a1.252 1.252 0 0 0 1.238-1.414l2.02-2.088a.627.627 0 0 1 .895-.09.626.626 0 0 1 .072.883l-2.79 3.35c-.409.393-.946.61-1.514.61H6.816c-.542 0-1.055.206-1.445.582l-.138.134a1.453 1.453 0 0 0-.192-.237l-1.92-1.92a1.456 1.456 0 0 0-.344-.254c.477-.942 1.33-1.542 2.432-1.702zm-3.703 2.4a.829.829 0 0 1 1.174 0l1.92 1.92a.83.83 0 0 1 0 1.173l-.74.74-3.097-3.094.743-.74z" fill="#000"/></g><defs><clipPath id="clip0"><path fill="#fff" d="M0 0h16v16H0z"/></clipPath></defs></svg>