<svg width="16" height="16" fill="none" xmlns="http://www.w3.org/2000/svg"><path d="M11.938 8.272a3.524 3.524 0 0 0-2.582 1.111 5.401 5.401 0 0 0-3.389-1.18h-.01a5.36 5.36 0 0 0-3.87 1.626c-1.033 1.056-1.599 2.5-1.596 4.067a.32.32 0 0 0 .323.323l8.48-.016c.02.023.04.042.059.065a3.554 3.554 0 1 0 2.585-5.996zM1.148 13.57c.067-1.27.558-2.43 1.401-3.292A4.711 4.711 0 0 1 5.958 8.85h.01a4.768 4.768 0 0 1 2.99 1.04 3.562 3.562 0 0 0-.122 3.667l-7.689.013zm10.79 1.163a2.907 2.907 0 1 1 0-5.815 2.907 2.907 0 0 1 0 5.815zM5.96 7.435a3.415 3.415 0 1 0 0-6.83 3.415 3.415 0 0 0 0 6.83zm0-6.184a2.769 2.769 0 1 1 0 5.538 2.769 2.769 0 0 1 0-5.538z" fill="#000"/><path d="M13.246 11.502h-.986v-.985a.323.323 0 1 0-.646 0v.985h-.985a.323.323 0 1 0 0 .646h.985v.986a.323.323 0 0 0 .646 0v-.986h.986a.323.323 0 0 0 0-.646z" fill="#000"/></svg>