<svg width="16" height="16" fill="none" xmlns="http://www.w3.org/2000/svg"><g clip-path="url(#clip0)"><path d="M9.532 14.253l-.024.017-9.167.017c-.007-3.298 2.45-5.72 5.486-5.724a5.384 5.384 0 0 1 3.663 1.4 3.424 3.424 0 0 0-.73 2.119c.002.79.274 1.556.772 2.17z" fill="#E48E66"/><path d="M5.834.458a3.298 3.298 0 1 1 0 6.596 3.298 3.298 0 0 1 0-6.596z" fill="#F8EC7D"/><path d="M5.834 8.563h-.007c-3.032.007-5.49 2.43-5.483 5.724l5.49-.01V8.563z" fill="#D18162"/><path d="M5.834.458a3.298 3.298 0 0 0 0 6.596V.458z" fill="#E2D574"/><path d="M9.494 9.963a3.444 3.444 0 1 1 5.427 4.242 3.444 3.444 0 0 1-5.427-4.242z" fill="#F8EC7D"/><path d="M12.21 8.291a3.76 3.76 0 0 0-2.754 1.186 5.768 5.768 0 0 0-3.615-1.258h-.014A5.719 5.719 0 0 0 1.7 9.952C.6 11.08-.003 12.62 0 14.291a.34.34 0 0 0 .345.345l9.046-.018c.02.024.04.048.062.07A3.792 3.792 0 1 0 12.21 8.29zm-10.018 2.14a5.025 5.025 0 0 1 3.635-1.523h.01a5.09 5.09 0 0 1 3.188 1.11 3.752 3.752 0 0 0-.61 2.064c.002.646.166 1.281.48 1.847l-8.202.017c.08-1.358.603-2.591 1.499-3.515zm10.018 4.752a3.07 3.07 0 0 1-2.41-1.147 3.1 3.1 0 0 1-.034-3.863v-.007a3.103 3.103 0 1 1 2.444 5.017zM5.834 7.399a3.642 3.642 0 1 0 0-7.285 3.642 3.642 0 0 0 0 7.285zm0-6.596a2.953 2.953 0 1 1 0 5.906 2.953 2.953 0 0 1 0-5.906z" fill="#63316D"/><path d="M13.605 11.737h-1.05v-1.05a.345.345 0 1 0-.69 0v1.05h-1.051a.345.345 0 0 0 0 .69h1.05v1.05a.345.345 0 1 0 .69 0v-1.05h1.051a.344.344 0 1 0 0-.69z" fill="#63316D"/></g><defs><clipPath id="clip0"><path fill="#fff" d="M0 0h16v16H0z"/></clipPath></defs></svg>