<svg width="16" height="16" fill="none" xmlns="http://www.w3.org/2000/svg"><g clip-path="url(#clip0)"><path d="M5.556 3.308h9.693c-.008-.817-.597-1.401-1.322-1.401H4.234c.725 0 1.314.584 1.322 1.401z" fill="#E2D9C5"/><path d="M12.601 3.23c0-.731.592-1.323 1.323-1.323H4.23c-.73 0-1.322.592-1.322 1.322v10.864h8.37c.73 0 1.322-.592 1.322-1.322V3.229z" fill="#C4D9D5"/><path d="M12.318 1.907c-.73 0-1.322.592-1.322 1.322v9.542c0 .73-.592 1.322-1.323 1.322h1.606c.73 0 1.322-.592 1.322-1.322V3.229c0-.73.593-1.322 1.323-1.322h-1.606z" fill="#E2D9C5"/><path d="M9.927 12.692H.235c.008.817.596 1.401 1.322 1.401h9.693c-.726 0-1.314-.584-1.323-1.4z" fill="#E2D9C5"/><path d="M9.037 10.186c.273-.846.518-1.71 1.096-2.37 1.263-1.443 3.796-1.867 5.633-1.82a16.35 16.35 0 0 0-1.657 1.583c-.65.705-2.071 1.642-2.755 1.853-1.064.327-1.557.382-2.317.754z" fill="#DDA064"/><path d="M9.037 10.186c.273-.846 4.892-4.237 6.728-4.19-.574.475-1.075.955-1.656 1.584-.65.704-2.071 1.641-2.755 1.852-1.064.327-1.557.382-2.317.754z" fill="#B57947"/><path d="M11.484 4.306a.235.235 0 0 0-.235-.234H6.257a.235.235 0 1 0 0 .469h4.992c.13 0 .235-.105.235-.235zM4.375 4.54h.79a.235.235 0 1 0 0-.468h-.79a.235.235 0 1 0 0 .469zM4.375 11.26a.235.235 0 0 0 0 .47h2.453a.235.235 0 1 0 0-.47H4.375zM8.047 9.099a.235.235 0 0 0-.235-.235H4.375a.235.235 0 1 0 0 .47h3.437c.13 0 .235-.106.235-.235zM9.72 6.703a.235.235 0 0 0-.235-.235h-5.11a.235.235 0 1 0 0 .47h5.11c.13 0 .235-.106.235-.235z" fill="#000"/><path d="M12.601 9.694a.235.235 0 0 0-.234.235v2.842c0 .6-.488 1.088-1.088 1.088h-.03c-.613 0-1.08-.503-1.087-1.17a.234.234 0 0 0-.235-.232H3.143V3.23c0-.6.488-1.088 1.088-1.088h8.58l-.02.022-.024.026-.025.029-.024.027-.023.03-.023.03-.021.03-.021.03-.02.031-.02.032-.02.032-.018.033c-.005.01-.01.022-.017.033l-.016.034c-.006.01-.01.022-.016.034l-.015.034-.014.035-.014.035-.012.037-.012.035-.01.038c-.004.012-.008.024-.01.035l-.01.04-.008.035-.007.042-.006.034-.006.045-.004.032-.004.051-.002.028a1.606 1.606 0 0 0-.002.08V5.31a.235.235 0 1 0 .469 0V3.542h2.413a.234.234 0 0 0 .234-.236c-.01-.932-.678-1.634-1.56-1.634H4.232c-.858 0-1.557.699-1.557 1.557v9.229H.234a.234.234 0 0 0-.234.236c.01.931.678 1.634 1.557 1.634h9.722c.859 0 1.557-.699 1.557-1.557V9.929a.235.235 0 0 0-.235-.235zm.247-6.626l.004-.02.005-.03.005-.023a1.263 1.263 0 0 1 .044-.15l.01-.023.01-.024c.002-.007.006-.014.01-.021l.01-.025.01-.019.014-.026.006-.01c.022-.039.045-.076.071-.111l.001-.001.026-.034.004-.005a1.055 1.055 0 0 1 .131-.136h.001a1.075 1.075 0 0 1 .564-.258h.003c.016-.003.031-.005.047-.006h.007l.043-.004H13.927c.538 0 .964.386 1.065.931h-2.145l.001-.005zM1.557 13.858c-.539 0-.965-.386-1.065-.931H9.709l.011.072.005.024.01.047.006.027.01.042.008.03a1.677 1.677 0 0 0 .057.172l.011.027.016.037.012.027.018.038.012.023c.008.015.015.03.024.044l.008.016.035.058.008.013.029.043.013.02.026.034.016.02.025.033.017.02a1.495 1.495 0 0 0 .045.05l.013.015H1.557z" fill="#000"/><path d="M16 5.995v-.009a.234.234 0 0 0-.012-.063V5.92l-.002-.002a.225.225 0 0 0-.013-.03l-.002-.004a.23.23 0 0 0-.015-.024l-.003-.005a.249.249 0 0 0-.02-.023l-.005-.005a.24.24 0 0 0-.022-.018l-.003-.002a.239.239 0 0 0-.131-.045c-1.963-.05-4.522.422-5.816 1.899-.566.646-.827 1.466-1.08 2.259-.02.065-.04.13-.062.194l-.002.009-.397 1.408a.235.235 0 0 0 .452.127l.367-1.306c.45-.21.812-.31 1.3-.442.254-.07.542-.147.89-.254.751-.232 2.194-1.199 2.857-1.917.581-.629 1.07-1.096 1.634-1.562l.002-.001a.238.238 0 0 0 .023-.023l.001-.001a.226.226 0 0 0 .02-.026c0-.002.002-.003.003-.005a.234.234 0 0 0 .026-.058l.002-.006a.23.23 0 0 0 .006-.031v-.001L16 6.003v-.008zM10.31 7.97c.545-.624 1.382-1.093 2.486-1.397.297-.081.61-.149.934-.202-.821.398-1.607.897-2.046 1.19-.708.473-1.472 1.047-2.037 1.558.167-.424.37-.815.662-1.15zm3.627-.55c-.646.7-2.041 1.6-2.651 1.787-.341.105-.624.182-.874.25-.227.062-.433.118-.636.182a9.39 9.39 0 0 1 .324-.294 18.753 18.753 0 0 1 1.845-1.394c1.184-.79 2.255-1.346 3.041-1.586-.341.314-.677.652-1.05 1.055z" fill="#000"/></g><defs><clipPath id="clip0"><path fill="#fff" d="M0 0h16v16H0z"/></clipPath></defs></svg>