<svg width="16" height="16" fill="none" xmlns="http://www.w3.org/2000/svg"><g clip-path="url(#clip0)" fill="#000"><path d="M11.25 4.072H6.256a.235.235 0 1 0 0 .469h4.992a.235.235 0 0 0 0-.47zM5.165 4.072h-.79a.235.235 0 1 0 0 .469h.79a.235.235 0 1 0 0-.47zM6.828 11.26H4.375a.235.235 0 0 0 0 .47h2.453a.235.235 0 1 0 0-.47zM7.812 8.864H4.375a.235.235 0 1 0 0 .47h3.437a.235.235 0 0 0 0-.47zM9.485 6.468h-5.11a.235.235 0 1 0 0 .47h5.11a.234.234 0 1 0 0-.47z"/><path d="M13.924 1.672H4.23c-.858 0-1.557.699-1.557 1.557v9.229H.234a.234.234 0 0 0-.234.236c.01.931.678 1.634 1.557 1.634h9.722c.859 0 1.557-.699 1.557-1.557V9.929a.235.235 0 0 0-.469 0v2.842c0 .6-.488 1.088-1.088 1.088h-.03c-.613 0-1.08-.503-1.087-1.17a.234.234 0 0 0-.235-.232H3.143V3.23c0-.6.488-1.088 1.088-1.088h8.58l-.02.022-.024.026-.025.029-.024.027-.023.03-.023.03-.021.03-.021.03-.02.031-.02.032-.02.032-.018.033c-.005.01-.01.022-.017.033l-.016.034c-.006.01-.01.022-.016.034l-.015.034-.014.035-.014.035-.012.037-.012.035-.01.038c-.004.012-.008.024-.01.035l-.01.04-.008.035-.007.042-.006.034-.006.045-.004.032-.004.051-.002.028a1.606 1.606 0 0 0-.002.08V5.31a.235.235 0 1 0 .469 0V3.542h2.413a.234.234 0 0 0 .234-.236c-.01-.932-.678-1.634-1.56-1.634zM9.709 12.927l.011.072.005.024.01.047.006.027.01.042.008.03a1.677 1.677 0 0 0 .057.172l.011.027.016.037.012.027.018.038.012.023c.008.015.015.03.024.044l.008.016.035.058.008.013.029.043.013.02.026.034.016.02.025.033.017.02a1.495 1.495 0 0 0 .045.05l.013.015H1.557c-.539 0-.965-.387-1.065-.932h9.217zm3.139-9.854v-.005l.004-.02.005-.03.005-.023a1.263 1.263 0 0 1 .044-.15l.01-.023.01-.024c.002-.007.006-.014.01-.021l.01-.025.01-.019.014-.026.006-.01c.022-.039.045-.076.071-.111l.001-.001.026-.034.004-.005a1.055 1.055 0 0 1 .131-.136h.001a1.075 1.075 0 0 1 .564-.258h.003c.016-.003.031-.005.047-.006h.007l.043-.004H13.927c.538 0 .964.386 1.065.931h-2.145z"/><path d="M16 5.995v-.009a.234.234 0 0 0-.012-.063V5.92l-.002-.002a.225.225 0 0 0-.013-.03l-.002-.004a.23.23 0 0 0-.015-.024l-.003-.005a.249.249 0 0 0-.02-.023l-.005-.005a.24.24 0 0 0-.022-.018l-.003-.002a.239.239 0 0 0-.131-.045c-1.963-.05-4.522.422-5.816 1.899-.566.646-.827 1.466-1.08 2.259-.02.065-.04.13-.062.194l-.002.009-.397 1.408a.235.235 0 0 0 .452.127l.367-1.306c.45-.21.812-.31 1.3-.442.254-.07.542-.147.89-.254.751-.232 2.194-1.199 2.857-1.917.581-.629 1.07-1.096 1.634-1.562l.002-.001a.238.238 0 0 0 .023-.023l.001-.001a.226.226 0 0 0 .02-.026c0-.002.002-.003.003-.005a.234.234 0 0 0 .026-.058l.002-.006a.23.23 0 0 0 .006-.031v-.001L16 6.003v-.008zM10.31 7.97c.545-.624 1.382-1.093 2.486-1.397.297-.081.61-.149.934-.202-.821.398-1.607.897-2.046 1.19-.708.473-1.472 1.047-2.037 1.558.167-.424.37-.815.662-1.15zm3.627-.55c-.646.7-2.041 1.6-2.651 1.787-.341.105-.624.182-.874.25-.227.062-.433.118-.636.182a9.39 9.39 0 0 1 .324-.294 18.753 18.753 0 0 1 1.845-1.394c1.184-.79 2.255-1.346 3.041-1.586-.341.314-.677.652-1.05 1.055z"/></g><defs><clipPath id="clip0"><path fill="#fff" d="M0 0h16v16H0z"/></clipPath></defs></svg>