<svg width="16" height="16" fill="none" xmlns="http://www.w3.org/2000/svg"><path d="M3.732 7.73a3.465 3.465 0 1 0 0-6.93 3.465 3.465 0 0 0 0 6.93zm0-1.6z" fill="#60A8FF"/><path d="M12.262 8.797a3.465 3.465 0 1 0 0 6.93 3.465 3.465 0 0 0 0-6.93zm0 3.465z" fill="#FB5E7A"/><path d="M15.194.267H8.796A.533.533 0 0 0 8.264.8v2.932L7.73 5.065l1.333-.533h6.13a.533.533 0 0 0 .534-.534V.8a.533.533 0 0 0-.533-.533zM.267 12.528c0 .295.238.534.533.534h6.13l1.333.533-.533-1.333V9.33a.533.533 0 0 0-.533-.533H.8a.533.533 0 0 0-.533.533v3.198z" fill="#FFEFAD"/><path d="M3.732 7.997a3.732 3.732 0 1 0 0-7.464 3.732 3.732 0 0 0 0 7.464zm0-6.93a3.199 3.199 0 1 1 0 6.397 3.199 3.199 0 0 1 0-6.398z" fill="#231F20"/><path d="M3.732 6.397a2.135 2.135 0 0 0 2.132-2.132h-.533a1.6 1.6 0 1 1-3.199 0H1.6a2.135 2.135 0 0 0 2.133 2.132zM4.531 2.666h1.067v.533H4.53v-.533zM1.866 2.666h1.066v.533H1.866v-.533zM12.262 8.53a3.732 3.732 0 1 0 0 7.464 3.732 3.732 0 0 0 0-7.464zm0 6.93a3.199 3.199 0 1 1 0-6.397 3.199 3.199 0 0 1 0 6.397z" fill="#231F20"/><path d="M12.262 11.995a2.135 2.135 0 0 0-2.133 2.133h.534a1.6 1.6 0 1 1 3.198 0h.533a2.135 2.135 0 0 0-2.132-2.133zM13.062 10.662h1.066v.534h-1.066v-.534zM10.396 10.662h1.066v.534h-1.066v-.534zM15.194 0H8.796a.8.8 0 0 0-.8.8v2.88l-.513 1.286a.267.267 0 0 0 .346.346l1.285-.514h6.08a.8.8 0 0 0 .8-.8V.8a.8.8 0 0 0-.8-.8zm.266 3.998c0 .148-.119.267-.266.267H9.063a.268.268 0 0 0-.099.019l-.754.3.302-.755a.27.27 0 0 0 .018-.097V.8c0-.148.12-.267.266-.267h6.398c.147 0 .266.12.266.267v3.198z" fill="#231F20"/><path d="M9.33 1.333h2.399v.533h-2.4v-.533zM11.995 1.333h2.4v.533h-2.4v-.533zM9.33 2.132h2.932v.534H9.33v-.534zM12.528 2.132h2.4v.534h-2.4v-.534zM9.33 2.932h2.132v.533H9.33v-.533zM11.729 2.932h3.198v.533H11.73v-.533zM7.997 12.21V9.33a.8.8 0 0 0-.8-.8H.8a.8.8 0 0 0-.8.8v3.198a.8.8 0 0 0 .8.8h6.08l1.284.514a.266.266 0 0 0 .347-.346l-.514-1.286zm-.968.604a.268.268 0 0 0-.098-.02H.8a.267.267 0 0 1-.267-.266V9.33c0-.148.12-.267.267-.267h6.397c.147 0 .267.12.267.267v2.932c0 .034.006.067.019.099l.302.755-.756-.302z" fill="#231F20"/><path d="M4.265 9.863h2.399v.533H4.265v-.533zM1.6 9.863h2.398v.533H1.6v-.533zM3.732 10.662h2.932v.534H3.732v-.534zM1.066 10.662h2.4v.534h-2.4v-.534zM4.531 11.462h2.133v.533H4.531v-.533zM1.066 11.462h3.199v.533H1.066v-.533z" fill="#231F20"/></svg>