<svg width="16" height="16" fill="none" xmlns="http://www.w3.org/2000/svg"><g clip-path="url(#clip0)" fill="#000"><path d="M3.733 8a3.733 3.733 0 1 0 0-7.467 3.733 3.733 0 0 0 0 7.467zm0-6.933a3.2 3.2 0 1 1 0 6.4 3.2 3.2 0 0 1 0-6.4z"/><path d="M3.733 6.4a2.136 2.136 0 0 0 2.134-2.133h-.534a1.6 1.6 0 0 1-3.2 0H1.6A2.136 2.136 0 0 0 3.733 6.4zM4.533 2.667H5.6V3.2H4.533v-.533zM1.867 2.667h1.066V3.2H1.867v-.533zM12.267 8.533a3.733 3.733 0 1 0 0 7.467 3.733 3.733 0 0 0 0-7.467zm0 6.934a3.2 3.2 0 1 1 0-6.4 3.2 3.2 0 0 1 0 6.4z"/><path d="M12.267 12a2.136 2.136 0 0 0-2.134 2.133h.534a1.6 1.6 0 0 1 3.2 0h.533A2.136 2.136 0 0 0 12.267 12zM13.067 10.667h1.066v.533h-1.066v-.533zM10.4 10.667h1.067v.533H10.4v-.533zM15.2 0H8.8a.8.8 0 0 0-.8.8v2.882l-.514 1.286a.267.267 0 0 0 .346.347L9.118 4.8H15.2A.8.8 0 0 0 16 4V.8a.8.8 0 0 0-.8-.8zm.267 4c0 .147-.12.267-.267.267H9.067a.27.27 0 0 0-.1.018l-.754.302.303-.756a.272.272 0 0 0 .017-.098V.8c0-.147.12-.267.267-.267h6.4c.148 0 .267.12.267.267V4z"/><path d="M9.333 1.333h2.4v.534h-2.4v-.534zM12 1.333h2.4v.534H12v-.534zM9.333 2.133h2.934v.534H9.333v-.534zM12.533 2.133h2.4v.534h-2.4v-.534zM9.333 2.933h2.134v.534H9.333v-.534zM11.733 2.933h3.2v.534h-3.2v-.534zM8 12.216V9.332a.8.8 0 0 0-.8-.8H.8a.8.8 0 0 0-.8.8v3.2a.8.8 0 0 0 .8.8h6.082l1.286.515a.267.267 0 0 0 .347-.347L8 12.216zm-.968.603a.27.27 0 0 0-.099-.019H.8a.267.267 0 0 1-.267-.267v-3.2c0-.147.12-.266.267-.266h6.4c.147 0 .267.119.267.266v2.934a.27.27 0 0 0 .018.099l.303.755-.756-.302z"/><path d="M4.267 9.867h2.4v.533h-2.4v-.533zM1.6 9.867H4v.533H1.6v-.533zM3.733 10.667h2.934v.533H3.733v-.533zM1.067 10.667h2.4v.533h-2.4v-.533zM4.533 11.467h2.134V12H4.533v-.533zM1.067 11.467h3.2V12h-3.2v-.533z"/></g><defs><clipPath id="clip0"><path fill="#fff" d="M0 0h16v16H0z"/></clipPath></defs></svg>