<svg width="16" height="16" fill="none" xmlns="http://www.w3.org/2000/svg"><path d="M12.917 10.212a2.123 2.123 0 0 0 1.02-1.813V6.774c0-1.058-.78-1.938-1.795-2.096v-1.57a.234.234 0 0 0-.234-.233H9.406v-.938c0-.834-.679-1.513-1.513-1.513H4.249c-.834 0-1.512.679-1.512 1.513v.938H.234A.234.234 0 0 0 0 3.108v8.295c0 .13.105.234.234.234h2.06a.234.234 0 1 0 0-.468H.467V6.452a2.832 2.832 0 0 0 1.8 1.22v.256a.748.748 0 0 0 1.496 0V7.73h1.804a.234.234 0 1 0 0-.467H3.763V6.69a.234.234 0 0 0-.234-.234H2.501a.234.234 0 0 0-.233.234v.503a2.37 2.37 0 0 1-1.8-2.298V3.342h11.207v1.315c-.014 0-.028.003-.042.004l-.047.004-.058.007-.046.007-.058.01-.044.009-.06.013-.04.01-.063.018-.036.01a2.028 2.028 0 0 0-.07.024l-.027.01a2.13 2.13 0 0 0-.187.079l-.019.01a2.18 2.18 0 0 0-.071.036l-.028.016c-.02.01-.04.022-.06.034l-.03.02a2.293 2.293 0 0 0-.054.034l-.032.022-.05.035-.032.026-.047.036-.032.027-.044.038-.031.03a2.436 2.436 0 0 0-.041.039l-.03.03-.04.041a2.17 2.17 0 0 0-.242.318l-.024.039a2.144 2.144 0 0 0-.075.137l-.02.041a2.106 2.106 0 0 0-.023.05l-.018.043a2.111 2.111 0 0 0-.02.052l-.017.043a2.11 2.11 0 0 0-.018.053l-.014.044-.015.055c-.005.014-.009.029-.012.044l-.014.056-.01.044-.01.06-.007.043c-.004.02-.006.042-.008.063l-.005.04-.006.071-.002.036a2.129 2.129 0 0 0-.003.106v.457a2.377 2.377 0 0 1-.327.03v-.57a.234.234 0 0 0-.234-.234H8.104a.234.234 0 0 0-.234.234v.572H6.346a.234.234 0 0 0 0 .467H7.87v.198a.748.748 0 0 0 1.496 0v-.2c.109-.001.218-.01.327-.025V8.4c0 .036 0 .071.002.106l.003.041.005.064.006.05.007.053.01.056.008.046.013.06.01.04c.005.02.01.042.017.063l.01.034c.006.023.014.045.021.068l.01.027c.008.025.018.05.028.074l.007.02.035.08.005.01c.177.382.465.703.823.921a4.372 4.372 0 0 0-1.727.957H3.073a.234.234 0 1 0 0 .468H8.54c-.567.69-.91 1.552-.91 2.468v1.237c0 .13.105.234.234.234h1.779a.234.234 0 1 0 0-.467H8.097v-1.004c0-.933.398-1.825 1.121-2.512l.022-.02.085-.077.007-.006c.057-.05.115-.098.174-.144l.032-.025a4.36 4.36 0 0 1 .048-.036l.048-.035.02-.014a3.962 3.962 0 0 1 1.081-.539l.38.737-.507 2.2a.234.234 0 0 0 .07.225l.98.896a.233.233 0 0 0 .315 0l.98-.896a.234.234 0 0 0 .07-.225l-.508-2.2.38-.737c.56.178 1.084.485 1.517.896.723.687 1.12 1.58 1.12 2.512v1.004h-5.11a.234.234 0 0 0 0 .467h5.344a.234.234 0 0 0 .234-.234v-1.237c0-1.805-1.33-3.394-3.083-3.893zM2.735 7.474v-.55h.56v1.004a.28.28 0 0 1-.56 0v-.454zm5.367-4.6H4.04v-.77c0-.213.173-.386.386-.386h3.29c.213 0 .386.173.386.386v.77zm.836 0H8.57v-.77a.855.855 0 0 0-.853-.853h-3.29a.855.855 0 0 0-.853.853v.77h-.37v-.937c0-.577.47-1.046 1.046-1.046h3.644c.576 0 1.045.47 1.045 1.046v.938zm-.04 4.622v.432a.28.28 0 0 1-.56 0V6.924h.56v.572zm1.263-.723a1.656 1.656 0 0 1 1.736-1.651h.003a1.656 1.656 0 0 1 1.569 1.651v.557c-.754-.14-1.059-.906-1.072-.941a.234.234 0 0 0-.424-.03c-.021.039-.508.892-1.812.985v-.57zm2.375 6.833l-.721.66-.721-.66.453-1.97h.536l.453 1.97zM11.2 10.58l.062-.01a6.59 6.59 0 0 1 .22-.031l.04-.004.01-.001.104-.008.042-.003.084-.003.053.002.053-.002.084.003.027.002c.041.002.082.005.123.01.015 0 .03.002.046.004a3.202 3.202 0 0 1 .176.023l.044.007.062.01-.304.59h-.622l-.304-.59zm.712-.529h-.015l-.017.001h-.124A1.669 1.669 0 0 1 10.16 8.4v-.587c1.056-.065 1.678-.562 1.984-.905.216.338.635.806 1.326.896V8.4c0 .88-.69 1.6-1.558 1.651z" fill="#000"/></svg>