<svg width="16" height="16" fill="none" xmlns="http://www.w3.org/2000/svg"><g clip-path="url(#clip0)"><path d="M11.908 10.287v-.003l-.03.002.03.001zM10.854 10.418c.037-.01.075-.02.112-.028l.02-.005.09-.02.03-.005a3.973 3.973 0 0 1 .221-.038h.001l.112-.014.03-.003.082-.008c.013 0 .025-.002.037-.003l.08-.004.034-.002.05-.002A1.894 1.894 0 0 1 9.927 8.4V6.774a1.894 1.894 0 0 1 1.981-1.886v-1.78H.234v8.295h8.845a4.176 4.176 0 0 1 1.775-.986z" fill="#4C6546"/><path d="M8.104 7.496H3.529v.623h4.575v-.623zM.234 4.896v.623A2.6 2.6 0 0 0 2.5 8.097v-.623A2.6 2.6 0 0 1 .234 4.896zM9.132 7.496v.623h.176c.214 0 .42-.026.618-.074v-.623a2.604 2.604 0 0 1-.618.074h-.176z" fill="#2E3C42"/><path d="M11.815 15.342H7.864v-1.237c0-2.085 1.866-3.792 3.95-3.82 2.086.028 3.952 1.735 3.952 3.82v1.237h-3.951z" fill="#68B9D8"/><path d="M11.815 10.285a3.883 3.883 0 0 0-.312.017c1.956.183 3.64 1.823 3.64 3.803v1.237h.623v-1.237c0-2.085-1.866-3.792-3.951-3.82z" fill="#3695B2"/><path d="M11.815 10.288c1.039 0 1.888-.85 1.888-1.888V6.775c0-1.04-.85-1.889-1.888-1.889-1.039 0-1.888.85-1.888 1.889V8.4c0 1.038.85 1.888 1.888 1.888z" fill="#FFC89F"/><path d="M11.815 4.886c-.106 0-.21.01-.311.026.891.15 1.576.93 1.576 1.863V8.4c0 .932-.685 1.712-1.576 1.862a1.894 1.894 0 0 0 2.2-1.862V6.775c0-1.04-.85-1.889-1.889-1.889z" fill="#F7B081"/><path d="M12.269 11.403h-.908l-.507-.985c.31-.083.633-.129.961-.133.328.004.65.05.96.133l-.506.985z" fill="#D3333C"/><path d="M12.168 10.306l-.522 1.097h.623l.507-.985a3.992 3.992 0 0 0-.608-.112z" fill="#7F1B20"/><path d="M11.815 14.583l-.98-.897.526-2.283h.908l.526 2.283-.98.897z" fill="#F2464F"/><path d="M12.268 11.403h-.623l.527 2.283-.669.612.312.285.98-.897-.527-2.283z" fill="#D3333C"/><path d="M7.893.658H4.249c-.706 0-1.279.572-1.279 1.279v1.171h.836V2.104a.62.62 0 0 1 .62-.62h3.29a.62.62 0 0 1 .62.62v1.004h.836V1.937A1.28 1.28 0 0 0 7.893.657z" fill="#353535"/><path d="M3.015 8.442a.514.514 0 0 1-.514-.514V6.691H3.53v1.237c0 .284-.23.514-.514.514z" fill="#F7CB4F"/><path d="M3.062 6.69v1.238c0 .2-.114.372-.28.457a.514.514 0 0 0 .748-.457V6.691h-.468z" fill="#F4B008"/><path d="M8.618 8.442a.514.514 0 0 1-.514-.514V6.691h1.028v1.237c0 .284-.23.514-.514.514z" fill="#F7CB4F"/><path d="M8.665 6.69v1.238c0 .2-.114.372-.28.457a.514.514 0 0 0 .748-.457V6.691h-.468z" fill="#F4B008"/><path d="M.234 3.108v1.788A2.6 2.6 0 0 0 2.5 7.474v-.783H3.53v.805h4.575v-.805h1.028v.805h.176c.214 0 .42-.026.619-.074v-.648a1.894 1.894 0 0 1 1.981-1.886v-1.78H.234z" fill="#6C8E6C"/><path d="M12.917 10.212a2.123 2.123 0 0 0 1.02-1.813V6.774c0-1.058-.78-1.938-1.795-2.096v-1.57a.234.234 0 0 0-.234-.233H9.406v-.938c0-.834-.679-1.513-1.513-1.513H4.249c-.834 0-1.512.679-1.512 1.513v.938H.234A.234.234 0 0 0 0 3.108v8.295c0 .13.105.234.234.234h2.06a.234.234 0 1 0 0-.468H.467V6.452a2.832 2.832 0 0 0 1.8 1.22v.256a.748.748 0 0 0 1.496 0V7.73h1.804a.234.234 0 1 0 0-.467H3.763V6.69a.234.234 0 0 0-.234-.234H2.501a.234.234 0 0 0-.233.234v.503a2.37 2.37 0 0 1-1.8-2.298V3.342h11.207v1.315c-.014 0-.028.003-.042.004l-.047.004-.058.007-.046.007-.058.01-.044.009-.06.013-.04.01-.063.018-.036.01a2.111 2.111 0 0 0-.07.024l-.027.01c-.064.023-.126.05-.187.079l-.019.01a2.258 2.258 0 0 0-.071.036l-.028.016c-.02.01-.04.022-.06.034l-.03.02c-.018.01-.036.022-.054.034l-.032.022-.05.035-.032.026-.047.036-.032.027-.044.038-.031.03c-.014.012-.028.025-.041.039l-.03.03a2.115 2.115 0 0 0-.38.535 2.106 2.106 0 0 0-.043.092l-.019.042a2.111 2.111 0 0 0-.02.052l-.017.043a2.11 2.11 0 0 0-.018.053l-.014.044-.016.055-.012.044-.013.056-.01.044-.01.06-.008.043-.008.063-.005.04-.005.071-.003.036a2.129 2.129 0 0 0-.002.106v.457a2.377 2.377 0 0 1-.328.03v-.57a.234.234 0 0 0-.233-.234H8.104a.234.234 0 0 0-.234.234v.572H6.346a.234.234 0 1 0 0 .467H7.87v.198a.748.748 0 0 0 1.495 0v-.2c.11-.001.22-.01.328-.025V8.4c0 .036 0 .071.002.106l.003.041.005.064.006.05.007.053.01.056.008.046.013.06.01.04c.005.02.01.042.017.063l.01.034c.006.023.014.045.021.068l.01.027c.008.025.018.05.027.074l.008.02.035.08.005.01c.177.382.465.703.823.921a4.372 4.372 0 0 0-1.727.957H3.073a.234.234 0 1 0 0 .468H8.54c-.567.69-.91 1.552-.91 2.468v1.237c0 .13.105.234.234.234h1.779a.234.234 0 1 0 0-.467H8.097v-1.004c0-.933.398-1.825 1.121-2.512l.022-.02.085-.077.007-.006c.057-.05.115-.098.174-.144l.032-.025.048-.036.048-.035.02-.014a3.96 3.96 0 0 1 1.081-.539l.38.737-.507 2.2a.234.234 0 0 0 .07.225l.98.896a.233.233 0 0 0 .315 0l.98-.896a.234.234 0 0 0 .07-.225l-.508-2.2.38-.737c.56.178 1.084.485 1.517.896.723.687 1.12 1.58 1.12 2.512v1.004h-5.11a.234.234 0 1 0 0 .467h5.344a.234.234 0 0 0 .234-.234v-1.237c0-1.805-1.33-3.394-3.083-3.893zM2.735 6.924h.56v1.004a.28.28 0 0 1-.56 0V6.924zm5.367-4.05H4.04v-.77c0-.213.173-.386.386-.386h3.29c.213 0 .386.173.386.386v.77zm.467 0v-.77a.855.855 0 0 0-.853-.853h-3.29a.855.855 0 0 0-.853.853v.77h-.37v-.937c0-.577.47-1.046 1.046-1.046h3.644c.576 0 1.045.47 1.045 1.046v.938H8.57zm.33 5.054a.28.28 0 0 1-.561 0V6.924h.56v1.004zm3.013 2.123h-.015l-.017.001h-.124A1.669 1.669 0 0 1 10.16 8.4v-.822c1.474-.098 2.018-1.105 2.018-1.105s.361.95 1.292 1.094V8.4c0 .88-.69 1.6-1.558 1.651zm-.097 4.215l-.721-.66.453-1.97h.536l.453 1.97-.721.66zm.311-3.097h-.622l-.304-.59.062-.01a6.59 6.59 0 0 1 .22-.03l.04-.004.01-.001.104-.008.042-.003.084-.003.053.002.053-.002.084.003.027.002c.041.002.082.005.123.01.015 0 .03.002.046.004a3.202 3.202 0 0 1 .22.03l.062.01-.304.59z" fill="#000"/></g><defs><clipPath id="clip0"><path fill="#fff" d="M0 0h16v16H0z"/></clipPath></defs></svg>