<svg width="16" height="16" fill="none" xmlns="http://www.w3.org/2000/svg"><path d="M11.28 7.206a4.254 4.254 0 0 1-.594 8.464c-1.614 0-3.021-.9-3.738-2.228a4.253 4.253 0 0 1 3.738-6.28c.2.004.397.018.594.044zm1.224 7.053v-1.54c0-.867-.7-1.558-1.558-1.558h-.533c-.867 0-1.558.7-1.558 1.558v1.54h3.649zm-.767-4.872c0-.293-.12-.56-.31-.75a1.062 1.062 0 0 0-1.498.003c-.19.194-.307.457-.307.747 0 .59.477 1.057 1.058 1.057.29 0 .553-.116.747-.306.19-.19.31-.457.31-.75z" fill="#FEDB41"/><path d="M12.504 12.719v1.54H8.855v-1.54c0-.857.69-1.558 1.558-1.558h.533c.857 0 1.558.69 1.558 1.558zM11.427 8.637c.193.19.31.453.31.75a1.055 1.055 0 0 1-1.057 1.057c-.58 0-1.058-.467-1.058-1.057 0-.29.117-.553.307-.747a1.062 1.062 0 0 1 1.497-.003z" fill="#FEDB41"/><path d="M11.28 7.206a4.253 4.253 0 0 0-4.332 6.24l-.007.003H2.506c-.81 0-1.467-.657-1.467-1.467V1.804c0-.81.657-1.467 1.467-1.467h5.382v2.428c0 .626.507 1.133 1.134 1.133h2.258v3.308z" fill="#00ACEA"/><path d="M7.888.337l3.392 3.561H9.022a1.133 1.133 0 0 1-1.134-1.133V.337z" fill="#00EFD1"/><path d="M11.623 6.926V3.898a.35.35 0 0 0-.096-.23L8.132.103A.338.338 0 0 0 7.888 0H2.506C1.512 0 .72.81.72 1.804v10.178c0 .994.793 1.79 1.787 1.79h4.249A4.534 4.534 0 0 0 10.686 16a4.589 4.589 0 0 0 3.455-7.606 4.604 4.604 0 0 0-2.518-1.468zM8.222 1.171l2.277 2.397H9.022c-.44 0-.8-.363-.8-.803V1.17zM1.386 11.98V1.805c0-.627.497-1.137 1.12-1.137h5.049v2.098c0 .81.657 1.47 1.467 1.47h1.934V6.84c-.1-.003-.18-.016-.266-.016A4.653 4.653 0 0 0 7.648 7.97H3.413a.334.334 0 0 0-.333.333c0 .184.15.334.333.334h3.615a5.306 5.306 0 0 0-.587 1.034H3.413a.334.334 0 0 0-.333.333c0 .184.15.334.333.334h2.811a4.49 4.49 0 0 0-.126 1.074c0 .583.11 1.16.323 1.693H2.506c-.623 0-1.12-.5-1.12-1.123zm9.3 3.355a3.926 3.926 0 0 1-3.448-2.05 3.922 3.922 0 0 1 6.393-4.452c.627.713.97 1.63.97 2.584a3.917 3.917 0 0 1-3.915 3.918z" fill="#083863"/><path d="M3.413 6.97h3.378a.334.334 0 0 0 0-.667H3.413a.334.334 0 0 0-.333.333c0 .183.15.334.333.334zM10.946 10.838h-.533c-1.044 0-1.891.837-1.891 1.88v1.541c0 .184.15.347.333.347h3.649c.183 0 .32-.16.32-.347v-1.54c0-1.044-.834-1.881-1.878-1.881zm1.21 3.101H9.19v-1.22c0-.674.55-1.214 1.224-1.214h.533c.674 0 1.21.537 1.21 1.214v1.22zM10.68 10.778a1.386 1.386 0 0 0 1.39-1.39 1.387 1.387 0 0 0-1.39-1.391 1.387 1.387 0 0 0-1.391 1.39c0 .767.624 1.39 1.39 1.39zm-.514-1.9a.724.724 0 1 1 1.027 1.02.724.724 0 0 1-1.027-1.02z" fill="#083863"/></svg>