<svg width="16" height="16" fill="none" xmlns="http://www.w3.org/2000/svg"><g clip-path="url(#clip0)" fill="#000"><path d="M11.623 6.926V3.898a.35.35 0 0 0-.096-.23L8.132.103A.338.338 0 0 0 7.889 0H2.506C1.513 0 .72.81.72 1.804v10.178c0 .994.794 1.79 1.787 1.79h4.249A4.586 4.586 0 0 0 10.683 16a4.595 4.595 0 0 0 4.592-4.585c.003-2.211-1.584-4.059-3.652-4.489zM8.222 1.171L10.5 3.568H9.022c-.44 0-.8-.363-.8-.803V1.17zM2.506 13.105c-.623 0-1.12-.5-1.12-1.123V1.804c0-.627.497-1.137 1.12-1.137h5.049v2.098c0 .81.657 1.47 1.467 1.47h1.934V6.84c-.1-.003-.18-.013-.266-.013a4.653 4.653 0 0 0-3.042 1.147H3.413a.334.334 0 0 0-.333.334c0 .183.15.333.333.333h3.615a5.305 5.305 0 0 0-.587 1.034H3.413a.334.334 0 0 0-.333.334c0 .183.15.333.333.333h2.811a4.488 4.488 0 0 0-.126 1.074c0 .6.116 1.194.327 1.694H2.506v-.004zm8.18 2.231a3.922 3.922 0 0 1-3.918-3.918A3.92 3.92 0 0 1 10.686 7.5a3.92 3.92 0 0 1 3.919 3.918 3.922 3.922 0 0 1-3.919 3.918z"/><path d="M3.413 6.97h3.378a.334.334 0 0 0 0-.667H3.413a.334.334 0 0 0-.333.333c0 .183.15.334.333.334zM10.946 10.838h-.533c-1.044 0-1.89.837-1.89 1.88v1.541c0 .184.15.347.333.347h3.648c.183 0 .32-.16.32-.347v-1.54c0-1.044-.834-1.881-1.878-1.881zm1.211 3.101H9.189v-1.22c0-.674.55-1.214 1.224-1.214h.534c.673 0 1.21.537 1.21 1.214v1.22zM10.68 10.778c.767 0 1.39-.624 1.39-1.39a1.392 1.392 0 0 0-2.78 0c0 .766.623 1.39 1.39 1.39zm0-2.114a.723.723 0 1 1 0 1.446.723.723 0 0 1 0-1.446z"/></g><defs><clipPath id="clip0"><path fill="#fff" d="M0 0h16v16H0z"/></clipPath></defs></svg>