<?xml version="1.0" standalone="no"?>
<!DOCTYPE svg PUBLIC "-//W3C//DTD SVG 20010904//EN"
 "http://www.w3.org/TR/2001/REC-SVG-20010904/DTD/svg10.dtd">
<svg version="1.0" xmlns="http://www.w3.org/2000/svg"
 width="448.000000pt" height="448.000000pt" viewBox="0 0 448.000000 448.000000"
 preserveAspectRatio="xMidYMid meet">
<metadata>
Created by potrace 1.11, written by Peter Selinger 2001-2013
</metadata>
<g transform="translate(0.000000,448.000000) scale(0.100000,-0.100000)"
fill="#000000" stroke="none">
<path d="M640 4160 l0 -320 800 0 800 0 0 -320 0 -320 -160 0 -160 0 0 -320 0
-320 -640 0 -640 0 0 160 0 160 160 0 160 0 0 320 0 320 -320 0 -320 0 0 -320
0 -320 -160 0 -160 0 0 -480 0 -480 1120 0 1120 0 0 160 0 160 160 0 160 0 0
480 0 480 160 0 160 0 0 480 0 480 -160 0 -160 0 0 160 0 160 -960 0 -960 0 0
-320z"/>
<path d="M3520 3520 l0 -320 -160 0 -160 0 0 -320 0 -320 320 0 320 0 0 320 0
320 160 0 160 0 0 320 0 320 -320 0 -320 0 0 -320z"/>
<path d="M2880 2080 l0 -160 320 0 320 0 0 160 0 160 -320 0 -320 0 0 -160z"/>
<path d="M0 1440 l0 -160 2240 0 2240 0 0 160 0 160 -2240 0 -2240 0 0 -160z"/>
<path d="M2560 480 l0 -480 160 0 160 0 0 320 0 320 160 0 160 0 0 160 0 160
-320 0 -320 0 0 -480z"/>
<path d="M3520 640 l0 -320 160 0 160 0 0 -160 0 -160 320 0 320 0 0 480 0
480 -160 0 -160 0 0 -320 0 -320 -160 0 -160 0 0 320 0 320 -160 0 -160 0 0
-320z"/>
<path d="M1920 160 l0 -160 160 0 160 0 0 160 0 160 -160 0 -160 0 0 -160z"/>
</g>
</svg>
