<svg aria-hidden="true" style="position: absolute; width: 0; height: 0; overflow: hidden;" version="1.1" xmlns="http://www.w3.org/2000/svg" xmlns:xlink="http://www.w3.org/1999/xlink">
<defs>
<symbol id="icon-answer_all" viewBox="0 0 32 32">
<path fill="#9eb3b3" style="fill: var(--color1, #9eb3b3)" d="M26.027 4h-25.36c-0.368 0-0.667 0.299-0.667 0.667v0 22.666c0 0.369 0.298 0.667 0.667 0.667h30.6c0.368-0.001 0.666-0.299 0.666-0.667 0 0 0 0 0 0v0-17.158l-5.906-6.175z"></path>
<path fill="#dfdfdf" style="fill: var(--color2, #dfdfdf)" d="M31 28h-30v0.333c0 0.369 0.298 0.667 0.667 0.667h28.666c0.368 0 0.667-0.299 0.667-0.667v0-0.333z"></path>
<path fill="#f0f4f4" style="fill: var(--color3, #f0f4f4)" d="M25.8 6h-23.8v19.933h27.933v-15.833l-4.133-4.1z"></path>
<path fill="#aab9b9" style="fill: var(--color4, #aab9b9)" d="M4 13c0 0.552 0.448 1 1 1s1-0.448 1-1v0c0-0.552-0.448-1-1-1s-1 0.448-1 1v0zM14 13c0 0.552 0.448 1 1 1s1-0.448 1-1v0c0-0.552-0.448-1-1-1s-1 0.448-1 1v0zM4 17c0 0.552 0.448 1 1 1s1-0.448 1-1v0c0-0.552-0.448-1-1-1s-1 0.448-1 1v0zM14 21c0 0.552 0.448 1 1 1s1-0.448 1-1v0c0-0.552-0.448-1-1-1s-1 0.448-1 1v0zM11 20h-6c-0.552 0-1 0.448-1 1s0.448 1 1 1v0h6c0.552 0 1-0.448 1-1s-0.448-1-1-1v0zM27 16h-1c-0.552 0-1 0.448-1 1s0.448 1 1 1v0h1c0.552 0 1-0.448 1-1s-0.448-1-1-1v0zM13 16h-4c-0.552 0-1 0.448-1 1s0.448 1 1 1v0h4c0.552 0 1-0.448 1-1s-0.448-1-1-1v0zM21 16h-4c-0.552 0-1 0.448-1 1s0.448 1 1 1v0h4c0.552 0 1-0.448 1-1s-0.448-1-1-1v0zM11 12h-2c-0.552 0-1 0.448-1 1s0.448 1 1 1v0h2c0.552 0 1-0.448 1-1s-0.448-1-1-1v0z"></path>
<path fill="#91a4a4" style="fill: var(--color5, #91a4a4)" d="M30 12h-6v-6h2.011v3.989h3.989v2.011z"></path>
</symbol>
<symbol id="icon-answer_del" viewBox="0 0 32 32">
<path fill="#b93333" style="fill: var(--color6, #b93333)" d="M10.485 11.616v0c-0.398 0.398-0.644 0.948-0.644 1.556s0.246 1.157 0.644 1.556l1.272 1.273-1.272 1.273c-0.398 0.398-0.644 0.948-0.644 1.555s0.246 1.157 0.644 1.555l1.131 1.131c0.398 0.398 0.948 0.644 1.556 0.644s1.157-0.246 1.556-0.644l1.273-1.272 1.273 1.272c0.398 0.398 0.948 0.645 1.556 0.645s1.158-0.246 1.556-0.645l1.13-1.131c0.398-0.398 0.644-0.948 0.644-1.555s-0.246-1.157-0.644-1.555l-1.272-1.273 1.272-1.273c0.398-0.398 0.645-0.948 0.645-1.556s-0.246-1.158-0.645-1.556l-1.131-1.13c-0.398-0.398-0.948-0.644-1.555-0.644s-1.157 0.246-1.555 0.644l-1.273 1.272-1.273-1.272c-0.398-0.398-0.948-0.645-1.556-0.645s-1.158 0.246-1.556 0.645l-1.13 1.131zM11.757 13.172l1.415-1.415 2.828 2.829 2.828-2.829 1.415 1.415-2.829 2.828 2.829 2.828-1.415 1.415-2.828-2.829-2.828 2.829-1.415-1.415 2.829-2.828-2.829-2.829z"></path>
<path fill="#f75e5e" style="fill: var(--color7, #f75e5e)" d="M13.172 11.757l-1.415 1.415 2.829 2.828-2.829 2.828 1.415 1.415 2.828-2.829 2.828 2.829 1.415-1.415-2.829-2.828 2.829-2.828-1.415-1.415-2.828 2.829-2.828-2.829z"></path>
</symbol>
<symbol id="icon-answer_new" viewBox="0 0 32 32">
<path fill="#9eb3b3" style="fill: var(--color1, #9eb3b3)" d="M26.027 4h-25.36c-0.368 0-0.667 0.299-0.667 0.667v0 22.666c0 0.369 0.298 0.667 0.667 0.667h30.6c0.368-0.001 0.666-0.299 0.666-0.667 0 0 0 0 0 0v0-17.158l-5.906-6.175z"></path>
<path fill="#dfdfdf" style="fill: var(--color2, #dfdfdf)" d="M31 28h-30v0.333c0 0.369 0.298 0.667 0.667 0.667h28.666c0.368 0 0.667-0.299 0.667-0.667v0-0.333z"></path>
<path fill="#f0f4f4" style="fill: var(--color3, #f0f4f4)" d="M25.8 6h-23.8v19.933h27.933v-15.833l-4.133-4.1z"></path>
<path fill="#aab9b9" style="fill: var(--color4, #aab9b9)" d="M4 13c0 0.552 0.448 1 1 1s1-0.448 1-1v0c0-0.552-0.448-1-1-1s-1 0.448-1 1v0zM14 13c0 0.552 0.448 1 1 1s1-0.448 1-1v0c0-0.552-0.448-1-1-1s-1 0.448-1 1v0zM4 17c0 0.552 0.448 1 1 1s1-0.448 1-1v0c0-0.552-0.448-1-1-1s-1 0.448-1 1v0zM14 21c0 0.552 0.448 1 1 1s1-0.448 1-1v0c0-0.552-0.448-1-1-1s-1 0.448-1 1v0zM11 20h-6c-0.552 0-1 0.448-1 1s0.448 1 1 1v0h6c0.552 0 1-0.448 1-1s-0.448-1-1-1v0zM27 16h-1c-0.552 0-1 0.448-1 1s0.448 1 1 1v0h1c0.552 0 1-0.448 1-1s-0.448-1-1-1v0zM13 16h-4c-0.552 0-1 0.448-1 1s0.448 1 1 1v0h4c0.552 0 1-0.448 1-1s-0.448-1-1-1v0zM21 16h-4c-0.552 0-1 0.448-1 1s0.448 1 1 1v0h4c0.552 0 1-0.448 1-1s-0.448-1-1-1v0zM11 12h-2c-0.552 0-1 0.448-1 1s0.448 1 1 1v0h2c0.552 0 1-0.448 1-1s-0.448-1-1-1v0z"></path>
<path fill="#91a4a4" style="fill: var(--color5, #91a4a4)" d="M30 12h-6v-6h2.011v3.989h3.989v2.011z"></path>
<path fill="#e03333" style="fill: var(--color8, #e03333)" d="M29.533 6.533l-4.133-4 1.728-1.596c0.237-0.22 0.555-0.354 0.905-0.354s0.668 0.135 0.906 0.355l-0.001-0.001 2.122 1.963c0.538 0.498 0.574 1.337 0.079 1.878l-1.606 1.755z"></path>
<path fill="#ae9e46" style="fill: var(--color9, #ae9e46)" d="M15 13.2l9.533-9.733 1.067 0.966-8.913 8.82c-0.183 0.181-0.297 0.433-0.297 0.711s0.114 0.531 0.299 0.713l0 0 0.641 0.631c0.18 0.178 0.428 0.287 0.701 0.287 0.274 0 0.523-0.111 0.704-0.289l8.898-8.806 1 0.833-9.666 9.434-1.134 0.233-1.866-0.8-1.2-1.4 0.233-1.6z"></path>
<path fill="#ffd678" style="fill: var(--color10, #ffd678)" d="M27.767 6.667l-2.3-2.367-9.734 9.567 2.334 2.233 9.7-9.433z"></path>
<path fill="#acabab" style="fill: var(--color11, #acabab)" d="M29.533 6.507l-4.1-3.974-0.966 0.96 4 4.040 1.066-1.026z"></path>
<path fill="#000" style="fill: var(--color12, #000)" d="M17.9 17l-3.9 0.933 0.867-3.733 1.633 1.17c0.088 0.065 0.169 0.14 0.238 0.224l1.162 1.406z"></path>
<path fill="#e7e6e6" style="fill: var(--color13, #e7e6e6)" d="M25.033 4l0.9-0.967 3.067 3-1 0.934-2.967-2.967zM15.733 13.833l0.7-0.766 2.39 2.233-0.758 0.767-2.332-2.234z"></path>
</symbol>
<symbol id="icon-blog_del" viewBox="0 0 32 32">
<path fill="#e03333" style="fill: var(--color8, #e03333)" d="M9 16c0 3.866 3.134 7 7 7s7-3.134 7-7v0c0-3.866-3.134-7-7-7s-7 3.134-7 7v0z"></path>
<path fill="#fff" style="fill: var(--color14, #fff)" d="M13.172 11.757l-1.415 1.415 2.829 2.828-2.829 2.828 1.415 1.415 2.828-2.829 2.828 2.829 1.415-1.415-2.829-2.828 2.829-2.828-1.415-1.415-2.828 2.829-2.828-2.829z"></path>
</symbol>
<symbol id="icon-blog_edit" viewBox="0 0 32 32">
<path fill="#45b500" style="fill: var(--color15, #45b500)" d="M9 16c0 3.866 3.134 7 7 7s7-3.134 7-7v0c0-3.866-3.134-7-7-7s-7 3.134-7 7v0z"></path>
<path fill="#fff" style="fill: var(--color14, #fff)" d="M16.023 20.334l4.384-6.264c0.151-0.217 0.242-0.486 0.242-0.777 0-0.756-0.613-1.368-1.368-1.368-0.465 0-0.876 0.232-1.124 0.587l-0.003 0.004-3.503 5.15-1.094-2.91c-0.176-0.468-0.62-0.794-1.14-0.794-0.671 0-1.215 0.544-1.215 1.215 0 0.186 0.042 0.362 0.116 0.519l-0.003-0.007 2.012 4.4c0.252 0.542 0.792 0.911 1.418 0.911 0.526 0 0.992-0.261 1.274-0.66l0.003-0.005z"></path>
</symbol>
<symbol id="icon-com_s" viewBox="0 0 32 32">
<path fill="#99705c" style="fill: var(--color16, #99705c)" d="M14.5 19c0.9-1.45 0.78-0.46 1.5-3 0.79-2.8-2.13-7.69-5-7.69s-5.82 4.9-5 7.69c0.72 2.46 0.64 1.81 1.5 3-0.060 0.37-0.5 2.5-0.5 2.5l0.87 0.39c0.89 0.386 1.927 0.61 3.017 0.61 0.029 0 0.058-0 0.088-0l-0.004 0c0.011 0 0.025 0 0.038 0 1.121 0 2.191-0.22 3.168-0.62l-0.056 0.020 0.88-0.4s-0.44-2.020-0.5-2.5z"></path>
<path fill="#7b4a1c" style="fill: var(--color17, #7b4a1c)" d="M17 13c0.008-0.115 0.013-0.248 0.013-0.383 0-3.109-2.521-5.63-5.63-5.63-0.135 0-0.268 0.005-0.401 0.014l0.018-0.001c-0.111-0.008-0.241-0.012-0.372-0.012-3.115 0-5.64 2.525-5.64 5.64 0 0.131 0.004 0.261 0.013 0.39l-0.001-0.017c0.2 1.363 0.535 2.703 1 4 2.1 0.45 3.26 2 5 2s2.4-1.48 5-2c0.485-1.167 0.837-2.52 0.994-3.932l0.006-0.068z"></path>
<path fill="#458ede" style="fill: var(--color18, #458ede)" d="M2 27v-3c0-3 9-5 9-5s9 2 9 5v3c0 4-3 4-9 4s-9 0-9-4z"></path>
<path fill="#9ec3e9" style="fill: var(--color19, #9ec3e9)" d="M11 30c-5.16 0-8 0-8-3v-3c0-2 8-4 8-4s8 2 8 4v3c0 3-2.84 3-8 3z"></path>
<path fill="#66a5e2" style="fill: var(--color20, #66a5e2)" d="M4 27v-2c0-1 1-2 7-4 6 2 7 3 7 4v2c0 2-2 2-7 2s-7 0-7-2z"></path>
<path fill="#fff" style="fill: var(--color14, #fff)" d="M15 22l-4 5-4-5v-1h8v1z"></path>
<path fill="#d9bd85" style="fill: var(--color21, #d9bd85)" d="M14 22c-0.869 0.472-1.902 0.749-3 0.749s-2.131-0.277-3.034-0.766l0.034 0.017c0.153-0.752 0.241-1.616 0.241-2.5s-0.088-1.748-0.255-2.584l0.014 0.084h6c-0.148 0.752-0.233 1.616-0.233 2.5s0.085 1.748 0.247 2.585l-0.014-0.085z"></path>
<path fill="#e2e2e2" opacity="0.5" style="fill: var(--color22, #e2e2e2)" d="M8.080 17.57c0.059 0.521 0.089 1.045 0.090 1.57 0.88 1.86 3.33 2.53 5.38 2.29 0.11 0 0.35 0.57 0.45 0.57-0.129-0.666-0.203-1.432-0.203-2.215s0.074-1.549 0.215-2.291l-0.012 0.076h-5.92z"></path>
<path fill="#ffe09c" style="fill: var(--color23, #ffe09c)" d="M15.25 13.74c0 3.47-1 6.26-4.24 6.26s-4.23-3-4.23-6.26c-0.001-0.027-0.001-0.059-0.001-0.092 0-2.355 1.876-4.272 4.215-4.338l0.006-0c2.358 0.050 4.251 1.973 4.251 4.339 0 0.032-0 0.064-0.001 0.096l0-0.005z"></path>
<path fill="#735343" style="fill: var(--color24, #735343)" d="M11 8c3.33 0 5 2.13 5 5.060 0.004 0.086 0.006 0.188 0.006 0.289 0 1.39-0.441 2.678-1.19 3.73l0.013-0.020c0.13-0.36 0.68-3.46-1.11-4s-3.35 2.15-6.65 1.18c-0.054 0.325-0.084 0.7-0.084 1.082 0 0.596 0.074 1.174 0.215 1.726l-0.010-0.048c-0.699-1.093-1.135-2.416-1.19-3.836l-0-0.014c0.16-2.93 1.67-5.15 5-5.15z"></path>
<path fill="#9d714a" opacity="0.3" style="fill: var(--color25, #9d714a)" d="M6.33 13.17v0.060c0.039 0.6 0.146 1.194 0.32 1.77 0.005-0.339 0.037-0.667 0.095-0.986l-0.005 0.036 0.070-0.37 0.35 0.1c0.405 0.118 0.871 0.186 1.352 0.186 1.019 0 1.966-0.305 2.757-0.828l-0.019 0.012c1.91-1 3.23-4.2 1.18-4.68-0.362-0.079-0.779-0.124-1.206-0.124-0.079 0-0.158 0.002-0.236 0.005l0.011-0c-3.83 0-4.57 3.020-4.67 4.82z"></path>
<path fill="#71afe5" style="fill: var(--color26, #71afe5)" d="M15 18h-1c0.707-1.266 1.123-2.777 1.123-4.385 0-0.933-0.14-1.832-0.4-2.68l0.017 0.065h7.34c-1.71 1.16-3.080 5-7.080 7z"></path>
<path fill="#71afe5" style="fill: var(--color26, #71afe5)" d="M30 9.29c0.002 0.049 0.002 0.106 0.002 0.163 0 2.999-2.379 5.443-5.353 5.547l-0.009 0h-8.28c-2.983-0.104-5.362-2.548-5.362-5.547 0-0.057 0.001-0.115 0.003-0.172l-0 0.008v-2.58c-0.002-0.049-0.002-0.106-0.002-0.163 0-2.999 2.379-5.443 5.353-5.547l0.009-0h8.28c2.983 0.104 5.362 2.548 5.362 5.547 0 0.057-0.001 0.115-0.003 0.172l0-0.008v2.58z"></path>
<path fill="#e5f1f3" style="fill: var(--color27, #e5f1f3)" d="M15 17c2-3 0.57-4.78 0.55-7l6.55 0.060c-2.79 1.77-4.1 5.94-7.1 6.94z"></path>
<path fill="#c7e1e8" style="fill: var(--color28, #c7e1e8)" d="M29 9.26c0.001 0.036 0.002 0.079 0.002 0.122 0 2.51-2.002 4.552-4.495 4.618l-0.006 0h-8c-2.501-0.072-4.501-2.116-4.501-4.628 0-0.039 0.001-0.079 0.001-0.118l-0 0.006v-2.52c-0.001-0.033-0.001-0.072-0.001-0.112 0-2.512 2-4.556 4.495-4.628l0.007-0h8c2.5 0.066 4.502 2.109 4.502 4.618 0 0.043-0.001 0.085-0.002 0.128l0-0.006v2.52z"></path>
<path fill="#fff" opacity="0.6" style="fill: var(--color14, #fff)" d="M24.5 2h-8c-2.501 0.072-4.501 2.116-4.501 4.628 0 0.039 0.001 0.079 0.001 0.118l-0-0.006v2.52c-0.001 0.033-0.001 0.072-0.001 0.112 0 2.512 2 4.556 4.495 4.628l0.007 0h8c2.5-0.066 4.502-2.109 4.502-4.618 0-0.043-0.001-0.085-0.002-0.128l0 0.006v-2.52c0.001-0.036 0.002-0.079 0.002-0.122 0-2.51-2.002-4.552-4.495-4.618l-0.006-0zM28.070 9.26c0.001 0.024 0.001 0.053 0.001 0.081 0 1.99-1.588 3.609-3.566 3.659l-0.005 0h-8c-1.983-0.050-3.571-1.669-3.571-3.659 0-0.028 0-0.057 0.001-0.085l-0 0.004v-2.52c-0.001-0.024-0.001-0.053-0.001-0.081 0-1.99 1.588-3.609 3.566-3.659l0.005-0h8c1.983 0.050 3.571 1.669 3.571 3.659 0 0.029-0 0.057-0.001 0.085l0-0.004v2.52z"></path>
</symbol>
<symbol id="icon-com_u" viewBox="0 0 32 32">
<path fill="#99705c" style="fill: var(--color16, #99705c)" d="M19.97 16.003c1.048-1.688 0.89-0.528 1.708-3.5 0.89-3.263-2.42-8.98-5.657-8.98s-6.621 5.727-5.7 8.98c0.818 2.878 0.734 2.070 1.709 3.5-0.063 0.435-0.577 2.92-0.577 2.92l0.996 0.456c1.014 0.452 2.198 0.715 3.443 0.715 0.027 0 0.054-0 0.081-0l-0.004 0c0.009 0 0.019 0 0.029 0 1.278 0 2.496-0.259 3.604-0.727l-0.061 0.023 0.995-0.466s-0.492-2.362-0.566-2.921z"></path>
<path fill="#7b4a1c" style="fill: var(--color17, #7b4a1c)" d="M22.81 9.001c0-4.246-2.694-7.001-6.81-7.001-4.117 0-6.81 2.651-6.81 7.001 0.224 1.59 0.603 3.154 1.132 4.671 2.389 0.529 3.709 2.31 5.699 2.31s2.734-1.73 5.657-2.31c0.587-1.5 0.967-3.070 1.131-4.67z"></path>
<path fill="#458ede" style="fill: var(--color18, #458ede)" d="M5 26.174v-3.625c0-3.625 10.99-6.049 10.99-6.049s11.010 2.424 11.010 6.049v3.625c0 4.826-3.677 4.826-11.010 4.826-7.335 0-10.99 0-10.99-4.826z"></path>
<path fill="#9ec3e9" style="fill: var(--color19, #9ec3e9)" d="M16 29.964c-6.422 0-9.952 0-9.952-3.728v-3.729c0-2.455 9.952-4.971 9.952-4.971s9.952 2.516 9.952 4.971v3.729c0 3.728-3.54 3.728-9.952 3.728z"></path>
<path fill="#66a5e2" style="fill: var(--color20, #66a5e2)" d="M7.095 26.34v-2.59c0-1.295 1.268-2.59 8.905-5.179 7.637 2.59 8.905 3.884 8.905 5.179v2.59c0 2.589-2.546 2.589-8.905 2.589s-8.905 0-8.905-2.59z"></path>
<path fill="#fff" style="fill: var(--color14, #fff)" d="M20.714 19.607l-4.714 5.179-4.714-5.179v-1.036h9.428v1.036z"></path>
<path fill="#d9bd85" style="fill: var(--color21, #d9bd85)" d="M19.405 19.504c-0.982 0.553-2.155 0.878-3.405 0.878s-2.423-0.326-3.44-0.896l0.035 0.018c0.176-0.877 0.277-1.885 0.277-2.916s-0.101-2.039-0.293-3.014l0.016 0.098h6.747c-0.149 0.825-0.234 1.774-0.234 2.744 0 1.093 0.108 2.16 0.314 3.192l-0.017-0.103z"></path>
<path fill="#e2e2e2" opacity="0.5" style="fill: var(--color22, #e2e2e2)" d="M12.679 14.346c0.076 0.604 0.11 1.213 0.105 1.823 1.047 2.164 3.782 2.962 6.118 2.672 0.115 0 0.387 0.673 0.503 0.663-0.149-0.779-0.234-1.674-0.234-2.59s0.085-1.811 0.248-2.679l-0.014 0.090-6.726 0.020z"></path>
<path fill="#ffe09c" style="fill: var(--color23, #ffe09c)" d="M20.819 9.871c0 4.050-1.1 7.25-4.808 7.25-3.71 0-4.799-3.459-4.799-7.25-0.003-0.062-0.004-0.135-0.004-0.209 0-1.3 0.502-2.482 1.323-3.364l-0.003 0.003c0.9-0.97 2.152-1.55 3.482-1.608 1.38 0.061 2.608 0.666 3.484 1.604l0.003 0.003c0.822 0.881 1.327 2.068 1.327 3.372 0 0.070-0.001 0.139-0.004 0.208l0-0.010z"></path>
<path fill="#735343" style="fill: var(--color24, #735343)" d="M16 3.17c3.782 0 5.636 2.486 5.668 5.904 0.004 0.092 0.006 0.199 0.006 0.307 0 1.607-0.496 3.097-1.343 4.328l0.017-0.026c0.146-0.414 0.764-4.040-1.268-4.702s-3.792 2.517-7.543 1.377c-0.067 0.401-0.106 0.864-0.106 1.335 0 0.714 0.088 1.407 0.254 2.069l-0.012-0.058c-0.797-1.292-1.292-2.846-1.351-4.511l-0-0.016c0.178-3.417 1.896-6.007 5.678-6.007z"></path>
<path fill="#ff961f" opacity="0.3" style="fill: var(--color29, #ff961f)" d="M10.699 9.25c0.044 0.702 0.167 1.396 0.367 2.071 0.002-0.371 0.037-0.742 0.104-1.108l0.074-0.435 0.398 0.124c0.481 0.149 1.034 0.234 1.607 0.234 1.126 0 2.175-0.33 3.055-0.899l-0.022 0.013c2.17-1.129 3.668-4.899 1.342-5.469-0.472-0.118-1.013-0.186-1.57-0.186-0.019 0-0.038 0-0.057 0l0.003-0c-4.348-0.020-5.186 3.5-5.301 5.655z"></path>
</symbol>
<symbol id="icon-minus" viewBox="0 0 32 32">
<path fill="#b93333" style="fill: var(--color6, #b93333)" d="M20.8 13h-9.6c-1.215 0-2.2 0.985-2.2 2.2v0 1.6c0 1.215 0.985 2.2 2.2 2.2v0h9.6c1.215 0 2.2-0.985 2.2-2.2v0-1.6c0-1.215-0.985-2.2-2.2-2.2v0z"></path>
<path fill="#f75e5e" style="fill: var(--color7, #f75e5e)" d="M21 15h-10v2h10v-2z"></path>
</symbol>
<symbol id="icon-plus" viewBox="0 0 32 32">
<path fill="#367831" style="fill: var(--color30, #367831)" d="M16.8 9h-1.6c-1.215 0-2.2 0.985-2.2 2.2v0 1.8h-1.8c-1.215 0-2.2 0.985-2.2 2.2v0 1.6c0 1.215 0.985 2.2 2.2 2.2v0h1.8v1.8c0 1.215 0.985 2.2 2.2 2.2v0h1.6c1.215 0 2.2-0.985 2.2-2.2v0-1.8h1.8c1.215 0 2.2-0.985 2.2-2.2v0-1.6c0-1.215-0.985-2.2-2.2-2.2h-1.8v-1.8c0-1.215-0.985-2.2-2.2-2.2v0z"></path>
<path fill="#99d000" style="fill: var(--color31, #99d000)" d="M17 11h-2v4h-4v2h4v4h2v-4h4v-2h-4v-4z"></path>
</symbol>
<symbol id="icon-poll" viewBox="0 0 32 32">
<path fill="#fff" style="fill: var(--color14, #fff)" d="M31 1h-30v30h30v-30z"></path>
<path fill="#367831" style="fill: var(--color30, #367831)" d="M12 2h-10v2.025h9.95v3.975h-9.95v2h10c1.105 0 2-0.895 2-2v0-4c0-1.105-0.895-2-2-2v0z"></path>
<path fill="#b2d68d" style="fill: var(--color32, #b2d68d)" d="M12 8v-4h-10v4h10z"></path>
<path fill="#c16900" style="fill: var(--color33, #c16900)" d="M26 12h-24v2.025h24v3.975h-24v2h24c1.105 0 2-0.895 2-2v0-4c0-1.105-0.895-2-2-2v0z"></path>
<path fill="#ffd678" style="fill: var(--color10, #ffd678)" d="M26 18v-4h-24v4h24z"></path>
<path fill="#116fa0" style="fill: var(--color34, #116fa0)" d="M20 22h-18v2.025h18v3.975h-18v2h18c1.105 0 2-0.895 2-2v0-4c0-1.105-0.895-2-2-2v0z"></path>
<path fill="#9bd1f4" style="fill: var(--color35, #9bd1f4)" d="M20 28v-4h-18v4h18z"></path>
</symbol>
<symbol id="icon-post_del" viewBox="0 0 32 32">
<path fill="#e03333" style="fill: var(--color8, #e03333)" d="M9 16c0 3.866 3.134 7 7 7s7-3.134 7-7v0c0-3.866-3.134-7-7-7s-7 3.134-7 7v0z"></path>
<path fill="#fff" style="fill: var(--color14, #fff)" d="M19.799 19.402l-5.997-8.003s3.8-1.598 6.2 1.603c2.398 3.2-0.203 6.4-0.203 6.4zM18.198 20.601l-5.997-8.003s-2.6 3.2-0.202 6.4c2.398 3.201 6.199 1.603 6.199 1.603z"></path>
</symbol>
<symbol id="icon-post_edit" viewBox="0 0 32 32">
<path fill="#4f8f00" style="fill: var(--color36, #4f8f00)" d="M16.47 22.035l6.356-8.973c0.319-0.437 0.511-0.985 0.511-1.578 0-1.487-1.205-2.692-2.692-2.692-0.925 0-1.742 0.467-2.226 1.178l-0.006 0.009-4.649 6.75-1.309-3.442c-0.554-1.457-2.447-1.822-3.503-0.677-0.345 0.373-0.556 0.873-0.556 1.423 0 0.32 0.072 0.623 0.2 0.895l-0.005-0.013 3.079 6.65c0.293 0.624 0.882 1.065 1.581 1.147l0.009 0.001 1.353 0.154c0.067 0.008 0.145 0.013 0.224 0.013 0.671 0 1.266-0.331 1.628-0.839l0.004-0.006z"></path>
<path fill="#99d000" style="fill: var(--color31, #99d000)" d="M15.388 21.19l6.412-8.995c0.166-0.216 0.267-0.491 0.267-0.789 0-0.718-0.582-1.3-1.3-1.3-0.458 0-0.86 0.236-1.092 0.594l-0.003 0.005-6.005 8.73-2.294-5.726c-0.143-0.33-0.466-0.558-0.842-0.558-0.505 0-0.915 0.409-0.915 0.915 0 0.129 0.027 0.252 0.075 0.363l-0.002-0.006 2.908 6.49c0.259 0.568 0.822 0.956 1.475 0.956 0.541 0 1.019-0.265 1.313-0.673l0.003-0.005z"></path>
</symbol>
<symbol id="icon-s_m" viewBox="0 0 32 32">
<path fill="#858a8f" style="fill: var(--color37, #858a8f)" d="M29.867 9.6v17.38c0 1.005-0.815 1.82-1.82 1.82v0h-26.227c-1.005-0.001-1.819-0.815-1.82-1.82v-25.068c0.001-1.056 0.857-1.912 1.913-1.912 0 0 0 0 0 0h18.353l3.2 1.067 5.334 5.333 1.067 3.2z"></path>
<path fill="#e2e6ed" style="fill: var(--color38, #e2e6ed)" d="M26.433 8.533c0.155 0 0.31 0.015 0.46 0.060 0.548 0.165 1.907 0.711 1.907 2.074v17.066h-27.733v-26.666h18.133s2.133 0.595 2.133 2.133v3.513c0.001 1.005 0.815 1.819 1.82 1.82h3.28z"></path>
<path fill="#cbcbcb" style="fill: var(--color39, #cbcbcb)" d="M23.467 1.067l5.333 5.333v2.133l-0.35-0.35c-0.443-0.442-1.055-0.716-1.73-0.716-0 0-0 0-0.001 0h-4.319v-6.4h1.067z"></path>
<path fill="#fff" opacity="0.92" style="fill: var(--color14, #fff)" d="M19.2 1.067h-18.133v1.066h18.133v-1.066z"></path>
<path fill="#fff" opacity="0.92" style="fill: var(--color14, #fff)" d="M2.133 2.133h-1.066v25.6h1.066v-25.6z"></path>
<path fill="#b9b9b9" opacity="0.92" style="fill: var(--color40, #b9b9b9)" d="M28.8 10.667h-1.067v17.066h1.067v-17.066z"></path>
<path fill="#fff" opacity="0.92" style="fill: var(--color14, #fff)" d="M26.667 8.533h-5.334v1.067h5.334v-1.067zM23.467 7.467h-1.067s0.022-4.814 0-5.334c-0.022-0.52-1.067-1.066-1.067-1.066h0.783c0.746 0 1.35 0.605 1.35 1.35v5.050z"></path>
<path fill="#999b9e" opacity="0.84" style="fill: var(--color41, #999b9e)" d="M21.333 3.2h-18.133v3.2h18.133v-3.2z"></path>
<path fill="#989898" opacity="0.99" style="fill: var(--color42, #989898)" d="M6.373 15.969h-2.11v1.098h2.11v-1.098zM10.68 15.969h-3.209v1.098h3.209v-1.098zM13.889 15.969h-2.196v1.098h2.196v-1.098zM6.373 22.387h-2.11v1.097h2.11v-1.097zM10.68 22.387h-3.209v1.097h3.209v-1.097zM13.889 22.387h-2.196v1.097h2.196v-1.097zM7.471 18.164h-3.209v1.014h3.21v-1.014zM13.889 18.164h-5.32v1.014h5.32v-1.014zM8.569 20.276h-4.307v1.097h4.308v-1.097zM13.889 20.276h-4.307v1.097h4.307v-1.097zM8.569 24.498h-4.307v1.098h4.308v-1.098zM13.889 24.498h-4.307v1.098h4.307v-1.098zM18.196 8.538h-2.196v1.098h2.196v-1.098zM20.267 8.533h-1.067v1.067h1.067v-1.067zM19.209 10.649h-3.209v1.098h3.209v-1.098zM25.627 10.649h-5.32v1.098h5.32v-1.098zM20.307 12.76h-4.307v1.098h4.307v-1.098zM25.627 12.76h-4.307v1.098h4.307v-1.098zM19.209 23.484h-3.209v1.014h3.209v-1.014zM21.333 23.467h-1.066v1.066h1.066v-1.066zM20.307 25.596h-4.307v1.097h4.307v-1.097zM25.627 25.596h-4.307v1.097h4.307v-1.097z"></path>
<path fill="#fff" opacity="0.92" style="fill: var(--color14, #fff)" d="M21.333 3.2h-1.066v6.4h1.066v-6.4z"></path>
<path fill="#999b9e" opacity="0.84" style="fill: var(--color41, #999b9e)" d="M25.6 14.933h-9.6v7.467h9.6v-7.467zM13.867 8.533h-9.6v6.4h9.6v-6.4z"></path>
<path fill="#e0e0e0" opacity="0.6" style="fill: var(--color43, #e0e0e0)" d="M24.533 19.2l-2.133-1.067-3.2 1.067-2.133 2.133v-5.333h7.466v3.2z"></path>
<path fill="#dbdbdb" opacity="0.6" style="fill: var(--color44, #dbdbdb)" d="M11.733 12.8c-1.172-0.010-2.118-0.962-2.118-2.135 0-0.392 0.106-0.759 0.29-1.075l-0.005 0.010h-4.567v4.267h7.467v-1.367c-0.305 0.184-0.673 0.295-1.066 0.299h-0.001z"></path>
<path fill="#c44030" style="fill: var(--color45, #c44030)" d="M24.5 32c4.142 0 7.5-3.358 7.5-7.5s-3.358-7.5-7.5-7.5v0c-4.142 0-7.5 3.358-7.5 7.5s3.358 7.5 7.5 7.5v0z"></path>
<path fill="#e34529" style="fill: var(--color46, #e34529)" d="M24.5 31c3.59 0 6.5-2.91 6.5-6.5s-2.91-6.5-6.5-6.5v0c-3.59 0-6.5 2.91-6.5 6.5s2.91 6.5 6.5 6.5v0z"></path>
<path fill="#fff" style="fill: var(--color14, #fff)" d="M29 23h-9v3h9v-3z"></path>
</symbol>
<symbol id="icon-s_p" viewBox="0 0 32 32">
<path fill="#858a8f" style="fill: var(--color37, #858a8f)" d="M29.867 9.6v17.38c0 1.005-0.815 1.82-1.82 1.82v0h-26.227c-1.005-0.001-1.819-0.815-1.82-1.82v-25.068c0.001-1.056 0.857-1.912 1.913-1.912 0 0 0 0 0 0h18.353l3.2 1.067 5.334 5.333 1.067 3.2z"></path>
<path fill="#e2e6ed" style="fill: var(--color38, #e2e6ed)" d="M26.433 8.533c0.155 0 0.31 0.015 0.46 0.060 0.548 0.165 1.907 0.711 1.907 2.074v17.066h-27.733v-26.666h18.133s2.133 0.595 2.133 2.133v3.513c0.001 1.005 0.815 1.819 1.82 1.82h3.28z"></path>
<path fill="#cbcbcb" style="fill: var(--color39, #cbcbcb)" d="M23.467 1.067l5.333 5.333v2.133l-0.35-0.35c-0.443-0.442-1.055-0.716-1.73-0.716-0 0-0 0-0.001 0h-4.319v-6.4h1.067z"></path>
<path fill="#fff" opacity="0.92" style="fill: var(--color14, #fff)" d="M19.2 1.067h-18.133v1.066h18.133v-1.066z"></path>
<path fill="#fff" opacity="0.92" style="fill: var(--color14, #fff)" d="M2.133 2.133h-1.066v25.6h1.066v-25.6z"></path>
<path fill="#b9b9b9" opacity="0.92" style="fill: var(--color40, #b9b9b9)" d="M28.8 10.667h-1.067v17.066h1.067v-17.066z"></path>
<path fill="#fff" opacity="0.92" style="fill: var(--color14, #fff)" d="M26.667 8.533h-5.334v1.067h5.334v-1.067zM23.467 7.467h-1.067s0.022-4.814 0-5.334c-0.022-0.52-1.067-1.066-1.067-1.066h0.783c0.746 0 1.35 0.605 1.35 1.35v5.050z"></path>
<path fill="#999b9e" opacity="0.84" style="fill: var(--color41, #999b9e)" d="M21.333 3.2h-18.133v3.2h18.133v-3.2z"></path>
<path fill="#989898" opacity="0.99" style="fill: var(--color42, #989898)" d="M6.373 15.969h-2.11v1.098h2.11v-1.098zM10.68 15.969h-3.209v1.098h3.209v-1.098zM13.889 15.969h-2.196v1.098h2.196v-1.098zM6.373 22.387h-2.11v1.097h2.11v-1.097zM10.68 22.387h-3.209v1.097h3.209v-1.097zM13.889 22.387h-2.196v1.097h2.196v-1.097zM7.471 18.164h-3.209v1.014h3.21v-1.014zM13.889 18.164h-5.32v1.014h5.32v-1.014zM8.569 20.276h-4.307v1.097h4.308v-1.097zM13.889 20.276h-4.307v1.097h4.307v-1.097zM8.569 24.498h-4.307v1.098h4.308v-1.098zM13.889 24.498h-4.307v1.098h4.307v-1.098zM18.196 8.538h-2.196v1.098h2.196v-1.098zM20.267 8.533h-1.067v1.067h1.067v-1.067zM19.209 10.649h-3.209v1.098h3.209v-1.098zM25.627 10.649h-5.32v1.098h5.32v-1.098zM20.307 12.76h-4.307v1.098h4.307v-1.098zM25.627 12.76h-4.307v1.098h4.307v-1.098zM19.209 23.484h-3.209v1.014h3.209v-1.014zM21.333 23.467h-1.066v1.066h1.066v-1.066zM20.307 25.596h-4.307v1.097h4.307v-1.097zM25.627 25.596h-4.307v1.097h4.307v-1.097z"></path>
<path fill="#fff" opacity="0.92" style="fill: var(--color14, #fff)" d="M21.333 3.2h-1.066v6.4h1.066v-6.4z"></path>
<path fill="#999b9e" opacity="0.84" style="fill: var(--color41, #999b9e)" d="M25.6 14.933h-9.6v7.467h9.6v-7.467zM13.867 8.533h-9.6v6.4h9.6v-6.4z"></path>
<path fill="#e0e0e0" opacity="0.6" style="fill: var(--color43, #e0e0e0)" d="M24.533 19.2l-2.133-1.067-3.2 1.067-2.133 2.133v-5.333h7.466v3.2z"></path>
<path fill="#dbdbdb" opacity="0.6" style="fill: var(--color44, #dbdbdb)" d="M11.733 12.8c-1.172-0.010-2.118-0.962-2.118-2.135 0-0.392 0.106-0.759 0.29-1.075l-0.005 0.010h-4.567v4.267h7.467v-1.367c-0.305 0.184-0.673 0.295-1.066 0.299h-0.001z"></path>
<path fill="#4f8f00" style="fill: var(--color36, #4f8f00)" d="M24.533 32c4.124 0 7.467-3.343 7.467-7.467s-3.343-7.467-7.467-7.467v0c-4.124 0-7.467 3.343-7.467 7.467s3.343 7.467 7.467 7.467v0z"></path>
<path fill="#8fcc00" style="fill: var(--color47, #8fcc00)" d="M24.533 30.933c3.535 0 6.4-2.865 6.4-6.4s-2.865-6.4-6.4-6.4v0c-3.535 0-6.4 2.865-6.4 6.4s2.865 6.4 6.4 6.4v0z"></path>
<path fill="#fff" style="fill: var(--color14, #fff)" d="M25.6 20.267h-2.133v8.533h2.133v-8.533z"></path>
<path fill="#fff" style="fill: var(--color14, #fff)" d="M28.8 23.467h-8.533v2.133h8.533v-2.133z"></path>
</symbol>
<symbol id="icon-up" viewBox="0 0 32 32">
<path fill="#589fdb" style="fill: var(--color48, #589fdb)" d="M7 9.6v0.8c0 0.884 0.716 1.6 1.6 1.6v0h14.777c0 0 0 0 0 0 0.878 0 1.591-0.708 1.6-1.584v-0.001l0.008-0.8c0-0.004 0-0.010 0-0.015 0-0.884-0.716-1.6-1.6-1.6-0 0-0 0-0 0h-14.785c-0.884 0-1.6 0.716-1.6 1.6v0z"></path>
<path fill="#98e5ff" style="fill: var(--color49, #98e5ff)" d="M22.983 9h-13.983c-0.552 0-1 0.448-1 1s0.448 1 1 1v0h13.983c0.552 0 1-0.448 1-1s-0.448-1-1-1v0z"></path>
<path fill="#4892dd" style="fill: var(--color50, #4892dd)" d="M24.923 22h-17.817c-0 0-0.001 0-0.001 0-0.515 0-0.933-0.418-0.933-0.933 0-0.242 0.092-0.462 0.243-0.628l-0.001 0.001 9.586-10.573 9.614 10.572c0.151 0.165 0.243 0.386 0.243 0.628 0 0.515-0.418 0.933-0.933 0.933v0z"></path>
<path fill="#85c4f8" style="fill: var(--color51, #85c4f8)" d="M22.967 20.033h-13.867l6.9-7.5 6.967 7.5z"></path>
<path fill="#cef3ff" style="fill: var(--color52, #cef3ff)" d="M18.967 18.1h-5.934l2.967-2.9 2.967 2.9z"></path>
</symbol>
</defs>
</svg>
