<svg width="270" height="60" fill="none" xmlns="http://www.w3.org/2000/svg"><g clip-path="url(#clip0)"><path d="M3.83 57.75H2.76v-3.894H.907v3.894H-.161v-4.755h3.99v4.755zm4.174.088c-.677 0-1.226-.212-1.648-.637-.419-.428-.628-.996-.628-1.705v-.132c0-.475.09-.898.272-1.27.185-.375.443-.667.774-.875.33-.208.7-.312 1.107-.312.647 0 1.147.207 1.499.62.354.413.531.997.531 1.753v.43H6.804c.033.393.163.704.391.933.232.228.522.342.87.342.49 0 .888-.197 1.196-.593l.576.55c-.19.284-.446.505-.765.663a2.391 2.391 0 0 1-1.068.233zm-.127-4.074a.906.906 0 0 0-.712.308c-.179.205-.293.49-.343.857h2.035v-.08c-.024-.357-.119-.626-.286-.808-.167-.185-.398-.277-.694-.277zm7.976 1.657c0 .735-.167 1.323-.501 1.762-.334.437-.782.655-1.345.655-.521 0-.939-.172-1.252-.514v2.254h-1.068v-6.583h.984l.044.483c.314-.38.74-.57 1.279-.57.58 0 1.034.216 1.362.65.331.43.497 1.03.497 1.797v.066zm-1.064-.092c0-.475-.095-.852-.285-1.13-.188-.278-.457-.417-.809-.417-.436 0-.75.18-.94.54v2.11c.193.369.51.553.949.553.34 0 .605-.136.795-.408.194-.276.29-.692.29-1.248zm2.998 2.421v-4.755h1.929c.65 0 1.145.114 1.485.343.34.225.51.55.51.975 0 .22-.069.418-.207.594-.134.173-.335.306-.602.4.31.064.557.194.739.39a.989.989 0 0 1 .272.695c0 .442-.164.78-.492 1.01-.325.232-.794.348-1.406.348h-2.228zm1.068-2.026v1.182h1.168c.548 0 .822-.196.822-.589 0-.395-.278-.593-.835-.593h-1.155zm0-.764h.878c.607 0 .91-.18.91-.537 0-.375-.287-.568-.861-.58h-.927v1.116zm6.077-.453h1.046c.39 0 .73.067 1.02.202.29.135.51.324.659.567.152.243.229.526.229.848 0 .49-.173.882-.52 1.178-.345.296-.805.445-1.379.448h-2.122v-4.755h1.067v1.512zm4.812 3.243h-1.067v-4.755h1.067v4.755zm-4.812-2.386v1.534h1.042c.26 0 .466-.065.615-.194.152-.132.229-.318.229-.558 0-.24-.075-.43-.225-.567-.146-.14-.345-.212-.597-.215h-1.064zm10.007-2.369h1.063v4.755H34.94v-3.173l-1.863 3.173h-1.064v-4.755h1.064v3.173l1.863-3.173zm.5-1.824c0 .37-.128.668-.386.897-.258.228-.602.343-1.033.343-.43 0-.775-.115-1.032-.343-.258-.229-.387-.527-.387-.897h.8c0 .194.054.345.162.453.112.105.264.158.457.158.194 0 .345-.052.453-.158.108-.108.163-.26.163-.453h.804zm9.994 4.25c0 .735-.167 1.323-.5 1.762-.335.437-.783.655-1.345.655-.522 0-.94-.172-1.253-.514v2.254h-1.068v-6.583h.985l.044.483c.313-.38.74-.57 1.279-.57.58 0 1.034.216 1.362.65.33.43.496 1.03.496 1.797v.066zm-1.063-.092c0-.475-.095-.852-.286-1.13-.187-.278-.457-.417-.808-.417-.437 0-.75.18-.94.54v2.11c.193.369.509.553.948.553.34 0 .605-.136.796-.408.193-.276.29-.692.29-1.248zm2.716 0c0-.466.092-.885.277-1.257.184-.375.444-.662.778-.862a2.18 2.18 0 0 1 1.15-.303c.643 0 1.163.207 1.561.62.401.413.618.96.65 1.643l.005.25c0 .47-.091.889-.273 1.258a1.98 1.98 0 0 1-.773.857c-.334.202-.72.303-1.16.303-.671 0-1.209-.223-1.613-.668-.401-.448-.602-1.044-.602-1.789v-.052zm1.068.092c0 .49.1.873.303 1.151.202.276.483.413.844.413.36 0 .64-.14.84-.422.201-.28.302-.692.302-1.234 0-.48-.104-.862-.312-1.143a.984.984 0 0 0-.84-.422.978.978 0 0 0-.83.418c-.205.275-.307.688-.307 1.239zm7.154 1.564a.966.966 0 0 0 .664-.233.795.795 0 0 0 .281-.575h1.006a1.58 1.58 0 0 1-.276.83 1.822 1.822 0 0 1-.704.607c-.296.15-.615.224-.958.224-.665 0-1.192-.215-1.582-.646-.39-.43-.584-1.026-.584-1.784v-.11c0-.724.193-1.302.58-1.736.387-.436.914-.655 1.582-.655.565 0 1.025.166 1.38.497.357.328.545.76.562 1.296h-1.006a.973.973 0 0 0-.281-.672.89.89 0 0 0-.664-.264c-.346 0-.612.126-.8.378-.187.25-.282.628-.285 1.138v.172c0 .515.092.9.277 1.155.187.252.457.378.808.378zm5.656 0a.965.965 0 0 0 .664-.233.795.795 0 0 0 .281-.575h1.006a1.58 1.58 0 0 1-.276.83 1.823 1.823 0 0 1-.704.607c-.296.15-.615.224-.958.224-.665 0-1.192-.215-1.582-.646-.39-.43-.584-1.026-.584-1.784v-.11c0-.724.193-1.302.58-1.736.387-.436.914-.655 1.582-.655.565 0 1.025.166 1.38.497.357.328.545.76.562 1.296H61.91a.973.973 0 0 0-.281-.672.89.89 0 0 0-.664-.264c-.346 0-.612.126-.8.378-.187.25-.282.628-.285 1.138v.172c0 .515.092.9.277 1.155.187.252.457.378.808.378zm6.671-3.99H68.7v4.755h-1.064v-3.173l-1.863 3.173h-1.064v-4.755h1.064v3.173l1.863-3.173zm6.113 0h1.064v4.755h-1.064v-3.173l-1.863 3.173H70.82v-4.755h1.064v3.173l1.863-3.173zm.501-1.824c0 .37-.129.668-.386.897-.258.228-.603.343-1.033.343-.43 0-.775-.115-1.033-.343-.258-.229-.387-.527-.387-.897h.8c0 .194.054.345.163.453.111.105.263.158.457.158.193 0 .344-.052.452-.158.109-.108.163-.26.163-.453h.804zm4.597 5.814a.966.966 0 0 0 .664-.233.796.796 0 0 0 .28-.575h1.007a1.58 1.58 0 0 1-.277.83 1.823 1.823 0 0 1-.703.607c-.296.15-.615.224-.958.224-.665 0-1.192-.215-1.582-.646-.39-.43-.584-1.026-.584-1.784v-.11c0-.724.193-1.302.58-1.736.386-.436.914-.655 1.582-.655.565 0 1.025.166 1.38.497.357.328.545.76.562 1.296h-1.006a.974.974 0 0 0-.281-.672.89.89 0 0 0-.664-.264c-.346 0-.612.126-.8.378-.187.25-.283.628-.285 1.138v.172c0 .515.092.9.276 1.155.188.252.457.378.809.378zm5.392-1.116h-.54v1.881H82.63v-4.755h1.068v1.899h.47l1.314-1.899H86.8l-1.718 2.277 1.863 2.478h-1.388l-1.319-1.88zm7.207-2.874h1.064v4.755h-1.064v-3.173l-1.863 3.173H88.52v-4.755h1.063v3.173l1.864-3.173zm6.114 0h1.063v4.755h-1.064v-3.173l-1.863 3.173h-1.063v-4.755h1.063v3.173l1.864-3.173zm.5-1.824c0 .37-.129.668-.386.897-.258.228-.602.343-1.033.343-.43 0-.775-.115-1.033-.343-.257-.229-.386-.527-.386-.897h.8c0 .194.054.345.162.453.111.105.264.158.457.158s.344-.052.453-.158c.108-.108.162-.26.162-.453h.805zm8.799 1.824h1.063v4.755h-1.063v-3.173l-1.864 3.173h-1.063v-4.755h1.063v3.173l1.864-3.173zm7.172 4.755h-1.068v-1.92h-1.85v1.92h-1.068v-4.755h1.068v1.982h1.85v-1.982h1.068v4.755zm5.827-3.907h-1.542v3.907h-1.068v-3.907h-1.525v-.848h4.135v.848zm3.472 3.995c-.677 0-1.226-.212-1.648-.637-.419-.428-.628-.996-.628-1.705v-.132c0-.475.09-.898.272-1.27.185-.375.442-.667.773-.875a2.041 2.041 0 0 1 1.108-.312c.647 0 1.147.207 1.498.62.355.413.532.997.532 1.753v.43h-3.107c.032.393.163.704.391.933.232.228.522.342.87.342.49 0 .888-.197 1.196-.593l.575.55c-.19.284-.445.505-.764.663a2.395 2.395 0 0 1-1.068.233zm-.128-4.074a.903.903 0 0 0-.711.308c-.179.205-.293.49-.343.857h2.034v-.08c-.023-.357-.118-.626-.285-.808-.167-.185-.399-.277-.695-.277zm7.977 1.657c0 .735-.167 1.323-.501 1.762-.334.437-.783.655-1.345.655-.521 0-.939-.172-1.252-.514v2.254h-1.068v-6.583h.984l.044.483c.313-.38.74-.57 1.279-.57.58 0 1.034.216 1.362.65.331.43.497 1.03.497 1.797v.066zm-1.064-.092c0-.475-.095-.852-.285-1.13-.188-.278-.457-.417-.809-.417-.437 0-.75.18-.94.54v2.11c.193.369.509.553.949.553.34 0 .605-.136.795-.408.194-.276.29-.692.29-1.248zm6.944 2.421h-1.068v-1.92h-1.85v1.92h-1.068v-4.755h1.068v1.982h1.85v-1.982h1.068v4.755zm4.179.088c-.677 0-1.226-.212-1.648-.637-.419-.428-.628-.996-.628-1.705v-.132c0-.475.091-.898.272-1.27.185-.375.443-.667.774-.875.331-.208.7-.312 1.107-.312.648 0 1.147.207 1.499.62.354.413.531.997.531 1.753v.43h-3.107c.033.393.163.704.392.933.231.228.521.342.87.342.489 0 .887-.197 1.195-.593l.576.55a1.943 1.943 0 0 1-.765.663 2.39 2.39 0 0 1-1.068.233zm-.127-4.074a.905.905 0 0 0-.712.308c-.179.205-.293.49-.343.857h2.035v-.08c-.024-.357-.119-.626-.286-.808-.167-.185-.398-.277-.694-.277zm7.501.08h-1.542v3.906h-1.068v-3.907h-1.525v-.848h4.135v.848zm3.731 1.616h-2.307v-.86h2.307v.86zm5.859 2.29h-1.068v-3.894h-1.855v3.894h-1.068v-4.755h3.991v4.755zm1.881-2.421c0-.466.092-.885.276-1.257.185-.375.444-.662.778-.862a2.181 2.181 0 0 1 1.152-.303c.641 0 1.161.207 1.56.62.401.413.618.96.65 1.643l.004.25c0 .47-.09.889-.272 1.258a1.98 1.98 0 0 1-.773.857 2.198 2.198 0 0 1-1.161.303c-.67 0-1.208-.223-1.612-.668-.402-.448-.602-1.044-.602-1.789v-.052zm1.067.092c0 .49.102.873.304 1.151.202.276.483.413.843.413.361 0 .641-.14.84-.422.202-.28.303-.692.303-1.234 0-.48-.104-.862-.312-1.143a.984.984 0 0 0-.839-.422.979.979 0 0 0-.831.418c-.205.275-.308.688-.308 1.239zm9.365 0c0 .735-.167 1.323-.501 1.762-.334.437-.782.655-1.344.655-.522 0-.939-.172-1.253-.514v2.254h-1.068v-6.583h.985l.044.483c.313-.38.739-.57 1.278-.57.581 0 1.035.216 1.363.65.331.43.496 1.03.496 1.797v.066zm-1.063-.092c0-.475-.095-.852-.286-1.13-.187-.278-.457-.417-.808-.417-.437 0-.75.18-.941.54v2.11c.194.369.51.553.949.553.34 0 .605-.136.796-.408.193-.276.29-.692.29-1.248zm6.473-1.486h-1.542v3.907h-1.068v-3.907h-1.525v-.848h4.135v.848zm4.43 3.907a1.638 1.638 0 0 1-.123-.444c-.34.355-.756.532-1.248.532-.478 0-.867-.136-1.169-.409a1.307 1.307 0 0 1-.453-1.01c0-.507.188-.896.563-1.165.378-.273.917-.409 1.617-.409h.655v-.312c0-.246-.069-.442-.207-.589-.137-.15-.347-.224-.628-.224-.243 0-.442.062-.598.185a.56.56 0 0 0-.233.461h-1.068c0-.26.087-.504.26-.73.173-.228.407-.407.703-.535.299-.13.631-.194.997-.194.557 0 1.001.14 1.332.422.331.278.501.671.51 1.178v2.144c0 .428.06.77.18 1.024v.075h-1.09zm-1.173-.769c.211 0 .408-.051.593-.154.188-.102.328-.24.422-.413v-.896h-.576c-.395 0-.693.068-.892.206a.67.67 0 0 0-.299.585c0 .205.068.369.202.492.138.12.321.18.55.18zm8.187-3.986v4.755H186.3v-3.894h-1.345l-.088 1.657c-.055.797-.209 1.37-.461 1.718-.249.346-.631.519-1.147.519h-.33l-.004-.888.22-.022c.234-.032.404-.174.51-.426.108-.255.177-.718.206-1.389l.088-2.03h3.419zm5.287 3.903c.296-.332.494-.645.593-.941.103-.299.164-.68.185-1.142l.061-1.82h3.301v3.903h.659v2.267h-1.064V57.75h-3.05v1.415h-1.081l.005-2.267h.391zm1.252 0h1.824v-2.984h-1.2l-.03.91c-.041.872-.239 1.564-.594 2.074zm9.295-3.903v4.755h-1.068v-3.894h-1.345l-.088 1.657c-.055.797-.209 1.37-.461 1.718-.249.346-.631.519-1.147.519h-.33l-.004-.888.22-.022c.234-.032.404-.174.51-.426.108-.255.177-.718.206-1.389l.088-2.03h3.419zm5.889 0v4.755h-1.064v-1.745h-.997l-1.015 1.745h-1.108l1.121-1.92a1.506 1.506 0 0 1-.677-.528 1.368 1.368 0 0 1-.233-.786c0-.443.17-.805.51-1.086.343-.284.804-.429 1.384-.435h2.079zm-2.905 1.547c0 .2.073.362.22.488.149.123.34.184.571.184h1.05v-1.37h-.984c-.261 0-.469.065-.624.197a.63.63 0 0 0-.233.501zm11.189-1.547h1.063v4.755h-1.063v-3.173l-1.863 3.173h-1.064v-4.755h1.064v3.173l1.863-3.173zm7.172 4.755h-1.068v-1.92h-1.85v1.92h-1.068v-4.755h1.068v1.982h1.85v-1.982h1.068v4.755zm2.167 0v-4.755h1.929c.65 0 1.145.114 1.485.343.34.225.51.55.51.975 0 .22-.069.418-.207.594-.134.173-.335.306-.602.4.311.064.557.194.739.39a.99.99 0 0 1 .272.695c0 .442-.164.78-.492 1.01-.325.232-.794.348-1.406.348h-2.228zm1.067-2.026v1.182h1.169c.548 0 .822-.196.822-.589 0-.395-.278-.593-.835-.593h-1.156zm0-.764h.879c.607 0 .91-.18.91-.537 0-.375-.287-.568-.861-.58h-.928v1.116zm7.77 2.79a1.638 1.638 0 0 1-.123-.444c-.34.355-.756.532-1.248.532-.477 0-.867-.136-1.169-.409a1.307 1.307 0 0 1-.453-1.01c0-.507.188-.896.563-1.165.378-.273.917-.409 1.617-.409h.655v-.312c0-.246-.069-.442-.207-.589-.137-.15-.347-.224-.628-.224-.243 0-.442.062-.598.185a.56.56 0 0 0-.233.461h-1.067c0-.26.086-.504.259-.73.173-.228.407-.407.703-.535.299-.13.631-.194.998-.194.556 0 1 .14 1.331.422.331.278.501.671.51 1.178v2.144c0 .428.06.77.18 1.024v.075h-1.09zm-1.173-.769a1.2 1.2 0 0 0 .593-.154c.188-.102.328-.24.422-.413v-.896h-.576c-.395 0-.693.068-.892.206a.67.67 0 0 0-.299.585c0 .205.068.369.203.492.137.12.32.18.549.18zm8.187-3.986v4.755h-1.068v-3.894h-1.345l-.087 1.657c-.056.797-.21 1.37-.462 1.718-.249.346-.631.519-1.147.519h-.329l-.005-.888.22-.022c.234-.032.404-.174.51-.426.108-.255.177-.718.206-1.389l.088-2.03h3.419zm5.05 0h1.063v4.755h-1.063v-3.173l-1.864 3.173h-1.063v-4.755h1.063v3.173l1.864-3.173zm3.164 3.903c.296-.332.493-.645.593-.941.103-.299.164-.68.185-1.142l.061-1.82h3.3v3.903h.66v2.267h-1.064V57.75h-3.05v1.415h-1.081l.005-2.267h.391zm1.252 0h1.824v-2.984h-1.2l-.031.91c-.041.872-.238 1.564-.593 2.074zm5.054-1.57c0-.465.092-.884.277-1.256.184-.375.444-.662.778-.862a2.18 2.18 0 0 1 1.151-.303c.642 0 1.162.207 1.56.62.402.413.618.96.651 1.643l.004.25c0 .47-.091.889-.273 1.258-.178.369-.436.655-.773.857a2.197 2.197 0 0 1-1.16.303c-.671 0-1.209-.223-1.613-.668-.401-.448-.602-1.044-.602-1.789v-.052zm1.068.093c0 .49.101.873.303 1.151.202.276.484.413.844.413s.64-.14.839-.422c.202-.28.303-.692.303-1.234 0-.48-.104-.862-.312-1.143a.982.982 0 0 0-.839-.422.977.977 0 0 0-.83.418c-.206.275-.308.688-.308 1.239zm5.282 2.329v-4.755h1.93c.65 0 1.145.114 1.485.343.34.225.51.55.51.975 0 .22-.069.418-.207.594-.135.173-.335.306-.602.4.311.064.557.194.738.39a.987.987 0 0 1 .273.695c0 .442-.164.78-.492 1.01-.326.232-.794.348-1.407.348h-2.228zm1.068-2.026v1.182h1.169c.548 0 .822-.196.822-.589 0-.395-.278-.593-.835-.593h-1.156zm0-.764h.879c.607 0 .91-.18.91-.537 0-.375-.287-.568-.862-.58h-.927v1.116zM.264 19.128h10.844c2.138 0 3.862.29 5.172.87 1.322.58 2.412 1.413 3.271 2.498.86 1.085 1.483 2.347 1.87 3.786.386 1.44.58 2.965.58 4.576 0 2.525-.29 4.485-.87 5.882-.57 1.386-1.365 2.551-2.385 3.496-1.02.935-2.117 1.558-3.287 1.87-1.601.43-3.051.644-4.351.644H.264V19.128zm7.299 5.35v12.906h1.789c1.525 0 2.61-.166 3.254-.5.645-.343 1.15-.934 1.515-1.772.365-.848.548-2.218.548-4.109 0-2.503-.408-4.216-1.225-5.14-.816-.924-2.17-1.386-4.06-1.386H7.563zm23.045-5.35h6.558v4.463h-6.558v-4.463zm0 6.51h6.558V42.75h-6.558V25.638zm14.538 12.375l6.51-.613c.268.774.644 1.327 1.127 1.66.484.333 1.128.5 1.934.5.88 0 1.563-.188 2.046-.564.376-.28.564-.629.564-1.048 0-.472-.247-.838-.741-1.096-.355-.182-1.294-.408-2.82-.676-2.277-.398-3.862-.763-4.753-1.096-.881-.344-1.628-.918-2.24-1.724a4.486 4.486 0 0 1-.902-2.755c0-1.128.327-2.1.983-2.917.655-.816 1.557-1.423 2.707-1.82 1.15-.409 2.69-.613 4.624-.613 2.041 0 3.545.156 4.512.467.977.312 1.788.795 2.433 1.45.655.656 1.198 1.542 1.627 2.66l-6.22.611c-.16-.547-.429-.95-.805-1.208-.516-.344-1.139-.516-1.87-.516-.74 0-1.283.135-1.627.403-.333.258-.5.575-.5.95 0 .42.216.737.645.951.43.215 1.365.409 2.804.58 2.18.248 3.803.591 4.866 1.032 1.064.44 1.875 1.069 2.434 1.885.569.817.853 1.714.853 2.691 0 .988-.3 1.95-.902 2.884-.59.935-1.53 1.681-2.82 2.24-1.278.548-3.024.822-5.236.822-3.127 0-5.355-.446-6.688-1.338-1.32-.891-2.17-2.159-2.545-3.802zm32.262-6.832l-6.269-.661c.237-1.096.575-1.955 1.016-2.578.45-.634 1.095-1.182 1.933-1.644.602-.333 1.429-.59 2.482-.773a20.012 20.012 0 0 1 3.416-.274c1.966 0 3.545.113 4.737.338 1.192.215 2.186.672 2.981 1.37.559.483.999 1.17 1.321 2.063.323.88.484 1.724.484 2.53v7.556c0 .806.048 1.44.145 1.902.107.45.333 1.031.677 1.74h-6.156c-.247-.44-.408-.773-.483-.999-.075-.236-.15-.602-.226-1.096-.86.827-1.713 1.418-2.562 1.773-1.16.472-2.508.709-4.044.709-2.041 0-3.594-.473-4.657-1.418-1.053-.946-1.58-2.111-1.58-3.497 0-1.3.382-2.369 1.145-3.206.763-.838 2.17-1.461 4.222-1.87 2.46-.494 4.055-.837 4.785-1.03.73-.205 1.504-.468 2.32-.79 0-.806-.166-1.37-.499-1.692-.333-.323-.918-.484-1.756-.484-1.075 0-1.88.172-2.417.516-.42.269-.758.773-1.015 1.515zm5.688 3.448a30.87 30.87 0 0 1-2.82.854c-1.332.354-2.175.704-2.53 1.047-.365.355-.548.758-.548 1.209 0 .515.177.94.532 1.273.365.322.897.483 1.595.483.73 0 1.407-.177 2.03-.532.634-.354 1.08-.784 1.338-1.289.268-.515.403-1.181.403-1.998V34.63zm15.327-15.501h6.622v8.186a6.501 6.501 0 0 1 2.224-1.547c.838-.344 1.761-.516 2.771-.516 2.084 0 3.808.752 5.173 2.256 1.364 1.493 2.046 3.641 2.046 6.445 0 1.87-.312 3.518-.935 4.947-.623 1.418-1.487 2.481-2.594 3.19-1.096.699-2.315 1.048-3.658 1.048-1.149 0-2.202-.247-3.158-.742-.719-.386-1.504-1.111-2.352-2.175v2.53h-6.14V19.128zm6.574 15.017c0 1.472.274 2.541.822 3.207.558.655 1.262.983 2.11.983.785 0 1.44-.322 1.966-.967.537-.655.806-1.75.806-3.287 0-1.354-.263-2.347-.79-2.98-.515-.635-1.144-.952-1.885-.952-.892 0-1.622.333-2.191 1-.559.655-.838 1.654-.838 2.996zm20.596-15.017h6.558v4.463h-6.558v-4.463zm0 6.51h6.558V42.75h-6.558V25.638zm15.923-6.51h6.574V42.75h-6.574V19.128zm15.955 0h6.558v4.463h-6.558v-4.463zm0 6.51h6.558V42.75h-6.558V25.638zm23.609-6.51v6.51h3.61v4.785h-3.61v6.075c0 .73.07 1.214.21 1.45.215.365.591.548 1.128.548.483 0 1.16-.14 2.03-.419l.484 4.528c-1.623.355-3.137.532-4.544.532-1.633 0-2.836-.21-3.61-.629-.773-.419-1.348-1.052-1.724-1.901-.365-.86-.548-2.245-.548-4.157v-6.027h-2.417v-4.785h2.417v-3.142l6.574-3.368zm9.801 6.51h6.928l3.529 11.392 3.271-11.392h6.462l-6.784 18.288c-.774 2.084-1.563 3.491-2.369 4.222-1.139 1.031-2.873 1.547-5.204 1.547-.946 0-2.407-.13-4.383-.387l-.516-4.576c.945.3 1.998.451 3.158.451.774 0 1.397-.177 1.869-.532.484-.354.892-.988 1.225-1.901l-7.186-17.112zm23.411 10.538h7.009v6.574h-7.009v-6.574zm15.987-10.538h6.14v2.803c.59-1.213 1.197-2.046 1.82-2.497.634-.462 1.413-.693 2.337-.693.967 0 2.025.3 3.174.902l-2.03 4.673c-.774-.322-1.386-.483-1.837-.483-.859 0-1.525.354-1.998 1.063-.677 1-1.015 2.868-1.015 5.608v5.736h-6.591V25.638zm37.58 17.112h-6.123v-2.772c-.913 1.14-1.837 1.95-2.772 2.434-.923.483-2.062.725-3.416.725-1.804 0-3.222-.537-4.254-1.612-1.02-1.085-1.53-2.75-1.53-4.995V25.638h6.59v9.41c0 1.074.199 1.837.596 2.288.398.451.956.677 1.676.677.784 0 1.423-.301 1.917-.903.505-.601.758-1.68.758-3.238v-8.234h6.558V42.75z" fill="#DADADA"/><path d="M5.43 2.213c-.561 1.188-1.204 2.7-1.93 4.537-.727 1.826-1.2 3.152-1.42 3.977-.143.495-.247.792-.313.891-.055.088-.121.132-.198.132-.242 0-.539-.116-.891-.347-.352-.23-.523-.467-.512-.709 0-.308.363-1.403 1.09-3.284a137.757 137.757 0 0 1 2.062-5.098c-.924.088-1.413.132-1.469.132h-.148a.6.6 0 0 1-.528-.264c-.121-.176-.181-.49-.181-.94 0-.21.181-.375.544-.496.363-.132 1.227-.258 2.59-.379.154-.011.43-.028.825-.05.408-.022.732-.049.974-.082.198-.011.308-.017.33-.017A.146.146 0 0 0 6.321.2c.429.011.792.148 1.089.412.308.264.462.556.462.875a.531.531 0 0 1-.165.38c-.099.077-.313.115-.643.115-.276.011-.55.033-.825.066a5.554 5.554 0 0 0-.809.165zm2.247 4.851c.077-.275.154-.517.231-.726.077-.22.231-.61.462-1.171.341-.87.561-1.364.66-1.485.11-.121.226-.182.347-.182.01 0 .016.006.016.017l.644.247c.22.099.352.176.396.231a.252.252 0 0 1 .082.181c0 .011-.11.259-.33.743a25.537 25.537 0 0 0-.726 1.964 5.34 5.34 0 0 1 .446-.083c.154-.022.324-.033.511-.033.495 0 .93.204 1.304.61.385.397.583.809.594 1.238 0 .682-.446 1.375-1.337 2.079-.88.704-1.782 1.056-2.706 1.056-.45 0-.841-.132-1.171-.396-.33-.275-.495-.572-.495-.891 0-.154.044-.401.132-.742.088-.353.17-.627.247-.825a.569.569 0 0 1-.165.082c-.033.011-.137-.204-.313-.643-.088-.21-.127-.358-.116-.446a.399.399 0 0 1 .149-.248c.044-.043.099-.088.165-.131.077-.045.401-.193.973-.446zm1.287 1.402c-.363.914-.55 1.392-.56 1.436v.116c-.012.098.01.17.065.214.055.044.138.066.248.066.33 0 .715-.176 1.155-.528.45-.352.682-.688.693-1.006 0-.121-.06-.226-.182-.314-.11-.099-.264-.154-.462-.165-.099 0-.242.022-.429.066a6.302 6.302 0 0 0-.528.115zm4.703 3.614c-.077 0-.182-.055-.314-.165a1.441 1.441 0 0 0-.313-.214l-.512-.264c-.253-.121-.335-.43-.247-.925.088-.495.544-1.716 1.37-3.663.505-1.199.907-2.051 1.204-2.557.308-.517.555-.781.742-.792.044 0 .083.011.116.033.044.011.187.17.429.478l.23.314a.556.556 0 0 1 .1.313c0 .11-.187.54-.561 1.288-.352.704-.715 1.595-1.09 2.672a28.617 28.617 0 0 0-.84 2.97c-.056.199-.105.33-.15.396-.043.077-.098.116-.164.116zm17.83-5.23h-.1a23.85 23.85 0 0 0-2.16 3.168c-.66 1.154-1.084 1.732-1.271 1.732-.187 0-.407-.066-.66-.198-.242-.143-.358-.335-.347-.577 0-.176.083-.677.248-1.502.176-.825.27-1.7.28-2.624a34.514 34.514 0 0 1-2.31 3.515c-.847 1.133-1.413 1.705-1.7 1.716-.12 0-.302-.116-.544-.347-.253-.23-.38-.418-.38-.56 0-.066.034-.16.1-.281.066-.132.154-.286.264-.462.407-.616 1.083-1.496 2.03-2.64a30.001 30.001 0 0 0 2.672-3.877c.1-.165.176-.275.231-.33a.252.252 0 0 1 .182-.083c.297 0 .588.138.874.413.297.264.451.539.462.825 0 .065-.005.142-.016.23-.011.088-.11.968-.297 2.64.88-1.407 1.567-2.441 2.062-3.101.495-.66.853-.996 1.073-1.007h.033l.676.478c.242.187.38.32.413.397a.51.51 0 0 1 .05.23c0 .143-.023.369-.067.677-.033.297-.104.82-.214 1.567a54.762 54.762 0 0 0-.363 2.905 91.348 91.348 0 0 1-.165 1.88c-.022.176-.066.292-.132.347a.266.266 0 0 1-.215.099c-.099 0-.242-.05-.429-.149a2.692 2.692 0 0 0-.594-.197c-.209-.044-.34-.105-.396-.182a.499.499 0 0 1-.082-.297c0-.308.066-.858.198-1.65.132-.792.33-1.71.594-2.756zm8.992-2.112c.54.142.919.351 1.139.626.23.264.346.671.346 1.221-.01 1.112-.484 2.25-1.419 3.416s-1.914 1.749-2.937 1.749c-.594 0-1.094-.258-1.501-.775-.407-.518-.61-1.166-.61-1.947 0-.815.269-1.667.808-2.558.539-.902 1.314-1.7 2.326-2.393a8.08 8.08 0 0 1 .677-.412c.187-.11.335-.165.445-.165.132 0 .259.104.38.313.12.21.236.517.346.924zm-.528.478c-.77.297-1.419.891-1.947 1.782s-.792 1.754-.792 2.59c0 .254.05.452.149.595a.448.448 0 0 0 .412.181c.473 0 1.018-.5 1.634-1.502.616-1.011.924-1.87.924-2.574a1.884 1.884 0 0 0-.116-.61 1.396 1.396 0 0 0-.264-.462zm10.026 2.723h-.181l-.33.775-.627 2.541c-.055.198-.115.33-.181.396-.066.066-.16.099-.281.099a.74.74 0 0 1-.198-.033 18.54 18.54 0 0 1-.528-.198c-.264-.088-.429-.187-.495-.297-.066-.11-.099-.313-.099-.61 0-.165.083-.468.248-.908.175-.451.45-1.04.825-1.766h-.166c-1.121 1.353-2.018 2.355-2.689 3.003-.66.65-1.094.974-1.303.974-.078 0-.193-.077-.347-.231a16.291 16.291 0 0 0-.313-.33c-.232-.187-.375-.319-.43-.396a.356.356 0 0 1-.099-.231c0-.033.028-.072.083-.116.055-.055.17-.159.346-.313a27.3 27.3 0 0 0 2.112-1.799c.65-.605 1.155-1.144 1.518-1.617-.34-.406-.67-.88-.99-1.418-.308-.54-.462-.93-.462-1.172 0-.077.023-.143.067-.198.044-.066.137-.127.28-.182l.578-.23c.274-.11.423-.155.445-.132.022.01.05.038.082.082.056.055.122.148.199.28.076.122.159.259.247.413.297.572.539.99.726 1.254.198.253.423.49.676.71.1-.242.198-.479.297-.71.1-.242.281-.699.545-1.37.099-.274.192-.461.28-.56a.475.475 0 0 1 .347-.149c.209.011.44.104.693.28.253.177.385.342.396.496-.011.143-.072.373-.181.692-.11.309-.325.825-.644 1.551h.099l1.238-.775c.505-.319 1.017-.753 1.534-1.303.517-.561.792-.842.825-.842.099.011.242.176.429.495.198.319.297.561.297.726 0 .308-.341.753-1.023 1.337a14.873 14.873 0 0 1-2.294 1.6c.419 1.122.787 1.991 1.106 2.607.319.605.484.891.495.858 0 .099-.06.198-.181.297a1.735 1.735 0 0 1-.495.231c-.66.22-.974.33-.941.33h.066c-.22-.011-.456-.325-.71-.94-.242-.617-.538-1.684-.89-3.202zm7.964.082a7.564 7.564 0 0 0-.28.759c-.056.22-.083.407-.083.561 0 .308.066.534.198.677.143.143.346.214.61.214.231 0 .5-.033.809-.099a5.37 5.37 0 0 0 .808-.264 7.46 7.46 0 0 0 .594-.297c.187-.099.303-.148.347-.148.033 0 .06.021.082.066a.22.22 0 0 1 .05.131c0 .386-.033.671-.1.858-.054.177-.214.341-.478.496-.495.296-.946.5-1.353.61-.396.11-.786.165-1.171.165-.66 0-1.183-.198-1.568-.594-.385-.396-.572-.924-.56-1.584 0-1.386.566-2.739 1.699-4.059 1.133-1.331 2.178-2.002 3.135-2.013.473.011.907.204 1.303.577.396.375.594.831.594 1.37 0 .792-.423 1.579-1.27 2.36-.836.77-1.53 1.149-2.08 1.138-.23 0-.461-.082-.692-.248a2.108 2.108 0 0 1-.594-.676zm.313-.693c.627.022 1.216-.17 1.766-.578.56-.418.847-.857.858-1.32a.507.507 0 0 0-.116-.346.33.33 0 0 0-.28-.132c-.341 0-.737.242-1.188.726a5.32 5.32 0 0 0-1.04 1.65zm9.203 1.766c.34-1.474.715-2.772 1.122-3.894.418-1.123.764-1.689 1.04-1.7.021 0 .043.006.065.017.033.01.242.159.627.445.242.198.374.33.396.396a.513.513 0 0 1 .066.182 1.526 1.526 0 0 1-.05.181c-.01.066-.131.352-.362.858-.21.451-.473 1.15-.792 2.096-.308.946-.462 1.54-.462 1.782 0 .11.016.186.05.23.032.045.093.067.18.067.144 0 .347-.083.611-.248.264-.176.567-.429.908-.759.55-1.76 1.017-3.074 1.402-3.944.385-.869.671-1.303.858-1.303.154.011.374.176.66.495.297.308.446.561.446.759 0 .253-.198.803-.594 1.65-.385.836-.72 1.71-1.007 2.623-.594 1.882-.918 2.86-.973 2.938-.055.076-.11.115-.165.115-.154 0-.385-.11-.693-.33-.308-.231-.457-.407-.446-.528 0-.077.011-.181.033-.313a2.05 2.05 0 0 1 .1-.33c-.44.373-.837.665-1.189.874-.352.198-.643.297-.874.297-.21 0-.413-.104-.61-.313-.199-.21-.358-.501-.48-.875-.45.418-.84.72-1.17.908-.33.186-.606.28-.826.28-.352 0-.654-.22-.907-.66a2.861 2.861 0 0 1-.38-1.452c0-.385.083-.896.248-1.534.165-.65.434-1.474.808-2.475.297-.803.534-1.353.71-1.65.176-.308.33-.468.462-.479a.27.27 0 0 1 .066.017c.033.01.23.137.594.379.23.165.374.286.429.363a.396.396 0 0 1 .082.231.405.405 0 0 1-.033.148c-.01.045-.264.633-.759 1.766a20.274 20.274 0 0 0-.71 1.749c-.153.484-.23.847-.23 1.089 0 .154.027.275.082.363a.273.273 0 0 0 .248.132c.143.011.352-.05.627-.181a6.81 6.81 0 0 0 .792-.462zm9.053-2.03c.077-.275.154-.517.231-.726.077-.22.231-.61.462-1.171.341-.87.561-1.364.66-1.485.11-.121.226-.182.347-.182.01 0 .016.006.016.017l.644.247c.22.099.352.176.396.231a.252.252 0 0 1 .082.181c0 .011-.11.259-.33.743a25.541 25.541 0 0 0-.726 1.964 5.34 5.34 0 0 1 .446-.083c.154-.022.324-.033.511-.033.495 0 .93.204 1.304.61.385.397.583.809.594 1.238 0 .682-.446 1.375-1.337 2.079-.88.704-1.782 1.056-2.706 1.056-.45 0-.841-.132-1.171-.396-.33-.275-.495-.572-.495-.891 0-.154.044-.401.132-.742.088-.353.17-.627.247-.825a.569.569 0 0 1-.165.082c-.033.011-.137-.204-.313-.643-.088-.21-.127-.358-.116-.446a.399.399 0 0 1 .149-.248c.044-.043.099-.088.165-.131.077-.045.401-.193.973-.446zm1.287 1.402c-.363.914-.55 1.392-.56 1.436v.116c-.012.098.01.17.065.214.055.044.138.066.248.066.33 0 .715-.176 1.155-.528.45-.352.682-.688.693-1.006 0-.121-.06-.226-.182-.314-.11-.099-.264-.154-.462-.165-.099 0-.242.022-.429.066a6.302 6.302 0 0 0-.528.115zm16.784-1.055c.176.242.32.517.43.825.12.307.18.593.18.857 0 .639-.313 1.243-.94 1.816-.616.56-1.303.841-2.062.841-.748 0-1.375-.226-1.881-.677-.506-.45-.754-1.028-.743-1.732-.01-1.199.49-2.47 1.502-3.811C92.1 4.186 93.249 3.51 94.525 3.5c.473 0 .891.143 1.254.429.374.275.561.632.561 1.073-.01.462-.17.913-.478 1.353-.297.428-.72.78-1.27 1.055zm-2.128-.974c.605-.044 1.116-.231 1.534-.561.418-.341.627-.666.627-.974 0-.066-.022-.115-.066-.148-.044-.044-.11-.066-.198-.066-.286 0-.616.176-.99.528a4.31 4.31 0 0 0-.907 1.221zm-.495.858c-.22.385-.39.742-.512 1.072-.11.33-.165.611-.165.842-.01.286.066.517.231.693.176.176.413.259.71.248.34.01.627-.11.858-.364.242-.263.368-.555.38-.874 0-.165-.028-.319-.083-.462a1.215 1.215 0 0 0-.248-.412 1.698 1.698 0 0 1-.264.098c-.11.023-.181.034-.214.034a.318.318 0 0 1-.165-.05c-.044-.044-.22-.319-.528-.825zm7.704 1.914c0 .264.071.479.214.643.143.155.336.232.578.232.187 0 .39-.028.61-.083a2.77 2.77 0 0 0 .611-.264c.605-.341.907-.506.907-.495l.017-.017a.17.17 0 0 1 .165.1c.044.066.066.17.066.313 0 .462-.127.825-.38 1.089-.253.253-.66.49-1.221.71a4.162 4.162 0 0 1-.742.247 2.415 2.415 0 0 1-.512.066c-.616 0-1.133-.22-1.55-.66-.408-.44-.611-1.062-.611-1.864-.011-1.21.506-2.465 1.55-3.763 1.046-1.298 2.135-1.952 3.268-1.963.473 0 .847.132 1.122.396.286.264.429.644.429 1.139 0 .373-.138.704-.413.99-.275.274-.583.412-.924.412-.143 0-.253-.038-.33-.115-.077-.088-.115-.22-.115-.396 0-.045.005-.122.016-.232.011-.11.017-.192.017-.247a.427.427 0 0 0-.083-.28c-.055-.077-.121-.116-.198-.116-.308 0-.803.484-1.485 1.452-.671.957-1.006 1.859-1.006 2.706zm7.932-1.188a7.549 7.549 0 0 0-.28.759c-.055.22-.083.407-.083.561 0 .308.066.534.198.677.143.143.347.214.611.214.231 0 .5-.033.808-.099.308-.077.578-.165.809-.264a7.46 7.46 0 0 0 .594-.297c.187-.099.302-.148.346-.148.033 0 .061.021.083.066a.219.219 0 0 1 .049.131c0 .386-.033.671-.099.858-.055.177-.214.341-.478.496-.495.296-.946.5-1.353.61-.396.11-.787.165-1.172.165-.66 0-1.182-.198-1.567-.594-.385-.396-.572-.924-.561-1.584 0-1.386.566-2.739 1.699-4.059 1.133-1.331 2.178-2.002 3.135-2.013.473.011.908.204 1.304.577.396.375.594.831.594 1.37 0 .792-.424 1.579-1.271 2.36-.836.77-1.529 1.149-2.079 1.138-.231 0-.462-.082-.693-.248a2.108 2.108 0 0 1-.594-.676zm.314-.693c.627.022 1.215-.17 1.765-.578.561-.418.847-.857.858-1.32a.507.507 0 0 0-.115-.346.33.33 0 0 0-.281-.132c-.341 0-.737.242-1.188.726a5.318 5.318 0 0 0-1.039 1.65zm1.666-7.805c.165.011.385.154.66.43.286.274.429.511.429.709 0 .231-.143.566-.429 1.006-.275.44-.495.66-.66.66-.165 0-.379-.131-.643-.395s-.396-.512-.396-.743c-.011-.231.11-.566.363-1.007.264-.44.489-.66.676-.66zm2.838 0c.176.011.396.154.66.43.264.263.402.5.413.709 0 .231-.143.566-.429 1.006-.275.44-.495.66-.66.66-.165 0-.38-.131-.644-.395s-.396-.512-.396-.743c0-.264.132-.605.396-1.023.275-.429.495-.644.66-.644zm8.645 2.146a.663.663 0 0 1-.066.264 2.772 2.772 0 0 1-.182.395c-.528.99-1.001 1.931-1.419 2.822-.407.891-.852 1.98-1.336 3.267a.725.725 0 0 1-.182.297.378.378 0 0 1-.214.066c-.143.011-.358-.137-.644-.445-.286-.32-.429-.55-.429-.694 0-.12.066-.368.198-.742.132-.385.561-1.463 1.287-3.234.77-1.881 1.205-2.882 1.304-3.003.11-.132.231-.204.363-.215.154 0 .412.171.775.512.363.341.545.578.545.71zm-3.63 9.041a.543.543 0 0 1-.033.165 2.03 2.03 0 0 1-.116.314c-.11.264-.192.473-.247.627a1.568 1.568 0 0 0-.066.429c-.011.154-.039.248-.083.28-.033.034-.088.05-.165.05-.33 0-.682-.132-1.056-.396-.363-.264-.544-.561-.544-.891 0-.286.093-.622.28-1.007.187-.385.396-.577.627-.577.209 0 .495.115.858.346.363.231.545.451.545.66z" fill="#6FCF97"/></g><defs><clipPath id="clip0"><path fill="#fff" d="M0 0h270v60H0z"/></clipPath></defs></svg>