<svg width="213" height="45" viewBox="0 0 213 45" fill="none" xmlns="http://www.w3.org/2000/svg"><path d="M5.418 43.475h-.814v-2.97H3.189v2.97h-.814v-3.627h3.043v3.627zm3.185.067c-.516 0-.935-.162-1.257-.486-.32-.327-.48-.76-.48-1.3v-.101c0-.362.07-.685.208-.969.141-.286.338-.508.59-.667.253-.159.534-.238.845-.238.494 0 .875.157 1.143.473.27.315.405.76.405 1.337v.328h-2.37c.025.3.125.537.299.711a.906.906 0 0 0 .664.261c.373 0 .677-.15.911-.452l.44.419c-.146.217-.34.385-.584.506a1.824 1.824 0 0 1-.814.178zm-.098-3.107a.691.691 0 0 0-.543.234c-.136.157-.223.375-.26.654h1.55v-.06c-.017-.273-.09-.479-.217-.617-.127-.141-.304-.211-.53-.211zm6.084 1.263c0 .561-.127 1.01-.382 1.344-.255.333-.597.5-1.026.5-.397 0-.716-.131-.955-.392v1.719h-.814v-5.021h.75l.034.369c.239-.29.564-.436.975-.436.443 0 .79.165 1.04.496.252.328.378.785.378 1.37v.051zm-.811-.07c0-.362-.073-.65-.218-.862a.699.699 0 0 0-.617-.318c-.332 0-.572.137-.717.412v1.609c.148.282.389.422.724.422a.7.7 0 0 0 .607-.311c.147-.21.22-.528.22-.952zm2.286 1.847v-3.627h1.471c.497 0 .874.087 1.133.261a.84.84 0 0 1 .39.744.715.715 0 0 1-.158.453.972.972 0 0 1-.46.305c.237.05.425.149.563.298.139.15.208.327.208.53 0 .337-.125.594-.375.77-.248.177-.606.266-1.073.266h-1.699zm.814-1.546v.902h.892c.418 0 .627-.15.627-.449 0-.302-.212-.453-.637-.453h-.882zm0-.583h.67c.463 0 .695-.136.695-.409 0-.286-.22-.433-.657-.442h-.708v.851zm4.636-.345h.798c.297 0 .556.051.777.154.222.103.39.247.503.433.116.185.175.4.175.646 0 .374-.132.673-.396.899-.264.225-.614.34-1.052.342h-1.62v-3.627h.815v1.153zm3.67 2.474h-.814v-3.627h.814v3.627zm-3.67-1.82v1.17h.794c.2 0 .356-.05.47-.148a.533.533 0 0 0 .174-.426.56.56 0 0 0-.17-.432.642.642 0 0 0-.457-.164h-.81zm7.632-1.807h.811v3.627h-.81v-2.42l-1.422 2.42h-.811v-3.627h.811v2.42l1.421-2.42zm.382-1.391a.87.87 0 0 1-.295.684c-.196.174-.459.261-.787.261-.329 0-.591-.087-.788-.261a.87.87 0 0 1-.295-.684h.61c0 .148.041.263.124.345.085.08.201.12.349.12.147 0 .262-.04.345-.12a.467.467 0 0 0 .124-.345h.613zm7.623 3.241c0 .561-.128 1.01-.383 1.344-.254.333-.596.5-1.025.5-.398 0-.716-.131-.956-.392v1.719h-.814v-5.021h.75l.034.369c.24-.29.565-.436.976-.436.442 0 .789.165 1.039.496.252.328.379.785.379 1.37v.051zm-.812-.07c0-.362-.072-.65-.218-.862a.699.699 0 0 0-.616-.318c-.333 0-.572.137-.718.412v1.609c.148.282.39.422.724.422.26 0 .462-.103.607-.311.148-.21.221-.528.221-.952zm2.072 0c0-.355.07-.675.211-.959a1.53 1.53 0 0 1 .593-.657c.255-.154.548-.231.878-.231.49 0 .886.157 1.19.473.306.315.472.733.496 1.253l.004.191c0 .358-.07.677-.208.959a1.51 1.51 0 0 1-.59.653c-.255.154-.55.232-.885.232-.512 0-.922-.17-1.23-.51-.306-.342-.46-.796-.46-1.364v-.04zm.814.07c0 .373.077.666.232.878.154.21.368.315.643.315a.74.74 0 0 0 .64-.321c.154-.215.232-.529.232-.942 0-.367-.08-.657-.238-.872a.75.75 0 0 0-.64-.321.746.746 0 0 0-.634.318c-.156.21-.235.525-.235.945zm5.457 1.193c.203 0 .372-.059.506-.177a.607.607 0 0 0 .215-.44h.767c-.009.226-.079.438-.21.634a1.39 1.39 0 0 1-.537.463c-.226.114-.47.17-.73.17-.508 0-.91-.164-1.207-.492-.298-.329-.446-.782-.446-1.36v-.085c0-.552.147-.993.442-1.324.295-.333.697-.5 1.207-.5.431 0 .782.127 1.052.38.273.25.416.58.43.989h-.768a.743.743 0 0 0-.215-.513.68.68 0 0 0-.506-.201c-.264 0-.467.096-.61.288-.143.19-.216.48-.218.868v.13c0 .394.07.688.211.882.143.192.349.288.617.288zm4.314 0c.203 0 .372-.059.506-.177a.606.606 0 0 0 .215-.44h.767c-.009.226-.08.438-.211.634a1.39 1.39 0 0 1-.536.463c-.226.114-.47.17-.731.17-.507 0-.91-.164-1.207-.492-.297-.329-.445-.782-.445-1.36v-.085c0-.552.147-.993.442-1.324.295-.333.697-.5 1.207-.5.431 0 .782.127 1.052.38.273.25.416.58.43.989h-.768a.742.742 0 0 0-.215-.513.68.68 0 0 0-.506-.201c-.264 0-.467.096-.61.288-.143.19-.216.48-.218.868v.13c0 .394.07.688.211.882.143.192.349.288.617.288zm5.088-3.043h.811v3.627h-.81v-2.42l-1.422 2.42h-.811v-3.627h.811v2.42l1.421-2.42zm4.662 0h.812v3.627h-.812v-2.42l-1.42 2.42h-.812v-3.627h.811v2.42l1.421-2.42zm.383-1.391a.87.87 0 0 1-.295.684c-.197.174-.46.261-.788.261s-.591-.087-.788-.261a.87.87 0 0 1-.295-.684h.61c0 .148.042.263.124.345.085.08.201.12.349.12.148 0 .263-.04.345-.12a.467.467 0 0 0 .124-.345h.614zm3.506 4.434c.203 0 .372-.059.506-.177a.607.607 0 0 0 .214-.44h.768c-.009.226-.08.438-.211.634a1.39 1.39 0 0 1-.537.463c-.225.114-.469.17-.73.17-.508 0-.91-.164-1.207-.492-.297-.329-.446-.782-.446-1.36v-.085c0-.552.148-.993.443-1.324.295-.333.697-.5 1.206-.5.432 0 .782.127 1.053.38.272.25.415.58.429.989h-.768a.743.743 0 0 0-.214-.513.68.68 0 0 0-.506-.201c-.264 0-.467.096-.61.288-.143.19-.216.48-.218.868v.13c0 .394.07.688.21.882.144.192.35.288.618.288zm4.112-.851h-.412v1.435h-.814v-3.627h.814v1.448h.359l1.002-1.448h1.005l-1.31 1.736 1.421 1.89h-1.059l-1.006-1.434zm5.498-2.192h.81v3.627h-.81v-2.42l-1.422 2.42h-.81v-3.627h.81v2.42l1.422-2.42zm4.662 0h.811v3.627h-.811v-2.42l-1.421 2.42h-.811v-3.627h.81v2.42l1.422-2.42zm.382-1.391c0 .282-.099.51-.295.684-.197.174-.459.261-.788.261-.328 0-.59-.087-.787-.261a.87.87 0 0 1-.295-.684h.61c0 .148.041.263.124.345.085.08.2.12.348.12.148 0 .263-.04.346-.12a.468.468 0 0 0 .123-.345h.614zm6.71 1.391h.812v3.627H84v-2.42l-1.422 2.42h-.81v-3.627h.81v2.42L84 39.848zm5.471 3.627h-.815V42.01h-1.41v1.465h-.815v-3.627h.814v1.512h1.411v-1.512h.815v3.627zm4.444-2.98h-1.177v2.98h-.813v-2.98H90.76v-.647h3.154v.647zm2.648 3.047c-.516 0-.935-.162-1.257-.486-.32-.327-.48-.76-.48-1.3v-.101c0-.362.07-.685.209-.969a1.6 1.6 0 0 1 .59-.667c.252-.159.534-.238.845-.238.493 0 .875.157 1.142.473.271.315.406.76.406 1.337v.328h-2.37c.025.3.124.537.298.711a.908.908 0 0 0 .664.261c.374 0 .677-.15.912-.452l.439.419c-.145.217-.34.385-.583.506a1.826 1.826 0 0 1-.814.178zm-.097-3.107a.691.691 0 0 0-.543.234c-.136.157-.224.375-.261.654h1.551v-.06c-.017-.273-.09-.479-.217-.617-.127-.141-.304-.211-.53-.211zm6.084 1.263c0 .561-.127 1.01-.382 1.344-.255.333-.597.5-1.026.5-.398 0-.716-.131-.956-.392v1.719h-.814v-5.021h.751l.034.369c.238-.29.564-.436.975-.436.442 0 .789.165 1.039.496.252.328.379.785.379 1.37v.051zm-.812-.07c0-.362-.072-.65-.218-.862a.696.696 0 0 0-.616-.318c-.333 0-.572.137-.718.412v1.609c.148.282.389.422.725.422a.698.698 0 0 0 .606-.311c.147-.21.221-.528.221-.952zm5.297 1.847h-.815V42.01h-1.411v1.465h-.814v-3.627h.814v1.512h1.411v-1.512h.815v3.627zm3.187.067c-.516 0-.935-.162-1.257-.486-.319-.327-.479-.76-.479-1.3v-.101c0-.362.069-.685.208-.969a1.61 1.61 0 0 1 .59-.667c.252-.159.534-.238.844-.238.494 0 .875.157 1.144.473.27.315.405.76.405 1.337v.328h-2.37c.025.3.124.537.298.711a.908.908 0 0 0 .664.261c.373 0 .677-.15.912-.452l.439.419c-.146.217-.34.385-.583.506a1.824 1.824 0 0 1-.815.178zm-.097-3.107a.69.69 0 0 0-.543.234c-.136.157-.223.375-.261.654h1.552v-.06c-.019-.273-.091-.479-.218-.617-.128-.141-.305-.211-.53-.211zm5.721.06h-1.176v2.98h-.814v-2.98h-1.163v-.647h3.153v.647zm2.846 1.233h-1.76v-.657h1.76v.657zm4.468 1.747h-.814v-2.97h-1.415v2.97h-.814v-3.627h3.043v3.627zm1.435-1.847c0-.355.071-.675.211-.959.141-.286.339-.505.593-.657.255-.154.548-.231.879-.231.489 0 .885.157 1.19.473.306.315.471.733.496 1.253l.003.191c0 .358-.069.677-.208.959-.136.281-.333.5-.59.653a1.672 1.672 0 0 1-.885.232c-.512 0-.921-.17-1.229-.51-.307-.342-.46-.796-.46-1.364v-.04zm.814.07c0 .373.077.666.232.878.154.21.368.315.643.315a.742.742 0 0 0 .641-.321c.154-.215.231-.529.231-.942 0-.367-.079-.657-.238-.872a.75.75 0 0 0-.64-.321.747.747 0 0 0-.634.318c-.156.21-.235.525-.235.945zm7.143 0c0 .561-.127 1.01-.382 1.344-.255.333-.597.5-1.025.5-.398 0-.716-.131-.956-.392v1.719h-.814v-5.021h.751l.033.369c.239-.29.564-.436.975-.436.443 0 .79.165 1.04.496.252.328.378.785.378 1.37v.051zm-.811-.07c0-.362-.072-.65-.218-.862a.696.696 0 0 0-.616-.318c-.333 0-.572.137-.718.412v1.609c.147.282.389.422.724.422a.7.7 0 0 0 .607-.311c.147-.21.221-.528.221-.952zm4.937-1.133h-1.176v2.98h-.814v-2.98h-1.164v-.647h3.154v.647zm3.379 2.98a1.253 1.253 0 0 1-.094-.339c-.259.27-.576.406-.952.406-.364 0-.661-.104-.891-.312a.995.995 0 0 1-.346-.77c0-.388.144-.684.43-.89.288-.207.699-.31 1.233-.31h.5v-.239a.63.63 0 0 0-.158-.449c-.105-.114-.265-.171-.479-.171a.71.71 0 0 0-.456.14.425.425 0 0 0-.178.353h-.815c0-.2.067-.385.199-.557.132-.174.31-.31.536-.409.228-.098.481-.147.76-.147.425 0 .764.107 1.016.322.253.212.382.511.389.898v1.636c0 .326.046.586.137.78v.058h-.831zm-.895-.587c.161 0 .312-.039.453-.117a.791.791 0 0 0 .322-.315v-.684h-.44c-.301 0-.528.052-.68.157a.51.51 0 0 0-.228.446c0 .157.052.282.154.376a.615.615 0 0 0 .419.137zm6.245-3.04v3.627h-.815v-2.97h-1.026l-.067 1.264c-.042.607-.159 1.044-.351 1.31-.19.264-.482.396-.875.396h-.252l-.003-.677.168-.017c.178-.025.308-.133.388-.325.083-.195.136-.548.158-1.06l.067-1.548h2.608zm4.032 2.976c.226-.252.376-.491.453-.717.078-.228.125-.518.141-.871l.046-1.388h2.517v2.976h.503v1.73h-.811v-1.08h-2.326v1.08h-.825l.004-1.73h.298zm.955 0h1.391v-2.276h-.915l-.023.694c-.032.666-.182 1.194-.453 1.582zm7.09-2.976v3.627h-.815v-2.97h-1.026l-.067 1.264c-.042.607-.159 1.044-.352 1.31-.19.264-.481.396-.874.396h-.252l-.003-.677.168-.017c.178-.025.308-.133.388-.325.083-.195.136-.548.158-1.06l.067-1.548h2.608zm4.491 0v3.627h-.811v-1.331h-.761l-.774 1.33h-.845l.855-1.464a1.142 1.142 0 0 1-.516-.402 1.038 1.038 0 0 1-.178-.6c0-.338.13-.614.389-.828.261-.217.613-.328 1.055-.332h1.586zm-2.216 1.18c0 .152.056.276.168.372.114.094.259.14.436.14h.801v-1.045h-.751c-.199 0-.358.05-.476.15a.481.481 0 0 0-.178.383zm8.534-1.18h.811v3.627h-.811v-2.42l-1.421 2.42h-.811v-3.627h.811v2.42l1.421-2.42zm5.471 3.627h-.815V42.01h-1.411v1.465h-.815v-3.627h.815v1.512h1.411v-1.512h.815v3.627zm1.652 0v-3.627h1.472c.495 0 .873.087 1.132.261.26.172.389.42.389.744a.71.71 0 0 1-.158.453.969.969 0 0 1-.459.305c.237.05.425.149.563.298.139.15.208.327.208.53 0 .337-.125.594-.375.77-.248.177-.605.266-1.072.266h-1.7zm.814-1.546v.902h.892c.418 0 .627-.15.627-.449 0-.302-.212-.453-.637-.453h-.882zm0-.583h.671c.463 0 .694-.136.694-.409 0-.286-.219-.433-.657-.442h-.708v.851zm5.927 2.129a1.217 1.217 0 0 1-.094-.339 1.27 1.27 0 0 1-.952.406c-.365 0-.661-.104-.892-.312a.998.998 0 0 1-.345-.77c0-.388.143-.684.429-.89.288-.207.7-.31 1.233-.31h.5v-.239a.63.63 0 0 0-.158-.449c-.104-.114-.265-.171-.479-.171a.714.714 0 0 0-.456.14.427.427 0 0 0-.178.353h-.814c0-.2.066-.385.198-.557.132-.174.31-.31.536-.409.228-.098.482-.147.761-.147.425 0 .763.107 1.016.322.252.212.382.511.389.898v1.636c0 .326.045.586.137.78v.058h-.831zm-.895-.587c.161 0 .311-.039.452-.117a.785.785 0 0 0 .322-.315v-.684h-.439c-.302 0-.529.052-.681.157a.513.513 0 0 0-.228.446c0 .157.052.282.154.376a.618.618 0 0 0 .42.137zm6.244-3.04v3.627h-.814v-2.97h-1.026l-.067 1.264c-.042.607-.16 1.044-.352 1.31-.19.264-.481.396-.875.396h-.251l-.004-.677.168-.017c.179-.025.308-.133.389-.325.083-.195.135-.548.157-1.06l.067-1.548h2.608zm3.851 0h.812v3.627h-.812v-2.42l-1.421 2.42h-.811v-3.627h.811v2.42l1.421-2.42zm2.414 2.976c.226-.252.376-.491.452-.717.078-.228.125-.518.141-.871l.047-1.388h2.517v2.976h.503v1.73h-.811v-1.08h-2.326v1.08h-.825l.004-1.73h.298zm.955 0h1.391v-2.276h-.915l-.024.694c-.031.666-.181 1.194-.452 1.582zm3.855-1.196c0-.355.07-.675.211-.959a1.53 1.53 0 0 1 .593-.657c.255-.154.547-.231.878-.231.49 0 .887.157 1.19.473.306.315.471.733.496 1.253l.004.191c0 .358-.07.677-.209.959a1.5 1.5 0 0 1-.589.653c-.255.154-.55.232-.885.232-.512 0-.922-.17-1.23-.51-.306-.342-.459-.796-.459-1.364v-.04zm.814.07c0 .373.077.666.231.878.154.21.369.315.644.315a.74.74 0 0 0 .64-.321c.154-.215.231-.529.231-.942 0-.367-.079-.657-.238-.872a.749.749 0 0 0-.64-.321.75.75 0 0 0-.634.318c-.156.21-.234.525-.234.945zm4.029 1.777v-3.627h1.471c.497 0 .874.087 1.134.261a.84.84 0 0 1 .389.744.715.715 0 0 1-.158.453.974.974 0 0 1-.459.305c.237.05.424.149.562.298.139.15.209.327.209.53 0 .337-.125.594-.376.77-.248.177-.605.266-1.073.266h-1.699zm.815-1.546v.902h.891c.418 0 .627-.15.627-.449 0-.302-.212-.453-.637-.453h-.881zm0-.583h.67c.462 0 .694-.136.694-.409 0-.286-.219-.433-.657-.442h-.707v.851zM1.917 13.763h8.271c1.63 0 2.946.221 3.945.664a6.414 6.414 0 0 1 2.495 1.904c.655.828 1.13 1.79 1.426 2.889.295 1.097.442 2.26.442 3.49 0 1.925-.221 3.42-.663 4.485-.435 1.057-1.041 1.946-1.82 2.667-.778.713-1.613 1.188-2.507 1.426-1.22.328-2.326.492-3.318.492h-8.27V13.763zm5.568 4.08v9.844h1.364c1.163 0 1.99-.127 2.482-.38.492-.263.877-.714 1.155-1.353.279-.647.418-1.692.418-3.134 0-1.909-.311-3.215-.934-3.92-.622-.705-1.655-1.057-3.097-1.057H7.485zm17.576-4.08h5.002v3.404h-5.002v-3.404zm0 4.965h5.002V31.78h-5.002V18.728zm11.088 9.438l4.965-.467c.205.59.492 1.012.86 1.266.37.254.86.381 1.475.381.672 0 1.193-.143 1.561-.43.287-.213.43-.48.43-.799 0-.36-.188-.639-.565-.835-.27-.14-.987-.312-2.15-.517-1.738-.303-2.946-.581-3.626-.835-.672-.262-1.241-.7-1.708-1.315a3.421 3.421 0 0 1-.689-2.102c0-.86.25-1.602.75-2.224.5-.623 1.188-1.086 2.065-1.39.876-.31 2.052-.466 3.527-.466 1.556 0 2.704.119 3.441.356.745.238 1.364.607 1.856 1.106.5.5.913 1.176 1.24 2.028l-4.743.467c-.123-.418-.328-.725-.614-.922-.394-.262-.869-.393-1.426-.393-.565 0-.98.103-1.241.308-.254.196-.381.438-.381.725 0 .32.164.56.491.725.328.164 1.04.311 2.139.442 1.663.189 2.9.45 3.711.787.811.335 1.43.815 1.856 1.438.434.622.651 1.306.651 2.052 0 .754-.229 1.487-.688 2.2-.45.713-1.167 1.282-2.15 1.708-.975.418-2.307.627-3.995.627-2.384 0-4.084-.34-5.1-1.02-1.008-.68-1.655-1.647-1.942-2.9zm24.607-5.21l-4.78-.504c.18-.836.438-1.492.773-1.967.344-.483.836-.9 1.475-1.253.459-.254 1.09-.45 1.893-.59a15.26 15.26 0 0 1 2.605-.21c1.5 0 2.704.087 3.613.259.91.164 1.668.512 2.274 1.045.426.368.762.893 1.008 1.573.246.672.368 1.315.368 1.93v5.763c0 .615.037 1.098.111 1.45.082.345.254.787.516 1.328h-4.694c-.189-.336-.312-.59-.37-.762a5.949 5.949 0 0 1-.171-.836c-.656.63-1.307 1.082-1.954 1.352-.885.36-1.913.54-3.085.54-1.557 0-2.74-.36-3.552-1.08-.803-.722-1.204-1.61-1.204-2.668 0-.991.29-1.806.872-2.445.582-.64 1.655-1.115 3.22-1.426 1.877-.377 3.093-.64 3.65-.787a18.099 18.099 0 0 0 1.77-.602c0-.614-.127-1.044-.38-1.29-.255-.246-.701-.369-1.34-.369-.82 0-1.434.131-1.844.393-.32.205-.578.59-.774 1.156zm4.338 2.63c-.688.245-1.405.463-2.15.65-1.017.271-1.66.537-1.93.8-.279.27-.418.577-.418.921 0 .394.135.717.406.971.278.246.684.369 1.216.369.557 0 1.074-.135 1.549-.405.483-.27.823-.599 1.02-.984.205-.393.307-.9.307-1.524v-.799zm11.69-11.823h5.051v6.243a4.958 4.958 0 0 1 1.697-1.18 5.515 5.515 0 0 1 2.113-.393c1.59 0 2.904.573 3.946 1.72 1.04 1.14 1.56 2.778 1.56 4.916 0 1.426-.238 2.684-.713 3.773-.475 1.082-1.134 1.893-1.979 2.434a5.084 5.084 0 0 1-2.79.799c-.876 0-1.68-.189-2.408-.566-.549-.295-1.147-.848-1.794-1.659v1.93h-4.683V13.763zM81.8 25.217c0 1.122.209 1.938.626 2.446.426.5.963.75 1.61.75.599 0 1.098-.247 1.5-.738.409-.5.614-1.336.614-2.507 0-1.033-.2-1.79-.602-2.274-.393-.483-.873-.725-1.438-.725-.68 0-1.237.254-1.671.762-.427.5-.64 1.262-.64 2.286zm15.708-11.454h5.002v3.404h-5.002v-3.404zm0 4.965h5.002V31.78h-5.002V18.728zm12.145-4.965h5.014V31.78h-5.014V13.763zm12.169 0h5.002v3.404h-5.002v-3.404zm0 4.965h5.002V31.78h-5.002V18.728zm18.007-4.965v4.965h2.753v3.65h-2.753v4.633c0 .557.053.926.16 1.106.164.279.451.418.861.418.368 0 .884-.106 1.548-.32l.369 3.454c-1.238.27-2.393.405-3.466.405-1.245 0-2.163-.16-2.753-.479-.59-.32-1.028-.803-1.315-1.45-.278-.655-.418-1.712-.418-3.17v-4.597h-1.844v-3.65h1.844V16.33l5.014-2.568zm7.475 4.965h5.284l2.692 8.689 2.495-8.69h4.928l-5.174 13.95c-.59 1.59-1.192 2.663-1.807 3.22-.868.786-2.191 1.18-3.969 1.18-.721 0-1.836-.099-3.343-.295l-.393-3.49c.72.229 1.524.343 2.408.343.591 0 1.066-.135 1.426-.405.369-.27.68-.754.934-1.45l-5.481-13.052zm17.856 8.037h5.346v5.015h-5.346v-5.015zm12.194-8.037h4.683v2.138c.45-.925.913-1.56 1.388-1.905.483-.352 1.078-.528 1.782-.528.738 0 1.545.23 2.421.688l-1.548 3.564c-.59-.246-1.057-.368-1.401-.368-.655 0-1.163.27-1.524.81-.517.763-.774 2.188-.774 4.277v4.376h-5.027V18.728zm28.662 13.052h-4.67v-2.114c-.696.868-1.401 1.487-2.114 1.855-.704.37-1.573.553-2.605.553-1.376 0-2.458-.41-3.245-1.228-.778-.828-1.167-2.098-1.167-3.81v-8.308h5.026v7.177c0 .82.152 1.401.455 1.745.304.344.729.516 1.278.516.598 0 1.086-.229 1.462-.688.386-.459.579-1.282.579-2.47v-6.28h5.001V31.78z" fill="#DADADA"/><path d="M6.47 2.099c-.415.879-.891 1.997-1.428 3.356-.537 1.35-.887 2.33-1.05 2.941-.105.366-.183.586-.231.659-.041.065-.09.098-.147.098-.179 0-.399-.086-.659-.257-.26-.17-.386-.345-.378-.524 0-.228.268-1.038.805-2.429a101.9 101.9 0 0 1 1.526-3.77c-.684.064-1.046.097-1.086.097h-.11a.444.444 0 0 1-.39-.195c-.09-.13-.135-.362-.135-.696 0-.155.134-.277.403-.366.268-.098.907-.191 1.916-.28.114-.009.317-.021.61-.037.3-.017.54-.037.72-.061.146-.009.228-.013.244-.013A.108.108 0 0 0 7.129.61c.317.008.585.11.805.305.228.196.342.411.342.647a.393.393 0 0 1-.122.28c-.073.058-.232.086-.476.086a7.709 7.709 0 0 0-.61.049 4.107 4.107 0 0 0-.598.122zm1.784 3.588a7.09 7.09 0 0 1 .17-.537c.057-.163.171-.452.342-.867.252-.642.415-1.008.488-1.098.082-.09.167-.134.257-.134.008 0 .012.004.012.012l.476.183c.162.073.26.13.293.171.04.04.06.085.06.134 0 .008-.08.191-.243.55-.155.357-.334.841-.537 1.452.105-.025.215-.045.33-.061.113-.017.24-.025.378-.025.366 0 .687.15.963.452.285.293.432.598.44.915 0 .504-.33 1.017-.989 1.538-.65.52-1.318.78-2.001.78-.334 0-.622-.097-.866-.292-.245-.204-.367-.423-.367-.66 0-.113.033-.296.098-.548.065-.26.126-.464.183-.61a.421.421 0 0 1-.122.06c-.024.009-.102-.15-.232-.476-.065-.154-.093-.264-.085-.329a.295.295 0 0 1 .11-.183.8.8 0 0 1 .122-.098c.057-.032.297-.142.72-.33zm.952 1.037c-.269.675-.407 1.03-.415 1.062v.085c-.009.073.008.126.048.159.041.032.102.049.184.049.244 0 .528-.13.854-.39.333-.261.504-.51.512-.745 0-.09-.044-.167-.134-.232a.54.54 0 0 0-.342-.122c-.073 0-.179.016-.317.049a4.656 4.656 0 0 0-.39.085zm3.478 2.673c-.057 0-.135-.041-.232-.122a1.068 1.068 0 0 0-.232-.159l-.379-.195c-.187-.09-.248-.318-.183-.684.066-.366.403-1.269 1.013-2.709.375-.887.671-1.517.891-1.891.228-.383.411-.578.55-.586a.15.15 0 0 1 .085.024c.032.008.138.126.317.354l.17.232c.05.073.074.15.074.232 0 .081-.138.399-.415.952-.26.52-.529 1.18-.805 1.977-.269.797-.476 1.53-.623 2.196-.04.147-.077.244-.11.293-.032.057-.073.086-.121.086zm13.43-3.869h-.072c-.57.7-1.103 1.48-1.599 2.343-.488.854-.801 1.282-.94 1.282-.138 0-.3-.05-.488-.147-.179-.106-.264-.248-.256-.427 0-.13.061-.5.183-1.11.13-.61.2-1.257.207-1.94a25.544 25.544 0 0 1-1.708 2.598c-.627.838-1.046 1.261-1.257 1.27-.09 0-.224-.086-.403-.257-.187-.17-.28-.309-.28-.415 0-.048.024-.118.073-.207a4.22 4.22 0 0 1 .195-.342c.301-.455.801-1.106 1.501-1.952.7-.854 1.359-1.81 1.977-2.868.073-.122.13-.203.17-.244a.187.187 0 0 1 .135-.061c.22 0 .435.102.647.305.22.195.333.399.342.61 0 .049-.005.106-.013.171l-.22 1.953c.652-1.042 1.16-1.807 1.526-2.295.366-.488.63-.736.793-.744h.025l.5.354c.18.138.28.236.305.293a.378.378 0 0 1 .037.17c0 .106-.017.273-.049.5-.024.22-.077.607-.159 1.16a40.488 40.488 0 0 0-.268 2.148c-.049.61-.09 1.074-.122 1.391-.016.13-.049.216-.098.256a.197.197 0 0 1-.158.074c-.074 0-.18-.037-.318-.11a1.995 1.995 0 0 0-.439-.147c-.155-.032-.252-.077-.293-.134a.369.369 0 0 1-.06-.22c0-.227.048-.634.146-1.22.097-.586.244-1.265.439-2.038zm6.774-1.562c.398.106.679.26.842.464.17.195.256.496.256.903-.008.822-.358 1.664-1.05 2.526-.691.862-1.415 1.294-2.172 1.294-.439 0-.81-.192-1.11-.574-.301-.382-.452-.862-.452-1.44 0-.602.2-1.233.598-1.892.399-.667.973-1.256 1.721-1.769.195-.13.362-.232.5-.305.139-.081.248-.122.33-.122.097 0 .19.077.28.232.09.154.175.382.257.683zm-.39.354c-.57.22-1.05.659-1.44 1.318-.391.659-.587 1.298-.587 1.916 0 .187.037.333.11.44a.332.332 0 0 0 .305.133c.35 0 .753-.37 1.208-1.11.456-.748.684-1.383.684-1.904a1.393 1.393 0 0 0-.085-.451 1.033 1.033 0 0 0-.196-.342zm7.537 2.014H39.9l-.244.573-.463 1.88c-.041.146-.086.244-.135.292-.049.05-.118.074-.207.074a.548.548 0 0 1-.147-.025c-.048-.016-.179-.065-.39-.146-.195-.065-.317-.139-.366-.22-.05-.081-.074-.232-.074-.451 0-.122.061-.346.184-.672.13-.333.333-.768.61-1.305h-.122c-.83 1-1.493 1.74-1.99 2.22-.488.48-.809.72-.963.72-.058 0-.143-.056-.257-.17a12.31 12.31 0 0 0-.232-.244 2.027 2.027 0 0 1-.317-.293.264.264 0 0 1-.073-.171c0-.024.02-.053.06-.085.041-.041.127-.118.257-.232.57-.44 1.09-.883 1.562-1.33.48-.448.854-.847 1.123-1.196a7.875 7.875 0 0 1-.732-1.05c-.228-.399-.342-.687-.342-.866 0-.057.016-.106.049-.147.032-.049.101-.093.207-.134l.427-.17c.204-.082.314-.115.33-.099a.21.21 0 0 1 .06.062c.041.04.09.11.147.207.057.09.118.191.183.305.22.423.399.732.537.928a3.8 3.8 0 0 0 .5.524c.074-.179.147-.354.22-.524.074-.18.208-.517.403-1.013.073-.204.142-.342.208-.415a.351.351 0 0 1 .256-.11c.154.008.325.077.512.207s.285.253.293.366a2.379 2.379 0 0 1-.134.513c-.081.228-.24.61-.476 1.147h.073l.916-.573a5.915 5.915 0 0 0 1.134-.965c.383-.414.586-.622.61-.622.074.008.18.13.318.366.146.236.22.415.22.537 0 .228-.253.557-.757.989-.505.43-1.07.825-1.696 1.183.309.83.581 1.473.817 1.928.236.448.358.66.366.635 0 .073-.044.147-.134.22-.09.065-.211.122-.366.17-.488.163-.72.245-.696.245h.05c-.163-.009-.338-.24-.526-.696-.178-.456-.398-1.245-.658-2.367zm6.011.06c-.09.212-.158.4-.207.562-.04.163-.061.301-.061.415 0 .228.049.394.146.5.106.106.257.159.452.159.17 0 .37-.025.598-.073.228-.057.427-.122.598-.196.162-.073.309-.146.439-.22.138-.072.224-.11.256-.11.025 0 .045.017.061.05a.162.162 0 0 1 .037.097c0 .285-.025.497-.073.635-.041.13-.159.252-.354.366-.366.22-.7.37-1 .452a3.227 3.227 0 0 1-.867.122c-.488 0-.875-.147-1.16-.44-.284-.293-.423-.683-.415-1.171 0-1.025.42-2.026 1.257-3.002.838-.985 1.611-1.481 2.319-1.49.35.009.671.151.964.428.293.277.44.614.44 1.013 0 .586-.314 1.167-.94 1.745-.619.57-1.131.85-1.538.842a.878.878 0 0 1-.512-.183 1.56 1.56 0 0 1-.44-.5zm.232-.512c.464.016.9-.126 1.306-.427.415-.31.626-.635.634-.976a.375.375 0 0 0-.085-.257.244.244 0 0 0-.208-.097c-.252 0-.545.179-.878.537-.326.35-.582.756-.769 1.22zm6.928 1.306c.253-1.09.53-2.05.83-2.88.31-.83.566-1.249.769-1.257.016 0 .032.004.049.012.024.008.179.118.464.33.178.146.276.244.293.292.024.041.04.086.048.135-.008.04-.02.085-.036.134-.008.049-.098.26-.269.635-.154.333-.35.85-.586 1.55-.227.699-.341 1.138-.341 1.317 0 .082.012.139.036.171.025.033.07.049.135.049.105 0 .256-.061.451-.183.195-.13.42-.317.671-.561.407-1.302.753-2.274 1.038-2.917.284-.643.496-.964.634-.964.114.008.277.13.488.366.22.228.33.415.33.561 0 .187-.147.594-.44 1.22a16.22 16.22 0 0 0-.744 1.941c-.44 1.391-.68 2.115-.72 2.172-.04.057-.081.086-.122.086-.114 0-.285-.082-.512-.244-.228-.171-.338-.301-.33-.39 0-.058.008-.135.024-.233.025-.106.05-.187.074-.244a6.61 6.61 0 0 1-.879.647c-.26.146-.476.22-.647.22-.154 0-.305-.078-.451-.232-.147-.155-.265-.37-.354-.647-.334.31-.623.533-.867.671s-.447.208-.61.208c-.26 0-.484-.163-.671-.489a2.116 2.116 0 0 1-.28-1.073c0-.285.06-.664.182-1.135.122-.48.322-1.09.598-1.83.22-.595.395-1.002.525-1.221.13-.228.244-.346.342-.354.008 0 .024.004.049.012.024.008.17.102.439.28.17.123.276.212.317.27.04.056.061.113.061.17 0 .033-.008.07-.024.11-.008.032-.196.468-.562 1.306-.227.504-.402.935-.524 1.293-.114.358-.171.627-.171.806 0 .114.02.203.06.268.041.065.102.098.184.098.106.008.26-.037.464-.134.211-.106.406-.22.585-.342zm6.818-1.501c.057-.204.114-.383.171-.537.057-.163.17-.452.342-.867.252-.642.415-1.008.488-1.098.081-.09.167-.134.256-.134.008 0 .012.004.012.012l.476.183c.163.073.26.13.293.171.04.04.061.085.061.134 0 .008-.081.191-.244.55-.154.357-.334.841-.537 1.452a3.95 3.95 0 0 1 .33-.061c.114-.017.24-.025.378-.025.366 0 .687.15.964.452.285.293.431.598.44.915 0 .504-.33 1.017-.99 1.538-.65.52-1.317.78-2 .78-.334 0-.623-.097-.867-.292-.244-.204-.366-.423-.366-.66 0-.113.032-.296.097-.548.066-.26.127-.464.184-.61a.421.421 0 0 1-.122.06c-.025.009-.102-.15-.232-.476-.065-.154-.094-.264-.086-.329a.295.295 0 0 1 .11-.183.804.804 0 0 1 .122-.098c.057-.032.297-.142.72-.33zm.952 1.037a39.82 39.82 0 0 0-.415 1.062v.085c-.008.073.008.126.049.159.04.032.102.049.183.049.244 0 .529-.13.854-.39.334-.261.505-.51.513-.745 0-.09-.045-.167-.134-.232a.54.54 0 0 0-.342-.122c-.073 0-.18.016-.317.049a4.657 4.657 0 0 0-.391.085zm12.658-.78c.13.178.236.381.317.61.09.227.134.439.134.634 0 .472-.232.92-.695 1.342-.456.415-.965.623-1.526.623-.553 0-1.017-.167-1.391-.5-.374-.334-.557-.761-.55-1.282-.007-.887.363-1.827 1.111-2.82.757-.992 1.607-1.492 2.55-1.5.35 0 .66.106.928.317.277.204.415.468.415.793-.008.342-.126.676-.354 1.001-.22.317-.533.578-.94.781zm-1.575-.72c.448-.033.826-.172 1.135-.416.31-.252.464-.492.464-.72 0-.049-.016-.085-.049-.11-.032-.032-.081-.048-.146-.048-.212 0-.456.13-.732.39-.277.26-.5.561-.672.903zm-.366.634c-.162.284-.288.549-.378.793a2.032 2.032 0 0 0-.122.622.678.678 0 0 0 .17.513c.13.13.306.191.525.183a.788.788 0 0 0 .635-.269.989.989 0 0 0 .28-.646.941.941 0 0 0-.06-.342.896.896 0 0 0-.183-.305 1.253 1.253 0 0 1-.196.073 1.07 1.07 0 0 1-.158.024.235.235 0 0 1-.122-.036c-.033-.033-.163-.236-.39-.61zm5.82 1.415a.7.7 0 0 0 .16.476c.105.114.247.171.426.171.138 0 .289-.02.452-.061a2.06 2.06 0 0 0 .451-.195c.447-.252.672-.374.672-.366l.012-.013c.056 0 .097.025.122.074a.433.433 0 0 1 .049.232c0 .341-.094.61-.281.805-.188.187-.488.362-.903.525-.212.09-.395.15-.55.183a1.785 1.785 0 0 1-.377.049c-.457 0-.839-.163-1.148-.489-.3-.325-.451-.785-.451-1.379-.009-.894.374-1.822 1.147-2.782s1.578-1.444 2.416-1.452c.35 0 .626.098.83.293.211.195.317.476.317.842 0 .276-.102.52-.305.732-.203.203-.431.305-.683.305-.106 0-.188-.028-.244-.085-.057-.065-.086-.163-.086-.293 0-.033.004-.09.013-.171.007-.081.012-.142.012-.183 0-.09-.02-.159-.061-.208-.041-.057-.09-.085-.147-.085-.228 0-.594.358-1.098 1.074-.496.708-.744 1.375-.744 2.001zm5.989-.878a5.69 5.69 0 0 0-.208.561c-.04.163-.06.301-.06.415 0 .228.048.394.146.5.106.106.256.159.451.159.171 0 .37-.025.598-.073.228-.057.427-.122.598-.196.163-.073.31-.146.44-.22.138-.072.224-.11.256-.11.024 0 .045.017.06.05a.162.162 0 0 1 .037.097c0 .285-.024.497-.073.635-.04.13-.159.252-.354.366-.366.22-.7.37-1 .452a3.224 3.224 0 0 1-.867.122c-.488 0-.874-.147-1.16-.44-.284-.293-.422-.683-.414-1.171 0-1.025.42-2.026 1.257-3.002.838-.985 1.61-1.481 2.319-1.49.35.009.67.151.963.428.293.277.44.614.44 1.013 0 .586-.313 1.167-.94 1.745-.618.57-1.13.85-1.537.842a.878.878 0 0 1-.513-.183 1.56 1.56 0 0 1-.44-.5zm.232-.513c.463.016.899-.126 1.305-.427.415-.31.627-.635.635-.976a.374.374 0 0 0-.086-.257.243.243 0 0 0-.207-.097c-.252 0-.545.179-.879.537-.325.35-.58.756-.768 1.22zM84.966.11c.122.008.285.114.488.317.212.204.318.378.318.525 0 .17-.106.419-.318.744-.203.326-.366.488-.488.488s-.28-.097-.476-.292c-.195-.196-.293-.379-.293-.55-.007-.17.082-.419.269-.744.195-.325.362-.488.5-.488zm2.1 0c.13.008.292.114.487.317.196.195.298.37.305.525 0 .17-.105.419-.317.744-.203.326-.366.488-.488.488s-.28-.097-.476-.292c-.195-.196-.293-.379-.293-.55 0-.195.098-.447.293-.756.204-.317.366-.476.488-.476zm6.515 1.586a.486.486 0 0 1-.049.196 2.07 2.07 0 0 1-.134.292c-.39.733-.74 1.428-1.05 2.087-.3.66-.63 1.465-.988 2.416a.533.533 0 0 1-.134.22.28.28 0 0 1-.159.049c-.106.008-.265-.102-.476-.33-.211-.235-.317-.406-.317-.512 0-.09.049-.273.146-.55.098-.284.415-1.081.952-2.391.57-1.391.891-2.132.964-2.221.082-.098.171-.15.269-.159.113 0 .305.126.573.379.269.252.403.427.403.524zm-2.685 6.688a.41.41 0 0 1-.024.122c-.009.04-.037.118-.086.232-.081.195-.142.35-.183.463a1.15 1.15 0 0 0-.048.318c-.009.114-.029.183-.062.207-.024.025-.064.037-.121.037-.245 0-.505-.098-.782-.293-.268-.195-.402-.415-.402-.66 0-.21.07-.459.207-.744.138-.284.293-.427.464-.427.155 0 .366.086.635.257.268.17.402.333.402.488z" fill="#6FCF97"/></svg>