<svg width="150" height="32" viewBox="0 0 150 32" fill="none" xmlns="http://www.w3.org/2000/svg"><path d="M3.833 30.915h-.576v-2.112h-1v2.112H1.68v-2.579h2.153v2.58zm2.253.048c-.365 0-.662-.115-.89-.346-.225-.232-.338-.54-.338-.925v-.071c0-.257.049-.487.147-.689.1-.203.238-.361.417-.474.179-.113.378-.17.597-.17.35 0 .62.113.809.337.191.224.287.54.287.95v.234H5.439a.78.78 0 0 0 .21.506.64.64 0 0 0 .47.185.779.779 0 0 0 .645-.321l.31.298c-.102.154-.24.274-.412.36-.17.084-.363.126-.576.126zm-.069-2.21a.488.488 0 0 0-.384.167.873.873 0 0 0-.185.465h1.098v-.043c-.013-.194-.064-.34-.154-.438a.478.478 0 0 0-.375-.15zm4.304.899c0 .399-.09.717-.27.956a.865.865 0 0 1-.726.355c-.281 0-.507-.093-.676-.279v1.223h-.576v-3.57h.531l.024.262c.169-.207.399-.31.69-.31.313 0 .558.117.735.352.178.234.268.559.268.975v.036zm-.574-.05c0-.258-.051-.462-.154-.613a.494.494 0 0 0-.436-.226c-.236 0-.405.098-.508.293V30.2c.105.2.275.3.512.3a.494.494 0 0 0 .43-.221c.104-.15.156-.375.156-.677zm1.617 1.313v-2.579h1.041c.351 0 .618.062.802.186a.598.598 0 0 1 .275.53.51.51 0 0 1-.112.321.687.687 0 0 1-.325.217c.168.035.3.106.399.212a.538.538 0 0 1 .147.377c0 .24-.089.422-.266.548-.175.125-.428.188-.759.188h-1.202zm.576-1.099v.642h.631c.296 0 .444-.107.444-.32 0-.214-.15-.322-.451-.322h-.624zm0-.414h.475c.327 0 .49-.097.49-.291 0-.204-.154-.308-.464-.315h-.5v.606zm3.28-.246h.564c.21 0 .394.037.55.11a.8.8 0 0 1 .48.767.8.8 0 0 1-.28.64c-.187.16-.435.24-.745.242h-1.145v-2.579h.576v.82zm2.596 1.76h-.576v-2.58h.576v2.58zM15.22 29.62v.832h.562a.49.49 0 0 0 .332-.105.38.38 0 0 0 .123-.303c0-.13-.04-.233-.12-.307a.453.453 0 0 0-.323-.117h-.574zm5.399-1.285h.574v2.58h-.574v-1.722l-1.005 1.721h-.574v-2.579h.574v1.721l1.005-1.72zm.27-.989c0 .2-.07.362-.208.486-.14.124-.325.186-.558.186-.232 0-.418-.062-.557-.186a.62.62 0 0 1-.208-.486h.431c0 .105.03.187.088.246.06.057.142.085.247.085a.334.334 0 0 0 .244-.085.332.332 0 0 0 .087-.246h.434zm5.393 2.305c0 .399-.09.717-.27.956a.865.865 0 0 1-.726.355c-.282 0-.507-.093-.676-.279v1.223h-.576v-3.57h.53l.024.262c.17-.207.4-.31.69-.31.314 0 .559.117.736.352.178.234.268.559.268.975v.036zm-.574-.05c0-.258-.052-.462-.154-.613a.494.494 0 0 0-.437-.226c-.235 0-.404.098-.507.293V30.2c.104.2.275.3.512.3a.494.494 0 0 0 .43-.221c.104-.15.156-.375.156-.677zm1.465 0c0-.253.05-.48.15-.682.1-.203.24-.359.42-.467.18-.11.387-.164.62-.164.347 0 .627.112.842.336.217.224.334.52.351.891l.003.136c0 .254-.05.481-.148.682a1.07 1.07 0 0 1-.417.464 1.18 1.18 0 0 1-.626.165c-.362 0-.652-.12-.87-.362-.216-.243-.325-.567-.325-.97v-.03zm.576.05c0 .265.055.473.164.624.109.15.26.224.455.224a.522.522 0 0 0 .453-.228c.11-.153.164-.376.164-.67 0-.26-.056-.467-.169-.62a.53.53 0 0 0-.453-.229.527.527 0 0 0-.448.227c-.11.15-.166.373-.166.672zm3.86.848a.519.519 0 0 0 .359-.126.432.432 0 0 0 .152-.312h.543a.86.86 0 0 1-.15.45.985.985 0 0 1-.38.33c-.159.08-.331.12-.516.12-.359 0-.644-.116-.854-.35-.21-.233-.315-.556-.315-.967v-.06c0-.392.104-.706.313-.941.209-.237.493-.355.853-.355.305 0 .554.09.745.269a.957.957 0 0 1 .303.703h-.542a.529.529 0 0 0-.152-.365.48.48 0 0 0-.358-.143.505.505 0 0 0-.432.205c-.101.135-.152.341-.154.618v.093c0 .28.05.488.15.627a.51.51 0 0 0 .436.204zm3.052 0a.519.519 0 0 0 .358-.126.432.432 0 0 0 .152-.312h.543a.86.86 0 0 1-.15.45.985.985 0 0 1-.379.33c-.16.08-.332.12-.517.12-.358 0-.643-.116-.853-.35-.21-.233-.315-.556-.315-.967v-.06c0-.392.104-.706.313-.941.208-.237.493-.355.853-.355.305 0 .553.09.745.269a.956.956 0 0 1 .303.703h-.543a.53.53 0 0 0-.151-.365.48.48 0 0 0-.359-.143.505.505 0 0 0-.431.205c-.101.135-.153.341-.154.618v.093c0 .28.05.488.15.627a.51.51 0 0 0 .435.204zm3.6-2.164h.574v2.58h-.574v-1.722l-1.005 1.721h-.574v-2.579h.574v1.721l1.005-1.72zm3.298 0h.574v2.58h-.574v-1.722l-1.005 1.721h-.574v-2.579h.574v1.721l1.005-1.72zm.27-.989c0 .2-.069.362-.208.486-.14.124-.325.186-.557.186-.233 0-.418-.062-.557-.186a.62.62 0 0 1-.21-.486h.432c0 .105.03.187.088.246.06.057.142.085.247.085a.334.334 0 0 0 .244-.085.332.332 0 0 0 .088-.246h.434zm2.48 3.153a.52.52 0 0 0 .359-.126.432.432 0 0 0 .152-.312h.543a.86.86 0 0 1-.15.45.986.986 0 0 1-.379.33c-.16.08-.332.12-.517.12-.359 0-.643-.116-.853-.35-.21-.233-.316-.556-.316-.967v-.06c0-.392.104-.706.313-.941.209-.237.493-.355.854-.355.305 0 .553.09.744.269a.956.956 0 0 1 .304.703h-.543a.53.53 0 0 0-.152-.365.48.48 0 0 0-.358-.143.505.505 0 0 0-.432.205c-.1.135-.152.341-.154.618v.093c0 .28.05.488.15.627a.51.51 0 0 0 .436.204zm2.91-.605h-.291v1.02h-.576v-2.579h.576v1.03h.254l.709-1.03h.71l-.926 1.235 1.005 1.344h-.75l-.71-1.02zm3.89-1.559h.573v2.58h-.574v-1.722l-1.005 1.721h-.574v-2.579h.574v1.721l1.005-1.72zm3.297 0h.575v2.58h-.575v-1.722l-1.005 1.721h-.574v-2.579h.574v1.721l1.005-1.72zm.27-.989c0 .2-.069.362-.208.486-.139.124-.324.186-.557.186-.232 0-.418-.062-.557-.186a.62.62 0 0 1-.209-.486h.432c0 .105.029.187.087.246.06.057.143.085.247.085a.335.335 0 0 0 .245-.085.333.333 0 0 0 .087-.246h.434zm4.748.99h.574v2.578h-.574v-1.72l-1.005 1.72h-.574v-2.579h.574v1.721l1.005-1.72zm3.87 2.578h-.576v-1.041h-.998v1.041h-.576v-2.579h.576v1.075h.998v-1.075h.576v2.58zm3.144-2.119h-.832v2.12h-.576v-2.12h-.823v-.46h2.231v.46zm1.874 2.167c-.366 0-.662-.115-.89-.346-.226-.232-.339-.54-.339-.925v-.071c0-.257.05-.487.147-.689.1-.203.239-.361.417-.474.179-.113.379-.17.598-.17.35 0 .62.113.808.337.192.224.288.54.288.95v.234h-1.677a.78.78 0 0 0 .211.506.64.64 0 0 0 .47.185.78.78 0 0 0 .645-.321l.31.298c-.102.154-.24.274-.412.36a1.288 1.288 0 0 1-.576.126zm-.07-2.21a.488.488 0 0 0-.384.167.871.871 0 0 0-.184.465h1.097v-.043c-.012-.194-.063-.34-.153-.438a.479.479 0 0 0-.375-.15zm4.305.899c0 .399-.09.717-.27.956a.866.866 0 0 1-.726.355c-.282 0-.507-.093-.676-.279v1.223h-.576v-3.57h.53l.025.262c.168-.207.399-.31.69-.31.313 0 .558.117.734.352.18.234.269.559.269.975v.036zm-.574-.05c0-.258-.052-.462-.155-.613a.493.493 0 0 0-.436-.226c-.236 0-.404.098-.507.293V30.2c.104.2.275.3.512.3a.493.493 0 0 0 .43-.221c.103-.15.156-.375.156-.677zm3.746 1.313h-.576v-1.041h-.998v1.041h-.576v-2.579h.576v1.075h.998v-1.075h.576v2.58zm2.255.048c-.365 0-.661-.115-.889-.346-.226-.232-.339-.54-.339-.925v-.071c0-.257.049-.487.147-.689.1-.203.239-.361.418-.474.178-.113.377-.17.597-.17.349 0 .619.113.809.337.19.224.286.54.286.95v.234h-1.676a.783.783 0 0 0 .21.506.64.64 0 0 0 .47.185.78.78 0 0 0 .645-.321l.311.298a1.05 1.05 0 0 1-.412.36c-.171.084-.363.126-.577.126zm-.068-2.21a.487.487 0 0 0-.385.167.872.872 0 0 0-.185.465h1.099v-.043c-.014-.194-.065-.34-.155-.438a.478.478 0 0 0-.374-.15zm4.047.043h-.832v2.12h-.576v-2.12h-.823v-.46h2.231v.46zm2.013.877h-1.245v-.467h1.245v.467zm3.16 1.242h-.575v-2.112h-1v2.112h-.577v-2.579h2.153v2.58zm1.016-1.313c0-.253.05-.48.15-.682.1-.203.239-.359.42-.467.18-.11.386-.164.62-.164.347 0 .627.112.842.336.217.224.334.52.351.891l.002.136c0 .254-.048.481-.147.682-.096.2-.235.355-.417.464-.18.11-.389.165-.626.165-.362 0-.652-.12-.87-.362-.217-.243-.325-.567-.325-.97v-.03zm.576.05c0 .265.055.473.164.624.11.15.26.224.455.224a.523.523 0 0 0 .453-.228c.11-.153.164-.376.164-.67 0-.26-.056-.467-.169-.62a.53.53 0 0 0-.452-.229.527.527 0 0 0-.449.227c-.11.15-.166.373-.166.672zm5.053 0c0 .399-.09.717-.27.956a.865.865 0 0 1-.725.355c-.282 0-.507-.093-.676-.279v1.223h-.577v-3.57h.532l.023.262c.17-.207.4-.31.69-.31.313 0 .559.117.736.352.178.234.267.559.267.975v.036zm-.573-.05c0-.258-.052-.462-.155-.613a.493.493 0 0 0-.436-.226c-.236 0-.404.098-.507.293V30.2c.104.2.275.3.512.3a.494.494 0 0 0 .43-.221c.103-.15.156-.375.156-.677zm3.492-.806h-.832v2.12h-.576v-2.12h-.823v-.46h2.231v.46zm2.39 2.12a.894.894 0 0 1-.066-.242.895.895 0 0 1-.673.289c-.258 0-.468-.074-.631-.222a.71.71 0 0 1-.244-.548c0-.275.101-.485.303-.632.204-.147.495-.221.873-.221h.353v-.17a.449.449 0 0 0-.111-.319c-.074-.08-.188-.121-.34-.121a.501.501 0 0 0-.322.1.304.304 0 0 0-.126.25h-.576a.64.64 0 0 1 .14-.396.928.928 0 0 1 .38-.29c.161-.07.34-.105.538-.105.3 0 .54.076.718.228.179.151.27.364.275.64v1.162c0 .232.033.418.098.556v.04h-.588zm-.632-.418c.113 0 .22-.028.32-.083.1-.056.177-.13.227-.224v-.487h-.31c-.214 0-.374.038-.482.112a.364.364 0 0 0-.161.317c0 .112.037.2.109.267a.435.435 0 0 0 .297.098zm4.417-2.162v2.58h-.576v-2.113h-.726l-.047.899c-.03.432-.113.743-.249.932-.135.187-.341.281-.619.281h-.178l-.002-.481.118-.012c.127-.018.218-.095.275-.231.059-.139.096-.39.112-.753l.047-1.102h1.845zm2.853 2.117c.159-.18.266-.35.32-.51.055-.162.088-.369.1-.62l.032-.987h1.781v2.117h.356v1.23h-.574v-.768h-1.646v.768h-.583l.003-1.23h.211zm.675 0h.984v-1.619h-.647l-.016.494c-.023.473-.129.848-.321 1.125zm5.016-2.117v2.58h-.577v-2.113h-.725l-.048.899c-.03.432-.113.743-.249.932-.134.187-.34.281-.619.281h-.178l-.002-.481.119-.012c.126-.018.218-.095.275-.231.058-.139.096-.39.111-.753l.048-1.102h1.845zm3.177 0v2.58h-.574v-.947h-.538l-.548.946h-.597l.604-1.041a.811.811 0 0 1-.365-.286.742.742 0 0 1-.126-.427.73.73 0 0 1 .276-.589c.185-.154.433-.232.746-.236h1.122zm-1.567.84c0 .107.039.196.118.264.081.067.183.1.308.1h.567v-.744h-.531a.502.502 0 0 0-.337.108.343.343 0 0 0-.125.271zm6.037-.84h.573v2.58h-.573v-1.722l-1.006 1.721h-.573v-2.579h.573v1.721l1.006-1.72zm3.87 2.58h-.577v-1.042h-.998v1.041h-.576v-2.579h.576v1.075h.998v-1.075h.577v2.58zm1.168 0v-2.58h1.042c.35 0 .618.062.801.186a.598.598 0 0 1 .275.53c0 .119-.037.226-.112.321a.68.68 0 0 1-.324.217c.167.035.3.106.398.212a.537.537 0 0 1 .147.377c0 .24-.088.422-.265.548-.176.125-.429.188-.759.188h-1.203zm.577-1.1v.642h.63c.296 0 .444-.107.444-.32 0-.214-.15-.322-.451-.322h-.623zm0-.414h.474c.327 0 .491-.097.491-.291 0-.204-.155-.308-.465-.315h-.5v.606zm4.192 1.513a.912.912 0 0 1-.066-.24.897.897 0 0 1-.674.288c-.258 0-.467-.074-.63-.222a.711.711 0 0 1-.245-.548c0-.275.102-.485.304-.632.204-.147.495-.221.872-.221h.354v-.17a.446.446 0 0 0-.112-.319c-.074-.08-.187-.121-.339-.121a.5.5 0 0 0-.322.1.303.303 0 0 0-.126.25h-.576c0-.141.047-.273.14-.396a.93.93 0 0 1 .379-.29c.162-.07.341-.105.538-.105.301 0 .54.076.719.228.179.151.27.364.275.64v1.162c0 .232.032.418.097.556v.04h-.588zm-.633-.417c.114 0 .22-.028.32-.083a.559.559 0 0 0 .228-.224v-.487h-.311c-.213 0-.374.038-.481.112a.363.363 0 0 0-.162.317c0 .112.037.2.109.267a.437.437 0 0 0 .297.098zm4.418-2.162v2.58h-.577v-2.113h-.725l-.048.899c-.03.432-.113.743-.249.932-.134.187-.34.281-.618.281h-.179l-.002-.481.119-.012c.126-.018.218-.095.275-.231.058-.139.096-.39.111-.753l.048-1.102h1.845zm2.724 0h.574v2.58h-.574v-1.722l-1.005 1.721h-.574v-2.579h.574v1.721l1.005-1.72zm1.708 2.117c.159-.18.266-.35.32-.51.055-.162.088-.369.099-.62l.033-.987h1.781v2.117h.355v1.23h-.573v-.768h-1.646v.768h-.583l.003-1.23h.211zm.675 0h.984v-1.619h-.647l-.017.494c-.022.473-.128.848-.32 1.125zm2.727-.851c0-.253.05-.48.15-.682.099-.203.239-.359.419-.467.181-.11.387-.164.621-.164.347 0 .627.112.842.336.217.224.334.52.351.891l.003.136c0 .254-.05.481-.148.682-.096.2-.235.355-.417.464a1.18 1.18 0 0 1-.626.165c-.362 0-.652-.12-.87-.362-.216-.243-.325-.567-.325-.97v-.03zm.576.05c0 .265.055.473.164.624.109.15.261.224.455.224a.521.521 0 0 0 .453-.228c.109-.153.163-.376.163-.67 0-.26-.056-.467-.168-.62a.528.528 0 0 0-.453-.229.528.528 0 0 0-.448.227c-.111.15-.166.373-.166.672zm2.85 1.263v-2.579h1.041c.352 0 .619.062.802.186a.598.598 0 0 1 .275.53c0 .119-.037.226-.111.321a.688.688 0 0 1-.325.217c.168.035.3.106.398.212a.537.537 0 0 1 .147.377c0 .24-.088.422-.265.548-.176.125-.429.188-.759.188h-1.203zm.577-1.099v.642h.63c.296 0 .444-.107.444-.32 0-.214-.15-.322-.451-.322h-.623zm0-.414h.474c.327 0 .491-.097.491-.291 0-.204-.155-.308-.465-.315h-.5v.606zM1.356 9.787h5.852c1.153 0 2.083.157 2.79.472a4.54 4.54 0 0 1 1.765 1.354c.464.589.8 1.273 1.009 2.054.209.78.313 1.608.313 2.482 0 1.37-.157 2.433-.47 3.19a5.28 5.28 0 0 1-1.286 1.896c-.55.507-1.142.845-1.774 1.014-.864.233-1.646.35-2.347.35H1.356V9.787zm3.939 2.901v7h.965c.823 0 1.408-.09 1.756-.27.348-.187.62-.507.817-.962.198-.46.296-1.203.296-2.228 0-1.358-.22-2.287-.66-2.788-.441-.501-1.172-.752-2.192-.752h-.982zm12.434-2.901h3.539v2.42h-3.539v-2.42zm0 3.53h3.539V22.6h-3.539v-9.281zm7.844 6.712l3.513-.332c.145.42.348.72.608.9.261.181.609.271 1.044.271.475 0 .843-.102 1.104-.305.203-.152.304-.341.304-.569 0-.256-.133-.454-.4-.594-.191-.099-.698-.221-1.521-.367-1.23-.216-2.084-.414-2.565-.594a2.767 2.767 0 0 1-1.209-.935 2.44 2.44 0 0 1-.486-1.495c0-.611.176-1.139.53-1.582.354-.442.84-.771 1.46-.987.62-.221 1.453-.332 2.496-.332 1.101 0 1.913.084 2.434.253.528.17.965.431 1.313.787.354.355.646.836.878 1.442l-3.356.332c-.087-.297-.232-.516-.435-.655-.278-.187-.614-.28-1.008-.28-.4 0-.693.073-.878.218a.632.632 0 0 0-.27.516c0 .227.116.399.348.515.232.117.736.222 1.513.315 1.176.134 2.052.32 2.625.56.574.238 1.012.58 1.313 1.022.308.443.461.93.461 1.46 0 .535-.162 1.057-.487 1.564-.319.507-.826.912-1.521 1.215-.69.297-1.632.445-2.826.445-1.687 0-2.89-.241-3.608-.725-.713-.484-1.17-1.171-1.374-2.063zm17.408-3.705l-3.382-.358c.127-.595.31-1.06.548-1.399.243-.344.59-.64 1.043-.891.324-.18.77-.32 1.339-.42.568-.099 1.182-.148 1.843-.148 1.06 0 1.913.061 2.556.183.643.117 1.18.364 1.608.743.302.262.54.635.713 1.119.174.478.261.935.261 1.372v4.099c0 .437.026.78.079 1.031.057.245.18.56.365.944h-3.322a3.544 3.544 0 0 1-.26-.542 4.24 4.24 0 0 1-.122-.594c-.464.448-.925.769-1.383.961-.625.256-1.353.384-2.182.384-1.101 0-1.939-.256-2.512-.768-.568-.513-.852-1.145-.852-1.897 0-.705.205-1.285.617-1.74.411-.453 1.17-.791 2.278-1.013 1.327-.268 2.188-.454 2.582-.56.394-.11.811-.253 1.252-.427 0-.437-.09-.743-.27-.918-.18-.175-.495-.262-.947-.262-.58 0-1.015.093-1.304.28-.227.145-.41.419-.548.82zm3.069 1.87c-.487.175-.994.33-1.522.463-.718.193-1.173.382-1.365.568-.197.193-.295.411-.295.656 0 .28.096.51.287.69.197.175.484.262.86.262.395 0 .76-.096 1.096-.288.342-.192.583-.425.722-.7.144-.279.217-.64.217-1.083v-.568zm8.27-8.407h3.573v4.44a3.507 3.507 0 0 1 1.2-.84c.452-.186.95-.28 1.495-.28 1.125 0 2.055.409 2.791 1.224.736.81 1.104 1.976 1.104 3.496 0 1.014-.168 1.908-.504 2.683-.336.77-.802 1.346-1.4 1.73a3.583 3.583 0 0 1-1.974.569c-.62 0-1.188-.134-1.703-.402-.388-.21-.812-.604-1.27-1.18v1.372H54.32V9.787zm3.547 8.145c0 .798.148 1.378.444 1.74a1.43 1.43 0 0 0 1.138.532c.424 0 .777-.175 1.061-.524.29-.356.435-.95.435-1.783 0-.734-.142-1.273-.426-1.617-.278-.344-.618-.515-1.017-.515-.482 0-.876.18-1.183.541-.301.356-.452.898-.452 1.626zM68.98 9.787h3.539v2.42H68.98v-2.42zm0 3.53h3.539V22.6H68.98v-9.281zm8.592-3.53h3.547v12.812h-3.547V9.787zm8.608 0h3.539v2.42h-3.538v-2.42zm0 3.53h3.539V22.6h-3.538v-9.281zm12.74-3.53v3.53h1.947v2.596h-1.948v3.295c0 .396.038.658.114.787.115.198.318.297.608.297.26 0 .626-.076 1.095-.228l.262 2.456c-.876.192-1.693.288-2.452.288-.881 0-1.53-.113-1.948-.34a2.099 2.099 0 0 1-.93-1.032c-.197-.466-.296-1.217-.296-2.254v-3.269h-1.304v-2.595h1.304v-1.705l3.547-1.826zm5.287 3.53h3.739l1.904 6.18 1.765-6.18h3.486l-3.66 9.92c-.418 1.13-.843 1.893-1.278 2.29-.615.559-1.55.838-2.808.838-.511 0-1.299-.07-2.365-.21l-.279-2.481c.51.163 1.078.244 1.704.244.418 0 .754-.096 1.009-.288.261-.192.481-.536.661-1.031l-3.878-9.281zm12.632 5.716h3.782V22.6h-3.782v-3.566zm8.626-5.715h3.313v1.52c.319-.658.646-1.11.982-1.354.342-.25.763-.376 1.261-.376.522 0 1.093.163 1.713.49l-1.095 2.534c-.418-.175-.748-.263-.992-.263-.463 0-.822.193-1.078.577-.365.542-.547 1.556-.547 3.042v3.11h-3.557v-9.28zm20.277 9.28h-3.303v-1.502c-.493.617-.992 1.057-1.496 1.32-.498.261-1.113.392-1.843.392-.974 0-1.739-.29-2.296-.873-.55-.589-.825-1.492-.825-2.71v-5.907h3.556v5.103c0 .583.107.997.321 1.241.215.245.516.367.905.367.423 0 .767-.163 1.034-.489.272-.326.409-.912.409-1.757v-4.465h3.538v9.28z" fill="#DADADA"/><path d="M4.577 1.492c-.294.625-.63 1.42-1.01 2.387-.38.96-.627 1.657-.743 2.091-.074.26-.129.417-.164.469-.028.046-.063.07-.103.07-.127 0-.282-.062-.466-.183-.185-.122-.274-.246-.268-.373 0-.162.19-.738.57-1.727.38-.995.74-1.89 1.079-2.682-.484.047-.74.07-.768.07h-.078a.314.314 0 0 1-.276-.14c-.064-.092-.095-.257-.095-.494 0-.11.095-.196.285-.26.19-.07.641-.136 1.355-.2l.432-.026c.213-.011.382-.026.509-.043a7.24 7.24 0 0 1 .173-.009.076.076 0 0 0 .034-.008.86.86 0 0 1 .57.217c.161.138.242.292.242.46a.28.28 0 0 1-.087.199c-.051.04-.164.06-.336.06A5.418 5.418 0 0 0 5 1.406c-.138.018-.28.047-.423.087zm1.262 2.552c.04-.145.08-.272.12-.382.041-.116.122-.321.243-.616.178-.457.293-.718.345-.781.057-.064.118-.096.181-.096.006 0 .009.003.009.009l.337.13a.67.67 0 0 1 .207.121c.029.03.043.061.043.096 0 .006-.058.136-.173.39-.11.255-.236.6-.38 1.033.075-.017.153-.032.234-.043.08-.012.17-.018.267-.018.26 0 .486.107.682.321.202.209.305.426.311.651 0 .359-.233.723-.7 1.094-.46.37-.932.555-1.415.555a.948.948 0 0 1-.613-.208c-.173-.145-.26-.301-.26-.469 0-.08.024-.21.07-.39.046-.185.09-.33.13-.434a.297.297 0 0 1-.087.043c-.017.006-.072-.107-.164-.338a.546.546 0 0 1-.06-.235.21.21 0 0 1 .077-.13.567.567 0 0 1 .087-.07c.04-.022.21-.1.51-.233zm.673.737c-.19.48-.287.732-.293.755v.061c-.006.052.006.09.034.113.03.023.072.034.13.034.173 0 .374-.092.604-.277.236-.185.357-.362.363-.53 0-.063-.032-.118-.095-.164a.38.38 0 0 0-.242-.087 1.06 1.06 0 0 0-.224.034c-.098.018-.19.038-.277.061zm2.46 1.9c-.04 0-.094-.028-.163-.086a.754.754 0 0 0-.164-.113l-.268-.139c-.132-.063-.175-.225-.13-.486.047-.26.286-.902.717-1.926.265-.63.475-1.08.63-1.345.162-.272.291-.411.389-.417.023 0 .043.006.06.018.023.005.098.09.225.251l.12.165a.294.294 0 0 1 .053.165c0 .058-.098.283-.294.677-.184.37-.374.839-.57 1.406-.19.567-.337 1.087-.44 1.562a.835.835 0 0 1-.078.208c-.023.04-.052.06-.086.06zm9.503-2.75h-.052c-.403.497-.78 1.053-1.131 1.666-.345.607-.567.911-.665.911a.769.769 0 0 1-.345-.104c-.127-.075-.187-.176-.181-.304 0-.092.043-.356.13-.79.091-.433.14-.893.146-1.38a18.175 18.175 0 0 1-1.209 1.85c-.443.595-.74.896-.889.902-.063 0-.158-.061-.285-.183-.132-.121-.198-.22-.198-.295 0-.034.017-.083.051-.147.035-.07.08-.15.138-.243.213-.324.567-.787 1.062-1.389.495-.607.962-1.287 1.399-2.039.052-.087.092-.145.12-.173a.132.132 0 0 1 .096-.044c.155 0 .308.072.457.217.156.139.236.284.242.434 0 .035-.003.075-.009.121l-.155 1.389c.46-.74.82-1.284 1.08-1.631.258-.348.445-.524.56-.53h.018l.354.252c.126.098.198.168.215.208a.27.27 0 0 1 .026.122c0 .075-.011.193-.034.355-.018.157-.055.431-.113.825-.086.584-.15 1.093-.19 1.527-.034.434-.063.764-.086.99-.011.092-.034.153-.069.182a.139.139 0 0 1-.112.052.54.54 0 0 1-.225-.078 1.408 1.408 0 0 0-.31-.105c-.11-.023-.179-.054-.208-.095a.263.263 0 0 1-.043-.156c0-.162.035-.451.104-.868.069-.417.172-.9.31-1.45zm4.791-1.111c.282.075.48.185.596.33.12.139.181.353.181.642-.006.584-.253 1.183-.742 1.796-.49.614-1.002.92-1.537.92-.31 0-.573-.136-.786-.408-.213-.272-.32-.613-.32-1.024 0-.428.142-.876.424-1.345.282-.474.688-.894 1.217-1.258.138-.093.256-.165.354-.217a.505.505 0 0 1 .233-.087c.07 0 .135.055.199.165.063.11.123.272.181.486zm-.276.252c-.403.156-.743.468-1.019.937-.276.468-.414.923-.414 1.362 0 .133.026.237.077.313.052.07.124.101.216.095.248 0 .532-.263.855-.79.322-.532.483-.983.483-1.353a.997.997 0 0 0-.06-.321.736.736 0 0 0-.138-.243zm5.332 1.432h-.095l-.173.407-.328 1.337a.499.499 0 0 1-.095.208c-.034.035-.083.052-.146.052a.386.386 0 0 1-.104-.017 9.436 9.436 0 0 1-.276-.104c-.139-.047-.225-.099-.26-.157-.034-.057-.051-.164-.051-.32 0-.087.043-.247.13-.478.091-.237.235-.547.431-.928h-.086c-.587.711-1.056 1.238-1.407 1.579-.346.341-.573.512-.683.512-.04 0-.1-.04-.18-.122a8.248 8.248 0 0 0-.165-.173 1.434 1.434 0 0 1-.224-.208.188.188 0 0 1-.052-.122c0-.017.014-.037.043-.06.029-.03.09-.085.181-.166.403-.312.771-.627 1.105-.945.34-.319.605-.602.795-.85a5.61 5.61 0 0 1-.518-.747c-.162-.284-.242-.489-.242-.616 0-.04.011-.076.034-.104.024-.035.072-.067.147-.096l.302-.121c.144-.058.222-.081.233-.07a.763.763 0 0 1 .147.19c.04.065.084.137.13.218.155.3.282.52.38.66.103.133.221.257.353.373.052-.128.104-.252.156-.373.052-.128.147-.368.285-.72a.974.974 0 0 1 .146-.296.248.248 0 0 1 .182-.078c.11.006.23.055.362.148.133.092.202.179.208.26a1.696 1.696 0 0 1-.095.364c-.058.162-.17.434-.337.816h.052l.647-.408c.265-.167.533-.396.803-.685.27-.295.415-.443.432-.443.052.006.126.093.224.26.104.168.156.296.156.382 0 .162-.179.397-.536.703a7.783 7.783 0 0 1-1.2.842c.22.59.412 1.047.579 1.371.167.318.253.469.259.451 0 .053-.032.105-.095.157a.905.905 0 0 1-.26.121c-.345.116-.508.174-.491.174h.034c-.115-.006-.239-.171-.37-.495-.128-.324-.283-.885-.467-1.683zm4.253.043c-.064.15-.113.283-.147.4a1.256 1.256 0 0 0-.043.294c0 .162.034.28.103.356.075.075.182.113.32.113.12 0 .262-.018.423-.052.161-.04.302-.087.423-.14.115-.051.219-.103.31-.155a.634.634 0 0 1 .182-.078c.017 0 .032.011.043.034a.116.116 0 0 1 .026.07c0 .202-.017.353-.052.45-.028.094-.112.18-.25.261a2.852 2.852 0 0 1-.708.321 2.272 2.272 0 0 1-.613.087c-.345 0-.619-.104-.82-.312-.201-.209-.3-.486-.294-.833 0-.73.297-1.44.89-2.135.592-.7 1.14-1.053 1.64-1.059.247.006.475.107.682.304.207.197.31.437.31.72 0 .417-.22.83-.664 1.241-.438.405-.8.605-1.088.599a.62.62 0 0 1-.362-.13 1.107 1.107 0 0 1-.311-.356zm.164-.365c.328.012.636-.09.924-.303.293-.22.443-.452.448-.695a.268.268 0 0 0-.06-.182.172.172 0 0 0-.147-.07c-.178 0-.385.128-.621.383-.23.248-.412.538-.544.867zm4.901.929c.178-.775.374-1.458.587-2.048.219-.59.4-.888.544-.894.011 0 .023.003.035.009.017.006.126.084.328.234.126.104.195.174.207.208.017.03.029.061.034.096a.816.816 0 0 1-.026.095c-.005.035-.069.185-.19.452-.109.237-.247.604-.414 1.102-.161.497-.242.81-.242.937 0 .058.01.098.026.121.018.024.05.035.095.035.075 0 .182-.043.32-.13.138-.093.296-.226.474-.4.288-.925.533-1.616.734-2.073.202-.457.351-.686.45-.686.08.006.195.093.345.26.155.162.233.296.233.4 0 .133-.104.422-.311.867-.202.44-.377.9-.527 1.38-.31.99-.48 1.504-.51 1.545-.028.04-.057.06-.085.06-.081 0-.202-.057-.363-.173-.161-.121-.239-.214-.233-.278 0-.04.006-.095.017-.164.017-.076.035-.133.052-.174-.23.197-.438.35-.622.46-.184.104-.336.156-.457.156-.11 0-.216-.055-.32-.165a1.196 1.196 0 0 1-.25-.46c-.236.22-.44.38-.613.478-.173.098-.316.147-.432.147-.184 0-.342-.116-.474-.347a1.51 1.51 0 0 1-.199-.764c0-.202.043-.471.13-.807.086-.341.227-.775.423-1.301.155-.423.279-.712.37-.868.093-.162.173-.246.242-.252a.14.14 0 0 1 .035.009c.017.006.12.072.31.2.122.086.197.15.225.19.03.04.044.081.044.122 0 .023-.006.049-.018.078-.006.023-.138.333-.397.928-.161.36-.285.666-.371.92-.08.255-.121.446-.121.573a.36.36 0 0 0 .043.191c.029.046.072.07.13.07.074.005.184-.027.328-.096.15-.075.288-.156.414-.243zm4.823-1.067c.04-.145.08-.272.121-.382.04-.116.12-.321.242-.616.178-.457.293-.718.345-.781.058-.064.118-.096.181-.096.006 0 .009.003.009.009l.337.13a.668.668 0 0 1 .207.121c.029.03.043.061.043.096 0 .006-.057.136-.173.39-.109.255-.236.6-.38 1.033a2.78 2.78 0 0 1 .234-.043c.08-.012.17-.018.267-.018.26 0 .487.107.682.321.202.209.305.426.311.651 0 .359-.233.723-.7 1.094-.46.37-.931.555-1.415.555a.948.948 0 0 1-.613-.208c-.173-.145-.259-.301-.259-.469 0-.08.023-.21.07-.39.045-.185.088-.33.129-.434a.297.297 0 0 1-.087.043c-.017.006-.072-.107-.164-.338a.547.547 0 0 1-.06-.235.21.21 0 0 1 .078-.13.568.568 0 0 1 .086-.07c.04-.022.21-.1.51-.233zm.674.737c-.19.48-.288.732-.294.755v.061c-.006.052.006.09.035.113.028.023.072.034.13.034.172 0 .373-.092.603-.277.236-.185.357-.362.363-.53 0-.063-.032-.118-.095-.164a.38.38 0 0 0-.242-.087c-.051 0-.126.011-.224.034a3.28 3.28 0 0 0-.276.061zm8.954-.555c.092.127.167.272.224.434.064.162.095.312.095.451 0 .336-.164.654-.492.955-.322.295-.682.442-1.079.442-.391 0-.72-.118-.984-.356a1.143 1.143 0 0 1-.388-.91c-.006-.631.256-1.3.785-2.005.535-.706 1.137-1.062 1.804-1.068.248 0 .467.075.657.226a.67.67 0 0 1 .293.564c-.006.243-.09.48-.25.711-.156.226-.377.411-.665.556zm-1.114-.512c.317-.023.585-.122.803-.295.219-.18.328-.35.328-.512 0-.035-.011-.061-.034-.078-.023-.023-.058-.035-.104-.035-.15 0-.322.093-.518.278-.195.185-.354.399-.475.642zm-.259.451a3.77 3.77 0 0 0-.267.564 1.452 1.452 0 0 0-.087.443.484.484 0 0 0 .121.364.474.474 0 0 0 .371.13.556.556 0 0 0 .45-.19.705.705 0 0 0 .198-.46.674.674 0 0 0-.043-.243.64.64 0 0 0-.13-.217.887.887 0 0 1-.138.052.752.752 0 0 1-.112.017.166.166 0 0 1-.086-.026 5.28 5.28 0 0 1-.277-.434zm4.118 1.007c0 .139.037.251.112.338a.39.39 0 0 0 .302.122c.098 0 .204-.015.32-.044.115-.034.22-.08.32-.139a7.04 7.04 0 0 1 .474-.26l.009-.009a.09.09 0 0 1 .086.052c.023.035.034.09.034.165 0 .243-.066.434-.198.573-.133.133-.345.258-.639.373-.15.064-.28.107-.389.13a1.256 1.256 0 0 1-.267.035 1.07 1.07 0 0 1-.812-.347c-.213-.231-.32-.558-.32-.98-.005-.637.265-1.296.813-1.98.546-.682 1.116-1.026 1.709-1.032.247 0 .443.07.587.208.15.14.224.339.224.6 0 .196-.072.37-.215.52a.668.668 0 0 1-.484.217c-.075 0-.133-.02-.173-.06-.04-.047-.06-.117-.06-.21 0-.022.003-.063.009-.12.005-.059.008-.102.008-.13a.226.226 0 0 0-.043-.148c-.03-.04-.064-.061-.104-.061-.16 0-.42.254-.777.764-.35.503-.526.977-.526 1.423zm4.236-.625c-.063.15-.112.283-.147.4a1.266 1.266 0 0 0-.043.294c0 .162.035.28.104.356.075.075.181.113.32.113.12 0 .261-.018.422-.052.161-.04.302-.087.423-.14.116-.051.22-.103.311-.155a.645.645 0 0 1 .181-.078c.017 0 .032.011.043.034a.116.116 0 0 1 .026.07c0 .202-.017.353-.052.45-.028.094-.112.18-.25.261a2.847 2.847 0 0 1-.708.321 2.268 2.268 0 0 1-.613.087c-.345 0-.618-.104-.82-.312-.201-.209-.299-.486-.293-.833 0-.73.296-1.44.889-2.135.593-.7 1.14-1.053 1.64-1.059.248.006.475.107.682.304.207.197.31.437.31.72 0 .417-.22.83-.664 1.241-.437.405-.8.605-1.088.599a.62.62 0 0 1-.362-.13 1.109 1.109 0 0 1-.311-.356zm.164-.365c.328.012.636-.09.924-.303.293-.22.443-.452.449-.695a.267.267 0 0 0-.06-.182.172.172 0 0 0-.148-.07c-.178 0-.385.128-.621.383-.23.248-.411.538-.544.867zm.872-4.104c.086.006.202.08.345.225.15.145.225.27.225.374 0 .121-.075.297-.225.529-.143.231-.259.347-.345.347-.086 0-.199-.07-.337-.208-.138-.14-.207-.27-.207-.39-.005-.122.058-.299.19-.53.138-.232.256-.347.354-.347zm1.485 0c.092.006.207.08.345.225.138.14.21.264.216.374 0 .121-.074.297-.224.529-.144.231-.26.347-.346.347-.086 0-.198-.07-.336-.208-.139-.14-.208-.27-.208-.39 0-.14.07-.319.208-.539.144-.225.259-.338.345-.338zm4.61 1.128c0 .04-.012.087-.035.139-.017.052-.05.121-.095.208-.276.52-.524 1.015-.742 1.484a27.48 27.48 0 0 0-.7 1.718.38.38 0 0 1-.095.156.197.197 0 0 1-.112.035c-.075.006-.187-.072-.337-.234-.15-.168-.224-.29-.224-.365 0-.063.034-.193.104-.39.069-.203.293-.77.673-1.701.403-.99.63-1.516.682-1.58.058-.069.12-.106.19-.112.08 0 .216.09.406.269.19.18.284.303.284.373zm-1.9 4.755a.293.293 0 0 1-.017.087 1.083 1.083 0 0 1-.06.165c-.058.139-.102.249-.13.33a.822.822 0 0 0-.035.225c-.006.081-.02.13-.043.148-.017.017-.046.026-.086.026-.173 0-.357-.07-.553-.208-.19-.14-.285-.295-.285-.469 0-.15.05-.327.147-.53.098-.202.208-.303.328-.303.11 0 .26.06.45.182s.284.237.284.347z" fill="#0CC9FF"/></svg>